<svg width="44" height="32" viewBox="0 0 44 32" fill="none" xmlns="http://www.w3.org/2000/svg">
<g clip-path="url(#clip0_261_44893)">
<path d="M26.4964 4.42383H17.4023V20.783H26.4964V4.42383Z" fill="#FF5F00"/>
<path d="M17.9792 12.6031C17.9777 11.0276 18.3344 9.47246 19.0221 8.05533C19.7098 6.63821 20.7107 5.39629 21.9488 4.42358C20.4155 3.2172 18.5742 2.46697 16.6352 2.25864C14.6962 2.05031 12.7377 2.39228 10.9837 3.24547C9.22962 4.09867 7.75076 5.42866 6.71612 7.08343C5.68148 8.7382 5.13281 10.651 5.13281 12.6031C5.13281 14.5553 5.68148 16.4681 6.71612 18.1229C7.75076 19.7776 9.22962 21.1076 10.9837 21.9608C12.7377 22.814 14.6962 23.156 16.6352 22.9476C18.5742 22.7393 20.4155 21.9891 21.9488 20.7827C20.7107 19.81 19.7099 18.5681 19.0221 17.1509C18.3344 15.7338 17.9777 14.1786 17.9792 12.6031Z" fill="#EB001B"/>
<path d="M38.7646 12.6031C38.7647 14.5553 38.2161 16.468 37.1815 18.1228C36.1469 19.7776 34.6681 21.1076 32.9141 21.9608C31.1601 22.814 29.2017 23.156 27.2627 22.9476C25.3237 22.7393 23.4824 21.9891 21.9492 20.7827C23.1862 19.809 24.1863 18.5669 24.8739 17.15C25.5615 15.7331 25.9188 14.1784 25.9188 12.6031C25.9188 11.0279 25.5615 9.4732 24.8739 8.05629C24.1863 6.63939 23.1862 5.39727 21.9492 4.42358C23.4824 3.2172 25.3237 2.46696 27.2627 2.25864C29.2017 2.05031 31.1601 2.39229 32.9141 3.2455C34.6681 4.0987 36.1469 5.4287 37.1815 7.08347C38.2161 8.73824 38.7647 10.651 38.7646 12.6031Z" fill="#F79E1B"/>
<path d="M37.7712 19.0503V18.7154H37.9061V18.6471H37.5625V18.7154H37.6975V19.0503H37.7712ZM38.4382 19.0503V18.6465H38.3329L38.2118 18.9242L38.0906 18.6465H37.9852V19.0503H38.0596V18.7457L38.1732 19.0083H38.2503L38.3639 18.745V19.0503H38.4382Z" fill="#F79E1B"/>
<path d="M5.23615 29.5371V26.2644H5.97337V26.8205H6.01172C6.0799 26.633 6.19283 26.4867 6.3505 26.3816C6.50817 26.275 6.69638 26.2218 6.91513 26.2218C7.13672 26.2218 7.32351 26.2757 7.4755 26.3837C7.62891 26.4902 7.73686 26.6358 7.79936 26.8205H7.83345C7.9059 26.6387 8.02805 26.4938 8.19993 26.3858C8.37322 26.2765 8.57848 26.2218 8.8157 26.2218C9.11683 26.2218 9.36257 26.3169 9.55291 26.5073C9.74325 26.6976 9.83842 26.9753 9.83842 27.3404V29.5371H9.06499V27.4597C9.06499 27.2566 9.01101 27.1081 8.90305 27.0144C8.7951 26.9192 8.663 26.8716 8.50675 26.8716C8.32067 26.8716 8.17507 26.9299 8.06996 27.0463C7.96626 27.1614 7.91442 27.3113 7.91442 27.4959V29.5371H7.15803V27.4277C7.15803 27.2587 7.10689 27.1238 7.00462 27.0229C6.90376 26.9221 6.77166 26.8716 6.60831 26.8716C6.49751 26.8716 6.39666 26.9 6.30575 26.9569C6.21484 27.0123 6.1424 27.0911 6.08842 27.1934C6.03445 27.2942 6.00746 27.4121 6.00746 27.5471V29.5371H5.23615ZM11.5627 29.6032C11.3553 29.6032 11.1685 29.5662 11.0023 29.4924C10.8375 29.4171 10.7069 29.3063 10.6103 29.16C10.5151 29.0137 10.4675 28.8333 10.4675 28.6188C10.4675 28.4341 10.5016 28.2814 10.5698 28.1607C10.638 28.04 10.731 27.9434 10.8489 27.8709C10.9668 27.7985 11.0996 27.7438 11.2473 27.7069C11.3965 27.6685 11.5506 27.6408 11.7097 27.6238C11.9015 27.6039 12.057 27.5861 12.1763 27.5705C12.2956 27.5534 12.3823 27.5279 12.4363 27.4938C12.4917 27.4583 12.5194 27.4036 12.5194 27.3297V27.3169C12.5194 27.1564 12.4718 27.0321 12.3766 26.9441C12.2814 26.856 12.1444 26.812 11.9654 26.812C11.7765 26.812 11.6266 26.8532 11.5158 26.9355C11.4064 27.0179 11.3326 27.1152 11.2942 27.2275L10.574 27.1252C10.6309 26.9263 10.7246 26.7601 10.8553 26.6266C10.986 26.4917 11.1458 26.3908 11.3347 26.324C11.5236 26.2559 11.7324 26.2218 11.9611 26.2218C12.1188 26.2218 12.2757 26.2402 12.432 26.2772C12.5882 26.3141 12.731 26.3752 12.8603 26.4604C12.9895 26.5442 13.0932 26.6586 13.1713 26.8034C13.2509 26.9483 13.2907 27.1294 13.2907 27.3468V29.5371H12.5492V29.0875H12.5236C12.4767 29.1784 12.4107 29.2637 12.3255 29.3432C12.2417 29.4213 12.1358 29.4846 12.008 29.5328C11.8816 29.5797 11.7331 29.6032 11.5627 29.6032ZM11.763 29.0364C11.9178 29.0364 12.052 29.0059 12.1657 28.9448C12.2793 28.8823 12.3667 28.7999 12.4277 28.6976C12.4902 28.5953 12.5215 28.4838 12.5215 28.3631V27.9775C12.4973 27.9973 12.4561 28.0158 12.3979 28.0328C12.3411 28.0499 12.2772 28.0648 12.2061 28.0776C12.1351 28.0904 12.0648 28.1017 11.9952 28.1117C11.9256 28.1216 11.8652 28.1301 11.8141 28.1373C11.699 28.1529 11.5961 28.1784 11.5051 28.214C11.4142 28.2495 11.3425 28.2992 11.29 28.3631C11.2374 28.4256 11.2111 28.5066 11.2111 28.606C11.2111 28.748 11.263 28.8553 11.3667 28.9277C11.4703 29.0002 11.6025 29.0364 11.763 29.0364ZM16.6529 27.1294L15.9498 27.2061C15.9299 27.1351 15.8951 27.0684 15.8453 27.0059C15.7971 26.9434 15.7317 26.8929 15.6493 26.8546C15.5669 26.8162 15.4661 26.7971 15.3468 26.7971C15.1863 26.7971 15.0513 26.8319 14.9419 26.9015C14.834 26.9711 14.7807 27.0613 14.7821 27.1721C14.7807 27.2672 14.8155 27.3446 14.8865 27.4043C14.959 27.464 15.0783 27.513 15.2445 27.5513L15.8027 27.6706C16.1124 27.7374 16.3425 27.8432 16.4931 27.9881C16.6451 28.133 16.7218 28.3226 16.7232 28.557C16.7218 28.763 16.6614 28.9448 16.5421 29.1025C16.4242 29.2587 16.2601 29.3809 16.0499 29.4689C15.8397 29.557 15.5982 29.601 15.3255 29.601C14.9249 29.601 14.6025 29.5172 14.3581 29.3496C14.1138 29.1806 13.9682 28.9455 13.9213 28.6444L14.6735 28.5719C14.7076 28.7196 14.78 28.8311 14.8908 28.9064C15.0016 28.9817 15.1458 29.0194 15.3233 29.0194C15.5066 29.0194 15.6536 28.9817 15.7644 28.9064C15.8766 28.8311 15.9327 28.7381 15.9327 28.6273C15.9327 28.5336 15.8965 28.4561 15.824 28.3951C15.753 28.334 15.6422 28.2871 15.4917 28.2544L14.9334 28.1373C14.6195 28.0719 14.3873 27.9618 14.2367 27.807C14.0861 27.6507 14.0115 27.4533 14.013 27.2147C14.0115 27.013 14.0662 26.8382 14.177 26.6905C14.2892 26.5414 14.4448 26.4263 14.6436 26.3453C14.8439 26.263 15.0748 26.2218 15.3361 26.2218C15.7196 26.2218 16.0215 26.3034 16.2417 26.4668C16.4632 26.6301 16.6003 26.851 16.6529 27.1294ZM18.9934 26.2644V26.861H17.112V26.2644H18.9934ZM17.5765 25.4803H18.3478V28.5527C18.3478 28.6564 18.3635 28.736 18.3947 28.7914C18.4274 28.8453 18.47 28.8823 18.5225 28.9022C18.5751 28.9221 18.6333 28.932 18.6973 28.932C18.7456 28.932 18.7896 28.9284 18.8294 28.9213C18.8706 28.9142 18.9018 28.9078 18.9231 28.9022L19.0531 29.5051C19.0119 29.5194 18.9529 29.535 18.8762 29.552C18.801 29.5691 18.7086 29.579 18.5993 29.5819C18.4061 29.5875 18.2321 29.5584 18.0772 29.4945C17.9224 29.4292 17.7995 29.3283 17.7086 29.1919C17.6191 29.0556 17.5751 28.8851 17.5765 28.6806V25.4803ZM21.0522 29.601C20.7241 29.601 20.4407 29.5328 20.2021 29.3965C19.9648 29.2587 19.7823 29.0641 19.6545 28.8127C19.5266 28.5598 19.4627 28.2623 19.4627 27.9199C19.4627 27.5833 19.5266 27.2878 19.6545 27.0336C19.7837 26.7779 19.9641 26.579 20.1957 26.437C20.4272 26.2935 20.6992 26.2218 21.0117 26.2218C21.2134 26.2218 21.4038 26.2544 21.5827 26.3198C21.7631 26.3837 21.9222 26.4831 22.06 26.6181C22.1992 26.753 22.3086 26.9249 22.3881 27.1337C22.4677 27.3411 22.5075 27.5882 22.5075 27.8752V28.1117H19.8249V27.5918H21.7681C21.7667 27.4441 21.7347 27.3127 21.6722 27.1976C21.6097 27.0811 21.5224 26.9895 21.4102 26.9228C21.2994 26.856 21.1701 26.8226 21.0224 26.8226C20.8647 26.8226 20.7262 26.861 20.6069 26.9377C20.4876 27.013 20.3945 27.1124 20.3278 27.236C20.2624 27.3581 20.229 27.4924 20.2276 27.6387V28.0925C20.2276 28.2828 20.2624 28.4462 20.332 28.5826C20.4016 28.7175 20.4989 28.8212 20.6239 28.8936C20.7489 28.9647 20.8952 29.0002 21.0629 29.0002C21.1751 29.0002 21.2766 28.9846 21.3675 28.9533C21.4585 28.9206 21.5373 28.873 21.604 28.8105C21.6708 28.748 21.7212 28.6706 21.7553 28.5783L22.4755 28.6593C22.43 28.8496 22.3434 29.0158 22.2156 29.1578C22.0891 29.2985 21.9272 29.4078 21.7298 29.486C21.5323 29.5627 21.3065 29.601 21.0522 29.601ZM23.16 29.5371V26.2644H23.9078V26.8098H23.9419C24.0016 26.6209 24.1039 26.4753 24.2488 26.373C24.3951 26.2694 24.562 26.2175 24.7495 26.2175C24.7921 26.2175 24.8397 26.2196 24.8922 26.2239C24.9462 26.2267 24.9909 26.2317 25.0265 26.2388V26.9483C24.9938 26.937 24.9419 26.927 24.8709 26.9185C24.8013 26.9086 24.7338 26.9036 24.6685 26.9036C24.5279 26.9036 24.4015 26.9341 24.2892 26.9952C24.1784 27.0549 24.0911 27.138 24.0272 27.2445C23.9632 27.351 23.9313 27.4739 23.9313 27.6131V29.5371H23.16ZM28.4547 29.601C28.128 29.601 27.8475 29.5293 27.6131 29.3858C27.3801 29.2424 27.2005 29.0442 27.074 28.7914C26.949 28.5371 26.8865 28.2445 26.8865 27.9135C26.8865 27.5811 26.9505 27.2878 27.0783 27.0336C27.2061 26.7779 27.3865 26.579 27.6195 26.437C27.8539 26.2935 28.1309 26.2218 28.4505 26.2218C28.7161 26.2218 28.9512 26.2708 29.1557 26.3688C29.3617 26.4654 29.5257 26.6025 29.6479 26.78C29.7701 26.9561 29.8397 27.1621 29.8567 27.3979H29.1195C29.0897 27.2402 29.0186 27.1088 28.9064 27.0037C28.7956 26.8972 28.6472 26.8439 28.4611 26.8439C28.3034 26.8439 28.165 26.8865 28.0456 26.9718C27.9263 27.0556 27.8333 27.1763 27.7665 27.334C27.7012 27.4917 27.6685 27.6806 27.6685 27.9007C27.6685 28.1238 27.7012 28.3155 27.7665 28.476C27.8319 28.6351 27.9235 28.758 28.0414 28.8446C28.1607 28.9299 28.3006 28.9725 28.4611 28.9725C28.5748 28.9725 28.6763 28.9512 28.7658 28.9086C28.8567 28.8645 28.9327 28.8013 28.9938 28.7189C29.0549 28.6365 29.0968 28.5364 29.1195 28.4185H29.8567C29.8382 28.65 29.7701 28.8553 29.6522 29.0343C29.5343 29.2118 29.3738 29.351 29.1706 29.4519C28.9675 29.5513 28.7289 29.601 28.4547 29.601ZM31.4318 29.6032C31.2244 29.6032 31.0376 29.5662 30.8714 29.4924C30.7067 29.4171 30.576 29.3063 30.4794 29.16C30.3842 29.0137 30.3366 28.8333 30.3366 28.6188C30.3366 28.4341 30.3707 28.2814 30.4389 28.1607C30.5071 28.04 30.6001 27.9434 30.718 27.8709C30.8359 27.7985 30.9688 27.7438 31.1165 27.7069C31.2656 27.6685 31.4197 27.6408 31.5788 27.6238C31.7706 27.6039 31.9261 27.5861 32.0455 27.5705C32.1648 27.5534 32.2514 27.5279 32.3054 27.4938C32.3608 27.4583 32.3885 27.4036 32.3885 27.3297V27.3169C32.3885 27.1564 32.3409 27.0321 32.2457 26.9441C32.1506 26.856 32.0135 26.812 31.8345 26.812C31.6456 26.812 31.4957 26.8532 31.3849 26.9355C31.2756 27.0179 31.2017 27.1152 31.1634 27.2275L30.4432 27.1252C30.5 26.9263 30.5938 26.7601 30.7244 26.6266C30.8551 26.4917 31.0149 26.3908 31.2038 26.324C31.3928 26.2559 31.6016 26.2218 31.8303 26.2218C31.9879 26.2218 32.1449 26.2402 32.3011 26.2772C32.4574 26.3141 32.6001 26.3752 32.7294 26.4604C32.8587 26.5442 32.9624 26.6586 33.0405 26.8034C33.12 26.9483 33.1598 27.1294 33.1598 27.3468V29.5371H32.4183V29.0875H32.3928C32.3459 29.1784 32.2798 29.2637 32.1946 29.3432C32.1108 29.4213 32.005 29.4846 31.8771 29.5328C31.7507 29.5797 31.6023 29.6032 31.4318 29.6032ZM31.6321 29.0364C31.7869 29.0364 31.9212 29.0059 32.0348 28.9448C32.1484 28.8823 32.2358 28.7999 32.2969 28.6976C32.3594 28.5953 32.3906 28.4838 32.3906 28.3631V27.9775C32.3665 27.9973 32.3253 28.0158 32.267 28.0328C32.2102 28.0499 32.1463 28.0648 32.0753 28.0776C32.0043 28.0904 31.9339 28.1017 31.8643 28.1117C31.7947 28.1216 31.7344 28.1301 31.6832 28.1373C31.5682 28.1529 31.4652 28.1784 31.3743 28.214C31.2834 28.2495 31.2116 28.2992 31.1591 28.3631C31.1065 28.4256 31.0803 28.5066 31.0803 28.606C31.0803 28.748 31.1321 28.8553 31.2358 28.9277C31.3395 29.0002 31.4716 29.0364 31.6321 29.0364ZM33.9354 29.5371V26.2644H34.6832V26.8098H34.7173C34.777 26.6209 34.8793 26.4753 35.0241 26.373C35.1705 26.2694 35.3374 26.2175 35.5249 26.2175C35.5675 26.2175 35.6151 26.2196 35.6676 26.2239C35.7216 26.2267 35.7663 26.2317 35.8018 26.2388V26.9483C35.7692 26.937 35.7173 26.927 35.6463 26.9185C35.5767 26.9086 35.5092 26.9036 35.4439 26.9036C35.3033 26.9036 35.1768 26.9341 35.0646 26.9952C34.9538 27.0549 34.8665 27.138 34.8026 27.2445C34.7386 27.351 34.7067 27.4739 34.7067 27.6131V29.5371H33.9354ZM37.394 29.5946C37.1369 29.5946 36.9068 29.5286 36.7037 29.3965C36.5005 29.2644 36.34 29.0726 36.2221 28.8212C36.1042 28.5698 36.0453 28.2644 36.0453 27.905C36.0453 27.5414 36.1049 27.2346 36.2243 26.9846C36.345 26.7331 36.5076 26.5435 36.7122 26.4157C36.9167 26.2864 37.1447 26.2218 37.3961 26.2218C37.5879 26.2218 37.7456 26.2544 37.8691 26.3198C37.9927 26.3837 38.0907 26.4611 38.1632 26.552C38.2356 26.6415 38.2917 26.726 38.3315 26.8056H38.3635V25.1735H39.1369V29.5371H38.3784V29.0215H38.3315C38.2917 29.101 38.2342 29.1855 38.1589 29.275C38.0836 29.3631 37.9842 29.4384 37.8606 29.5009C37.737 29.5634 37.5815 29.5946 37.394 29.5946ZM37.6092 28.9618C37.7725 28.9618 37.9118 28.9178 38.0268 28.8297C38.1419 28.7402 38.2292 28.6159 38.2889 28.4569C38.3485 28.2978 38.3784 28.1124 38.3784 27.9007C38.3784 27.6891 38.3485 27.5051 38.2889 27.3489C38.2306 27.1926 38.144 27.0712 38.0289 26.9846C37.9153 26.8979 37.7754 26.8546 37.6092 26.8546C37.4373 26.8546 37.2939 26.8993 37.1788 26.9888C37.0637 27.0783 36.9771 27.2019 36.9189 27.3596C36.8606 27.5172 36.8315 27.6976 36.8315 27.9007C36.8315 28.1053 36.8606 28.2878 36.9189 28.4483C36.9785 28.6074 37.0659 28.7331 37.1809 28.8255C37.2974 28.9164 37.4402 28.9618 37.6092 28.9618Z" fill="black"/>
</g>
<defs>
<clipPath id="clip0_261_44893">
<rect width="44" height="32" fill="white"/>
</clipPath>
</defs>
</svg>
