<svg width="54" height="32" viewBox="0 0 54 32" fill="none" xmlns="http://www.w3.org/2000/svg">
<g clip-path="url(#clip0_261_44923)">
<path fill-rule="evenodd" clip-rule="evenodd" d="M15.9047 7.95563C14.6219 7.95563 13.7088 8.45218 13.1483 9.56777C12.3593 8.39039 11.6956 7.95563 10.3091 7.95563C9.06773 7.95563 8.15849 8.30984 7.49035 9.41659V9.01991C7.48889 8.73747 7.37586 8.46705 7.17589 8.26759C6.97591 8.06813 6.7052 7.9558 6.42276 7.95508H4.79297V17.3355C4.79304 17.4753 4.82066 17.6138 4.87423 17.7429C4.92781 17.8721 5.00631 17.9895 5.10524 18.0883C5.20417 18.1871 5.3216 18.2655 5.45081 18.3189C5.58003 18.3724 5.71851 18.3998 5.85835 18.3998H7.48704L7.4898 11.7835C7.49095 11.5698 7.5342 11.3583 7.61706 11.1613C7.69992 10.9643 7.82078 10.7855 7.97274 10.6352C8.1247 10.4849 8.30477 10.366 8.50268 10.2852C8.7006 10.2045 8.91247 10.1636 9.12621 10.1647C9.33995 10.1665 9.55126 10.2103 9.74806 10.2937C9.94487 10.3771 10.1233 10.4984 10.2732 10.6508C10.4231 10.8032 10.5416 10.9836 10.6217 11.1817C10.7019 11.3798 10.7423 11.5918 10.7406 11.8056V17.3355C10.7407 17.6177 10.8529 17.8882 11.0525 18.0877C11.252 18.2872 11.5227 18.3992 11.8048 18.3992H13.4363V11.8348C13.4387 11.6169 13.4841 11.4015 13.5698 11.2011C13.6554 11.0007 13.7797 10.8191 13.9356 10.6668C14.0914 10.5144 14.2758 10.3942 14.4781 10.3131C14.6804 10.232 14.8967 10.1915 15.1146 10.194C15.5475 10.2001 15.9608 10.3751 16.2665 10.6816C16.5722 10.9881 16.746 11.4019 16.751 11.8348V17.3355C16.7515 17.6181 16.8641 17.889 17.0642 18.0885C17.2643 18.2881 17.5355 18.4001 17.8181 18.3998H19.3905V11.3471C19.3888 9.44308 17.9599 7.95563 15.9047 7.95563ZM38.6302 8.55866C37.7378 8.17889 36.7806 7.97417 35.8109 7.95563C31.3839 7.95563 30.5806 10.3027 30.5806 13.1722C30.5806 16.0456 31.3839 18.3909 35.8109 18.3909C36.8279 18.3756 37.8397 18.2423 38.8261 17.9937C38.8785 17.9901 38.9278 17.9675 38.9648 17.9303C39.0018 17.8931 39.0241 17.8436 39.0275 17.7912C39.0275 17.7118 38.8261 16.1879 38.8261 16.1879C38.8243 16.1361 38.8032 16.0867 38.7668 16.0497C38.7304 16.0128 38.6815 15.9908 38.6297 15.9882C37.7096 16.2347 36.7632 16.3695 35.8109 16.3898C33.4959 16.3898 32.9921 15.0034 32.9921 13.1738C32.9921 11.3509 33.2961 9.96391 35.8114 9.96391C37.2161 9.96391 38.729 10.568 38.8272 10.568C38.8542 10.5695 38.8813 10.5652 38.9065 10.5554C38.9318 10.5457 38.9547 10.5306 38.9737 10.5113C38.9927 10.492 39.0073 10.4689 39.0167 10.4435C39.0261 10.418 39.0299 10.3909 39.028 10.3639C39.028 10.2828 38.8272 8.75673 38.8272 8.75673C38.8121 8.71063 38.7864 8.6687 38.7522 8.63431C38.718 8.59991 38.6762 8.57401 38.6302 8.55866ZM44.6274 16.3887C42.6192 16.3887 42.0117 15.181 42.0117 13.1722C42.0117 11.1634 42.6197 9.96225 44.6274 9.96225C46.6357 9.96225 47.2448 11.1672 47.2448 13.1722C47.2448 15.1771 46.6396 16.3887 44.6274 16.3887ZM48.4978 7.95563H47.2526V8.86211C46.6015 8.23866 45.5676 7.95563 44.628 7.95563C41.6112 7.95563 39.599 9.56004 39.599 13.1727C39.599 16.7849 41.6112 18.3909 44.628 18.3909C46.1022 18.3909 46.9121 17.8194 47.2586 17.4762C47.332 18.0058 47.7839 18.3998 48.3179 18.3998H49.5632V9.00942C49.5606 8.72874 49.4471 8.46048 49.2475 8.26308C49.048 8.06569 48.7785 7.95518 48.4978 7.95563ZM24.9872 16.3882V16.3893C22.9706 16.3893 22.3709 15.1821 22.3709 13.1727C22.3709 11.1645 22.9701 9.9628 24.9872 9.9628C26.996 9.9628 27.5996 11.1672 27.5996 13.1722C27.5996 15.1771 26.9966 16.3893 24.9872 16.3893M24.9872 7.95563C21.9681 7.95563 19.9554 9.5606 19.9554 13.1727C19.9554 16.7849 21.9692 18.3909 24.9872 18.3909C28.0046 18.3909 30.0112 16.7871 30.0112 13.1716C30.0112 9.55784 28.0029 7.95563 24.9872 7.95563Z" fill="#0595DA"/>
<path fill-rule="evenodd" clip-rule="evenodd" d="M48.1011 22.8134V21.2945H47.7293V20.7262H48.1011V19.9339H48.7743V20.7267H49.5632V21.295H48.7743V22.7096C48.7671 22.7587 48.7715 22.8088 48.7871 22.8558C48.8028 22.9029 48.8292 22.9457 48.8643 22.9807C48.8994 23.0157 48.9423 23.042 48.9894 23.0575C49.0365 23.073 49.0866 23.0772 49.1356 23.0699C49.2802 23.0705 49.4231 23.0368 49.5522 22.9717V23.5124C49.3671 23.6149 49.1579 23.6662 48.9464 23.6608C48.4515 23.6608 48.1011 23.4473 48.1011 22.8134ZM44.5138 20.7262H45.1864V21.1731C45.3811 20.8542 45.7304 20.6605 46.1039 20.6655C46.7654 20.6655 47.1494 21.1025 47.1494 21.775V23.6106H46.4763V21.972C46.4763 21.5245 46.2485 21.2669 45.8479 21.2669C45.4589 21.2669 45.1858 21.5345 45.1858 21.9825V23.6112H44.5138V20.7262ZM43.1665 21.9665C43.1224 21.54 42.8664 21.2067 42.4222 21.2067C42.0112 21.2067 41.7216 21.5185 41.6609 21.9665H43.1665ZM40.9927 22.1794V22.1684C40.9927 21.343 41.588 20.6655 42.4272 20.6655C43.3607 20.6655 43.8341 21.3872 43.8341 22.2175C43.8341 22.2782 43.8286 22.3378 43.8231 22.4034H41.6647C41.7089 22.8338 42.0796 23.1543 42.51 23.1361C42.6591 23.1369 42.8067 23.1067 42.9435 23.0473C43.0803 22.9879 43.2032 22.9007 43.3045 22.7913L43.6995 23.1361C43.5539 23.312 43.3699 23.4522 43.1617 23.5459C42.9535 23.6396 42.7266 23.6844 42.4984 23.6768C42.2993 23.6843 42.1009 23.6508 41.9154 23.5783C41.7298 23.5059 41.5612 23.396 41.42 23.2555C41.2787 23.1151 41.1679 22.947 41.0944 22.7619C41.0209 22.5768 40.9863 22.3785 40.9927 22.1794ZM35.8694 20.7262H36.542V21.1632C36.7351 20.8542 37.0733 20.6661 37.4374 20.6661C37.6164 20.6571 37.7942 20.7004 37.949 20.7906C38.1039 20.8808 38.2292 21.0141 38.3097 21.1742C38.4222 21.0154 38.5716 20.8863 38.7449 20.7978C38.9182 20.7093 39.1104 20.6641 39.305 20.6661C39.945 20.6661 40.3329 21.065 40.3329 21.7695V23.6112H39.6603V21.9714C39.6603 21.5124 39.444 21.2669 39.0656 21.2669C38.6987 21.2669 38.4366 21.5185 38.4366 21.9825V23.6112H37.7646V21.9659C37.7646 21.5185 37.5423 21.2669 37.1698 21.2669C36.7969 21.2669 36.5409 21.54 36.5409 21.988V23.6112H35.87V20.7256L35.8694 20.7262ZM32.4609 24.3279L32.6887 23.8357C32.809 23.9041 32.9447 23.9411 33.0832 23.9444C33.2725 23.9444 33.3894 23.8627 33.4998 23.6106L32.2771 20.7256H32.9944L33.8286 22.868L34.59 20.7256H35.2907L34.1232 23.6928C33.8893 24.2832 33.6283 24.5016 33.1555 24.5016C32.9125 24.5052 32.6729 24.445 32.4603 24.3273L32.4609 24.3279ZM31.2129 22.404C30.9972 22.3264 30.7695 22.2875 30.5403 22.2892C30.1177 22.2892 29.8678 22.4586 29.8678 22.7361V22.7477C29.8678 23.0208 30.1177 23.1742 30.4349 23.1742C30.8796 23.1742 31.2129 22.9281 31.2129 22.5673V22.4034V22.404ZM31.1963 23.6112V23.2564C30.9591 23.5323 30.6087 23.6851 30.2457 23.6713C29.6901 23.6713 29.2007 23.3596 29.2007 22.7808V22.7698C29.2007 22.1309 29.7067 21.8247 30.3908 21.8247C30.6667 21.8197 30.9403 21.8605 31.2018 21.9444V21.8903C31.2018 21.4914 30.9469 21.273 30.4796 21.273C30.1902 21.2739 29.9042 21.3353 29.6399 21.4534L29.4562 20.9237C29.8057 20.7598 30.1879 20.6774 30.574 20.6826C31.4413 20.6826 31.8639 21.1301 31.8639 21.9019V23.6123H31.1963V23.6112ZM28.0256 22.1739V22.1629C28.0256 21.6056 27.6421 21.2393 27.1869 21.2393C26.9546 21.2444 26.7338 21.3415 26.573 21.5093C26.4122 21.6771 26.3247 21.9019 26.3296 22.1342L26.3307 22.1629V22.1739C26.3174 22.4051 26.3964 22.632 26.5503 22.805C26.7042 22.9779 26.9205 23.0828 27.1516 23.0964C27.1632 23.0975 27.1754 23.0975 27.1869 23.0975C27.6465 23.0975 28.0245 22.7422 28.0245 22.1739H28.0256ZM25.6736 20.7256H26.3467V21.2067C26.4537 21.0401 26.601 20.9032 26.775 20.8086C26.9489 20.714 27.144 20.6648 27.342 20.6655C28.0366 20.6655 28.7091 21.2062 28.7091 22.1629V22.1739C28.7091 23.1301 28.0416 23.6713 27.342 23.6713C27.1473 23.6735 26.9551 23.6284 26.7817 23.5399C26.6083 23.4514 26.459 23.3221 26.3467 23.1632V24.4862H25.6736V20.7256ZM22.6573 21.9659C22.6131 21.54 22.3571 21.2067 21.9125 21.2067C21.5009 21.2067 21.2118 21.5185 21.1511 21.9659H22.6573ZM20.4835 22.1794V22.1684C20.4835 21.343 21.0788 20.6655 21.918 20.6655C22.8515 20.6655 23.3249 21.3872 23.3249 22.2175C23.3249 22.2782 23.3194 22.3378 23.3138 22.4034H21.156C21.2002 22.8338 21.5704 23.1543 22.0013 23.1361C22.1504 23.1368 22.298 23.1066 22.4348 23.0472C22.5715 22.9878 22.6945 22.9007 22.7958 22.7913L23.1908 23.1361C23.0452 23.312 22.8612 23.4522 22.653 23.5459C22.4448 23.6396 22.2179 23.6844 21.9897 23.6768C21.7906 23.6843 21.5921 23.6508 21.4066 23.5783C21.221 23.5059 21.0524 23.396 20.9111 23.2555C20.7698 23.1151 20.659 22.9471 20.5854 22.762C20.5118 22.5768 20.4771 22.3785 20.4835 22.1794ZM19.0915 19.6216H19.7646V23.6106H19.0915V19.6216ZM17.5009 23.6106H18.174V20.7256H17.5009V23.6112V23.6106ZM17.4738 20.2837H18.1966V19.6547H17.4738V20.2837ZM16.0874 22.1734V22.1623C16.0874 21.6051 15.7039 21.2387 15.2482 21.2387C15.0159 21.2438 14.7951 21.3409 14.6345 21.5088C14.4738 21.6766 14.3863 21.9014 14.3914 22.1336L14.3925 22.1623V22.1734C14.3925 22.7306 14.7925 23.097 15.2476 23.097C15.7094 23.097 16.0874 22.7416 16.0874 22.1734ZM14.4085 23.1626V23.6101H13.7354V19.6211H14.4085V21.2062C14.5155 21.0396 14.6628 20.9027 14.8368 20.8081C15.0108 20.7135 15.2058 20.6643 15.4038 20.665C16.0989 20.665 16.7715 21.2056 16.7715 22.1623V22.1734C16.7715 23.1295 16.1039 23.6707 15.4038 23.6707C15.2091 23.673 15.0169 23.6279 14.8435 23.5394C14.6701 23.4508 14.5208 23.3216 14.4085 23.1626ZM12.377 22.1844V22.1734C12.3849 21.9352 12.2979 21.7036 12.1352 21.5295C11.9725 21.3554 11.7473 21.253 11.5092 21.2448L11.476 21.2443C11.3566 21.2427 11.2382 21.2656 11.128 21.3116C11.0178 21.3576 10.9182 21.4258 10.8354 21.5119C10.7526 21.5979 10.6884 21.7 10.6466 21.8119C10.6049 21.9238 10.5865 22.0431 10.5927 22.1623V22.1734C10.589 22.2935 10.6093 22.4132 10.6525 22.5254C10.6957 22.6376 10.761 22.74 10.8443 22.8265C10.9277 22.9131 11.0276 22.9821 11.1381 23.0295C11.2486 23.0769 11.3674 23.1017 11.4876 23.1025C11.6074 23.1043 11.7262 23.0815 11.8368 23.0356C11.9474 22.9898 12.0475 22.9217 12.1308 22.8357C12.2141 22.7497 12.2789 22.6475 12.3213 22.5355C12.3636 22.4235 12.3826 22.304 12.377 22.1844ZM9.91963 22.1844V22.1734C9.92313 21.7696 10.0868 21.3838 10.3748 21.1007C10.6627 20.8176 11.0513 20.6605 11.4551 20.6639L11.4876 20.665C12.3886 20.665 13.0501 21.337 13.0501 22.1623V22.1734C13.0501 22.9932 12.3825 23.6757 11.476 23.6757C10.5811 23.6757 9.91963 23.0043 9.91963 22.1844ZM4.79688 20.7251H5.46998V21.1621C5.66308 20.8531 6.00074 20.6655 6.36487 20.665C6.544 20.6561 6.72184 20.6995 6.87679 20.7898C7.03174 20.8801 7.15712 21.0134 7.2377 21.1736C7.35009 21.0148 7.49929 20.8856 7.67253 20.797C7.84577 20.7084 8.03789 20.6631 8.23246 20.665C8.87246 20.665 9.26087 21.0644 9.26087 21.7684V23.6106H8.58777V21.9709C8.58777 21.5119 8.37149 21.2663 7.99301 21.2663C7.62612 21.2663 7.3646 21.5179 7.3646 21.9819V23.6106H6.69205V21.9654C6.69205 21.5179 6.4697 21.2663 6.09729 21.2663C5.72432 21.2663 5.46998 21.5394 5.46998 21.9874V23.6106H4.79688V20.7251Z" fill="#474747"/>
</g>
<defs>
<clipPath id="clip0_261_44923">
<rect width="54" height="32" fill="white"/>
</clipPath>
</defs>
</svg>
