<svg width="71" height="32" viewBox="0 0 71 32" fill="none" xmlns="http://www.w3.org/2000/svg">
<g clip-path="url(#clip0_261_44936)">
<path d="M61.8287 12.3057C61.991 13.0211 63.0699 13.4902 64.2329 13.3455C65.3899 13.1892 66.1679 12.4797 66.0037 11.7506C65.82 11.0333 64.7547 10.5642 63.5859 10.7225C62.4386 10.8691 61.6372 11.5727 61.8287 12.3077M69.1407 12.3604C69.9988 12.2451 70.6028 11.7135 70.4581 11.1721C70.3174 10.6209 69.5258 10.2749 68.6502 10.3883C67.798 10.5056 67.2018 11.0313 67.3269 11.5727C67.4676 12.12 68.269 12.466 69.1407 12.3604ZM44.9961 1.99346C45.8835 1.87814 46.4698 1.34455 46.333 0.807042C46.2079 0.259766 45.3987 -0.0842357 44.5407 0.0193558C43.6553 0.140538 43.0611 0.676087 43.1999 1.22336C43.3328 1.76477 44.1244 2.099 44.9961 1.99541M59.282 16.6683C58.1053 16.1562 56.4557 16.3731 55.5761 17.1491C54.72 17.925 54.9663 18.9629 56.1429 19.4613C57.3254 19.9637 58.9849 19.7526 59.8429 18.9825C60.7127 18.2104 60.4547 17.1725 59.28 16.6683M60.4547 12.4933C60.2397 11.5727 58.8891 10.9864 57.4525 11.1857C56.0081 11.3773 55.0112 12.2666 55.2204 13.1696C55.4413 14.0726 56.7958 14.6531 58.248 14.4655C59.6787 14.2759 60.6716 13.3846 60.4547 12.4914M59.28 4.01252C59.9758 4.31743 60.9844 4.17474 61.5004 3.72324C62.0164 3.25024 61.862 2.63846 61.1603 2.32573C60.4547 2.02082 59.4598 2.14787 58.9438 2.62087C58.422 3.08996 58.5783 3.7037 59.28 4.01252ZM55.9807 6.9678C56.9248 7.37435 58.248 7.20821 58.9262 6.5808C59.6279 5.97098 59.4266 5.13443 58.4904 4.72006C57.5424 4.32524 56.2211 4.50311 55.5194 5.11684C54.8314 5.73252 55.0308 6.56321 55.9807 6.96585M32.0081 5.02888C31.3064 4.73375 30.3037 4.85688 29.8053 5.32598C29.2639 5.7853 29.4261 6.41076 30.1219 6.7098C30.8295 7.01081 31.8204 6.88376 32.3364 6.42444C32.8544 5.96903 32.7039 5.33575 32.0081 5.02888ZM49.0596 7.59913C48.8446 6.70003 47.4901 6.11366 46.0437 6.30716C44.613 6.49871 43.6123 7.38413 43.839 8.28713C44.0423 9.19405 45.3987 9.77455 46.8393 9.57714C48.2934 9.39927 49.2844 8.50409 49.0596 7.59913ZM55.152 7.70076C53.991 7.19258 52.3335 7.40953 51.4676 8.17181C50.5979 8.9595 50.8637 9.98955 52.013 10.4958C53.2091 11.004 54.8529 10.7811 55.7168 10.015C56.5808 9.23705 56.3306 8.20308 55.152 7.70076ZM67.6631 21.1032C66.9536 20.7963 65.9372 20.9292 65.4329 21.3924C64.9033 21.8537 65.0596 22.4831 65.7711 22.7723C66.4767 23.089 67.4696 22.9502 67.9895 22.4909C68.5094 22.0335 68.3531 21.4139 67.6631 21.1012M63.9064 19.0704C62.9702 18.6619 61.6392 18.8339 60.9394 19.4594C60.2436 20.079 60.4547 20.9136 61.3948 21.3162C62.3369 21.7188 63.6602 21.5429 64.356 20.9272C65.042 20.3057 64.8407 19.4711 63.9064 19.0704ZM36.4058 6.50653C35.4579 6.09021 34.119 6.26807 33.4251 6.88376C32.7371 7.51508 32.9365 8.34577 33.8708 8.7445C34.8324 9.15104 36.1537 8.97318 36.83 8.35945C37.5317 7.74376 37.3303 6.91308 36.4058 6.50457M45.8444 5.45302C47.0015 5.30252 47.7892 4.59106 47.6113 3.87179C47.4354 3.13492 46.3565 2.68146 45.2092 2.83392C44.0423 2.98442 43.2624 3.6861 43.4305 4.42102C43.6123 5.13248 44.6892 5.59766 45.8444 5.45302ZM38.507 11.1506C39.6758 11.6548 41.3274 11.4457 42.1913 10.6678C43.063 9.9055 42.807 8.85395 41.6362 8.35359C40.4615 7.84345 38.8119 8.05258 37.9382 8.82854C37.0821 9.61623 37.3245 10.6463 38.507 11.1506Z" fill="#04BAEE"/>
<path d="M12.13 11.999C11.3736 11.999 10.9924 12.2648 10.9924 12.769C10.9924 13.0974 11.1292 13.3554 11.4048 13.5626C11.5436 13.6564 11.7997 13.717 12.1867 13.717C13.5236 13.6896 15.8788 14.749 15.8788 16.9283V17.9682C14.8214 17.4072 13.8383 17.1433 12.9333 17.1433C10.6934 17.1433 9.57146 18.7187 9.57146 21.8792V21.9828C9.57146 23.1223 9.86465 23.9999 10.4354 24.6137C11.0002 25.2254 11.7 25.5206 12.5365 25.5206C13.8031 25.5206 14.9269 24.9205 15.8788 23.7107V24.858C16.0762 25.3075 16.3987 25.5206 16.8776 25.5206C17.3252 25.5206 17.6516 25.3056 17.8549 24.858V16.9283C17.8549 13.6447 14.8273 11.999 12.13 11.999ZM15.8788 21.9828C15.2592 23.1341 14.3386 23.7107 13.0779 23.7107C12.0459 23.7107 11.5299 23.2377 11.5299 22.2956V21.8792C11.5299 19.8172 12.13 18.7989 13.3105 18.7989C13.9184 18.7989 14.7882 19.0842 15.8788 19.6804V21.9828ZM4.23552 5.42969H0V24.8599C0.179819 25.3095 0.504276 25.5343 0.985097 25.5343C1.46592 25.5343 1.78451 25.3095 1.96042 24.8599V16.8365H4.03616C5.31053 16.8365 6.33667 16.3537 7.11459 15.4097C7.90032 14.4676 8.27364 13.287 8.27364 11.909V10.3063C8.27364 7.05392 6.95236 5.43164 4.23552 5.43164M6.32494 11.909C6.32494 14.0825 5.56658 15.1732 4.03811 15.1732H1.96237V7.08324H4.30198C5.64476 7.08324 6.3269 8.1602 6.3269 10.3044V11.9071L6.32494 11.909ZM28.431 12.5658C27.9541 12.6127 27.6218 12.8257 27.4459 13.2421V23.0344C26.3474 23.5973 25.5226 23.8631 24.9753 23.8631C23.957 23.8631 23.4508 22.8722 23.4508 20.8707V13.2421C23.2475 12.7964 22.9269 12.5658 22.4891 12.5658C21.9809 12.6127 21.6741 12.8257 21.4943 13.2421V20.8707C21.4943 23.9784 22.5263 25.5225 24.6 25.5225C25.4288 25.5225 26.3748 25.245 27.4478 24.6918V28.1651C27.4478 29.0779 27.2973 29.7111 26.9612 30.1079C26.6328 30.5066 26.4667 30.8116 26.4667 31.0227C26.496 31.5035 26.7227 31.826 27.1488 31.998C27.8309 31.998 28.3919 31.5992 28.8493 30.8116C29.2382 30.1568 29.4161 29.4277 29.4161 28.6322V13.2401C29.2108 12.7945 28.8864 12.5638 28.4349 12.5638M48.3381 12.0498C46.6279 12.0498 45.4552 12.7671 44.816 14.1802C44.4153 15.1575 44.2082 16.7055 44.2082 18.8125C44.2082 20.9195 44.4153 22.491 44.816 23.4957C45.4043 24.9889 46.4852 25.7336 48.0919 25.7336C49.8451 25.7336 51.0432 25.0085 51.655 23.5484C52.085 22.577 52.2766 20.9977 52.2766 18.8145C52.2766 16.6313 52.1143 15.0969 51.7723 14.1822C51.1801 12.769 50.0347 12.0517 48.3381 12.0517M50.2575 22.0395C49.9624 23.3706 49.2744 24.0292 48.2482 24.0292C46.7862 24.0292 46.0689 22.2877 46.0689 18.8145C46.0689 17.1473 46.1295 16.0957 46.2233 15.6305C46.4872 14.3913 47.1928 13.7698 48.301 13.7698C49.3311 13.7698 49.9936 14.407 50.2575 15.6931C50.3728 16.1778 50.4237 17.2098 50.4237 18.8145C50.4237 20.4192 50.3728 21.5235 50.2575 22.0395ZM37.0603 12.0517C35.3403 12.0517 34.1539 12.769 33.5148 14.1822C33.1258 15.1595 32.905 16.7075 32.905 18.8145C32.905 20.9215 33.1258 22.493 33.5148 23.4976C34.1129 24.9909 35.1937 25.7356 36.7965 25.7356C38.5595 25.7356 39.7518 25.0104 40.3772 23.5504C40.7916 22.579 40.9968 20.9997 40.9968 18.8164C40.9968 16.6332 40.817 15.0989 40.4671 14.1841C39.8808 12.771 38.7393 12.0537 37.0603 12.0537M38.9758 22.0415C38.6533 23.3725 37.979 24.0312 36.947 24.0312C35.4928 24.0312 34.7794 22.2897 34.7794 18.8164C34.7794 17.1492 34.8361 16.0977 34.9279 15.6325C35.1937 14.3933 35.8974 13.7717 37.0095 13.7717C38.0396 13.7717 38.7041 14.4089 38.9758 15.695C39.0657 16.1797 39.1146 17.2118 39.1146 18.8164C39.1146 20.4211 39.0657 21.5255 38.9758 22.0415Z" fill="#004F9E"/>
<path d="M70.4787 2.53719C70.4787 3.33465 69.8298 3.98356 69.0304 3.98356C68.2309 3.98356 67.5879 3.33465 67.5879 2.53719C67.5879 1.73973 68.2309 1.09277 69.0304 1.09277C69.8298 1.09277 70.4787 1.73973 70.4787 2.53719Z" stroke="#004F9E" stroke-width="0.3" stroke-miterlimit="10"/>
<path d="M68.3379 1.8275C68.4864 1.81186 68.7053 1.79818 68.9477 1.79622C69.2487 1.79231 69.4598 1.82359 69.6044 1.90177C69.7237 1.96627 69.7921 2.06204 69.7921 2.193C69.794 2.37282 69.6103 2.49595 69.4364 2.54091V2.54677C69.579 2.58586 69.6572 2.67773 69.71 2.80673C69.7725 2.96309 69.837 3.14487 69.8761 3.19959L69.407 3.2035C69.3738 3.16441 69.3249 3.04909 69.2643 2.87709C69.2077 2.70314 69.1217 2.65427 68.934 2.65427H68.7972L68.7992 3.20546L68.3457 3.20937L68.3379 1.82554V1.8275ZM68.7953 2.42754H68.977C69.2038 2.42559 69.3406 2.34545 69.3406 2.22427C69.3386 2.09331 69.2116 2.03077 69.0005 2.03077C68.8891 2.03077 68.8265 2.03859 68.7933 2.0425V2.42754H68.7953Z" fill="#004F9E"/>
</g>
<defs>
<clipPath id="clip0_261_44936">
<rect width="70.5087" height="32" fill="white"/>
</clipPath>
</defs>
</svg>
