<svg width="44" height="32" viewBox="0 0 44 32" fill="none" xmlns="http://www.w3.org/2000/svg">
<path d="M16.7065 11.0138L10.9469 21.0092H7.18764L4.35531 13.0331C4.18095 12.5412 4.03193 12.3622 3.50909 12.1533C2.65263 11.8166 1.24386 11.5007 0 11.304L0.0870547 11.0138H6.13525C6.90662 11.0138 7.60014 11.388 7.77451 12.0331L9.27214 17.8182L12.9712 11.0138L16.7065 11.0138ZM31.4316 17.7443C31.4482 15.1077 26.4151 14.9642 26.4513 13.7846C26.4611 13.4245 26.9303 13.0435 27.958 12.9473C28.4683 12.898 29.8726 12.8618 31.4642 13.3932L32.088 11.2746C31.2317 11.0485 30.1309 10.832 28.7628 10.832C25.2489 10.832 22.7752 12.1913 22.7543 14.1363C22.7312 15.5745 24.5192 16.3772 25.8678 16.8562C27.2526 17.3463 27.7156 17.6592 27.7107 18.0988C27.7017 18.7697 26.6058 19.0628 25.5837 19.076C23.7957 19.0963 22.7587 18.7247 21.9306 18.4442L21.2869 20.6356C22.1164 20.9126 23.6523 21.1531 25.2418 21.1673C28.9766 21.1672 31.4198 19.8223 31.4316 17.7443ZM40.711 21.0092H44L41.1301 11.0138H38.0939C37.4116 11.0138 36.8364 11.3032 36.5802 11.7465L31.2484 21.0092H34.9803L35.721 19.5165H40.2828L40.711 21.0092ZM36.7438 17.4678L38.616 13.7147L39.6931 17.4678H36.7438ZM21.7873 11.0138L18.8457 21.0092H15.2897L18.232 11.0138H21.7873Z" fill="#1A2ADF"/>
</svg>
