<svg width="20" height="20" viewBox="0 0 20 20" fill="none" xmlns="http://www.w3.org/2000/svg">
<path d="M11.4416 2.9252L12.9083 5.85853C13.1083 6.26686 13.6416 6.65853 14.0916 6.73353L16.7499 7.1752C18.4499 7.45853 18.8499 8.69186 17.6249 9.90853L15.5583 11.9752C15.2083 12.3252 15.0166 13.0002 15.1249 13.4835L15.7166 16.0419C16.1833 18.0669 15.1083 18.8502 13.3166 17.7919L10.8249 16.3169C10.3749 16.0502 9.63326 16.0502 9.17492 16.3169L6.68326 17.7919C4.89992 18.8502 3.81659 18.0585 4.28326 16.0419L4.87492 13.4835C4.98326 13.0002 4.79159 12.3252 4.44159 11.9752L2.37492 9.90853C1.15826 8.69186 1.54992 7.45853 3.24992 7.1752L5.90826 6.73353C6.34992 6.65853 6.88326 6.26686 7.08326 5.85853L8.54992 2.9252C9.34992 1.33353 10.6499 1.33353 11.4416 2.9252Z" fill="#1B1B1B"/>
</svg>
