<svg width="20" height="21" viewBox="0 0 20 21" fill="none" xmlns="http://www.w3.org/2000/svg">
<path d="M17.5 5.48307C14.725 5.20807 11.9333 5.06641 9.15 5.06641C7.5 5.06641 5.85 5.14974 4.2 5.31641L2.5 5.48307" stroke="#F04438" stroke-width="1.5" stroke-linecap="round" stroke-linejoin="round"/>
<path d="M7.0835 4.64199L7.26683 3.55033C7.40016 2.75866 7.50016 2.16699 8.9085 2.16699H11.0918C12.5002 2.16699 12.6085 2.79199 12.7335 3.55866L12.9168 4.64199" stroke="#F04438" stroke-width="1.5" stroke-linecap="round" stroke-linejoin="round"/>
<path d="M15.7082 8.11621L15.1665 16.5079C15.0748 17.8162 14.9998 18.8329 12.6748 18.8329H7.32484C4.99984 18.8329 4.92484 17.8162 4.83317 16.5079L4.2915 8.11621" stroke="#F04438" stroke-width="1.5" stroke-linecap="round" stroke-linejoin="round"/>
<path d="M8.6084 14.25H11.3834" stroke="#F04438" stroke-width="1.5" stroke-linecap="round" stroke-linejoin="round"/>
<path d="M7.9165 10.917H12.0832" stroke="#F04438" stroke-width="1.5" stroke-linecap="round" stroke-linejoin="round"/>
</svg>
