<svg width="243" height="242" viewBox="0 0 243 242" fill="none" xmlns="http://www.w3.org/2000/svg">
<rect width="242" height="242" transform="translate(0.5)" fill="#EDEDED"/>
<path d="M119.564 94.8071C106.911 94.8125 94.6516 99.2127 84.8829 107.256C75.1141 115.298 68.4421 126.485 66.0075 138.902C63.5729 151.319 65.5268 164.197 71.5353 175.333C77.5437 186.469 87.2336 195.173 98.9485 199.956C104.174 202.091 109.701 203.397 115.329 203.828C121.106 204.274 126.917 203.803 132.547 202.433C140.58 200.458 148.06 196.686 154.426 191.402C160.791 186.119 165.875 179.46 169.295 171.928C174.038 161.43 175.35 149.704 173.046 138.417C171.934 132.966 169.989 127.719 167.281 122.86C161.913 113.234 153.767 105.449 143.907 100.523C138.904 98.0291 133.546 96.3242 128.021 95.469C125.222 95.0375 122.395 94.8179 119.563 94.812C118.396 94.812 118.393 96.627 119.563 96.627C130.435 96.6253 141.041 99.9812 149.934 106.236C158.826 112.49 165.569 121.339 169.242 131.571C172.915 141.803 173.339 152.92 170.454 163.402C167.57 173.884 161.519 183.219 153.129 190.132C144.785 197.034 134.51 201.185 123.714 202.017C118.128 202.451 112.509 202.002 107.063 200.686C101.829 199.41 96.8231 197.338 92.2185 194.543C83.1068 189.011 75.8742 180.861 71.4645 171.157C69.217 166.211 67.757 160.945 67.1376 155.548C66.493 149.968 66.7323 144.322 67.8466 138.817C70.2672 126.893 76.7413 116.174 86.1691 108.482C95.5969 100.79 107.397 96.5998 119.564 96.6221C120.732 96.6197 120.733 94.8047 119.564 94.8071Z" fill="#1B1B1B"/>
<path d="M133.694 180.215C133.668 180.571 132.392 180.403 132.16 180.403H106.886C106.566 180.403 105.555 180.579 105.434 180.209C105.313 179.839 105.434 179.191 105.434 178.79V173.151C105.434 172.927 105.313 172.165 105.483 171.992C105.694 171.785 106.532 171.94 106.785 171.94H112.363C112.932 171.94 113.587 172.016 114.112 171.762C115.115 171.278 115.12 170.332 115.12 169.402V131.977C115.116 131.738 115.02 131.509 114.85 131.339C114.681 131.17 114.452 131.073 114.212 131.07H105.76L106.668 131.977V127.181L105.76 128.088C108.466 128.059 110.715 126.706 112.306 124.571C112.988 123.627 113.548 122.602 113.975 121.519C114.165 121.058 114.336 120.589 114.487 120.112C114.621 119.688 114.683 119.144 114.95 118.781C115.359 118.233 115.987 118.297 116.586 118.297H122.082C122.558 118.297 123.133 118.215 123.599 118.342C124.469 118.584 124.494 119.359 124.494 120.076V165.027C124.494 166.686 124.469 168.347 124.494 170.006C124.48 170.374 124.563 170.739 124.736 171.064C125.211 171.876 126.04 171.939 126.866 171.939H132.374C132.627 171.939 133.489 171.795 133.66 172.018C133.832 172.242 133.693 173.008 133.693 173.278V180.214C133.693 181.381 135.508 181.384 135.508 180.214V173.151C135.508 172.614 135.569 172.014 135.402 171.496C135.068 170.462 134.107 170.124 133.126 170.124H127.627C127.385 170.124 126.4 170.23 126.286 170.13C126.351 170.187 126.306 170.043 126.31 169.955C126.318 169.724 126.31 169.491 126.31 169.26V123.495C126.31 122.173 126.353 120.843 126.31 119.52C126.265 118.164 125.412 116.966 124.083 116.593C123.492 116.427 122.827 116.483 122.218 116.483H116.66C115.915 116.483 115.208 116.483 114.513 116.833C113.273 117.472 113.051 118.691 112.651 119.888C111.987 121.882 110.912 124.008 109.131 125.227C108.139 125.908 106.963 126.273 105.759 126.274C105.519 126.278 105.291 126.375 105.121 126.544C104.952 126.713 104.855 126.942 104.852 127.182V131.978C104.855 132.218 104.952 132.447 105.121 132.616C105.291 132.786 105.519 132.882 105.759 132.886H114.21L113.302 131.978V169.747C113.302 169.84 113.349 170.082 113.302 170.166C113.33 170.116 113.365 170.115 113.249 170.124C113.007 170.141 112.765 170.124 112.523 170.124H106.829C106.307 170.124 105.734 170.062 105.217 170.168C103.191 170.583 103.617 173.072 103.617 174.587V179.927C103.617 180.94 104.077 181.893 105.14 182.159C105.424 182.216 105.714 182.236 106.004 182.221H126.526C128.825 182.221 131.153 182.303 133.457 182.221C134.619 182.18 135.425 181.374 135.514 180.219C135.604 179.063 133.779 179.055 133.694 180.215Z" fill="#1B1B1B"/>
<path d="M189.009 94.8639C186.278 95.2583 183.459 96.8737 181.738 99.0045C179.984 101.176 179.288 103.895 179.147 106.649C179.053 108.51 179.289 110.818 180.768 112.146C181.897 113.163 183.18 113.072 184.448 112.388C186.277 111.4 188.008 109.66 188.414 107.557C188.886 105.11 187.712 102.505 185.28 101.688C182.934 100.901 180.228 101.738 178.067 102.695C175.266 103.936 172.589 105.897 171.255 108.733C169.748 111.933 170.266 115.436 172.385 118.231C172.682 118.625 173.164 118.821 173.626 118.557C174.013 118.337 174.247 117.71 173.952 117.315C172.348 115.2 171.683 112.685 172.621 110.138C173.441 107.903 175.283 106.274 177.299 105.119C179.826 103.667 186.495 101.233 186.709 106.298C186.784 108.089 185.505 109.576 184.078 110.498C183.797 110.679 183.505 110.843 183.205 110.99C182.973 111.103 183.205 111.011 182.993 111.078C182.902 111.106 182.574 111.148 182.872 111.131C182.781 111.131 182.693 111.131 182.602 111.131C182.413 111.131 182.77 111.167 182.648 111.137C182.601 111.125 182.552 111.119 182.506 111.104L182.364 111.058C182.243 111.017 182.564 111.163 182.379 111.058C182.261 110.998 182.147 110.928 182.039 110.849C182.215 110.981 181.932 110.735 181.894 110.699C181.857 110.663 181.805 110.602 181.763 110.552C181.664 110.431 181.884 110.726 181.73 110.504C181.552 110.253 181.41 109.979 181.307 109.689C181.008 108.812 180.932 107.904 180.956 106.982C181.014 104.693 181.524 102.279 182.921 100.418C184.476 98.3474 187.002 96.9656 189.499 96.605C189.983 96.5349 190.253 95.919 190.133 95.4882C189.987 94.9679 189.506 94.784 189.016 94.8542L189.009 94.8639Z" fill="#1B1B1B"/>
<path d="M184.125 65.086L181.515 69.7275L175.201 80.9273L167.583 94.4285L160.979 106.144C159.917 108.029 158.783 109.895 157.785 111.81C157.77 111.837 157.754 111.863 157.74 111.89C157.165 112.909 158.733 113.826 159.313 112.806L161.929 108.166L168.243 96.9659L175.855 83.4635L182.453 71.7531C183.515 69.8679 184.649 68.0021 185.647 66.0866C185.662 66.06 185.677 66.0334 185.692 66.0068C186.267 64.988 184.699 64.0708 184.119 65.0908L184.125 65.086Z" fill="#1B1B1B"/>
<path d="M171.449 64.3286L164.742 75.9446L154.054 94.4576L151.605 98.6926C151.02 99.7054 152.588 100.621 153.178 99.6086L159.885 87.9926L170.573 69.4796L173.022 65.2446C173.608 64.2318 172.04 63.3158 171.449 64.3286Z" fill="#1B1B1B"/>
<path d="M145.578 41.123L138.773 52.9084L127.922 71.701L125.425 76.0255C124.839 77.0383 126.407 77.9542 126.998 76.9415L133.803 65.1561L144.654 46.3636L147.151 42.039C147.737 41.0262 146.169 40.1103 145.578 41.123Z" fill="#1B1B1B"/>
<path d="M133.387 38.6123L128.477 47.3243L120.685 61.1461L118.889 64.3309C118.314 65.3497 119.883 66.2669 120.462 65.2468L125.372 56.5348L133.159 42.713L134.954 39.5283C135.529 38.5095 133.961 37.5923 133.381 38.6123H133.387Z" fill="#1B1B1B"/>
<path d="M104.172 39.5283L107.585 45.5275L115.77 59.935L125.677 77.3699L134.241 92.4441C135.629 94.8858 136.939 97.3966 138.413 99.7876C138.435 99.8226 138.453 99.8577 138.473 99.894C139.051 100.909 140.619 99.9957 140.046 98.9781L136.638 92.9801L128.446 78.5775L118.541 61.1426L109.973 46.0623C108.585 43.6206 107.275 41.1098 105.801 38.7188C105.779 38.6838 105.761 38.6487 105.741 38.6124C105.163 37.5972 103.595 38.5107 104.168 39.5283H104.172Z" fill="#1B1B1B"/>
<path d="M91.9588 43.076L94.3401 47.0605L100.06 56.628L106.98 68.2065L112.964 78.218C113.932 79.837 114.845 81.508 115.876 83.0883C115.89 83.1113 115.904 83.1343 115.917 83.1572C116.516 84.1591 118.085 83.2468 117.49 82.2413L115.109 78.2567L109.389 68.6881L102.463 57.112L96.4782 47.1005C95.5102 45.4815 94.5979 43.8105 93.5669 42.2302C93.5524 42.2072 93.5391 42.1842 93.5258 42.1612C92.9268 41.1594 91.3575 42.0717 91.9528 43.0772L91.9588 43.076Z" fill="#1B1B1B"/>
<path d="M62.3081 59.2212L64.6894 63.2058L70.409 72.7745L77.3351 84.3529L83.3197 94.3645C84.2877 95.9835 85.2001 97.6545 86.231 99.2347C86.2455 99.2577 86.2588 99.2807 86.2721 99.3037C86.8711 100.306 88.4404 99.3932 87.8451 98.3877L85.4638 94.4032L79.7442 84.8345L72.8242 73.256L66.8395 63.2445C65.8715 61.6255 64.9592 59.9545 63.9283 58.3742C63.9137 58.3513 63.9004 58.3283 63.8871 58.3053C63.2882 57.3034 61.7188 58.2157 62.3141 59.2212H62.3081Z" fill="#1B1B1B"/>
<path d="M53.9552 65.7029L56.5845 70.3675L62.8378 81.4584L70.4608 94.9753L77.0214 106.613C78.0814 108.492 79.0712 110.439 80.211 112.271C80.2267 112.296 80.2413 112.324 80.2558 112.351C80.8293 113.368 82.3975 112.455 81.8288 111.435L79.1994 106.77L72.9389 95.6746L65.3183 82.1589L58.7577 70.5212C57.6977 68.642 56.708 66.6951 55.5681 64.8632C55.5524 64.8378 55.5379 64.81 55.5234 64.7834C54.9498 63.7657 53.3817 64.6793 53.9504 65.6993L53.9552 65.7029Z" fill="#1B1B1B"/>
<path d="M152.656 138.283C152.9 139.023 153.102 139.776 153.261 140.539C153.692 142.458 153.958 144.411 154.055 146.375C154.408 152.621 153.252 158.943 150.383 164.525C148.205 168.76 145.146 172.43 141.543 175.525C140.656 176.287 141.944 177.566 142.826 176.809C148.971 171.531 153.433 164.515 155.11 156.555C156.192 151.343 156.208 145.967 155.157 140.749C154.974 139.75 154.725 138.764 154.412 137.799C154.036 136.7 152.281 137.172 152.662 138.283H152.656Z" fill="#1B1B1B"/>
<path d="M60.4805 170.368C60.5434 173.116 61.2525 175.934 62.1067 178.532C64.1449 184.708 67.7297 190.26 72.52 194.66C76.2371 198.066 80.5774 200.717 85.2117 202.681C85.6666 202.873 86.1797 202.814 86.4531 202.355C86.6794 201.977 86.5741 201.305 86.1276 201.114C78.7721 197.997 72.2054 193.099 67.8337 186.342C65.1753 182.267 63.3845 177.687 62.5726 172.89C62.5395 172.693 62.5084 172.495 62.4794 172.298C62.4734 172.253 62.4286 171.935 62.4516 172.109C62.4746 172.283 62.4371 171.995 62.4298 171.941C62.3959 171.658 62.3645 171.376 62.339 171.094C62.3185 170.852 62.2979 170.61 62.2919 170.368C62.2652 169.201 60.4502 169.198 60.4769 170.368H60.4805Z" fill="#1B1B1B"/>
<path d="M119.564 107.984C96.6946 107.984 78.1514 126.525 78.1514 149.396C78.1514 172.268 96.6946 190.808 119.564 190.808C142.433 190.808 160.976 172.268 160.976 149.396C160.976 126.525 142.433 107.984 119.564 107.984ZM134.602 180.215C134.602 180.358 134.575 180.501 134.52 180.633C134.466 180.766 134.386 180.887 134.285 180.989C134.183 181.091 134.063 181.171 133.931 181.226C133.798 181.282 133.656 181.31 133.513 181.31H105.621C105.477 181.311 105.334 181.283 105.201 181.228C105.068 181.173 104.947 181.093 104.845 180.991C104.743 180.889 104.662 180.768 104.607 180.635C104.553 180.502 104.525 180.359 104.526 180.215V172.126C104.526 171.982 104.554 171.84 104.609 171.708C104.664 171.575 104.745 171.455 104.847 171.354C104.949 171.253 105.069 171.173 105.202 171.118C105.335 171.064 105.477 171.036 105.621 171.037H113.353C113.581 171.037 113.799 170.946 113.96 170.785C114.121 170.624 114.212 170.406 114.212 170.178V131.978H105.761V127.182C111.04 127.182 113.142 121.737 113.874 118.968C113.995 118.516 114.263 118.116 114.635 117.832C115.007 117.547 115.463 117.394 115.931 117.395H123.281C123.844 117.395 124.385 117.619 124.783 118.018C125.182 118.416 125.406 118.957 125.406 119.52V170.178C125.406 170.406 125.496 170.624 125.657 170.785C125.818 170.946 126.037 171.037 126.265 171.037H133.511C133.8 171.037 134.077 171.152 134.281 171.356C134.486 171.56 134.6 171.837 134.6 172.126L134.602 180.215Z" fill="#5E59FF"/>
<path d="M134.601 172.126V180.215C134.602 180.359 134.574 180.501 134.52 180.634C134.466 180.767 134.386 180.887 134.284 180.989C134.183 181.091 134.063 181.172 133.93 181.227C133.798 181.282 133.656 181.31 133.512 181.31H105.62C105.476 181.311 105.334 181.283 105.2 181.228C105.067 181.174 104.946 181.093 104.844 180.991C104.743 180.889 104.662 180.768 104.607 180.635C104.552 180.502 104.525 180.359 104.525 180.215V172.126C104.525 171.983 104.554 171.841 104.609 171.708C104.664 171.576 104.745 171.455 104.847 171.354C104.948 171.253 105.069 171.173 105.202 171.118C105.335 171.064 105.477 171.036 105.62 171.037H113.352C113.58 171.037 113.799 170.947 113.96 170.786C114.121 170.625 114.211 170.406 114.211 170.178V131.978H105.761V127.182C111.04 127.182 113.142 121.737 113.874 118.969C113.995 118.516 114.263 118.116 114.635 117.832C115.007 117.547 115.462 117.394 115.931 117.396H123.28C123.844 117.396 124.384 117.619 124.783 118.018C125.181 118.416 125.405 118.957 125.405 119.52V170.178C125.405 170.406 125.496 170.625 125.657 170.786C125.818 170.947 126.036 171.037 126.264 171.037H133.511C133.654 171.037 133.796 171.065 133.928 171.12C134.06 171.174 134.181 171.255 134.282 171.356C134.383 171.457 134.463 171.577 134.518 171.709C134.573 171.841 134.601 171.983 134.601 172.126Z" fill="#1B1B1B"/>
</svg>
