<svg width="243" height="242" viewBox="0 0 243 242" fill="none" xmlns="http://www.w3.org/2000/svg">
<rect width="242" height="242" transform="translate(0.5)" fill="#EDEDED"/>
<path d="M68.5868 151.734C68.132 152.249 67.5543 152.642 66.9073 152.875C66.3125 153.088 65.6711 153.136 65.0511 153.014C64.4244 152.887 63.8456 152.587 63.3801 152.149C63.1302 151.92 62.9037 151.666 62.7037 151.392C62.476 151.069 62.2921 150.716 62.1568 150.345C61.9696 149.824 61.8331 149.287 61.749 148.74L60.9238 143.939L62.7243 141.97L63.6923 147.765L63.0764 147.69C63.1144 147.555 63.1633 147.423 63.2228 147.295C63.2765 147.182 63.338 147.072 63.4068 146.966C63.4793 146.86 63.5602 146.759 63.6488 146.665C64.0575 146.201 64.5831 145.855 65.1709 145.663C65.7264 145.485 66.3196 145.461 66.8879 145.592C67.4776 145.731 68.0202 146.023 68.4609 146.439C68.9553 146.877 69.321 147.441 69.5185 148.071C69.7056 148.68 69.724 149.328 69.5717 149.947C69.4025 150.617 69.0633 151.233 68.5868 151.734ZM67.0973 150.371C67.2894 150.168 67.4242 149.918 67.4881 149.645C67.5475 149.379 67.535 149.101 67.4518 148.841C67.3613 148.56 67.1966 148.309 66.975 148.115C66.7693 147.926 66.518 147.795 66.246 147.734C65.9741 147.673 65.6908 147.684 65.4243 147.766C65.1578 147.848 64.9173 147.998 64.7267 148.201C64.536 148.404 64.4018 148.654 64.3372 148.925C64.2744 149.189 64.2815 149.465 64.3578 149.725C64.446 150.007 64.6111 150.258 64.8345 150.451C65.0488 150.655 65.3144 150.797 65.6029 150.861C65.8715 150.921 66.1512 150.907 66.4124 150.82C66.6754 150.734 66.9114 150.581 67.0973 150.376V150.371Z" fill="black"/>
<path d="M72.5688 147.136L68.9557 137.94L65.6076 141.599L64.2246 140.334L69.1602 134.939L70.5432 136.205L74.2434 145.298L72.5688 147.136Z" fill="black"/>
<path d="M123.281 91.6561C122.826 92.1718 122.249 92.5643 121.602 92.7971C121.007 93.0102 120.365 93.0583 119.745 92.9362C119.119 92.8093 118.54 92.5096 118.074 92.0711C117.825 91.842 117.598 91.5887 117.398 91.3148C117.17 90.9912 116.986 90.6389 116.851 90.267C116.664 89.7465 116.527 89.2092 116.443 88.6625L115.618 83.8613L117.419 81.8926L118.387 87.6873L117.771 87.6123C117.809 87.477 117.858 87.3451 117.917 87.2178C117.971 87.104 118.032 86.994 118.101 86.8887C118.174 86.782 118.255 86.6812 118.343 86.5874C118.752 86.1234 119.277 85.7775 119.865 85.5855C120.421 85.4077 121.014 85.3831 121.582 85.5141C122.172 85.6533 122.714 85.9454 123.155 86.3611C123.65 86.7989 124.015 87.3632 124.213 87.9934C124.4 88.6022 124.418 89.2504 124.266 89.8689C124.097 90.5394 123.758 91.155 123.281 91.6561ZM121.792 90.2936C121.984 90.0904 122.119 89.8399 122.182 89.5676C122.242 89.3009 122.229 89.0232 122.146 88.763C122.056 88.4823 121.891 88.2315 121.669 88.037C121.464 87.8488 121.212 87.7176 120.94 87.6564C120.668 87.5952 120.385 87.6061 120.119 87.688C119.852 87.7699 119.612 87.92 119.421 88.1234C119.23 88.3268 119.096 88.5764 119.032 88.8477C118.969 89.1115 118.976 89.3872 119.052 89.6475C119.14 89.9291 119.305 90.1806 119.529 90.3735C119.743 90.5773 120.009 90.719 120.297 90.7837C120.566 90.8433 120.846 90.8291 121.107 90.7425C121.37 90.6551 121.606 90.5003 121.792 90.2936Z" fill="black"/>
<path d="M88.4679 129.751L81.9339 123.775L80.5219 125.317L79.1279 124.042L82.0549 120.85L89.9804 128.102L88.4679 129.751Z" fill="black"/>
<path d="M92.9792 124.825L86.4452 118.849L85.0355 120.395L83.6416 119.12L86.5625 115.918L94.488 123.169L92.9792 124.825Z" fill="black"/>
<path d="M96.2407 121.261L94.9641 120.093L94.7221 115.96C94.6721 115.146 94.6205 114.516 94.5672 114.069C94.5355 113.719 94.4603 113.374 94.3434 113.043C94.2592 112.823 94.1265 112.625 93.955 112.463C93.8329 112.339 93.6849 112.244 93.5218 112.184C93.3586 112.125 93.1843 112.102 93.0112 112.117C92.6615 112.159 92.3407 112.332 92.1134 112.601C91.854 112.877 91.692 113.23 91.6524 113.607C91.6213 114.027 91.7274 114.447 91.9549 114.802L90.1725 115.81C89.8457 115.366 89.6428 114.843 89.5845 114.295C89.526 113.746 89.5901 113.19 89.772 112.669C89.9521 112.138 90.2405 111.651 90.619 111.237C91.0441 110.752 91.5703 110.367 92.1606 110.107C92.6723 109.881 93.2381 109.804 93.7916 109.887C94.3449 109.982 94.8573 110.24 95.263 110.627C95.5479 110.889 95.7847 111.198 95.9624 111.541C96.1561 111.923 96.2962 112.33 96.3786 112.751C96.4828 113.284 96.5475 113.823 96.5722 114.365L96.7803 117.897L99.7787 114.62L101.162 115.886L96.2407 121.261Z" fill="black"/>
<path d="M105.089 111.846C104.696 112.278 104.22 112.627 103.69 112.872C103.18 113.112 102.622 113.236 102.058 113.235C101.502 113.234 100.957 113.085 100.478 112.806L101.325 110.9C101.717 111.083 102.155 111.144 102.583 111.074C102.979 110.995 103.337 110.787 103.603 110.482C103.824 110.254 103.985 109.976 104.072 109.67C104.145 109.399 104.14 109.113 104.057 108.844C103.965 108.558 103.798 108.303 103.573 108.105C103.36 107.9 103.097 107.756 102.809 107.69C102.541 107.634 102.262 107.657 102.006 107.756C101.708 107.877 101.444 108.067 101.234 108.31C101.09 108.468 100.964 108.641 100.859 108.827C100.756 109.004 100.675 109.192 100.617 109.389L99.4684 109.041L99.1151 104.987L96.2825 108.082L94.8994 106.816L99.426 101.87L100.703 103.037L101.167 107.293L100.545 106.626C100.93 106.186 101.421 105.853 101.972 105.658C102.475 105.486 103.017 105.46 103.535 105.583C104.091 105.722 104.602 106.004 105.016 106.4C105.521 106.848 105.89 107.429 106.081 108.077C106.266 108.71 106.276 109.382 106.111 110.02C105.93 110.705 105.578 111.333 105.089 111.846Z" fill="black"/>
<path d="M109.245 107.048L105.631 97.8597L102.283 101.519L100.9 100.253L105.836 94.8638L107.223 96.1258L110.923 105.219L109.245 107.048Z" fill="black"/>
<path d="M117.12 98.6973C116.665 99.213 116.087 99.6055 115.44 99.8384C114.846 100.051 114.204 100.1 113.584 99.9775C112.958 99.8505 112.379 99.5509 111.913 99.1124C111.663 98.8832 111.437 98.6299 111.237 98.3561C111.009 98.0325 110.825 97.6801 110.69 97.3083C110.503 96.7878 110.366 96.2505 110.282 95.7038L109.457 90.9025L111.258 88.9351L112.226 94.7297L111.61 94.6547C111.648 94.5195 111.697 94.3875 111.756 94.2603C111.81 94.1465 111.871 94.0365 111.94 93.9311C112.012 93.8244 112.093 93.7237 112.182 93.6299C112.591 93.1659 113.116 92.82 113.704 92.628C114.26 92.4502 114.853 92.4255 115.421 92.5566C116.011 92.6957 116.553 92.9879 116.994 93.4036C117.489 93.8414 117.854 94.4057 118.052 95.0359C118.239 95.6447 118.257 96.2929 118.105 96.9114C117.936 97.5815 117.596 98.1966 117.12 98.6973ZM115.63 97.3349C115.823 97.1317 115.957 96.8812 116.021 96.6089C116.081 96.3422 116.068 96.0645 115.985 95.8042C115.895 95.5236 115.73 95.2727 115.508 95.0782C115.303 94.8901 115.051 94.7589 114.779 94.6977C114.507 94.6365 114.224 94.6474 113.958 94.7293C113.691 94.8112 113.451 94.9612 113.26 95.1646C113.069 95.368 112.935 95.6177 112.87 95.8889C112.808 96.1528 112.815 96.4285 112.891 96.6887C112.979 96.9704 113.144 97.2218 113.368 97.4147C113.582 97.6185 113.848 97.7603 114.136 97.8249C114.405 97.8846 114.684 97.8703 114.946 97.7838C115.209 97.696 115.445 97.5408 115.63 97.3337V97.3349Z" fill="black"/>
<path d="M167.607 112.143L162.557 117.883L149.869 132.301L133.237 151.197L116.372 170.368L102.96 185.614C100.873 187.984 98.7947 190.363 96.7002 192.726C94.5222 195.182 90.9345 195.5 88.4359 193.314C87.2565 192.283 86.0804 191.248 84.9075 190.21L68.5362 175.797L49.999 159.485L43.6163 153.868C42.7051 153.067 41.7178 152.303 40.8768 151.425C38.8731 149.333 38.8198 145.971 40.6941 143.783C40.8151 143.639 40.9446 143.499 41.0692 143.356L43.6876 140.381L54.8717 127.676L70.886 109.47L88.0341 89.9817L102.624 73.4071L110.947 63.9485C111.168 63.6969 111.388 63.4452 111.611 63.1947C112.623 62.0537 113.961 61.2587 115.506 61.1377C117.142 61.007 118.668 61.5636 119.892 62.6357C120.3 62.9931 120.708 63.3512 121.114 63.7102L135.052 75.982L154.251 92.8772L166.472 103.633C166.793 103.916 167.126 104.192 167.422 104.502C169.427 106.595 169.479 109.953 167.606 112.144C166.851 113.027 168.129 114.322 168.89 113.428C170.983 110.98 171.431 107.48 169.79 104.655C169.306 103.808 168.641 103.128 167.918 102.493L163.691 98.7736L155.978 91.9867L146.438 83.5917L136.617 74.9487L128.089 67.4467L122.411 62.4506C121.996 62.0851 121.581 61.7197 121.165 61.3543C119.81 60.1673 118.206 59.4183 116.391 59.3215C114.118 59.192 111.892 60.1685 110.382 61.8516C110.198 62.0561 110.019 62.2642 109.837 62.4699L106.867 65.8458L101.758 71.6538L95.0388 79.2889L87.1654 88.2357L78.6143 97.9532L69.8188 107.949L61.3488 117.579L53.6193 126.346L47.1277 133.727L42.324 139.186L39.7334 142.13C39.5398 142.351 39.3437 142.567 39.1622 142.796C37.1924 145.267 36.9371 148.822 38.648 151.508C39.495 152.848 40.8575 153.858 42.036 154.896L48.2796 160.39L57.1283 168.168L67.0104 176.865L76.3601 185.093L83.6273 191.489C84.8051 192.525 85.9832 193.562 87.1617 194.598C90.3211 197.362 95.0776 197.26 97.9307 194.073C98.5357 193.403 99.119 192.723 99.7131 192.048L103.86 187.335L109.852 180.526L117.233 172.144L125.516 162.732L134.274 152.779L142.943 142.929L151.087 133.674L158.226 125.554L163.913 119.086L167.618 114.876L168.894 113.424C169.658 112.552 168.382 111.263 167.607 112.143Z" fill="#1B1B1B"/>
<path d="M103.566 42.1191C103.603 42.2486 103.628 42.3817 103.653 42.5148C103.685 42.6769 103.708 42.839 103.733 42.9988C103.766 43.2057 103.707 42.7422 103.733 42.9612C103.733 43.0109 103.745 43.0593 103.751 43.1089C103.765 43.2299 103.778 43.3509 103.789 43.4719C103.914 44.9911 103.884 46.5193 103.698 48.0324C103.642 48.5164 103.598 48.8382 103.495 49.4396C103.396 50.018 103.281 50.5931 103.151 51.1651C102.848 52.488 102.475 53.7939 102.033 55.077C100.89 58.4166 99.3155 61.5965 97.5053 64.6215C94.657 69.3804 91.2061 73.7473 87.4623 77.8286C86.6734 78.6877 87.9536 79.9752 88.7461 79.1124C94.7731 72.5482 100.2 65.1514 103.358 56.7516C104.881 52.6993 105.933 48.2429 105.639 43.8845C105.588 43.1379 105.525 42.3563 105.323 41.6315C105.01 40.5074 103.259 40.9853 103.573 42.1155L103.566 42.1191Z" fill="#1B1B1B"/>
<path d="M84.8707 42.0389C85.5058 47.1653 85.5804 52.3456 85.0933 57.4882C84.7642 60.8593 84.1653 64.5062 82.3708 67.4368C80.8196 69.9778 76.5023 74.0918 73.3926 71.7843C72.3666 71.022 71.9649 69.6789 72.0532 68.3322C72.1488 66.8863 72.7501 65.3205 73.9069 64.3949C75.3057 63.2756 77.1449 63.5878 78.6368 64.3743C79.5649 64.8583 80.4833 65.4839 81.2093 66.2462C81.2395 66.2776 81.2673 66.3127 81.2964 66.3466C81.4428 66.5172 81.1887 66.1869 81.3157 66.372C81.3774 66.4628 81.4367 66.5547 81.4948 66.6503C81.5529 66.7459 81.5892 66.827 81.6352 66.9153C81.6594 66.9637 81.7199 67.1113 81.6352 66.9153C81.6606 66.9782 81.6872 67.0363 81.7078 67.1065C81.7799 67.3295 81.8405 67.5561 81.8893 67.7853C81.899 67.8325 81.9062 67.8809 81.9147 67.9281C81.9595 68.1701 81.8977 67.7308 81.9219 67.9801C81.9365 68.1193 81.9473 68.2584 81.9546 68.3988C81.9667 68.6517 81.9631 68.9058 81.9546 69.1599C81.9473 69.2994 81.9365 69.439 81.9219 69.5785C81.9147 69.6503 81.9066 69.7217 81.8977 69.7927C81.8889 69.8637 81.8889 69.8556 81.8977 69.7685C81.8897 69.8274 81.8808 69.8859 81.8711 69.9439C81.6345 71.2622 81.2481 72.5491 80.7192 73.7796C79.4414 76.8288 77.543 79.7546 75.5162 82.4069C73.3271 85.2905 70.8312 87.9277 68.0723 90.2719C65.835 92.1571 63.2541 93.9782 60.4989 94.7671C59.9853 94.9182 59.4587 95.0207 58.9259 95.0732C57.7691 95.1652 57.7595 96.9814 58.9259 96.8882C62.0138 96.6462 64.8621 94.9788 67.3051 93.1784C70.4306 90.8794 73.2051 88.1072 75.6723 85.1149C78.0741 82.2012 80.2703 79.048 81.8784 75.6213C83.0605 73.1032 84.1919 70.1327 83.6462 67.3049C83.4115 66.0852 82.7532 65.1076 81.7985 64.3344C79.8904 62.7892 77.4982 61.457 74.9608 61.9507C71.3308 62.6573 69.4045 67.3824 70.5177 70.6796C71.0658 72.3034 72.3327 73.6163 74.011 74.0676C76.0244 74.6036 78.1334 73.8474 79.7875 72.6991C81.7054 71.3681 83.3933 69.5422 84.4472 67.4477C85.287 65.7791 85.8339 63.9726 86.2199 62.1503C87.0548 58.2081 87.2435 54.1304 87.1879 50.1096C87.1503 47.5444 87.0124 44.9744 86.7353 42.4237C86.722 42.3027 86.7075 42.172 86.693 42.0462C86.6337 41.5622 86.3191 41.1387 85.7855 41.1387C85.3414 41.1387 84.8175 41.5561 84.878 42.0462L84.8707 42.0389Z" fill="#1B1B1B"/>
<path d="M181.728 101.313L77.1965 126.313C73.6491 127.161 71.4612 130.724 72.3095 134.272L86.9586 195.525C87.807 199.072 91.3704 201.26 94.9178 200.412L199.449 175.412C202.997 174.564 205.185 171.001 204.336 167.453L189.687 106.2C188.839 102.653 185.275 100.465 181.728 101.313Z" fill="#5E59FF"/>
<path d="M185.015 113.905L79.963 139.028C79.3351 139.179 78.9479 139.809 79.098 140.437L81.8159 151.802C81.9661 152.429 82.5968 152.817 83.2246 152.667L188.276 127.543C188.904 127.393 189.291 126.762 189.141 126.134L186.423 114.77C186.273 114.142 185.643 113.754 185.015 113.905Z" fill="#1B1B1B"/>
<path d="M209.081 188.466C206.873 187.306 204.249 186.742 201.821 186.299C194.62 184.986 187.203 185.255 179.982 186.248C173.56 187.133 167.241 188.66 161.056 190.582C159.944 190.928 160.418 192.68 161.54 192.332C171.173 189.338 181.217 187.232 191.341 187.226C196.398 187.226 201.348 187.658 206.165 189.248C206.487 189.354 206.81 189.467 207.133 189.588C207.259 189.635 207.386 189.684 207.511 189.735L207.669 189.799C207.89 189.887 207.48 189.715 207.629 189.782C207.809 189.864 207.992 189.939 208.168 190.031C209.202 190.573 210.12 189.007 209.084 188.458L209.081 188.466Z" fill="#1B1B1B"/>
<path d="M189.286 136.691L192.602 149.466C193.707 153.724 194.863 157.971 195.917 162.241C196.172 163.26 196.127 164.331 195.788 165.325C195.448 166.319 194.827 167.194 194.002 167.843C193.293 168.394 192.477 168.69 191.622 168.897L186.857 170.082L168.983 174.525C164.819 175.559 160.622 176.508 156.481 177.632C156.414 177.65 156.348 177.665 156.281 177.682C155.149 177.964 155.628 179.714 156.765 179.431L167.534 176.756L186.012 172.158L191.66 170.754C191.958 170.681 192.257 170.61 192.553 170.532C193.686 170.223 194.728 169.646 195.59 168.849C196.452 168.051 197.108 167.058 197.504 165.952C198.289 163.782 197.672 161.742 197.126 159.639L195.052 151.653L191.118 136.494L191.043 136.208C190.751 135.078 188.998 135.557 189.294 136.692L189.286 136.691Z" fill="#1B1B1B"/>
</svg>
