<svg width="243" height="242" viewBox="0 0 243 242" fill="none" xmlns="http://www.w3.org/2000/svg">
<rect width="242" height="242" transform="translate(0.5)" fill="#EDEDED"/>
<path d="M29.2855 119.79C33.9041 118.701 38.4622 117.27 42.9392 115.711C47.1169 114.274 51.2182 112.624 55.2267 110.766C59.2766 108.871 63.0808 106.652 66.7931 104.164C74.5891 98.9457 82.586 94.0004 90.8418 89.5367C94.9486 87.3176 99.1255 85.2158 103.417 83.3778C107.013 81.8375 110.722 80.4388 114.555 79.6135C117.034 79.0799 119.558 78.6818 122.072 78.3588C124.199 78.0853 126.347 77.8857 128.493 77.9099C131.446 77.9437 134.794 78.3939 136.88 80.7146C137.318 81.2121 137.687 81.7664 137.977 82.3627C138.152 82.7111 138.673 82.405 138.5 82.0577C137.193 79.4417 134.681 78.0744 131.877 77.5904C127.801 76.8874 123.528 77.4924 119.48 78.1252C117.256 78.4737 115.02 78.8343 112.84 79.4018C110.96 79.9001 109.107 80.4938 107.288 81.1805C103.079 82.7438 98.9936 84.6447 95.0006 86.6751C86.3612 91.0589 78.0413 96.0744 69.9306 101.369C66.245 103.772 62.6609 106.29 58.7599 108.344C54.6459 110.511 50.348 112.344 45.9884 113.973C40.5651 115.999 35.0137 117.772 29.386 119.145L29.1246 119.208C28.7459 119.298 28.9056 119.881 29.2855 119.792V119.79Z" fill="#1B1B1B"/>
<path d="M109.754 99.5109C109.754 99.5109 112.919 92.4627 124.353 89.9519C135.786 87.4412 136.265 86.7721 138.345 83.856C138.345 83.856 165.603 85.0212 182.427 95.835C199.25 106.649 213.131 124.672 218.293 131.906C218.293 131.906 217.018 139.626 205.331 145.337C193.643 151.048 185.352 156.979 181.033 163.035C181.033 163.035 168.422 125.467 143.382 115.126C118.342 104.785 109.754 99.5109 109.754 99.5109Z" fill="#5E59FF"/>
<path d="M192.591 114.357C191.129 112.71 189.097 111.679 186.904 111.471C184.652 111.235 182.267 111.723 179.748 112.934L179.53 113.038C179.246 112.727 178.96 112.417 178.672 112.11C176.407 109.701 173.991 107.438 171.44 105.334C172.116 105.074 172.82 104.896 173.537 104.804C174.806 104.64 176.095 104.725 177.331 105.056C177.854 105.197 178.412 105.142 178.897 104.9C179.383 104.659 179.764 104.249 179.968 103.746L180.01 103.642C180.123 103.362 180.177 103.062 180.17 102.76C180.163 102.459 180.093 102.161 179.967 101.887C179.84 101.613 179.658 101.368 179.433 101.167C179.208 100.966 178.943 100.814 178.657 100.719C176.837 100.127 174.902 99.9806 173.015 100.293C171.084 100.595 169.242 101.313 167.617 102.398C166.317 101.47 164.986 100.589 163.624 99.7558C162.515 99.0782 161.383 98.4139 160.212 97.85C159.263 97.3926 158.049 98.0557 157.698 98.979C157.297 100.034 157.877 101.036 158.827 101.492C159.002 101.576 159.172 101.666 159.343 101.756L159.386 101.78L159.796 102.008C160.143 102.203 160.488 102.404 160.831 102.613C162.122 103.381 163.382 104.201 164.613 105.062C163.737 106.074 163.03 107.223 162.521 108.462C161.827 110.115 161.601 111.928 161.869 113.701C162.139 115.462 162.945 117.075 164.289 118.541C165.653 120.07 167.528 121.049 169.562 121.291C171.651 121.562 174.12 120.998 176.97 119.597L179.136 118.539C180.55 120.271 181.881 122.068 183.129 123.928C183.297 124.179 183.464 124.431 183.629 124.684C183.728 124.837 183.827 124.99 183.926 125.144L183.982 125.231L184.049 125.339C184.412 125.92 184.765 126.502 185.11 127.092C185.231 127.304 185.352 127.517 185.473 127.731C184.421 128.273 183.278 128.618 182.102 128.749C180.625 128.921 179.128 128.812 177.692 128.426C177.166 128.282 176.605 128.337 176.116 128.581C175.628 128.825 175.246 129.24 175.044 129.747L175.023 129.8C174.913 130.081 174.861 130.382 174.871 130.684C174.881 130.985 174.952 131.282 175.081 131.555C175.21 131.828 175.393 132.072 175.619 132.272C175.846 132.472 176.111 132.624 176.398 132.717C178.228 133.321 180.164 133.535 182.081 133.344C183.999 133.153 185.855 132.562 187.53 131.609C188.769 134.141 189.855 136.747 190.78 139.41C191.126 140.405 192.482 140.768 193.368 140.356C194.401 139.872 194.661 138.765 194.314 137.768C193.297 134.848 192.088 131.999 190.695 129.239C192.261 127.753 193.4 126.155 194.112 124.446C194.862 122.643 195.111 120.854 194.857 119.078C194.605 117.309 193.813 115.661 192.591 114.357ZM174.572 115.424C173.925 115.732 173.258 115.996 172.575 116.215C171.767 116.481 170.908 116.56 170.065 116.444C169.182 116.334 168.355 115.856 167.584 115.011C167.102 114.505 166.739 113.897 166.522 113.231C166.305 112.566 166.24 111.861 166.332 111.167C166.473 109.912 167.054 108.736 168.075 107.64C168.984 108.36 169.877 109.101 170.753 109.862C171.076 110.146 171.398 110.432 171.721 110.722C171.894 110.878 172.066 111.035 172.238 111.193L172.25 111.205C172.371 111.315 172.485 111.424 172.601 111.534C173.318 112.211 174.022 112.902 174.712 113.608C175.098 114.002 175.479 114.401 175.856 114.803L174.572 115.424ZM190.207 121.824C189.942 123.09 189.363 124.269 188.522 125.253C186.797 122.312 184.867 119.496 182.748 116.825C183.034 116.713 183.34 116.602 183.665 116.492C184.56 116.19 185.506 116.073 186.448 116.146C187.405 116.218 188.283 116.691 189.083 117.566C190.169 118.753 190.543 120.173 190.206 121.824H190.207Z" fill="black"/>
<path d="M39.0854 156.624C51.1854 152.033 64.695 149.069 77.6214 151.387C81.1258 152.002 84.5363 153.066 87.7685 154.552C88.1194 154.716 88.4267 154.189 88.0734 154.03C76.0944 148.464 62.2242 149.351 49.7358 152.578C46.071 153.533 42.4614 154.689 38.9232 156.04C38.5602 156.176 38.7187 156.766 39.0841 156.623L39.0854 156.624Z" fill="#1B1B1B"/>
<path d="M118.511 99.3221L128.037 103.618L143.283 110.493L146.769 112.066C147.219 112.269 147.737 112.187 148.01 111.74C148.241 111.354 148.131 110.7 147.685 110.499L138.159 106.203L122.913 99.3281L119.427 97.7551C118.977 97.5518 118.459 97.6341 118.186 98.0806C117.955 98.4666 118.065 99.1212 118.511 99.3221Z" fill="black"/>
<path d="M29.5284 120.666C33.4936 119.65 37.3801 118.223 41.194 116.754C50.784 113.057 60.0325 108.528 68.834 103.221C74.2367 99.9621 79.3296 96.2365 84.6947 92.9211C89.0156 90.2506 93.4684 87.7834 98.0846 85.6611C103.959 82.9592 110.148 80.8211 116.555 79.8374C116.82 79.7962 117.085 79.7587 117.35 79.7164C117.615 79.674 117.304 79.7164 117.569 79.6873L118.017 79.6305C118.483 79.5732 118.95 79.522 119.417 79.4768C120.232 79.3969 121.048 79.3352 121.865 79.2771C124.298 79.1065 126.746 79.0351 129.18 79.2142C131.406 79.3824 133.77 79.7454 135.746 80.8441C136.502 81.2652 137.207 81.8036 137.717 82.5115C138.005 82.912 138.503 83.0959 138.958 82.837C139.354 82.6119 139.563 81.99 139.284 81.5955C136.501 77.7235 130.807 77.3181 126.448 77.2939C123.751 77.2936 121.056 77.4552 118.377 77.7779C112.448 78.464 106.691 80.112 101.166 82.3626C96.8197 84.1511 92.5926 86.2172 88.511 88.5482C85.9967 89.9727 83.5267 91.4731 81.101 93.0494C78.3688 94.8135 75.7177 96.6963 72.994 98.4726C63.7428 104.506 53.9378 109.644 43.712 113.817C38.9832 115.753 34.1554 117.438 29.2489 118.865C29.1811 118.884 29.1121 118.901 29.0432 118.919C27.913 119.208 28.3922 120.96 29.5272 120.669L29.5284 120.666Z" fill="black"/>
<path d="M152.505 80.4277L152.698 80.452C152.961 80.4846 152.444 80.4157 152.716 80.452L153.058 80.5003C153.768 80.602 154.476 80.7129 155.182 80.8331C157.569 81.2364 159.94 81.7164 162.297 82.273C168.868 83.8242 175.44 85.903 181.372 89.17C184.623 90.9656 187.704 93.1557 190.084 96.0392C190.398 96.4203 191.041 96.3586 191.367 96.0392C191.746 95.6689 191.677 95.1317 191.367 94.7554C186.912 89.3491 180.15 86.122 173.701 83.7552C168.062 81.6849 162.191 80.216 156.277 79.1839C155.025 78.9649 153.769 78.7604 152.507 78.6067C152.023 78.5474 151.6 79.0665 151.6 79.5142C151.6 80.0539 152.018 80.3612 152.507 80.4217L152.505 80.4277Z" fill="#1B1B1B"/>
<path d="M153.959 74.9331C156.673 75.9422 159.564 76.615 162.429 77.0264C167.05 77.6907 172.531 77.8008 176.332 74.6463C177.375 73.7812 178.131 72.6764 178.775 71.5003C179.488 70.1911 180.106 68.7827 180.28 67.2907C180.486 65.558 179.744 63.7249 177.897 63.3219C176.41 62.9977 174.694 63.6075 173.866 64.9167C173.605 65.3102 173.467 65.7725 173.469 66.2447C173.471 66.717 173.614 67.1779 173.878 67.569C174.512 68.4838 175.608 68.9872 176.647 69.286C178.937 69.9479 181.957 69.9092 183.839 68.2624C184.997 67.2484 185.896 65.8787 186.696 64.5755C187.356 63.4916 187.957 62.3727 188.496 61.2238C188.581 61.0447 188.664 60.8608 188.738 60.6841C188.937 60.2316 188.868 59.7161 188.413 59.4427C188.03 59.214 187.367 59.3217 187.171 59.7682C186.396 61.548 185.452 63.2498 184.353 64.8502C183.705 65.7903 182.931 66.8987 181.911 67.3827C181.033 67.8002 179.985 67.8836 179.017 67.8437C178.049 67.8038 177.004 67.609 176.172 67.1734C175.991 67.0825 175.818 66.976 175.656 66.8551C175.717 66.9035 175.322 66.5042 175.414 66.6216C175.365 66.5576 175.325 66.4882 175.293 66.4147C175.356 66.5551 175.293 66.405 175.275 66.3421C175.232 66.1703 175.275 66.4571 175.267 66.278C175.26 66.0989 175.267 66.2356 175.254 66.278C175.265 66.2235 175.275 66.1679 175.291 66.1146C175.346 65.9331 175.245 66.1812 175.308 66.0505C175.335 65.9936 175.368 65.9416 175.397 65.8859C175.428 65.8318 175.462 65.7797 175.5 65.7298C175.379 65.8944 175.5 65.7298 175.56 65.6718C175.621 65.6137 175.895 65.3874 175.713 65.5193C175.829 65.4369 175.95 65.3618 176.076 65.2942C176.142 65.2567 176.212 65.2241 176.282 65.1938C176.14 65.2567 176.222 65.2168 176.312 65.1938C176.449 65.1502 176.587 65.1152 176.728 65.0813C176.763 65.0728 176.97 65.045 176.835 65.0607C176.701 65.0764 176.948 65.0607 176.977 65.0547H177.173C177.213 65.0547 177.446 65.074 177.311 65.0547C177.175 65.0353 177.378 65.0656 177.413 65.0752L177.599 65.1224C177.67 65.1425 177.741 65.1668 177.809 65.195C177.639 65.1261 177.773 65.1781 177.851 65.2277C177.904 65.2616 177.96 65.2942 178.013 65.3293C178.066 65.3644 177.905 65.2229 178.03 65.3475L178.169 65.4854C178.309 65.6282 178.127 65.3898 178.232 65.5689C178.306 65.6899 178.394 65.8908 178.364 65.8109C178.421 65.9725 178.464 66.1389 178.492 66.3082C178.467 66.1485 178.499 66.4208 178.5 66.4692C178.5 66.566 178.5 66.6628 178.5 66.7608C178.496 66.9522 178.479 67.143 178.447 67.3319C178.214 68.681 177.583 69.9406 176.902 71.1143C176.407 72.0073 175.745 72.7971 174.953 73.4412C171.729 75.9822 166.932 75.8297 163.095 75.307C160.174 74.9089 157.397 74.097 154.59 73.2391C154.541 73.2246 154.494 73.2052 154.446 73.1871C153.349 72.7793 152.873 74.5326 153.962 74.9367L153.959 74.9331Z" fill="#1B1B1B"/>
<path d="M39.384 156.824C39.6102 156.715 39.8401 156.614 40.07 156.512L40.4463 156.349L40.5673 156.297L40.7694 156.213C41.1526 156.052 41.5374 155.898 41.9237 155.751C44.2865 154.836 46.6962 154.048 49.1426 153.389C56.6265 151.361 64.4697 150.455 72.2052 151.231C77.4203 151.753 82.5664 153.107 87.3145 155.336C88.366 155.83 89.288 154.265 88.2304 153.763C79.8088 149.811 70.4314 148.567 61.2099 149.379C54.6814 149.962 48.262 151.428 42.127 153.735C40.894 154.199 39.6574 154.68 38.4704 155.254C37.4189 155.762 38.3385 157.327 39.3864 156.827L39.384 156.824Z" fill="black"/>
<path d="M39.3933 164.821C42.8696 163.818 46.3883 162.948 49.913 162.132C56.718 160.559 63.6235 159.172 70.5919 158.578C73.6435 158.318 76.7629 158.177 79.8073 158.565C80.2465 158.62 80.9713 158.746 81.5194 158.875C82.3301 159.067 83.1287 159.316 83.9322 159.535C86.0077 160.1 88.0929 160.627 90.1878 161.116C94.7858 162.19 99.431 163.08 104.115 163.694C108.446 164.26 112.857 164.621 117.222 164.29C119.022 164.154 120.834 163.907 122.572 163.409C125.079 162.692 127.544 161.753 129.974 160.809C132.888 159.677 135.782 158.456 138.565 157.029C138.696 156.962 138.826 156.895 138.954 156.826C139.983 156.272 139.068 154.705 138.039 155.253C136.156 156.267 134.179 157.129 132.208 157.955C129.929 158.909 127.621 159.79 125.285 160.597C123.307 161.285 121.351 161.937 119.275 162.247C115.188 162.859 110.949 162.61 106.856 162.193C102.183 161.709 97.5471 160.883 92.96 159.879C90.811 159.408 88.6733 158.897 86.547 158.344C84.8796 157.912 83.2267 157.361 81.5388 157.013C78.6348 156.422 75.6098 156.439 72.6658 156.606C65.5982 157.005 58.5742 158.335 51.6748 159.863C47.4724 160.795 43.2374 161.759 39.1137 163.009L38.9129 163.066C37.7924 163.389 38.2692 165.141 39.3969 164.815L39.3933 164.821Z" fill="black"/>
<path d="M157.452 145.039C157.5 145.281 157.452 144.797 157.452 144.987C157.452 145.149 157.475 145.312 157.474 145.471C157.474 145.573 157.474 145.675 157.461 145.776C157.461 145.833 157.451 145.889 157.447 145.946C157.43 146.175 157.489 145.747 157.447 145.978C157.392 146.286 157.317 146.589 157.223 146.887C157.198 146.963 157.169 147.038 157.142 147.113C157.128 147.152 157.112 147.191 157.096 147.234C157.045 147.355 157.19 147.029 157.096 147.222C157.002 147.416 156.918 147.585 156.817 147.764C156.634 148.106 156.405 148.421 156.137 148.701C155.346 149.578 154.472 150.153 153.391 150.694C149.559 152.595 145.026 152.647 140.869 153.187C136.795 153.717 132.733 154.339 128.697 155.108C125.657 155.686 122.636 156.361 119.622 157.073C118.486 157.341 118.967 159.091 120.106 158.822C126.82 157.226 133.61 155.97 140.45 155.057C144.955 154.463 149.708 154.366 153.907 152.451C156.011 151.491 157.929 149.959 158.82 147.774C159.223 146.785 159.425 145.619 159.209 144.558C158.967 143.414 157.222 143.898 157.459 145.042L157.452 145.039Z" fill="black"/>
<path d="M125.474 147.551C126.952 146.765 128.306 146.255 129.9 145.695C133.549 144.397 137.349 143.574 141.208 143.247C143.625 143.05 146.056 143.081 148.468 143.339C150.703 143.581 152.945 143.772 155.191 143.729C158.189 143.671 161.494 143.308 164.082 141.658C166.302 140.244 167.501 137.972 167.591 135.359C167.628 134.19 165.813 134.193 165.776 135.359C165.715 137.224 164.929 138.895 163.376 139.957C161.048 141.545 157.975 141.862 155.195 141.915C152.945 141.958 150.708 141.771 148.473 141.525C146.127 141.273 143.763 141.237 141.41 141.418C137.523 141.716 133.688 142.499 129.995 143.748C128.15 144.369 126.283 145.067 124.561 145.984C123.53 146.533 124.44 148.1 125.477 147.557L125.474 147.551Z" fill="black"/>
<path d="M153.887 125.88C151.964 125.88 150.036 126.009 148.123 126.171C143.549 126.548 139.009 127.255 134.538 128.289C131.52 128.987 128.55 129.88 125.647 130.961C124.558 131.367 125.032 133.123 126.131 132.71C134.344 129.628 143.199 128.099 151.951 127.743C152.596 127.717 153.242 127.694 153.887 127.695C155.055 127.695 155.057 125.88 153.887 125.88Z" fill="black"/>
</svg>
