<svg width="243" height="242" viewBox="0 0 243 242" fill="none" xmlns="http://www.w3.org/2000/svg">
<rect width="242" height="242" transform="translate(0.5)" fill="#EDEDED"/>
<path d="M134.365 157.43C134.887 165.713 131.741 172.619 127.122 173.064L114.254 174.304C109.456 174.767 104.887 168.085 104.048 159.378C103.208 150.671 106.418 143.24 111.216 142.78L121.027 141.834L122.144 153.415C122.209 154.091 122.407 154.748 122.725 155.347C123.044 155.947 123.478 156.478 124.002 156.91C124.526 157.342 125.13 157.666 125.78 157.865C126.429 158.063 127.112 158.132 127.788 158.066L134.365 157.43Z" fill="#1B1B1B"/>
<path d="M124.806 157.451C125.621 166.126 122.416 173.518 117.633 173.979C112.85 174.44 108.266 167.759 107.426 159.052C106.587 150.345 109.796 142.914 114.593 142.452C117.144 142.21 119.632 143.98 121.527 147.004L122.145 153.417C122.226 154.256 122.511 155.061 122.975 155.765C123.438 156.468 124.067 157.047 124.806 157.451Z" fill="#1B1B1B"/>
<path d="M217.687 149.397C218.209 157.681 215.063 164.587 210.444 165.032L197.576 166.272C192.958 166.717 188.55 160.54 187.479 152.31L217.687 149.397Z" fill="#1B1B1B"/>
<path d="M208.198 150.312C208.719 158.596 205.573 165.502 200.955 165.947C196.336 166.392 191.929 160.215 190.858 151.985L208.198 150.312Z" fill="#1B1B1B"/>
<path d="M207.321 150.553C207.338 150.626 207.349 150.699 207.364 150.771C207.378 150.844 207.421 151.163 207.384 150.884C207.4 151 207.413 151.116 207.424 151.232C207.503 152.046 207.518 152.864 207.469 153.68C207.315 156.463 206.472 159.164 205.199 161.626C204.663 162.662 206.229 163.581 206.772 162.542C208.177 159.827 209.09 156.879 209.282 153.819C209.359 152.589 209.352 151.278 209.077 150.068C208.818 148.929 207.068 149.411 207.327 150.552L207.321 150.553Z" fill="white"/>
<path d="M124.95 158.495C124.967 158.567 124.978 158.64 124.993 158.713C125.007 158.785 125.049 159.105 125.013 158.825C125.029 158.941 125.042 159.057 125.053 159.174C125.132 159.987 125.147 160.805 125.098 161.621C124.944 164.404 124.101 167.105 122.828 169.567C122.292 170.603 123.858 171.523 124.401 170.483C125.806 167.768 126.719 164.821 126.91 161.761C126.988 160.53 126.981 159.22 126.706 158.01C126.447 156.871 124.697 157.352 124.956 158.494L124.95 158.495Z" fill="white"/>
<path d="M182.169 92.6858C185.615 92.3881 188.718 94.1475 190.303 97.204C191.07 98.6826 191.834 100.163 192.596 101.645L199.546 115.11C199.759 115.522 199.948 115.963 200.191 116.358C200.518 116.889 201.182 116.869 201.74 116.935L208.857 117.782L215.323 118.557C218.401 118.92 220.923 121.157 221.442 124.26C221.547 124.89 221.551 125.547 221.591 126.183L221.816 129.8L222.263 136.984C222.336 138.172 222.626 139.256 223.402 140.2C224.029 140.95 224.872 141.488 225.815 141.743C226.288 141.868 226.778 141.922 227.267 141.903C227.77 141.883 228.182 141.99 228.293 142.466C228.5 143.351 228.501 144.613 228.597 145.604C228.633 145.983 228.729 146.401 228.702 146.784C228.679 147.118 228.51 147.294 228.229 147.443C228.098 147.512 228.009 147.498 228.144 147.475H228.121C227.384 147.596 226.622 147.619 225.88 147.691L220.662 148.195L205.174 149.688L189.019 151.25L179.529 152.165L179.079 152.208L179.986 153.116C179.661 148.144 178.232 142.664 174.703 138.959C173.404 137.595 171.74 136.527 169.836 136.326C169.026 136.24 168.201 136.373 167.396 136.447L158.285 137.335C157.501 137.41 156.712 137.478 155.933 137.561C154.171 137.751 152.648 138.63 151.48 139.952C149.811 141.842 148.848 144.294 148.31 146.728C147.636 149.776 147.568 152.943 147.961 156.033L148.869 155.125L139.766 156.003C138.614 156.114 138.602 157.93 139.766 157.818L148.869 156.94C149.308 156.898 149.843 156.557 149.776 156.033C149.192 151.451 149.457 146.124 152.075 142.146C152.914 140.87 154.083 139.778 155.596 139.433C156.195 139.296 156.927 139.279 157.57 139.218L166.244 138.381C167.077 138.302 167.909 138.213 168.743 138.139C170.08 138.018 171.291 138.466 172.373 139.289C174.136 140.631 175.342 142.661 176.217 144.66C177.38 147.322 177.981 150.235 178.17 153.12C178.2 153.573 178.563 154.078 179.078 154.028L183.443 153.607L194.045 152.584L207.332 151.303L219.565 150.123L227.208 149.386C227.852 149.325 228.576 149.319 229.156 149.023C230.296 148.433 230.58 147.297 230.468 146.119L230.178 143.12C230.153 142.854 230.131 142.587 230.097 142.322C230.045 141.867 229.871 141.434 229.592 141.07C229.313 140.705 228.941 140.424 228.515 140.255C227.747 139.952 226.933 140.203 226.151 139.954C225.519 139.751 224.974 139.34 224.604 138.788C223.868 137.686 224.026 136.044 223.947 134.783C223.735 131.373 223.654 127.927 223.301 124.528C223.137 122.941 222.541 121.429 221.578 120.157C220.614 118.885 219.319 117.903 217.835 117.317C216.491 116.783 214.982 116.712 213.555 116.537L201.892 115.14L200.999 115.033L201.783 115.482L197.005 106.238C195.276 102.89 193.56 99.5344 191.819 96.1948C190.91 94.458 189.51 93.0271 187.794 92.0804C186.078 91.1336 184.121 90.713 182.167 90.8708C181.012 90.97 181.002 92.7862 182.167 92.6858H182.169Z" fill="#1B1B1B"/>
<path d="M123.026 102.026L127.927 152.855C128.058 154.22 128.727 155.477 129.785 156.349C130.844 157.221 132.205 157.637 133.57 157.506L98.9641 160.842C98.944 160.519 98.9185 160.196 98.8879 159.874C98.0481 151.168 93.4792 144.486 88.6828 144.948L75.8144 146.189C71.018 146.651 67.809 154.083 68.6476 162.789C68.679 163.111 68.7153 163.434 68.7565 163.757L59.644 164.635C59.0853 164.689 58.5214 164.632 57.9846 164.468C57.4478 164.304 56.9486 164.036 56.5154 163.679C56.0823 163.322 55.7237 162.883 55.4601 162.388C55.1966 161.892 55.0332 161.35 54.9794 160.791L48.7346 95.9471C48.6807 95.3884 48.7374 94.8246 48.9014 94.2879C49.0654 93.7512 49.3336 93.2521 49.6906 92.819C50.0476 92.3859 50.4864 92.0275 50.9819 91.764C51.4775 91.5006 52.0201 91.3374 52.5788 91.2837L167.771 80.1796C168.329 80.1255 168.893 80.182 169.43 80.3459C169.967 80.5097 170.466 80.7778 170.899 81.1346C171.332 81.4915 171.691 81.9302 171.955 82.4258C172.218 82.9213 172.381 83.4639 172.435 84.0225L173.265 92.6377L127.1 97.0881C126.508 97.1445 125.933 97.317 125.408 97.5958C124.883 97.8745 124.418 98.2541 124.04 98.7127C123.661 99.1713 123.377 99.7 123.203 100.269C123.029 100.837 122.969 101.434 123.026 102.026Z" fill="#5E59FF"/>
<path d="M111.276 85.5374L111.922 92.2396L113.473 108.333L115.35 127.803L116.972 144.631C117.235 147.354 117.471 150.076 117.76 152.801C117.76 152.839 117.767 152.876 117.771 152.914C117.882 154.066 119.698 154.078 119.586 152.914L118.94 146.212L117.388 130.119L115.512 110.649L113.889 93.8199C113.627 91.0974 113.391 88.3749 113.101 85.65C113.101 85.6124 113.094 85.5749 113.091 85.5374C112.979 84.3855 111.163 84.3734 111.276 85.5374Z" fill="#1B1B1B"/>
<path d="M150.057 102.185L154.988 111.969C155.67 113.324 156.345 114.683 157.036 116.034C157.59 117.115 158.457 118.005 159.523 118.588C160.59 119.17 161.806 119.419 163.016 119.301C166.08 119.017 169.142 118.711 172.205 118.416L186.571 117.03L191.615 116.546C192.655 116.446 193.963 116.505 194.684 115.635C195.83 114.253 194.522 112.445 193.878 111.124L190.82 104.843L188.382 99.8251C187.244 97.4862 185.031 95.9047 182.344 96.1261C179.721 96.3427 177.103 96.6319 174.479 96.8836L160.1 98.269C157.343 98.5352 154.579 98.753 151.828 99.0664C150.227 99.2479 149.435 100.731 150.057 102.185C150.252 102.638 150.911 102.73 151.298 102.51C151.768 102.243 151.815 101.716 151.624 101.269C151.55 101.096 151.711 100.966 151.827 100.886C151.967 100.789 151.746 100.9 151.837 100.886C151.924 100.873 152.012 100.865 152.1 100.861L153.358 100.74L158.123 100.28L171.873 98.949L181.795 97.9931C181.98 97.975 182.165 97.9544 182.35 97.9399C183.942 97.8104 185.496 98.4784 186.36 99.8602C187.022 100.925 187.5 102.14 188.047 103.264L193.25 113.947C193.273 113.995 193.378 114.241 193.359 114.167C193.386 114.272 193.359 114.385 193.225 114.536C193.184 114.583 193.029 114.611 193.184 114.575H193.159C192.912 114.612 192.664 114.635 192.414 114.646L188.315 115.042L174.862 116.34L163.96 117.392C162.667 117.513 161.437 117.634 160.246 116.927C158.903 116.126 158.337 114.579 157.664 113.243L152.052 102.111L151.629 101.271C151.099 100.226 149.532 101.144 150.057 102.185Z" fill="#1B1B1B"/>
<path d="M16.7933 127.378L59.7301 123.239L71.7237 122.082C72.8756 121.971 72.8877 120.155 71.7237 120.267L28.7868 124.407L16.7933 125.563C15.6414 125.675 15.6293 127.491 16.7933 127.378Z" fill="#1B1B1B"/>
<path d="M22.4254 108.227C29.7351 109.346 37.0991 110.135 44.4958 110.33C50.6451 110.492 56.7906 110.225 62.9193 109.739C66.4622 109.457 69.999 109.114 73.5358 108.771C74.6878 108.659 74.6999 106.843 73.5358 106.956C67.4266 107.545 61.3148 108.141 55.1801 108.408C48.7516 108.691 42.3116 108.567 35.8988 108.036C31.5513 107.673 27.2195 107.135 22.9082 106.474C22.4242 106.399 21.9402 106.595 21.7914 107.108C21.6704 107.536 21.9414 108.15 22.4254 108.225V108.227Z" fill="#1B1B1B"/>
<path d="M73.979 130.51C69.686 130.435 65.5272 132.285 62.484 135.268C60.9627 136.748 59.7419 138.509 58.8891 140.452C58.4468 141.455 58.1177 142.505 57.9078 143.581C57.7166 144.594 57.563 145.689 57.9296 146.68C58.3132 147.717 59.3211 148.432 60.4476 148.203C61.4797 147.994 62.2469 147.032 62.5385 146.065C63.1883 143.91 61.5487 141.771 59.7131 140.836C57.3476 139.626 54.6808 140.06 52.2608 140.873C49.4874 141.804 46.7625 142.904 44.0219 143.926L25.2269 150.944C24.1379 151.348 24.6123 153.104 25.7109 152.694L40.2309 147.276L47.4341 144.589C49.7803 143.713 52.1422 142.642 54.5948 142.103C56.497 141.684 58.6108 141.827 60.0398 143.302C60.5408 143.821 60.9776 144.608 60.8602 145.359C60.8009 145.733 60.3 146.77 59.8051 146.347C59.3102 145.925 59.5413 144.788 59.6369 144.238C59.7932 143.347 60.0364 142.473 60.3629 141.629C61.0284 139.955 62.0042 138.421 63.2391 137.109C66.0027 134.137 69.8941 132.26 73.9899 132.332C75.1588 132.352 75.1588 130.537 73.9899 130.517L73.979 130.51Z" fill="#1B1B1B"/>
<path d="M185.474 146.64L196.616 145.565L214.354 143.856L218.399 143.466C219.551 143.355 219.563 141.538 218.399 141.651L207.258 142.725L189.519 144.435L185.474 144.825C184.322 144.936 184.31 146.752 185.474 146.64Z" fill="#1B1B1B"/>
<path d="M201.623 171.982C200.496 172.042 199.369 172.109 198.243 172.18C195.125 172.372 192.008 172.583 188.892 172.814C184.178 173.158 179.466 173.536 174.757 173.947C168.84 174.463 162.929 175.028 157.023 175.641C150.299 176.345 143.584 177.121 136.876 177.969C129.72 178.879 122.578 179.888 115.45 180.994C108.286 182.116 101.141 183.356 94.0326 184.766C87.2312 186.114 80.4564 187.613 73.7457 189.364C67.6861 190.937 61.6675 192.71 55.7784 194.842C50.786 196.649 45.8456 198.703 41.2064 201.3C40.2303 201.846 39.2708 202.419 38.3278 203.02C37.3465 203.647 38.2564 205.219 39.2438 204.593C43.4219 201.921 47.9558 199.821 52.5538 197.999C58.1634 195.778 63.9278 193.952 69.7358 192.331C76.2928 190.5 82.9248 188.943 89.5798 187.536C96.5978 186.058 103.665 184.762 110.746 183.592C117.827 182.422 124.958 181.371 132.087 180.422C138.891 179.516 145.708 178.693 152.536 177.951C158.667 177.282 164.797 176.669 170.928 176.112C175.929 175.658 180.935 175.24 185.944 174.857C189.46 174.59 192.977 174.342 196.495 174.113C198.133 174.008 199.773 173.933 201.41 173.818L201.621 173.807C202.783 173.747 202.79 171.932 201.621 171.992L201.623 171.982Z" fill="#1B1B1B"/>
<path d="M99.9303 162.207C99.8274 157.112 98.5799 151.652 95.3661 147.581C94.2287 146.139 92.7634 144.88 90.992 144.314C90.0119 143.998 89.0366 144.014 88.0311 144.11L79.5696 144.926C77.4073 145.134 74.8506 145.047 72.9702 146.283C69.3306 148.695 68.0673 153.649 67.7092 157.731C67.2457 163.031 68.2343 168.848 71.0222 173.433C72.7512 176.278 75.527 178.945 79.0953 178.606C81.6952 178.359 84.295 178.109 86.8949 177.855L90.8274 177.476C91.8087 177.382 92.755 177.289 93.6721 176.882C97.5925 175.143 99.1534 170.16 99.6822 166.271C99.8619 164.926 99.9428 163.57 99.9242 162.213C99.9109 161.045 98.0959 161.043 98.1092 162.213C98.137 164.663 97.8672 167.115 97.1267 169.457C96.5628 171.235 95.7049 173.015 94.3171 174.297C92.7525 175.749 90.7621 175.667 88.768 175.86L80.419 176.661C79.745 176.726 79.0541 176.835 78.3753 176.834C76.8023 176.834 75.4072 175.898 74.3375 174.806C71.0173 171.409 69.7129 166.134 69.4709 161.536C69.3439 159.116 69.5072 156.679 70.1013 154.329C70.5636 152.5 71.275 150.63 72.4887 149.16C73.3514 148.113 74.5045 147.26 75.8379 147.103C76.524 147.019 77.2161 146.97 77.9034 146.903L86.4303 146.081C87.172 146.01 87.915 145.93 88.6567 145.867C89.9647 145.755 91.1529 146.184 92.2177 146.979C93.7338 148.112 94.8277 149.762 95.6674 151.437C96.7407 153.571 97.4001 155.914 97.7837 158.261C97.9896 159.569 98.1028 160.89 98.1225 162.213C98.1395 163.374 99.9545 163.377 99.9303 162.207Z" fill="#1B1B1B"/>
<path d="M81.8369 172.333C78.5808 172.593 76.6775 168.373 75.9237 165.812C74.802 162.008 74.6253 157.295 76.4839 153.676C77.0744 152.525 77.9601 151.333 79.2669 150.992C80.4418 150.685 81.6228 151.257 82.5109 152.081C85.3786 154.759 86.3164 159.321 86.3079 163.08C86.3079 165.229 85.9824 167.489 85.0229 169.435C84.3961 170.704 83.341 172.16 81.8382 172.329C81.3542 172.384 80.9307 172.707 80.9307 173.237C80.9307 173.685 81.3481 174.205 81.8382 174.144C86.0429 173.67 87.6099 168.753 88.0092 165.175C88.521 160.562 87.5409 155.168 84.4917 151.534C83.4027 150.243 81.9071 149.195 80.1817 149.094C78.4804 148.993 76.9413 149.934 75.9104 151.229C73.0475 154.828 72.895 160.223 73.7469 164.539C74.2406 167.044 75.1989 169.537 76.8082 171.54C78.0182 173.052 79.8187 174.309 81.8406 174.147C82.9925 174.056 83.0022 172.24 81.8369 172.333Z" fill="#1B1B1B"/>
<path d="M180.119 154.493C180.016 149.398 178.768 143.938 175.555 139.867C174.417 138.426 172.952 137.166 171.18 136.6C170.2 136.284 169.225 136.3 168.22 136.396L159.758 137.212C157.596 137.42 155.039 137.333 153.159 138.57C149.519 140.981 148.256 145.935 147.898 150.017C147.434 155.317 148.423 161.134 151.211 165.72C152.94 168.564 155.715 171.231 159.284 170.892C161.884 170.646 164.484 170.395 167.083 170.141L171.016 169.762C171.997 169.668 172.943 169.575 173.861 169.168C177.781 167.429 179.342 162.447 179.871 158.558C180.05 157.213 180.131 155.856 180.113 154.499C180.099 153.332 178.284 153.329 178.298 154.499C178.326 156.95 178.056 159.401 177.315 161.744C176.751 163.521 175.893 165.301 174.506 166.584C172.941 168.036 170.951 167.953 168.956 168.146L160.6 168.952C159.926 169.017 159.235 169.126 158.557 169.125C156.984 169.125 155.588 168.189 154.519 167.097C151.199 163.703 149.891 158.431 149.647 153.829C149.52 151.409 149.684 148.972 150.278 146.622C150.74 144.794 151.451 142.923 152.665 141.453C153.528 140.406 154.681 139.553 156.014 139.396C156.7 139.313 157.393 139.263 158.08 139.196L166.607 138.375C167.348 138.303 168.091 138.224 168.833 138.161C170.141 138.048 171.329 138.478 172.394 139.273C173.91 140.405 175.004 142.056 175.844 143.73C176.917 145.865 177.577 148.207 177.96 150.555C178.166 151.862 178.279 153.183 178.299 154.507C178.328 155.66 180.143 155.663 180.119 154.493Z" fill="#1B1B1B"/>
<path d="M162.024 164.619C158.768 164.879 156.865 160.659 156.111 158.098C154.989 154.294 154.813 149.581 156.671 145.962C157.262 144.811 158.148 143.62 159.454 143.278C160.629 142.971 161.81 143.543 162.698 144.367C165.566 147.045 166.504 151.607 166.495 155.366C166.495 157.515 166.17 159.776 165.21 161.721C164.584 162.991 163.528 164.446 162.026 164.616C161.542 164.67 161.118 164.993 161.118 165.523C161.118 165.971 161.536 166.491 162.026 166.431C166.23 165.956 167.797 161.039 168.197 157.461C168.708 152.848 167.728 147.454 164.679 143.82C163.59 142.529 162.095 141.482 160.369 141.38C158.668 141.279 157.129 142.22 156.098 143.516C153.235 147.114 153.083 152.509 153.934 156.826C154.428 159.33 155.386 161.823 156.996 163.827C158.206 165.338 160.006 166.595 162.028 166.433C163.181 166.342 163.191 164.526 162.024 164.619Z" fill="#1B1B1B"/>
</svg>
