<svg width="110" height="96" viewBox="0 0 110 96" fill="none" xmlns="http://www.w3.org/2000/svg">
<g clip-path="url(#clip0_222_17578)">
<path fill-rule="evenodd" clip-rule="evenodd" d="M54.2269 0C80.4323 0 101.675 21.4421 101.675 47.8906C101.675 74.3392 80.4308 95.7812 54.2269 95.7812C28.023 95.7812 6.7793 74.3407 6.7793 47.8906C6.7793 21.4406 28.0215 0 54.2269 0Z" fill="white"/>
<path fill-rule="evenodd" clip-rule="evenodd" d="M1.89405 51.3582C1.94156 50.6165 2.1019 49.8852 2.30975 49.1659C2.45673 48.6579 2.672 48.1334 2.78929 47.6255L2.82938 47.4516L2.88431 47.2823C3.80775 44.4306 4.93014 41.6554 5.98127 38.8517C6.70577 36.9202 7.39465 34.9766 8.13845 33.0525C9.22224 30.0091 11.519 27.553 14.4497 26.2508C15.0079 26.0021 15.5765 25.7773 16.157 25.587C18.0143 24.9741 20.0438 24.7164 21.8417 24.0241L21.913 23.9971L21.9842 23.9731C26.5391 22.4087 30.5996 19.1914 34.5101 16.4371C37.0236 14.6659 39.6574 13.2738 42.5717 12.9441C43.1166 9.2863 45.9003 6.15743 49.6787 5.72586C53.9411 5.14444 58.0402 7.9886 59.3007 11.9776C59.3214 11.9776 59.3407 11.9776 59.3615 11.9791H59.4016L59.4417 11.9836C62.5312 12.1634 65.3892 14.1969 66.3126 17.2269C66.4685 17.7408 66.562 18.2623 66.5947 18.7853C67.1321 19.0221 67.6429 19.3248 68.1239 19.6979C68.2664 19.7458 68.4089 19.7893 68.5515 19.8328C69.3235 20.0725 70.0361 20.3138 70.7502 20.7079C72.2824 21.5515 73.5859 22.6394 75.0453 23.5685C78.4243 22.8897 81.7945 22.1914 85.221 21.7838C92.1691 20.9566 100.14 21.1664 105.543 26.3048C107.851 28.5001 109.375 31.5046 109.373 34.7458C109.373 36.1289 109.213 37.5121 108.862 38.8502C105.982 49.8732 91.9271 56.0126 82.0854 59.0216C77.4266 60.4451 72.6476 61.5151 67.8299 62.2209C63.906 62.7963 59.8307 63.1844 55.8652 62.9776C49.9964 62.6719 43.4655 65.3692 38.1015 67.5585C35.3994 68.6614 32.7107 69.7943 29.9597 70.7743C25.3751 72.4077 20.5233 73.6544 15.624 73.4132C12.1277 73.2408 8.8392 72.3133 5.79123 70.563L5.40077 70.3382L5.06673 70.034C0.0813061 65.4756 -1.70472 57.2563 1.89405 51.3582Z" fill="white"/>
<path fill-rule="evenodd" clip-rule="evenodd" d="M14.5052 61.9724L95.4537 41.6497C98.8016 40.809 102.31 41.338 105.141 43.3745C108.349 45.6837 110 49.4194 110 53.35V60.0543C110 66.9249 105.019 73.6232 98.371 75.294L17.4225 95.6182C14.0746 96.4589 10.5664 95.9299 7.7352 93.8935C4.5269 91.5843 2.87598 87.8485 2.87598 83.9179V77.2136C2.87598 70.343 7.85695 63.6447 14.5052 61.9739V61.9724Z" fill="white"/>
<path fill-rule="evenodd" clip-rule="evenodd" d="M54.2261 2.76367C78.9186 2.76367 98.9375 22.968 98.9375 47.8925C98.9375 72.8171 78.9201 93.0214 54.2261 93.0214C29.5321 93.0214 9.51465 72.8156 9.51465 47.891C9.51465 22.9665 29.5335 2.76367 54.2261 2.76367Z" fill="#1B1B1B"/>
<path fill-rule="evenodd" clip-rule="evenodd" d="M4.63672 52.1881C4.55655 51.4373 4.73471 50.6416 4.9381 49.9388C5.09696 49.3874 5.32708 48.806 5.45476 48.2545L5.46812 48.1961L5.48594 48.1391C6.39602 45.328 7.50505 42.5917 8.54133 39.827C9.26732 37.8924 9.95619 35.9443 10.703 34.0188C11.5269 31.6721 13.2951 29.7735 15.5533 28.777C16.0269 28.5597 16.5138 28.3724 17.0082 28.2091C18.916 27.5797 20.9529 27.3205 22.8191 26.6012L22.8429 26.5922L22.8666 26.5847C27.7377 24.9109 31.9051 21.6381 36.077 18.6996C39.1056 16.5672 41.9547 15.2081 45.3189 15.746C45.2506 15.2815 45.2134 14.8125 45.2134 14.3404C45.1659 11.5098 47.139 8.77651 50.0177 8.46482C53.5141 7.96881 56.9391 10.9179 56.9599 14.4918C56.9644 14.6581 56.9599 14.8245 56.951 14.9893C57.7022 14.805 58.4713 14.7076 59.2611 14.7375H59.2745H59.2878C61.2327 14.8484 63.1138 16.1117 63.7002 18.0342C63.9956 19.0038 63.9066 19.9898 63.5102 20.8814C64.68 20.9219 65.795 21.262 66.7496 22.1252C67.6464 22.4878 68.5386 22.6302 69.4428 23.1277C70.9378 23.9503 72.2294 25.0427 73.6636 25.9478L73.7126 25.9778L73.7586 26.0123C74.0214 26.2116 74.259 26.3389 74.4861 26.4903C78.168 25.759 81.8069 24.9648 85.5452 24.5198C91.5921 23.799 98.9426 23.8125 103.67 28.308C105.423 29.9758 106.654 32.2625 106.64 34.7365C106.652 35.8829 106.51 37.0293 106.22 38.1381C103.64 48.0133 90.0021 53.7091 81.2961 56.3689C76.7813 57.749 72.1092 58.795 67.4415 59.4783C63.7477 60.0193 59.7451 60.4044 56.0112 60.2111C49.6436 59.8799 42.8915 62.6177 37.0806 64.9898C27.6947 68.82 16.8924 73.747 7.15022 68.1546L7.01957 68.0797L6.90822 67.9778C2.7156 64.1491 1.19087 56.9548 4.63672 52.1851V52.1881Z" fill="#1B1B1B"/>
<path fill-rule="evenodd" clip-rule="evenodd" d="M54.226 6.9082C76.6515 6.9082 94.8309 25.2574 94.8309 47.8922C94.8309 70.5271 76.6515 88.8762 54.226 88.8762C31.8005 88.8762 13.6211 70.5256 13.6211 47.8907C13.6211 25.2559 31.8005 6.9082 54.226 6.9082Z" fill="white"/>
<path fill-rule="evenodd" clip-rule="evenodd" d="M15.1238 64.4852L96.0723 44.1626C98.6912 43.5047 101.432 43.8853 103.651 45.4827C106.183 47.3049 107.436 50.2615 107.436 53.3514V60.0557C107.436 65.7395 103.255 71.4008 97.7514 72.7824L16.8029 93.1051C14.184 93.763 11.4433 93.3824 9.2238 91.7849C6.69249 89.9628 5.43945 87.0062 5.43945 83.9163V77.212C5.43945 71.5282 9.6202 65.8669 15.1238 64.4852Z" fill="#1B1B1B"/>
<path fill-rule="evenodd" clip-rule="evenodd" d="M15.9631 67.8913L96.9117 47.5672C100.787 46.5946 103.958 49.196 103.958 53.3499V60.0557C103.958 64.2095 100.787 68.4038 96.9117 69.3764L15.9631 89.699C12.0882 90.6716 8.91699 88.0702 8.91699 83.9163V77.2105C8.91699 73.0567 12.0882 68.8624 15.9631 67.8898V67.8913Z" fill="white"/>
<path d="M17.3966 84.6891C20.1447 83.9983 22.1326 82.1462 22.1326 79.5388C22.1326 76.9314 19.8552 76.801 18.1122 76.786C16.9928 76.786 16.0931 76.789 16.0931 76.1117C16.0931 75.5543 16.6543 75.1602 17.2407 75.0133C17.9207 74.8425 18.4804 75.0553 18.4804 75.809L21.7451 74.9893C21.7451 72.5588 20.1209 71.4963 17.2793 72.2096C14.4793 72.9124 12.766 74.6911 12.766 77.0453C12.766 79.7606 14.9514 79.7381 16.6647 79.7366C17.8004 79.7246 18.7194 79.7096 18.7194 80.4589C18.7194 81.1107 18.0677 81.6412 17.3862 81.812C16.6454 81.9978 15.9936 81.7461 15.9936 80.8949L12.6279 81.7401C12.6279 84.3415 14.503 85.4159 17.3951 84.6891H17.3966ZM31.2349 68.9758V75.2441L26.6994 70.1147L23.8429 70.831V82.7815L27.0067 81.9873V75.5033L31.7011 80.8095L34.3987 80.1322V68.1816L31.2349 68.9758ZM39.9453 75.8884V74.0962L43.8336 73.1207V70.4234L39.9453 71.3989V69.6382L44.273 68.5518V65.7061L36.6984 67.6077V79.5553L44.4171 77.6177V74.766L39.9453 75.8884ZM54.134 75.1766L57.7224 74.276L52.9716 63.5183L49.7855 64.3185L45.1371 77.4364L48.6305 76.5598L49.2867 74.4484L53.4793 73.3964L54.134 75.1781V75.1766ZM52.685 71.0168L50.0795 71.6701L51.3756 67.6452L52.6835 71.0153L52.685 71.0168ZM69.4021 71.3435L65.2584 66.2201L69.0502 59.4798L65.2673 60.4299L62.1377 66.2516V61.2151L58.873 62.0348V73.9853L62.1377 73.1656V67.8849L65.5316 72.3145L69.4021 71.342V71.3435ZM73.5709 67.4459V65.6537L77.4592 64.6781V61.9808L73.5709 62.9564V61.1956L77.8987 60.1092V57.2636L70.324 59.1651V71.1127L78.0427 69.1751V66.3235L73.5709 67.4459ZM86.2661 67.1102L89.9079 66.1961L87.5563 62.4439C88.7262 61.4474 89.4343 60.0717 89.4343 58.5942C89.4343 56.0902 87.5845 54.827 85.0398 55.4668L79.9148 56.7541V68.7046L83.1795 67.8849V64.2316L84.3554 63.9364L86.2661 67.1102ZM83.1795 58.8535L84.6597 58.4818C85.5668 58.2541 86.0924 58.6721 86.0924 59.4259C86.0924 60.1796 85.5683 60.866 84.6597 61.0937L83.1795 61.4653V58.8535ZM95.508 65.0767C98.2561 64.3859 100.244 62.5338 100.244 59.9264C100.244 57.319 97.9666 57.1886 96.2236 57.1736C95.1042 57.1736 94.2045 57.1766 94.2045 56.4993C94.2045 55.9419 94.7657 55.5478 95.3521 55.4009C96.0321 55.2301 96.5918 55.4429 96.5918 56.1966L99.8565 55.3769C99.8565 52.9464 98.2323 51.8839 95.3907 52.5972C92.5907 53.3 90.8774 55.0787 90.8774 57.4329C90.8774 60.1467 93.0628 60.1257 94.7761 60.1242C95.9118 60.1122 96.8308 60.0972 96.8308 60.8465C96.8308 61.4983 96.1791 62.0288 95.4976 62.1996C94.7568 62.3854 94.105 62.1337 94.105 61.2825L90.7393 62.1277C90.7393 64.7291 92.6144 65.8035 95.5065 65.0767H95.508Z" fill="#1B1B1B"/>
<path d="M20.2596 68.6357C20.251 68.6357 20.2425 68.6357 20.2354 68.6372C20.2439 68.6372 20.2525 68.6372 20.2596 68.6357Z" fill="black"/>
<path d="M7.91887 61.792C7.79268 62.1501 7.70805 62.5233 7.66797 62.9024C7.70805 62.5248 7.79119 62.1501 7.91887 61.792Z" fill="black"/>
<path d="M8.0116 61.5527C8.00546 61.568 7.99931 61.5818 7.99316 61.5971C7.99931 61.5818 8.00546 61.5665 8.0116 61.5527Z" fill="black"/>
<path d="M8.09435 61.3623C8.06614 61.4237 8.03793 61.4852 8.0127 61.5481C8.03942 61.4852 8.06614 61.4237 8.09435 61.3623Z" fill="black"/>
<path d="M8.14066 61.2676C8.13297 61.2829 8.12529 61.2966 8.11914 61.3119C8.12682 61.2966 8.13451 61.2829 8.14066 61.2676Z" fill="black"/>
<path d="M8.2344 61.0879C8.22672 61.1016 8.21904 61.1139 8.21289 61.1276C8.22057 61.1139 8.22672 61.1016 8.2344 61.0879Z" fill="black"/>
<path d="M8.33892 60.9082C8.3122 60.9517 8.28696 60.9951 8.26172 61.0386C8.28696 60.9951 8.3122 60.9502 8.33892 60.9082Z" fill="black"/>
<path d="M8.39485 60.8193C8.38563 60.8331 8.37641 60.8468 8.36719 60.8621C8.37641 60.8484 8.38563 60.8346 8.39485 60.8193Z" fill="black"/>
<path d="M8.45119 60.7344C8.43214 60.7624 8.41309 60.7905 8.39551 60.8185C8.41456 60.7905 8.43214 60.7624 8.45119 60.7344Z" fill="black"/>
<path d="M8.47981 60.6934C8.47059 60.7071 8.46137 60.7209 8.45215 60.7331C8.46137 60.7193 8.47059 60.7056 8.47981 60.6934Z" fill="black"/>
<path d="M8.54092 60.6104C8.5317 60.6226 8.52248 60.6363 8.51172 60.6486C8.52094 60.6348 8.53016 60.6226 8.54092 60.6104Z" fill="black"/>
<path d="M8.6011 60.5264C8.58058 60.5529 8.56007 60.5795 8.54102 60.6061C8.56153 60.5795 8.58058 60.5529 8.6011 60.5264Z" fill="black"/>
<path d="M67.1216 59.583C64.5458 60.0415 61.9328 60.2423 59.3184 60.2423C61.9328 60.2423 64.5443 60.0415 67.1216 59.583Z" fill="black"/>
<path d="M8.93655 60.1426C8.9131 60.1662 8.89112 60.1883 8.86914 60.212C8.89112 60.1883 8.91457 60.1647 8.93655 60.1426Z" fill="black"/>
<path d="M8.97047 60.1074C8.96191 60.116 8.95335 60.1246 8.94336 60.1332C8.95192 60.1246 8.96048 60.116 8.97047 60.1074Z" fill="black"/>
<path d="M9.08766 59.998C9.07537 60.0087 9.06308 60.0194 9.05078 60.0317C9.06308 60.021 9.07537 60.0103 9.08766 59.998Z" fill="black"/>
<path d="M99.861 46.2285C99.861 46.2285 99.8506 46.2358 99.8447 46.2402C99.8506 46.2358 99.8551 46.2329 99.861 46.2285Z" fill="black"/>
<path d="M99.9368 46.1719C99.9368 46.1719 99.9263 46.1793 99.9219 46.1837C99.9263 46.1793 99.9323 46.1763 99.9368 46.1719Z" fill="black"/>
<path d="M99.9739 46.1436C99.9739 46.1436 99.9635 46.1509 99.959 46.1554C99.9635 46.1524 99.9694 46.148 99.9739 46.1436Z" fill="black"/>
<path d="M100.015 46.1133C100.015 46.1133 99.9994 46.1241 99.9932 46.1303C100.001 46.1241 100.009 46.1195 100.015 46.1133Z" fill="black"/>
<path d="M100.051 46.0859C100.051 46.0859 100.037 46.0968 100.029 46.1029C100.037 46.0983 100.043 46.0921 100.051 46.0859Z" fill="black"/>
<path d="M100.126 46.0254C100.116 46.0325 100.106 46.0397 100.098 46.0483C100.108 46.0411 100.118 46.034 100.126 46.0254Z" fill="black"/>
<path d="M49.2339 45.9458C57.7216 43.7235 66.1083 41.1551 74.4758 38.5177C79.2711 37.1376 84.1675 35.9373 89.1217 35.2734C84.1675 35.9373 79.2726 37.1376 74.4758 38.5177C66.1083 41.1551 57.7231 43.7235 49.2339 45.9458C49.124 45.9757 49.0142 46.0072 48.9043 46.0387C49.0142 46.0072 49.124 45.9772 49.2339 45.9458Z" fill="black"/>
<path d="M102.803 35.8685C102.665 35.7636 102.521 35.6647 102.369 35.5703C102.521 35.6647 102.666 35.7636 102.803 35.8685Z" fill="black"/>
<path d="M102.326 35.5449C102.338 35.5521 102.349 35.5592 102.36 35.565C102.349 35.5578 102.338 35.5506 102.326 35.5449Z" fill="black"/>
<path d="M102.284 35.5186C102.294 35.5243 102.304 35.53 102.314 35.5372C102.304 35.5314 102.294 35.5257 102.284 35.5186Z" fill="black"/>
<path d="M102.145 35.4365C102.145 35.4365 102.155 35.4424 102.159 35.4454C102.155 35.4424 102.149 35.4395 102.145 35.4365Z" fill="black"/>
<path d="M98.9154 34.761C98.4551 34.743 97.9964 34.7326 97.5361 34.7266C97.9949 34.7311 98.4551 34.743 98.9154 34.761Z" fill="black"/>
<path d="M14.9247 68.9775C12.3905 68.9775 9.8161 68.6194 7.8252 66.9561C9.81461 68.6194 12.3905 68.9775 14.9247 68.9775Z" fill="black"/>
<path d="M19.5145 68.6836C19.5059 68.6836 19.4988 68.685 19.4902 68.6865C19.4988 68.6865 19.5059 68.685 19.5145 68.6836Z" fill="black"/>
<path d="M19.6728 68.667C19.6238 68.673 19.5763 68.6775 19.5273 68.6835C19.5763 68.679 19.6253 68.673 19.6728 68.667Z" fill="black"/>
<path d="M7.71582 66.8545C7.71582 66.8545 7.72718 66.8645 7.73286 66.8702C7.72718 66.8645 7.7215 66.8602 7.71582 66.8545Z" fill="black"/>
<path d="M7.66797 66.8096C7.66797 66.8096 7.67933 66.821 7.68501 66.8253C7.67933 66.8196 7.67365 66.8153 7.66797 66.8096Z" fill="black"/>
<path d="M7.62109 66.7646C7.62109 66.7646 7.63351 66.777 7.64127 66.7832C7.63506 66.777 7.6273 66.7708 7.62109 66.7646Z" fill="black"/>
<path d="M7.57422 66.7197C7.57422 66.7197 7.58663 66.7321 7.59439 66.7383C7.58819 66.7321 7.58198 66.7259 7.57422 66.7197Z" fill="black"/>
<path d="M7.52832 66.6748C7.52832 66.6748 7.54229 66.6887 7.5485 66.6949C7.54229 66.6887 7.53453 66.681 7.52832 66.6748Z" fill="black"/>
<path d="M7.48438 66.6289C7.48438 66.6289 7.49679 66.6413 7.50455 66.649C7.49834 66.6428 7.49058 66.6351 7.48438 66.6289Z" fill="black"/>
<path d="M7.43848 66.583C7.43848 66.583 7.45244 66.5969 7.45865 66.6031C7.45244 66.5969 7.44468 66.5892 7.43848 66.583Z" fill="black"/>
<path d="M7.39355 66.5381C7.39355 66.5381 7.40597 66.552 7.41373 66.5582C7.40752 66.552 7.39976 66.5443 7.39355 66.5381Z" fill="black"/>
<path d="M7.34863 66.4912C7.34863 66.4912 7.36045 66.5029 7.36635 66.5102C7.36045 66.5044 7.35454 66.4985 7.34863 66.4912Z" fill="black"/>
<path d="M7.30566 66.4463C7.30566 66.4463 7.31461 66.4566 7.32057 66.461C7.3161 66.4566 7.31013 66.4507 7.30566 66.4463Z" fill="black"/>
<path d="M7.26172 66.3984C7.26172 66.3984 7.27066 66.4088 7.27513 66.4132C7.27066 66.4088 7.26619 66.4029 7.26172 66.3984Z" fill="black"/>
<path d="M7.03125 66.1455C7.03125 66.1455 7.04019 66.1558 7.04466 66.1603C7.04019 66.1558 7.03572 66.1514 7.03125 66.1455Z" fill="black"/>
<path d="M6.98828 66.0957C6.98828 66.0957 6.99831 66.1072 7.00261 66.1116C6.99831 66.1058 6.99401 66.1015 6.98828 66.0957Z" fill="black"/>
<path d="M6.94531 66.0469C6.94531 66.0469 6.95534 66.0584 6.95964 66.0627C6.95534 66.057 6.94961 66.0512 6.94531 66.0469Z" fill="black"/>
<path d="M6.90234 65.9951C6.90234 65.9951 6.91228 66.0065 6.91796 66.0122C6.91228 66.0065 6.90802 66.0008 6.90234 65.9951Z" fill="black"/>
<path d="M6.86035 65.9473C6.86035 65.9473 6.87029 65.9587 6.87455 65.9644C6.87029 65.9587 6.86461 65.953 6.86035 65.9473Z" fill="black"/>
<path d="M6.82031 65.8984C6.82031 65.8984 6.82891 65.9085 6.83321 65.9143C6.82891 65.9085 6.82461 65.9042 6.82031 65.8984Z" fill="black"/>
<path d="M6.7793 65.8467C6.7793 65.8467 6.78789 65.8582 6.79219 65.8625C6.78789 65.8568 6.7836 65.8524 6.7793 65.8467Z" fill="black"/>
<path d="M6.7373 65.7959C6.7373 65.7959 6.74724 65.8073 6.75151 65.813C6.74724 65.8073 6.74156 65.8016 6.7373 65.7959Z" fill="black"/>
<path d="M6.69727 65.7451C6.69727 65.7451 6.70579 65.7565 6.71005 65.7622C6.70579 65.7565 6.70153 65.7508 6.69727 65.7451Z" fill="black"/>
<path d="M6.40723 65.3662C6.40723 65.3662 6.41575 65.3776 6.42001 65.3833C6.41575 65.3776 6.41149 65.3719 6.40723 65.3662Z" fill="black"/>
<path d="M6.36914 65.3154C6.36914 65.3154 6.37774 65.327 6.3806 65.3313C6.37631 65.3255 6.37201 65.3198 6.36914 65.3154Z" fill="black"/>
<path d="M6.33008 65.2617C6.33008 65.2617 6.3386 65.2731 6.34286 65.2788C6.3386 65.2731 6.33434 65.2674 6.33008 65.2617Z" fill="black"/>
<path d="M6.29297 65.207C6.29297 65.207 6.30149 65.2185 6.30575 65.2242C6.30149 65.2185 6.29723 65.2127 6.29297 65.207Z" fill="black"/>
<path d="M6.25488 65.1533C6.25488 65.1533 6.26374 65.1665 6.26817 65.1723C6.26374 65.1665 6.25931 65.1606 6.25488 65.1533Z" fill="black"/>
<path d="M6.21875 65.1006C6.21875 65.1006 6.22592 65.1107 6.23021 65.1165C6.22592 65.1107 6.22305 65.1064 6.21875 65.1006Z" fill="black"/>
<path d="M6.18164 65.0459C6.18164 65.0459 6.18881 65.056 6.1931 65.0618C6.18881 65.056 6.18594 65.0517 6.18164 65.0459Z" fill="black"/>
<path d="M6.14453 64.9932C6.14453 64.9932 6.15198 65.0035 6.15496 65.0079C6.15198 65.0035 6.14751 64.9976 6.14453 64.9932Z" fill="black"/>
<path d="M6.10938 64.9375C6.10938 64.9375 6.11654 64.949 6.12084 64.9534C6.11654 64.9476 6.11367 64.9418 6.10938 64.9375Z" fill="black"/>
<path d="M5.88672 64.5898C5.88672 64.5898 5.89245 64.5999 5.89675 64.6057C5.89388 64.5999 5.89102 64.5956 5.88672 64.5898Z" fill="black"/>
<path d="M5.85059 64.5303C5.85059 64.5303 5.85797 64.5434 5.8624 64.5493C5.85797 64.5434 5.85502 64.5361 5.85059 64.5303Z" fill="black"/>
<path d="M5.81641 64.4746C5.81641 64.4746 5.82572 64.4885 5.82882 64.4962C5.82417 64.4885 5.81951 64.4823 5.81641 64.4746Z" fill="black"/>
<path d="M5.78418 64.418C5.78418 64.418 5.79156 64.4311 5.79599 64.4369C5.79156 64.4311 5.78861 64.4238 5.78418 64.418Z" fill="black"/>
<path d="M5.75 64.3604C5.75 64.3604 5.75931 64.3758 5.76242 64.382C5.75776 64.3743 5.75466 64.3681 5.75 64.3604Z" fill="black"/>
<path d="M5.71777 64.3037C5.71777 64.3037 5.72553 64.3176 5.73019 64.3254C5.72553 64.3176 5.72243 64.3114 5.71777 64.3037Z" fill="black"/>
<path d="M5.68457 64.2471C5.68457 64.2471 5.69233 64.261 5.69699 64.2687C5.69233 64.261 5.68923 64.2548 5.68457 64.2471Z" fill="black"/>
<path d="M5.65332 64.1895C5.65332 64.1895 5.66042 64.2009 5.66326 64.2066C5.66042 64.2009 5.65758 64.1952 5.65332 64.1895Z" fill="black"/>
<path d="M5.62109 64.1328C5.62109 64.1328 5.62683 64.1444 5.62969 64.1487C5.62683 64.1429 5.62396 64.1371 5.62109 64.1328Z" fill="black"/>
<path d="M5.58984 64.0742C5.58984 64.0742 5.5958 64.0845 5.59879 64.089C5.5958 64.0845 5.59282 64.0786 5.58984 64.0742Z" fill="black"/>
<path d="M5.4873 63.8838C5.4873 63.8838 5.49304 63.8939 5.4959 63.8997C5.49304 63.8953 5.49017 63.8896 5.4873 63.8838Z" fill="black"/>
<path d="M5.45605 63.8242C5.45605 63.8242 5.46174 63.8356 5.46458 63.8413C5.46174 63.8356 5.45889 63.8299 5.45605 63.8242Z" fill="black"/>
<path d="M5.4248 63.7627C5.4248 63.7627 5.43256 63.7782 5.43567 63.7843C5.43256 63.7766 5.42791 63.7704 5.4248 63.7627Z" fill="black"/>
<path d="M5.39551 63.7031C5.40016 63.7109 5.40327 63.7186 5.40792 63.7279C5.40327 63.7201 5.40016 63.7109 5.39551 63.7031Z" fill="black"/>
<path d="M5.19434 63.2861C5.19845 63.2945 5.20257 63.3029 5.20531 63.3113C5.2012 63.3029 5.19708 63.2945 5.19434 63.2861Z" fill="black"/>
<path d="M5.1416 63.166C5.14572 63.1744 5.14846 63.1828 5.15258 63.1912C5.14846 63.1828 5.14435 63.1744 5.1416 63.166Z" fill="black"/>
<path d="M5.07422 63.0117C5.09203 63.0522 5.10837 63.0926 5.12618 63.1316C5.10837 63.0911 5.09055 63.0507 5.07422 63.0117Z" fill="black"/>
<path d="M5.02539 62.8965C5.02951 62.9063 5.03362 62.9147 5.03774 62.9245C5.03362 62.9147 5.02951 62.9049 5.02539 62.8965Z" fill="black"/>
<path d="M7.65137 62.8623C7.65447 62.87 7.65913 62.8793 7.66223 62.887C7.65913 62.8793 7.65447 62.8716 7.65137 62.8623Z" fill="black"/>
<path d="M7.57313 62.6781C6.88129 61.3564 6.48192 59.84 6.4834 58.3564C6.4834 59.84 6.88129 61.3564 7.57313 62.6781C7.59688 62.7351 7.62064 62.7935 7.64588 62.849C7.62064 62.792 7.59688 62.7351 7.57313 62.6781Z" fill="black"/>
<path d="M4.85742 62.4678C4.86203 62.4815 4.86818 62.4953 4.87279 62.5075C4.86818 62.4938 4.86203 62.48 4.85742 62.4678Z" fill="black"/>
<path d="M4.83594 62.4062C4.84055 62.42 4.84669 62.4338 4.8513 62.446C4.84669 62.4322 4.84055 62.4185 4.83594 62.4062Z" fill="black"/>
<path d="M4.81348 62.3438C4.81809 62.3575 4.82423 62.3713 4.82884 62.3865C4.82423 62.3728 4.81809 62.359 4.81348 62.3438Z" fill="black"/>
<path d="M4.71094 62.0488C4.74211 62.1447 4.77478 62.2391 4.80892 62.335C4.77478 62.2406 4.74211 62.1447 4.71094 62.0488Z" fill="black"/>
<path d="M4.69141 61.9912C4.69724 62.0074 4.70307 62.0251 4.70745 62.0413C4.70162 62.0251 4.69578 62.0074 4.69141 61.9912Z" fill="black"/>
<path d="M4.6543 61.873C4.65891 61.8883 4.66352 61.9036 4.66966 61.9189C4.66505 61.9036 4.66044 61.8883 4.6543 61.873Z" fill="black"/>
<path d="M4.63477 61.8115C4.63938 61.8268 4.64399 61.8421 4.65013 61.8574C4.64552 61.8421 4.64091 61.8268 4.63477 61.8115Z" fill="black"/>
<path d="M4.61621 61.749C4.62082 61.7658 4.62543 61.7811 4.63158 61.7979C4.62697 61.7811 4.62082 61.7658 4.61621 61.749Z" fill="black"/>
<path d="M4.56055 61.5615C4.56638 61.5792 4.57076 61.5983 4.57659 61.6175C4.57076 61.5998 4.56638 61.5807 4.56055 61.5615Z" fill="black"/>
<path d="M6.12978 52.5059C4.02604 54.9889 3.66973 58.4384 4.55903 61.5598C3.66973 58.4384 4.02604 54.9904 6.12978 52.5074V52.5059Z" fill="black"/>
<path d="M9.29568 52.8682C9.19027 52.9401 9.08635 53.015 8.98242 53.0884C9.08635 53.0135 9.19027 52.9401 9.29568 52.8682Z" fill="black"/>
<path d="M8.76562 50.2814C8.77419 50.2756 8.78132 50.2699 8.78988 50.2656C8.78132 50.2714 8.77419 50.2771 8.76562 50.2814Z" fill="black"/>
<path d="M8.91819 50.1795C8.91819 50.1795 8.92675 50.1738 8.93103 50.1709C8.9239 50.1752 8.91676 50.1809 8.9082 50.1852C8.91106 50.1824 8.91534 50.1809 8.91819 50.1781V50.1795Z" fill="black"/>
<path d="M9.02173 50.1133C9.02173 50.1133 9.00776 50.1226 9 50.1272C9.00776 50.1226 9.01397 50.1179 9.02173 50.1133Z" fill="black"/>
<path d="M9.09034 50.068C9.10207 50.0607 9.11379 50.0533 9.12551 50.0459C9.10207 50.0607 9.08009 50.0754 9.05664 50.0902C9.06836 50.0828 9.07862 50.0754 9.09034 50.068Z" fill="black"/>
<path d="M9.26369 49.9572C9.27394 49.9498 9.28567 49.9439 9.29592 49.9365C9.27101 49.9513 9.24757 49.9675 9.22266 49.9823C9.23584 49.9734 9.24903 49.9646 9.26369 49.9572Z" fill="black"/>
<path d="M9.79157 49.6359C9.83314 49.6119 9.87471 49.5865 9.91628 49.5625C9.86135 49.5955 9.80493 49.6269 9.75 49.6599C9.76336 49.6524 9.77672 49.6434 9.79157 49.6359Z" fill="black"/>
<path d="M13.2091 47.9209C13.2091 47.9209 13.1973 47.9253 13.1914 47.9282C13.1973 47.9253 13.2032 47.9238 13.2091 47.9209Z" fill="black"/>
<path d="M13.6781 47.7196C13.7077 47.7076 13.736 47.6956 13.7642 47.6836C13.6543 47.73 13.5444 47.7765 13.4346 47.823C13.5147 47.7885 13.5964 47.754 13.6766 47.7196H13.6781Z" fill="black"/>
<path d="M14.6367 47.3244C14.6367 47.3244 14.6471 47.3199 14.653 47.3184C14.6115 47.3348 14.5699 47.3513 14.5283 47.3678C14.564 47.3528 14.6011 47.3393 14.6367 47.3244Z" fill="black"/>
<path d="M15.2445 47.083C15.2327 47.0875 15.2194 47.0935 15.2061 47.0979C15.2194 47.0935 15.2312 47.0875 15.2445 47.083Z" fill="black"/>
<path d="M15.4656 46.9961C15.4226 47.0126 15.378 47.0306 15.335 47.047C15.378 47.0306 15.4211 47.0126 15.4656 46.9961Z" fill="black"/>
<path d="M17.3879 46.2528C17.4413 46.2319 17.4948 46.2109 17.5482 46.1914C16.8579 46.4581 16.1631 46.7219 15.4697 46.9946C16.1096 46.7444 16.751 46.4986 17.3879 46.2528Z" fill="black"/>
<path d="M17.8036 46.0928C17.8036 46.0928 17.788 46.099 17.7803 46.102C17.788 46.099 17.7958 46.0959 17.8036 46.0928Z" fill="black"/>
<path d="M18.6502 45.7617C18.3756 45.8711 18.0979 45.979 17.8203 46.0854C18.0979 45.9775 18.3741 45.8696 18.6502 45.7617Z" fill="black"/>
<path d="M20.0735 45.2215C20.1997 45.1736 20.3274 45.1241 20.4536 45.0762C20.2829 45.1421 20.1121 45.2065 19.9414 45.271C19.9859 45.2545 20.029 45.238 20.0721 45.2215H20.0735Z" fill="black"/>
<path d="M21.2153 44.7861C21.1545 44.8101 21.0921 44.8326 21.0312 44.8566C21.0921 44.8326 21.153 44.8101 21.2153 44.7861Z" fill="black"/>
<path d="M23.6622 43.8404C23.7573 43.8029 23.8523 43.767 23.9473 43.7295C23.4588 43.9183 22.9689 44.1071 22.4805 44.2974C22.8739 44.1446 23.2688 43.9932 23.6622 43.8404Z" fill="black"/>
<path d="M29.2178 41.7285C29.1885 41.7388 29.1592 41.7492 29.1299 41.761C29.1592 41.7507 29.1885 41.7388 29.2178 41.7285Z" fill="black"/>
<path d="M29.3858 41.667C29.3521 41.6788 29.3198 41.6906 29.2861 41.7039C29.3198 41.6921 29.3521 41.6803 29.3858 41.667Z" fill="black"/>
<path d="M29.5508 41.6074C29.5171 41.6192 29.4834 41.6325 29.4482 41.6443C29.4819 41.6325 29.5156 41.6192 29.5508 41.6074Z" fill="black"/>
<path d="M104.591 39.1142C104.937 37.7026 105.276 36.276 105.271 34.8135C105.276 36.2775 104.937 37.7026 104.591 39.1142C104.577 39.315 104.507 39.4978 104.401 39.6551C104.401 39.6551 104.401 39.6566 104.401 39.6581C104.508 39.5008 104.578 39.315 104.593 39.1142H104.591Z" fill="black"/>
<path d="M102.729 29.3164C104.219 30.71 105.285 32.6566 105.27 34.741C105.286 32.6551 104.219 30.71 102.729 29.3164Z" fill="black"/>
<path d="M50.9703 33.9738C51.0654 33.9423 51.1604 33.9108 51.2554 33.8794C51.4321 33.8209 51.6087 33.764 51.7854 33.707C51.4484 33.8149 51.1129 33.9258 50.7773 34.0367C50.8412 34.0157 50.9065 33.9932 50.9703 33.9723V33.9738Z" fill="black"/>
<path d="M51.9156 33.667C51.8833 33.6773 51.8511 33.6877 51.8174 33.698C51.8496 33.6877 51.8819 33.6773 51.9156 33.667Z" fill="black"/>
<path d="M52.0393 33.6279C52.0393 33.6279 52.0253 33.6326 52.0176 33.6341C52.0253 33.6326 52.0315 33.6295 52.0393 33.6279Z" fill="black"/>
<path d="M52.7251 33.4124C52.7414 33.408 52.7563 33.4035 52.7726 33.3975C52.7073 33.4169 52.6434 33.4379 52.5781 33.4574C52.6271 33.4424 52.6761 33.4274 52.7251 33.4109V33.4124Z" fill="black"/>
<path d="M53.0789 33.3028C53.1962 33.2669 53.3135 33.2309 53.4308 33.1949C53.4367 33.1934 53.4412 33.1919 53.4471 33.1904C53.3046 33.2339 53.1621 33.2773 53.0195 33.3208C53.0388 33.3148 53.0581 33.3088 53.0774 33.3028H53.0789Z" fill="black"/>
<path d="M56.623 32.2762C56.718 32.2507 56.8131 32.2237 56.9066 32.1982C56.7151 32.2507 56.5235 32.3031 56.332 32.3556C56.4285 32.3286 56.5265 32.3016 56.623 32.2747V32.2762Z" fill="black"/>
<path d="M58.7963 31.6952C58.9863 31.6457 59.1764 31.5963 59.3664 31.5483C59.5906 31.4914 59.8148 31.4329 60.0389 31.376C59.3946 31.5393 58.7503 31.7056 58.1074 31.875C58.3375 31.815 58.5677 31.7536 58.7978 31.6937L58.7963 31.6952Z" fill="black"/>
<path d="M68.5715 29.3096C68.5615 29.3124 68.5515 29.3139 68.543 29.3167C68.553 29.3139 68.5629 29.3124 68.5715 29.3096Z" fill="black"/>
<path d="M69.57 29.0684C69.4305 29.1028 69.2909 29.1358 69.1514 29.1703C69.2909 29.1373 69.4305 29.1028 69.57 29.0684Z" fill="black"/>
<path d="M80.5138 26.7036C78.2156 27.1292 76.0302 27.5998 74.0928 27.9789C76.0302 27.5998 78.2141 27.1277 80.5124 26.7021L80.5138 26.7036Z" fill="black"/>
<path d="M80.6475 26.6797C80.6089 26.6872 80.5703 26.6932 80.5332 26.7007C80.5718 26.6932 80.6089 26.6872 80.6475 26.6797Z" fill="black"/>
<path d="M80.7691 26.6553C80.7354 26.6612 80.7017 26.6671 80.668 26.6745C80.7017 26.6686 80.7354 26.6627 80.7691 26.6553Z" fill="black"/>
<path d="M80.8965 26.6328C80.8672 26.6387 80.8394 26.6431 80.8115 26.6491C80.8408 26.6431 80.8687 26.6387 80.8965 26.6328Z" fill="black"/>
<path d="M81.0249 26.6094C81 26.6138 80.9766 26.6182 80.9531 26.6227C80.978 26.6182 81.0015 26.6138 81.0249 26.6094Z" fill="black"/>
<path d="M6.13113 52.5061C5.69317 51.6864 6.35235 50.044 6.676 48.9756C6.35086 50.044 5.69317 51.6864 6.13113 52.5061Z" fill="black"/>
<path d="M8.92392 49.7334C8.89868 49.8173 8.87493 49.9012 8.85117 49.9851C8.8482 49.9926 8.84672 50.0016 8.84375 50.0091C8.87047 49.9177 8.8972 49.8248 8.92392 49.7334Z" fill="black"/>
<path d="M9.20204 48.833C9.17977 48.9004 9.15899 48.9679 9.13672 49.0353C9.1575 48.9679 9.17977 48.9004 9.20204 48.833Z" fill="black"/>
<path d="M6.68399 48.9512C6.68399 48.9512 6.68112 48.9613 6.67969 48.967C6.68112 48.9613 6.68255 48.9569 6.68399 48.9512Z" fill="black"/>
<path d="M6.69881 48.8975C6.69881 48.8975 6.69583 48.9078 6.69434 48.9122C6.69583 48.9078 6.69732 48.9019 6.69881 48.8975Z" fill="black"/>
<path d="M6.72345 48.8135C6.72345 48.8135 6.72061 48.8249 6.71777 48.8306C6.71919 48.8249 6.72061 48.8192 6.72345 48.8135Z" fill="black"/>
<path d="M12.5659 39.7836C12.6892 39.4509 12.8124 39.1198 12.9341 38.7871C12.9237 38.8156 12.9133 38.8456 12.9015 38.874C12.7901 39.1767 12.6788 39.4809 12.5645 39.7836H12.5659Z" fill="black"/>
<path d="M14.579 34.5869C14.4201 34.8776 14.2791 35.1818 14.1469 35.4935C14.1276 35.54 14.1083 35.5849 14.089 35.6314C13.8411 36.2353 13.6318 36.8586 13.418 37.4565C13.7594 36.5035 14.092 35.4845 14.579 34.5869Z" fill="black"/>
<path d="M14.6265 34.5029C14.6265 34.5029 14.6192 34.5161 14.6162 34.5219C14.6192 34.5161 14.6236 34.5088 14.6265 34.5029Z" fill="black"/>
<path d="M14.797 34.2109C14.797 34.2109 14.7911 34.2213 14.7881 34.2257C14.7911 34.2213 14.794 34.2154 14.797 34.2109Z" fill="black"/>
<path d="M14.8282 34.1631C14.8282 34.1631 14.8194 34.1762 14.8164 34.1821C14.8208 34.1762 14.8253 34.1689 14.8282 34.1631Z" fill="black"/>
<path d="M14.909 34.0381C14.903 34.0472 14.8971 34.0547 14.8926 34.0638C14.8985 34.0547 14.9045 34.0472 14.909 34.0381Z" fill="black"/>
<path d="M15.5575 33.2402C15.5396 33.2582 15.5218 33.2762 15.504 33.2942C15.357 33.447 15.2205 33.6089 15.0928 33.7782C15.2353 33.5879 15.3897 33.4081 15.5575 33.2402Z" fill="black"/>
<path d="M15.7047 33.0986C15.6646 33.1346 15.6245 33.1721 15.5859 33.211C15.6245 33.1736 15.6646 33.1361 15.7047 33.0986Z" fill="black"/>
<path d="M15.8535 32.9688C15.8535 32.9688 15.8418 32.9776 15.8374 32.982C15.8228 32.9953 15.8066 33.0071 15.792 33.0204C15.8125 33.0027 15.833 32.985 15.8535 32.9688Z" fill="black"/>
<path d="M15.8869 32.9414C15.8869 32.9414 15.875 32.9502 15.8691 32.9545C15.875 32.9502 15.881 32.9458 15.8869 32.9414Z" fill="black"/>
<path d="M16.0746 32.7959C16.0553 32.8094 16.0374 32.8229 16.0181 32.8379C15.9795 32.8678 15.9409 32.8978 15.9023 32.9278C15.9588 32.8828 16.0152 32.8394 16.0746 32.7959Z" fill="black"/>
<path d="M16.2537 32.6748C16.2537 32.6748 16.2382 32.6841 16.2305 32.6903C16.2382 32.6856 16.246 32.681 16.2537 32.6748Z" fill="black"/>
<path d="M16.3414 32.6182C16.33 32.6253 16.3186 32.6325 16.3086 32.6382C16.32 32.631 16.3314 32.6239 16.3414 32.6182Z" fill="black"/>
<path d="M16.4308 32.5635C16.4184 32.5705 16.4075 32.5775 16.3965 32.5845C16.4088 32.5775 16.4198 32.5705 16.4308 32.5635Z" fill="black"/>
<path d="M16.5631 32.4922C16.5517 32.4979 16.5417 32.5036 16.5303 32.5094C16.5403 32.5036 16.5517 32.4979 16.5631 32.4922Z" fill="black"/>
<path d="M16.6105 32.4678C16.6005 32.4735 16.5891 32.4778 16.5791 32.4835C16.5891 32.4778 16.6005 32.4721 16.6105 32.4678Z" fill="black"/>
<path d="M16.7004 32.4248C16.7004 32.4248 16.6849 32.4325 16.6787 32.4356C16.6865 32.4325 16.6942 32.4279 16.7004 32.4248Z" fill="black"/>
<path d="M16.799 32.377C16.789 32.3812 16.779 32.3855 16.7676 32.3913C16.7776 32.387 16.7876 32.3812 16.799 32.377Z" fill="black"/>
<path d="M74.0939 27.9788C73.8267 27.6312 73.3798 27.4304 73.0205 27.1816C73.3783 27.4319 73.8267 27.6327 74.0924 27.9788H74.0939Z" fill="black"/>
<path d="M67.7832 26.5367C68.2657 26.8184 68.7334 27.1226 69.1966 27.4373C68.7349 27.1226 68.2657 26.8169 67.7832 26.5352V26.5367Z" fill="black"/>
<path d="M72.939 27.1226C71.5316 26.234 70.2503 25.1386 68.7879 24.3444C67.9105 23.8499 66.8965 23.709 65.9894 23.3044C64.671 21.9693 62.8271 22.1521 61.1688 22.5432C60.9847 22.3993 60.8065 22.266 60.6328 22.1416C60.8065 22.2645 60.9847 22.3993 61.1688 22.5432C62.8271 22.1521 64.6696 21.9693 65.9894 23.3044C66.895 23.709 67.909 23.8499 68.7879 24.3444C70.2503 25.1386 71.5316 26.2355 72.939 27.1226Z" fill="black"/>
<path d="M66.6279 26.0615C66.9679 26.1649 67.3034 26.2788 67.6212 26.4436C67.3034 26.2803 66.9679 26.1649 66.6279 26.0615Z" fill="black"/>
<path d="M33.2457 25.3506C33.2457 25.3506 33.2354 25.3564 33.2295 25.3608C33.2354 25.3579 33.2398 25.355 33.2457 25.3506Z" fill="black"/>
<path d="M33.6047 25.1167C33.5913 25.1257 33.5765 25.1347 33.5631 25.1437C33.5141 25.1767 33.4666 25.2081 33.4176 25.2381C33.3746 25.2666 33.3315 25.2936 33.2884 25.3205C33.2795 25.3265 33.2706 25.331 33.2617 25.337C33.3746 25.2666 33.4874 25.1917 33.6032 25.1152L33.6047 25.1167Z" fill="black"/>
<path d="M34.6534 24.3809C34.3817 24.5787 34.1174 24.769 33.8591 24.9458C33.8101 24.9803 33.7596 25.0132 33.7106 25.0477C33.7062 25.0507 33.7017 25.0537 33.6973 25.0567C34.0046 24.8499 34.3238 24.6221 34.6534 24.3824V24.3809Z" fill="black"/>
<path d="M37.0211 22.6182C36.9692 22.6556 36.9172 22.6946 36.8667 22.732C36.5698 22.9508 36.2758 23.1711 35.9863 23.3884C36.3248 23.1336 36.6707 22.8759 37.0211 22.6197V22.6182Z" fill="black"/>
<path d="M53.8981 23.1821C53.8981 23.1821 53.8863 23.1792 53.8818 23.1777C53.8877 23.1792 53.8937 23.1807 53.8981 23.1821Z" fill="black"/>
<path d="M38.7516 21.4107C38.7011 21.4436 38.6507 21.4766 38.6002 21.5096C38.4755 21.592 38.3522 21.6759 38.2275 21.7598C38.4012 21.6414 38.5749 21.5246 38.7501 21.4092L38.7516 21.4107Z" fill="black"/>
<path d="M39.0547 21.2139C39.0225 21.2345 38.9902 21.2537 38.958 21.2744C38.9902 21.2537 39.0225 21.2331 39.0547 21.2139Z" fill="black"/>
<path d="M39.7426 20.7979C39.5734 20.8953 39.4056 20.9972 39.2378 21.1005C39.2007 21.1245 39.1621 21.147 39.125 21.171C39.3299 21.0421 39.5362 20.9162 39.7426 20.7979Z" fill="black"/>
<path d="M57.8314 20.9861C57.6919 20.9711 57.5479 20.9591 57.3994 20.9531C57.5479 20.9606 57.6919 20.9711 57.8314 20.9876V20.9861Z" fill="black"/>
<path d="M55.8419 20.9653C55.2748 20.9968 54.6884 21.0297 54.2578 20.6836C54.5636 20.9278 54.9452 20.9833 55.3446 20.9833C55.5094 20.9833 55.6771 20.9743 55.8434 20.9638L55.8419 20.9653Z" fill="black"/>
<path d="M57.3516 20.9521C57.3625 20.9521 57.3749 20.9521 57.3859 20.9535C57.3749 20.9535 57.3625 20.9535 57.3516 20.9521Z" fill="black"/>
<path d="M40.8194 20.2256C40.7945 20.2374 40.771 20.2492 40.7461 20.261C40.7695 20.2492 40.7945 20.2374 40.8194 20.2256Z" fill="black"/>
<path d="M41.6278 19.8779C41.5447 19.9094 41.4615 19.9424 41.3799 19.9768C41.463 19.9424 41.5462 19.9094 41.6278 19.8779Z" fill="black"/>
<path d="M42.0892 19.7158C42.0759 19.7203 42.0626 19.7248 42.0508 19.7278C42.0641 19.7233 42.0774 19.7188 42.0892 19.7158Z" fill="black"/>
<path d="M37.1524 19.6289C37.1216 19.651 37.0894 19.6717 37.0586 19.6939C37.0894 19.6717 37.1201 19.651 37.1524 19.6289Z" fill="black"/>
<path d="M42.6598 19.5586C42.596 19.5736 42.5306 19.5886 42.4668 19.6065C42.5321 19.5901 42.596 19.5736 42.6598 19.5586Z" fill="black"/>
<path d="M41.7187 17.3047C40.1985 17.7168 38.7405 18.538 37.2158 19.5869C38.7391 18.538 40.1985 17.7168 41.7187 17.3047Z" fill="black"/>
<path d="M51.517 18.5813C51.3864 18.5439 51.2542 18.5124 51.1191 18.4824C51.2528 18.5109 51.3864 18.5439 51.517 18.5813Z" fill="black"/>
<path d="M54.2665 32.9449C54.1685 32.909 54.069 32.8715 53.9696 32.8355C53.9562 32.831 53.9414 32.825 53.928 32.8205C53.8241 32.7816 53.7202 32.7426 53.6147 32.7022C53.5405 32.6737 53.4648 32.6452 53.3906 32.6167C53.3134 32.5883 53.2376 32.5583 53.1604 32.5298C53.0951 32.5044 53.0298 32.4789 52.9645 32.4534C52.5696 32.3006 52.1776 32.1432 51.7842 31.9844C52.6067 32.317 53.4321 32.6407 54.265 32.9449H54.2665Z" fill="black"/>
<path d="M56.2088 32.3901C56.1924 32.3526 56.1746 32.3181 56.1523 32.2852C56.1746 32.3181 56.1924 32.3541 56.2088 32.3901Z" fill="black"/>
<path d="M56.0215 32.1381C56.0215 32.1381 56.0258 32.141 56.0272 32.1424C56.0329 32.1467 56.0386 32.1525 56.0443 32.1568C56.0372 32.1496 56.0286 32.1439 56.0215 32.1367V32.1381Z" fill="black"/>
<path d="M55.9355 32.0801C55.9355 32.0801 55.9413 32.0829 55.9427 32.0844C55.9484 32.0872 55.9527 32.0901 55.9584 32.093C55.9512 32.0887 55.9427 32.0844 55.9355 32.0801Z" fill="black"/>
<path d="M55.874 32.0518C55.874 32.0518 55.8858 32.0562 55.8903 32.0592C55.8932 32.0592 55.8977 32.0622 55.9006 32.0637C55.9065 32.0667 55.911 32.0682 55.9169 32.0712C55.9036 32.0637 55.8888 32.0577 55.874 32.0518Z" fill="black"/>
<path d="M55.8481 32.0408C53.3124 31.1522 50.8404 30.0973 48.3641 29.0543C48.223 28.9959 48.0805 28.9359 47.9395 28.876C48.0805 28.9359 48.223 28.9944 48.3641 29.0543C50.8404 30.0973 53.3124 31.1537 55.8481 32.0408Z" fill="black"/>
<path d="M50.6689 31.5258C50.6214 31.5063 50.5739 31.4868 50.5264 31.4658C50.654 31.5183 50.7817 31.5722 50.9094 31.6247C50.8292 31.5917 50.7491 31.5587 50.6689 31.5258Z" fill="black"/>
<path d="M49.8873 31.1986C49.7566 31.1447 49.6275 31.0892 49.4968 31.0338C49.4419 31.0113 49.387 30.9873 49.332 30.9648C49.5711 31.0652 49.8101 31.1656 50.0476 31.266C49.9942 31.2436 49.9407 31.2211 49.8873 31.1986Z" fill="black"/>
<path d="M47.4183 30.1635C47.1778 30.0616 46.9373 29.9612 46.6983 29.8593C46.676 29.8503 46.6537 29.8398 46.63 29.8308C46.3865 29.7274 46.143 29.624 45.901 29.5191C45.898 29.5191 45.8936 29.5161 45.8906 29.5146C46.6597 29.8443 47.4287 30.1695 48.2007 30.4932C47.9394 30.3838 47.6796 30.2744 47.4183 30.165V30.1635Z" fill="black"/>
<path d="M47.416 28.6558C47.4442 28.6678 47.4724 28.6798 47.5021 28.6918C47.5244 28.7022 47.5481 28.7112 47.5704 28.7202C47.5185 28.6978 47.468 28.6768 47.416 28.6543V28.6558Z" fill="black"/>
<path d="M42.3766 27.9573C42.3365 27.9393 42.2979 27.9213 42.2578 27.9033C42.2964 27.9213 42.3365 27.9393 42.3751 27.9573H42.3766Z" fill="black"/>
<path d="M41.1152 27.3701C41.2266 27.4226 41.3364 27.4735 41.4478 27.526C41.3379 27.4735 41.2266 27.4211 41.1152 27.3701Z" fill="black"/>
<path d="M41.0205 27.3252C41.0483 27.3385 41.0762 27.3503 41.1026 27.3636C41.0747 27.3503 41.0469 27.3385 41.0205 27.3252Z" fill="black"/>
<path d="M40.9416 27.2893C40.9328 27.2848 40.9239 27.2818 40.915 27.2773C40.9328 27.2863 40.9505 27.2938 40.9682 27.3028C40.9594 27.2983 40.9505 27.2938 40.9402 27.2893H40.9416Z" fill="black"/>
<path d="M42.8721 26.666C42.8806 26.6703 42.8878 26.6732 42.8963 26.676C42.8878 26.6717 42.8806 26.6689 42.8721 26.666Z" fill="black"/>
<path d="M42.2812 26.3994C42.2898 26.4037 42.2984 26.408 42.3084 26.4109C42.2998 26.4066 42.2912 26.4023 42.2812 26.3994Z" fill="black"/>
<path d="M38.8944 26.3573C38.5307 26.1939 38.1655 26.0306 37.8017 25.8658C37.6488 25.7968 37.4974 25.7279 37.346 25.659C37.2702 25.6245 37.1945 25.59 37.1188 25.5556C37.0906 25.5421 37.0624 25.5301 37.0342 25.5166C37.6859 25.8148 38.3407 26.1085 38.9939 26.4022C38.9612 26.3872 38.9271 26.3722 38.8944 26.3573Z" fill="black"/>
<path d="M36.7609 25.3906C36.6837 25.3546 36.6065 25.3201 36.5293 25.2842C36.6154 25.3246 36.703 25.3651 36.7891 25.4041C36.7802 25.3996 36.7698 25.3951 36.7609 25.3906Z" fill="black"/>
<path d="M36.4365 25.2411C36.3148 25.1842 36.193 25.1273 36.0713 25.0703C36.2153 25.1377 36.3593 25.2052 36.5048 25.2726C36.4825 25.2621 36.4588 25.2516 36.4365 25.2411Z" fill="black"/>
<path d="M35.256 24.6783C35.1788 24.6409 35.1016 24.6034 35.0244 24.5645C35.1833 24.6424 35.3436 24.7203 35.504 24.7982C35.4208 24.7578 35.3392 24.7188 35.256 24.6783Z" fill="black"/>
<path d="M34.9339 24.5218C34.8656 24.4874 34.7973 24.4544 34.7305 24.4199C34.821 24.4649 34.9116 24.5098 35.0022 24.5548C34.9799 24.5443 34.9576 24.5323 34.9339 24.5218Z" fill="black"/>
<path d="M35.9072 23.4473C35.9365 23.4606 35.9644 23.4738 35.9937 23.4886C35.9644 23.4753 35.9365 23.462 35.9072 23.4473Z" fill="black"/>
<path d="M15.29 39.4464C15.2736 39.4464 15.2558 39.4434 15.2395 39.4434C15.2336 39.4434 15.2276 39.4434 15.2217 39.4434C15.2618 39.4464 15.3019 39.4494 15.3434 39.4524C15.3256 39.4524 15.3093 39.4494 15.2915 39.4494L15.29 39.4464Z" fill="black"/>
<path d="M15.1192 39.4333C15.0747 39.4288 15.0316 39.4243 14.9871 39.4198C14.947 39.4153 14.9069 39.4108 14.8683 39.4049C14.8565 39.4049 14.8446 39.4019 14.8327 39.4004C14.7941 39.3959 14.7555 39.3899 14.7184 39.3839C14.6828 39.3779 14.6486 39.3719 14.6145 39.3674C14.5966 39.3644 14.5803 39.3614 14.5625 39.3584C14.754 39.3929 14.9485 39.4183 15.1445 39.4363C15.1371 39.4363 15.1281 39.4348 15.1192 39.4333Z" fill="black"/>
<path d="M14.1872 39.2771C14.1441 39.2666 14.1011 39.2546 14.0565 39.2426C14.0343 39.2366 14.0135 39.2306 13.9912 39.2246C14.0833 39.2516 14.1753 39.2756 14.2674 39.2965C14.2406 39.2905 14.2124 39.283 14.1857 39.2771H14.1872Z" fill="black"/>
<path d="M13.788 37.6708C13.7776 37.6663 13.7672 37.6603 13.7568 37.6543C13.7672 37.6603 13.7776 37.6648 13.788 37.6708Z" fill="black"/>
<path d="M37.6702 29.8577C37.9523 29.7962 38.2358 29.7423 38.5194 29.6943C38.2343 29.7423 37.9508 29.7962 37.6687 29.8577C31.6039 31.2378 26.7714 35.5385 21.1729 38.035C26.7714 35.537 31.6039 31.2378 37.6687 29.8577H37.6702Z" fill="black"/>
<path d="M13.7285 37.6406C13.7285 37.6406 13.744 37.6484 13.7518 37.653C13.744 37.6484 13.7363 37.6453 13.7285 37.6406Z" fill="black"/>
<path d="M13.5371 37.5312C13.5547 37.5416 13.5708 37.5519 13.5884 37.5622C13.5972 37.5667 13.6045 37.5711 13.6133 37.577C13.5884 37.5622 13.562 37.5475 13.5371 37.5327V37.5312Z" fill="black"/>
<path d="M13.4375 37.4688C13.4375 37.4688 13.4515 37.478 13.4577 37.4811C13.4515 37.4765 13.4437 37.4718 13.4375 37.4688Z" fill="black"/>
<path d="M27.9145 32.6535C28.063 32.5681 28.2099 32.4842 28.3569 32.4003C28.3614 32.3973 28.3644 32.3958 28.3688 32.3928C28.5173 32.3073 28.6657 32.2249 28.8142 32.141C28.9152 32.0841 29.0161 32.0271 29.1171 31.9717C28.6969 32.2054 28.2723 32.4467 27.8447 32.694C27.8685 32.6805 27.8922 32.667 27.916 32.6535H27.9145Z" fill="black"/>
<path d="M29.703 31.6502C29.7773 31.6098 29.85 31.5708 29.9243 31.5304C29.994 31.4929 30.0638 31.4554 30.1351 31.418C29.9213 31.5319 29.706 31.6472 29.4893 31.7656C29.5605 31.7267 29.6318 31.6877 29.703 31.6487V31.6502Z" fill="black"/>
<path d="M30.8659 31.0385C30.9772 30.9815 31.0871 30.9261 31.1984 30.8691C30.9995 30.9695 30.7991 31.0714 30.5986 31.1748C30.6877 31.1284 30.7768 31.0834 30.8659 31.0385Z" fill="black"/>
<path d="M31.9 30.5278C31.9728 30.4933 32.0455 30.4588 32.1198 30.4244C32.1524 30.4094 32.1851 30.3929 32.2192 30.3779C31.9505 30.5023 31.6818 30.6312 31.4131 30.7645C31.5749 30.6851 31.7382 30.6057 31.9 30.5293V30.5278Z" fill="black"/>
<path d="M32.3383 30.3224C32.3902 30.2984 32.4407 30.2759 32.4927 30.252C32.4066 30.2909 32.3219 30.3299 32.2373 30.3688C32.2715 30.3524 32.3056 30.3374 32.3397 30.3224H32.3383Z" fill="black"/>
<path d="M32.5586 30.2217C33.0367 30.0059 33.5162 29.8021 33.9972 29.6133C33.5028 29.8081 33.0129 30.0164 32.5215 30.2397C32.5334 30.2337 32.5467 30.2277 32.5586 30.2232V30.2217Z" fill="black"/>
<path d="M39.0681 29.6104C38.9271 29.6298 38.786 29.6508 38.6465 29.6733C38.7875 29.6508 38.9271 29.6298 39.0681 29.6104Z" fill="black"/>
<path d="M39.3104 29.5771C39.2881 29.5801 39.2658 29.5831 39.2436 29.5861C39.1976 29.5921 39.15 29.5981 39.1025 29.6056C39.1708 29.5966 39.2406 29.5876 39.3089 29.5786L39.3104 29.5771Z" fill="black"/>
<path d="M34.2848 29.5014C34.4421 29.4415 34.601 29.383 34.7598 29.3261C34.8133 29.3066 34.8682 29.2871 34.9217 29.2691C34.9573 29.2556 34.9914 29.2437 35.0271 29.2317C35.1013 29.2062 35.177 29.1792 35.2513 29.1552C35.3106 29.1343 35.37 29.1148 35.4294 29.0968C35.4829 29.0788 35.5363 29.0608 35.5898 29.0444C35.6091 29.0384 35.6284 29.0324 35.6462 29.0264C35.1251 29.1927 34.6084 29.377 34.0947 29.5763C34.1586 29.5523 34.2209 29.5269 34.2848 29.5029V29.5014Z" fill="black"/>
<path d="M39.6916 29.5322C39.6485 29.5367 39.604 29.5412 39.5609 29.5472C39.5268 29.5517 39.4941 29.5547 39.46 29.5592C39.5372 29.5502 39.6144 29.5412 39.6916 29.5322Z" fill="black"/>
<path d="M40.0247 29.498C39.9326 29.507 39.8391 29.516 39.7471 29.5265C39.8391 29.516 39.9312 29.507 40.0247 29.498Z" fill="black"/>
<path d="M40.3032 29.4736C40.2675 29.4766 40.2334 29.4796 40.1978 29.4826C40.1488 29.4871 40.0998 29.4916 40.0508 29.4961C40.1354 29.4886 40.22 29.4811 40.3032 29.4736Z" fill="black"/>
<path d="M40.902 29.4307C40.8798 29.4307 40.859 29.4337 40.8367 29.4352C40.8055 29.4367 40.7743 29.4397 40.7432 29.4412C40.7966 29.4382 40.8486 29.4337 40.902 29.4307Z" fill="black"/>
<path d="M42.8619 29.3786C42.8277 29.3786 42.7936 29.3786 42.758 29.3786C42.2784 29.3786 41.7959 29.3876 41.3164 29.4086C41.2926 29.4086 41.2689 29.4116 41.2451 29.4116C41.784 29.3861 42.323 29.3756 42.8619 29.3771V29.3786Z" fill="black"/>
<path d="M44.2409 29.405C44.1637 29.402 44.085 29.4005 44.0078 29.3975C44.1013 29.4005 44.1964 29.4035 44.2899 29.4065C44.2736 29.4065 44.2572 29.4065 44.2394 29.405H44.2409Z" fill="black"/>
<path d="M43.4998 29.3858C43.4256 29.3858 43.3499 29.3828 43.2742 29.3828C43.2682 29.3828 43.2608 29.3828 43.2549 29.3828C43.3499 29.3828 43.4434 29.3858 43.5384 29.3873C43.5251 29.3873 43.5132 29.3873 43.4998 29.3873V29.3858Z" fill="black"/>
<path d="M35.8781 28.9526C35.9523 28.9287 36.0281 28.9062 36.1038 28.8837C36.1706 28.8642 36.2374 28.8432 36.3057 28.8253C36.3903 28.8013 36.4749 28.7773 36.561 28.7533C36.6353 28.7323 36.711 28.7129 36.7867 28.6919C36.8624 28.6724 36.9396 28.6514 37.0153 28.6334C37.0925 28.614 37.1683 28.5945 37.2455 28.5765C37.2974 28.5645 37.3479 28.551 37.3999 28.5405C37.4355 28.5315 37.4696 28.5241 37.5053 28.5151C37.5736 28.5001 37.6419 28.4851 37.7102 28.4701C37.7784 28.4551 37.8453 28.4401 37.915 28.4267C38.0798 28.3907 38.2461 28.3577 38.4139 28.3278C38.4926 28.3128 38.5712 28.2993 38.6499 28.2858C38.7286 28.2723 38.8088 28.2588 38.8875 28.2453C38.9439 28.2363 39.0018 28.2274 39.0582 28.2184C39.0879 28.2139 39.1191 28.2094 39.1503 28.2049C39.223 28.1944 39.2958 28.1839 39.367 28.1734C39.4472 28.1614 39.5288 28.1509 39.609 28.1404C39.6877 28.1299 39.7649 28.121 39.8436 28.112C39.848 28.112 39.8525 28.112 39.8555 28.1105C39.9223 28.103 39.9891 28.0955 40.0559 28.088C40.0811 28.085 40.1064 28.082 40.1316 28.0805C40.1836 28.0745 40.237 28.07 40.289 28.0655C40.3157 28.0625 40.3409 28.0595 40.3677 28.058C40.4315 28.052 40.4939 28.046 40.5577 28.0415C40.5636 28.0415 40.5681 28.0415 40.574 28.04C38.8756 28.1824 37.29 28.5121 35.7549 28.9931C35.795 28.9811 35.8365 28.9676 35.8766 28.9556L35.8781 28.9526Z" fill="black"/>
<path d="M40.6031 28.0343C40.6729 28.0283 40.7441 28.0238 40.8154 28.0178C40.8317 28.0163 40.8466 28.0148 40.8629 28.0148C40.9386 28.0088 41.0143 28.0043 41.09 27.9998H41.0945C41.1776 27.9953 41.2608 27.9908 41.3454 27.9863C41.0945 27.9983 40.8451 28.0148 40.5986 28.0358C40.6001 28.0358 40.6016 28.0358 40.6031 28.0358V28.0343Z" fill="black"/>
<path d="M41.5258 27.9774C41.5644 27.9744 41.603 27.9744 41.6431 27.9729C41.7144 27.9699 41.7856 27.9684 41.8584 27.9654C41.9252 27.9639 41.992 27.9624 42.0603 27.9609C42.0751 27.9609 42.09 27.9609 42.1048 27.9609C41.8495 27.9654 41.5971 27.9729 41.3477 27.9849C41.407 27.9819 41.4664 27.9789 41.5258 27.9774Z" fill="black"/>
<path d="M42.1754 27.9595C42.2422 27.9595 42.3091 27.958 42.3759 27.958C42.2927 27.958 42.2096 27.958 42.1279 27.961C42.1443 27.961 42.1606 27.961 42.1769 27.961L42.1754 27.9595Z" fill="black"/>
<path d="M19.8195 44.7679C19.3266 42.9247 18.0038 41.5116 16.3633 40.668C16.6216 40.8013 16.8725 40.9482 17.1145 41.11C17.1947 41.164 17.2734 41.2194 17.3521 41.2749C17.6252 41.4742 17.8836 41.6899 18.1255 41.9237C18.1597 41.9567 18.1938 41.9911 18.228 42.0256C18.5991 42.4017 18.9258 42.8198 19.1945 43.2769C19.2435 43.3593 19.291 43.4447 19.3355 43.5301C19.5389 43.9167 19.7022 44.3288 19.818 44.7649C19.8225 44.7903 19.8299 44.8173 19.8359 44.8443C19.8403 44.8683 19.8477 44.8907 19.8522 44.9162C19.8774 45.0211 19.9071 45.138 19.9383 45.2609C19.9383 45.2609 19.9383 45.2624 19.9383 45.2639C19.8923 45.0781 19.8462 44.9072 19.818 44.7649L19.8195 44.7679Z" fill="black"/>
<path d="M18.3232 44.6211C18.3381 44.6586 18.3529 44.696 18.3663 44.735C18.3529 44.6975 18.3381 44.6586 18.3232 44.6211Z" fill="black"/>
<path d="M12.5645 39.7837C13.4834 39.7657 14.4128 39.9155 15.2903 40.2137C15.4283 40.2602 15.5649 40.3111 15.7 40.3666C15.7906 40.4026 15.8797 40.44 15.9687 40.4805C16.0133 40.5 16.0578 40.5209 16.1024 40.5419C16.1885 40.5824 16.2746 40.6243 16.3592 40.6678C15.1938 40.0699 13.868 39.7597 12.5645 39.7837Z" fill="black"/>
<path d="M69.4309 28.9987C69.4235 28.9958 69.4161 28.9913 69.4072 28.9883C69.422 28.9958 69.4353 29.0017 69.4501 29.0092C69.4442 29.0062 69.4368 29.0032 69.4309 29.0002V28.9987Z" fill="black"/>
<path d="M58.9951 28.5928C58.9951 28.5928 59.0055 28.5986 59.0114 28.6015C59.0055 28.5986 59.001 28.5957 58.9951 28.5928Z" fill="black"/>
<path d="M62.6103 28.5342C62.5034 28.5552 62.3965 28.5761 62.2881 28.5971C62.395 28.5761 62.5019 28.5552 62.6103 28.5342Z" fill="black"/>
<path d="M58.9326 28.5557C58.9326 28.5557 58.943 28.5616 58.9475 28.5645C58.943 28.5616 58.9371 28.5586 58.9326 28.5557Z" fill="black"/>
<path d="M58.9092 28.54C58.9092 28.54 58.9195 28.5473 58.9254 28.5503C58.9195 28.5473 58.9151 28.543 58.9092 28.54Z" fill="black"/>
<path d="M58.8838 28.5225C58.8838 28.5225 58.8978 28.5317 58.9055 28.5364C58.8978 28.5317 58.8915 28.5271 58.8838 28.5225Z" fill="black"/>
<path d="M58.8496 28.4971C58.8596 28.5042 58.871 28.5128 58.881 28.52C58.8696 28.5128 58.8596 28.5042 58.8496 28.4971Z" fill="black"/>
<path d="M58.8291 28.4805C58.8291 28.4805 58.8431 28.4913 58.8508 28.4959C58.8431 28.4913 58.8369 28.4851 58.8291 28.4805Z" fill="black"/>
<path d="M58.3311 27.4043C58.3385 27.8179 58.5033 28.221 58.8269 28.4787C58.5033 28.221 58.3385 27.8179 58.3325 27.4043H58.3311Z" fill="black"/>
<path d="M65.1418 28.2725C64.9918 28.2725 64.8404 28.274 64.6904 28.2785C65.3125 28.2635 65.942 28.2785 66.5655 28.3369C66.0919 28.2919 65.6154 28.2725 65.1418 28.2725Z" fill="black"/>
<path d="M64.2444 28.2945C64.1865 28.2975 64.1286 28.302 64.0707 28.3065C64.0678 28.3065 64.0663 28.3065 64.0633 28.3065C64.0069 28.311 63.949 28.3169 63.8926 28.3229C64.0099 28.311 64.1257 28.3005 64.243 28.293L64.2444 28.2945Z" fill="black"/>
<path d="M64.3184 28.2905C64.336 28.2905 64.3521 28.2891 64.3697 28.2891C64.3521 28.2891 64.336 28.2891 64.3184 28.2905C64.311 28.2905 64.3052 28.2905 64.2979 28.2905C64.3052 28.2905 64.3125 28.2905 64.3184 28.2905Z" fill="black"/>
<path d="M69.1965 27.4388C68.9515 27.3563 68.7021 27.2874 68.4512 27.2305C68.7021 27.2889 68.9515 27.3563 69.1965 27.4388Z" fill="black"/>
<path d="M65.7028 26.8905C65.4178 26.8756 65.1327 26.8711 64.8477 26.8786C64.9397 26.8771 65.0318 26.8756 65.1223 26.8756C65.3168 26.8756 65.5098 26.8801 65.7028 26.8905C66.5847 26.952 67.477 27.0179 68.341 27.2052C67.477 27.0179 66.5832 26.952 65.7028 26.8905Z" fill="black"/>
<path d="M54.8592 27.2382C54.448 27.2412 54.0426 27.1813 53.6641 27.0029C54.0352 27.1783 54.4287 27.2382 54.831 27.2397C54.8414 27.2397 54.8503 27.2397 54.8607 27.2397L54.8592 27.2382Z" fill="black"/>
<path d="M56.909 26.9531C56.7679 26.9801 56.6254 27.0056 56.4844 27.0281C56.6269 27.0056 56.7679 26.9801 56.9105 26.9531H56.909Z" fill="black"/>
<path d="M53.2734 26.709C53.2925 26.7297 53.313 26.7503 53.3335 26.771C53.313 26.7518 53.2925 26.7311 53.2734 26.709Z" fill="black"/>
<path d="M60.1533 24.7056C58.0734 25.266 54.6008 26.2101 54.3662 25.7186C54.4122 25.8145 54.5815 25.8549 54.8398 25.8549C55.9043 25.8549 58.4816 25.1566 60.1548 24.7041L60.1533 24.7056Z" fill="black"/>
<path d="M59.0025 23.9863C58.9911 23.9863 58.9811 23.9863 58.9697 23.9878C58.9811 23.9878 58.9911 23.9878 59.0025 23.9863Z" fill="black"/>
<path d="M48.46 25.248C48.5609 25.269 48.6648 25.281 48.7688 25.2825C48.6648 25.2825 48.5609 25.269 48.46 25.248Z" fill="black"/>
<path d="M48.4434 25.2441C48.4434 25.2441 48.4537 25.2471 48.4596 25.2471C48.4537 25.2471 48.4493 25.2441 48.4434 25.2441Z" fill="black"/>
<path d="M51.7981 24.916C51.7981 24.916 51.7877 24.9175 51.7832 24.919C51.7877 24.919 51.7936 24.9175 51.7981 24.916Z" fill="black"/>
<path d="M49.1722 23.8926C49.1589 23.8926 49.1442 23.8926 49.1309 23.8941C49.1442 23.8941 49.1589 23.8941 49.1722 23.8926Z" fill="black"/>
<path d="M49.3928 23.8799C49.3842 23.8799 49.3742 23.8799 49.3643 23.8813C49.3742 23.8813 49.3828 23.8813 49.3928 23.8799Z" fill="black"/>
<path d="M49.448 23.877C49.4394 23.877 49.4309 23.877 49.4209 23.8784C49.4295 23.8784 49.438 23.8784 49.448 23.877Z" fill="black"/>
<path d="M49.493 23.874C49.4852 23.874 49.4775 23.874 49.4697 23.8756C49.4775 23.8756 49.4852 23.8756 49.493 23.874Z" fill="black"/>
<path d="M49.5348 23.8711C49.5348 23.8711 49.5209 23.8711 49.5146 23.8726C49.5209 23.8726 49.5286 23.8726 49.5348 23.8711Z" fill="black"/>
<path d="M49.5809 23.8662C49.5731 23.8662 49.5654 23.8662 49.5576 23.8678C49.5654 23.8678 49.5731 23.8678 49.5809 23.8662Z" fill="black"/>
<path d="M49.6257 23.8623C49.6172 23.8623 49.6072 23.8637 49.5986 23.8652C49.6072 23.8652 49.6172 23.8637 49.6257 23.8623Z" fill="black"/>
<path d="M49.726 23.8535C49.7188 23.8535 49.7103 23.8549 49.7031 23.8564C49.7103 23.8564 49.7188 23.8549 49.726 23.8535Z" fill="black"/>
<path d="M49.7689 23.8506C49.7618 23.8506 49.7547 23.852 49.7461 23.8534C49.7532 23.8534 49.7604 23.852 49.7689 23.8506Z" fill="black"/>
<path d="M49.8119 23.8457C49.8048 23.8457 49.7962 23.8471 49.7891 23.8486C49.7962 23.8486 49.8048 23.8471 49.8119 23.8457Z" fill="black"/>
<path d="M49.8532 23.8408C49.8532 23.8408 49.8392 23.8408 49.833 23.8424C49.8408 23.8424 49.847 23.8424 49.8532 23.8408Z" fill="black"/>
<path d="M49.9012 23.835C49.8926 23.835 49.8841 23.8364 49.877 23.8378C49.8855 23.8378 49.8941 23.8364 49.9012 23.835Z" fill="black"/>
<path d="M49.9573 23.8291C49.9488 23.8291 49.9402 23.8305 49.9316 23.832C49.9402 23.832 49.9488 23.8305 49.9573 23.8291Z" fill="black"/>
<path d="M50.0018 23.8232C49.994 23.8232 49.9863 23.8248 49.9785 23.8263C49.9863 23.8263 49.994 23.8248 50.0018 23.8232Z" fill="black"/>
<path d="M49.0692 23.8096C49.0606 23.8139 49.0535 23.8182 49.0449 23.821C49.0535 23.8167 49.0606 23.8124 49.0692 23.8096Z" fill="black"/>
<path d="M50.0453 23.8184C50.0382 23.8184 50.0296 23.8198 50.0225 23.8212C50.0296 23.8212 50.0382 23.8198 50.0453 23.8184Z" fill="black"/>
<path d="M50.0887 23.8125C50.0887 23.8125 50.0732 23.814 50.0654 23.8156C50.0732 23.8156 50.0809 23.814 50.0887 23.8125Z" fill="black"/>
<path d="M50.1301 23.8086C50.1301 23.8086 50.1162 23.8101 50.1084 23.8117C50.1162 23.8117 50.1224 23.8101 50.1301 23.8086Z" fill="black"/>
<path d="M50.235 23.793C50.2251 23.793 50.2151 23.7958 50.2051 23.7973C50.2151 23.7973 50.2251 23.7944 50.235 23.793Z" fill="black"/>
<path d="M49.1297 23.7812C49.1297 23.7812 49.1142 23.789 49.1064 23.7921C49.1142 23.789 49.122 23.7843 49.1297 23.7812Z" fill="black"/>
<path d="M50.2809 23.7871C50.271 23.7871 50.261 23.79 50.251 23.7914C50.261 23.7914 50.271 23.7885 50.2809 23.7871Z" fill="black"/>
<path d="M50.5161 23.751C50.4567 23.76 50.3958 23.769 50.335 23.7779C50.3958 23.769 50.4552 23.76 50.5161 23.751Z" fill="black"/>
<path d="M49.1857 23.7539C49.1857 23.7539 49.1739 23.7597 49.168 23.7627C49.1739 23.7597 49.1798 23.7568 49.1857 23.7539Z" fill="black"/>
<path d="M53.8981 23.1816C52.7638 23.294 51.6459 23.5757 50.5176 23.7511C51.6444 23.5757 52.7653 23.2925 53.8981 23.1816Z" fill="black"/>
<path d="M49.2438 23.7256C49.2438 23.7256 49.2334 23.73 49.2275 23.7329C49.2334 23.73 49.2379 23.7285 49.2438 23.7256Z" fill="black"/>
<path d="M51.1579 21.5391C50.5745 21.7054 49.9717 21.9047 49.4209 22.1265C49.9717 21.9047 50.573 21.7054 51.1564 21.5391H51.1579Z" fill="black"/>
<path d="M51.2237 21.5195C51.2046 21.524 51.187 21.5299 51.168 21.5358C51.187 21.5299 51.2046 21.5254 51.2237 21.5195Z" fill="black"/>
<path d="M45.1201 23.8965C45.1436 23.8965 45.167 23.8965 45.1905 23.8994C45.167 23.8994 45.1436 23.898 45.1201 23.8965Z" fill="black"/>
<path d="M45.5552 23.8955C45.5418 23.8955 45.5299 23.8955 45.5166 23.8955C45.478 23.897 45.4394 23.8985 45.3993 23.8985C45.3904 23.8985 45.38 23.8985 45.3711 23.8985C45.432 23.8985 45.4943 23.897 45.5552 23.8955Z" fill="black"/>
<path d="M41.7144 23.1504C41.8138 23.2298 41.9178 23.3002 42.0247 23.3617C41.9178 23.2987 41.8138 23.2283 41.7129 23.1504H41.7144Z" fill="black"/>
<path d="M41.6885 23.1309C41.6956 23.1366 41.7042 23.1437 41.7127 23.1495C41.7042 23.1437 41.697 23.1366 41.6885 23.1309Z" fill="black"/>
<path d="M41.6631 23.1084C41.6631 23.1084 41.6771 23.1208 41.6848 23.1269C41.6771 23.1208 41.6693 23.1146 41.6631 23.1084Z" fill="black"/>
<path d="M41.6367 23.0879C41.6367 23.0879 41.6507 23.1003 41.6584 23.1064C41.6507 23.1003 41.6445 23.0941 41.6367 23.0879Z" fill="black"/>
<path d="M41.6113 23.0645C41.6113 23.0645 41.6253 23.0768 41.6331 23.083C41.6253 23.0768 41.6191 23.0706 41.6113 23.0645Z" fill="black"/>
<path d="M41.2787 22.25C41.2713 22.5362 41.3693 22.8239 41.5801 23.0367C41.3678 22.8239 41.2713 22.5362 41.2787 22.25Z" fill="black"/>
<path d="M49.4223 22.1271C49.4046 22.1241 49.3869 22.1226 49.3691 22.1211C49.3869 22.1226 49.4046 22.1256 49.4209 22.1271H49.4223Z" fill="black"/>
<path d="M51.4596 21.1484C51.1998 21.1529 50.94 21.1649 50.6816 21.1754C50.94 21.1649 51.1998 21.1544 51.4596 21.1484Z" fill="black"/>
<path d="M44.5659 20.389C44.6193 20.38 44.6728 20.3695 44.7277 20.3605C44.7797 20.3515 44.8331 20.3425 44.8865 20.3335C44.9415 20.3245 44.9964 20.3155 45.0528 20.3065C45.1078 20.2975 45.1627 20.2886 45.2176 20.2811C45.712 20.2061 46.2168 20.1447 46.7112 20.0938C45.8323 20.1852 44.9207 20.3065 44.0938 20.4819C44.2482 20.4489 44.407 20.4174 44.5659 20.3875V20.389Z" fill="black"/>
<path d="M43.8648 24.7266C43.8648 24.7266 43.856 24.728 43.8516 24.7295C43.8282 24.7354 43.8032 24.7413 43.7798 24.7472C43.7725 24.7487 43.7651 24.7502 43.7578 24.7517C43.7944 24.7443 43.8296 24.7354 43.8648 24.7266Z" fill="black"/>
<path d="M44.0955 24.6611C44.0852 24.6641 44.0748 24.6686 44.0644 24.6716C44.0421 24.6791 44.0183 24.6866 43.9946 24.6926C43.9753 24.6986 43.956 24.7046 43.9352 24.7091C43.9263 24.7121 43.9174 24.7136 43.907 24.7166C43.9011 24.7181 43.8951 24.7196 43.8877 24.7226C43.9604 24.7031 44.0302 24.6821 44.0941 24.6611H44.0955Z" fill="black"/>
<path d="M44.6313 24.3877C44.6313 24.3877 44.6195 24.3967 44.612 24.4012C44.5942 24.4147 44.5764 24.4267 44.5571 24.4386C44.5482 24.4446 44.5408 24.4506 44.5319 24.4551C44.5155 24.4656 44.4977 24.4761 44.4799 24.4866C44.4369 24.5121 44.3893 24.5375 44.3389 24.5615C44.4517 24.5076 44.5482 24.4491 44.6313 24.3877Z" fill="black"/>
<path d="M44.7564 24.2783C44.7476 24.2872 44.7388 24.296 44.7285 24.3049C44.7183 24.3152 44.708 24.3256 44.6963 24.3344C44.6904 24.3388 44.6846 24.3447 44.6787 24.3492C44.7066 24.3256 44.7329 24.3019 44.7564 24.2783Z" fill="black"/>
<path d="M44.9835 23.8936C44.9761 23.925 44.9657 23.958 44.9523 23.991C44.9478 24.0014 44.9434 24.0119 44.9389 24.0224C44.9345 24.0329 44.9285 24.0434 44.9226 24.0554C44.8899 24.1198 44.8454 24.1828 44.789 24.2442C44.7816 24.2517 44.7741 24.2607 44.7652 24.2682C44.7637 24.2712 44.7608 24.2742 44.7578 24.2772C44.8796 24.1543 44.9523 24.0224 44.982 23.8936H44.9835Z" fill="black"/>
<path d="M43.4794 20.2068C42.0839 19.8367 40.3543 20.529 39.8955 21.9706C40.3528 20.529 42.0839 19.8367 43.4794 20.2068Z" fill="black"/>
<path d="M44.0941 20.4832C43.9857 20.3888 43.8446 20.3094 43.668 20.2539C43.7274 20.2719 43.7823 20.2944 43.8328 20.3168C43.8417 20.3213 43.8521 20.3258 43.861 20.3303C43.9263 20.3618 43.9857 20.3978 44.0362 20.4367C44.0451 20.4427 44.0525 20.4487 44.0614 20.4562C44.0733 20.4652 44.0837 20.4742 44.0941 20.4832Z" fill="black"/>
<path d="M43.6465 20.248C43.6465 20.248 43.6605 20.2527 43.6682 20.2542C43.6605 20.2527 43.6542 20.2496 43.6465 20.248Z" fill="black"/>
<path d="M49.1063 27.085C49.0977 27.0878 49.0906 27.0907 49.082 27.0921C49.0906 27.0893 49.0977 27.0864 49.1063 27.085Z" fill="black"/>
<path d="M49.1792 27.0615C49.1587 27.0689 49.1382 27.0763 49.1162 27.0837C49.1367 27.0763 49.1587 27.0689 49.1792 27.0615Z" fill="black"/>
<path d="M48.1221 25.8478C47.8445 25.8538 47.5668 25.8163 47.313 25.7444C47.5475 25.8118 47.8059 25.8493 48.0627 25.8493C48.082 25.8493 48.1013 25.8493 48.1221 25.8493V25.8478Z" fill="black"/>
<path d="M48.2676 25.8398C48.2398 25.8428 48.2105 25.8443 48.1826 25.8457C48.2105 25.8457 48.2398 25.8428 48.2676 25.8398Z" fill="black"/>
<path d="M48.2963 25.8369C48.2891 25.8369 48.2806 25.8369 48.2734 25.8383C48.2806 25.8383 48.2891 25.8383 48.2963 25.8369Z" fill="black"/>
<path d="M48.326 25.834C48.3183 25.834 48.3105 25.8355 48.3027 25.8371C48.3105 25.8371 48.3183 25.8371 48.326 25.834Z" fill="black"/>
<path d="M48.3553 25.8311C48.3476 25.8311 48.3398 25.8326 48.332 25.8341C48.3398 25.8341 48.3476 25.8326 48.3553 25.8311Z" fill="black"/>
<path d="M48.416 25.8232C48.397 25.8262 48.3794 25.8277 48.3604 25.8306C48.3794 25.8291 48.397 25.8262 48.416 25.8232Z" fill="black"/>
<path d="M48.4713 25.8145C48.4713 25.8145 48.4574 25.816 48.4512 25.8175C48.4574 25.8175 48.4651 25.816 48.4713 25.8145Z" fill="black"/>
<path d="M48.4982 25.8105C48.4982 25.8105 48.4864 25.8135 48.4805 25.8135C48.4864 25.8135 48.4923 25.812 48.4982 25.8105Z" fill="black"/>
<path d="M48.5295 25.8037C48.5295 25.8037 48.514 25.8068 48.5078 25.8083C48.5156 25.8083 48.5233 25.8053 48.5295 25.8037Z" fill="black"/>
<path d="M48.5889 25.792C48.5711 25.7965 48.5534 25.7995 48.5342 25.8039C48.5519 25.801 48.5711 25.7965 48.5889 25.792Z" fill="black"/>
<path d="M48.6159 25.7861C48.6159 25.7861 48.6019 25.7892 48.5957 25.7908C48.6019 25.7892 48.6097 25.7877 48.6159 25.7861Z" fill="black"/>
<path d="M48.6427 25.7783C48.6427 25.7783 48.6309 25.7812 48.625 25.7827C48.6309 25.7827 48.6368 25.7798 48.6427 25.7783Z" fill="black"/>
<path d="M48.6676 25.7725C48.6676 25.7725 48.6573 25.7754 48.6514 25.7768C48.6573 25.7768 48.6617 25.7739 48.6676 25.7725Z" fill="black"/>
<path d="M48.6989 25.7637C48.6989 25.7637 48.6865 25.7668 48.6787 25.7683C48.6849 25.7668 48.6911 25.7652 48.6989 25.7637Z" fill="black"/>
<path d="M48.7577 25.7471C48.7577 25.7471 48.7421 25.7517 48.7344 25.7548C48.7421 25.7517 48.7499 25.7502 48.7577 25.7471Z" fill="black"/>
<path d="M48.7819 25.7383C48.7819 25.7383 48.7701 25.7412 48.7656 25.7441C48.7715 25.7427 48.7774 25.7412 48.7819 25.7383Z" fill="black"/>
<path d="M48.8079 25.7295C48.8079 25.7295 48.7974 25.7324 48.793 25.7339C48.7974 25.7324 48.8034 25.731 48.8079 25.7295Z" fill="black"/>
<path d="M48.8333 25.7207C48.8333 25.7207 48.8228 25.7237 48.8184 25.7266C48.8228 25.7251 48.8288 25.7237 48.8333 25.7207Z" fill="black"/>
<path d="M48.8624 25.71C48.8624 25.71 48.8506 25.7143 48.8447 25.7158C48.8506 25.7143 48.8565 25.7114 48.8624 25.71Z" fill="black"/>
<path d="M48.8924 25.6982C48.8839 25.7011 48.8767 25.704 48.8682 25.7083C48.8767 25.7054 48.8839 25.7025 48.8924 25.6982Z" fill="black"/>
<path d="M48.9191 25.6875C48.9191 25.6875 48.9073 25.6919 48.9014 25.6948C48.9073 25.6919 48.9132 25.6904 48.9191 25.6875Z" fill="black"/>
<path d="M48.9426 25.6768C48.9426 25.6768 48.9322 25.6812 48.9277 25.6827C48.9322 25.6812 48.9382 25.6782 48.9426 25.6768Z" fill="black"/>
<path d="M48.968 25.665C48.968 25.665 48.9576 25.6695 48.9531 25.6724C48.9576 25.6695 48.9636 25.668 48.968 25.665Z" fill="black"/>
<path d="M48.9948 25.6533C48.9948 25.6533 48.9844 25.6577 48.9785 25.6606C48.9844 25.6577 48.9889 25.6562 48.9948 25.6533Z" fill="black"/>
<path d="M49.0221 25.6406C49.0221 25.6406 49.0097 25.6468 49.002 25.6499C49.0082 25.6468 49.0159 25.6437 49.0221 25.6406Z" fill="black"/>
<path d="M49.05 25.626C49.05 25.626 49.0361 25.6337 49.0283 25.6368C49.0361 25.6337 49.0423 25.6291 49.05 25.626Z" fill="black"/>
<path d="M51.0297 25.3623C51.0297 25.3623 51.0268 25.3698 51.0253 25.3728C51.0194 25.3893 51.0119 25.4073 51.006 25.4237C50.9867 25.4702 50.9659 25.5152 50.9422 25.5571C50.9362 25.5691 50.9288 25.5811 50.9229 25.5931C50.9644 25.5226 51.0015 25.4447 51.0297 25.3623Z" fill="black"/>
<path d="M49.1686 25.5566C49.1686 25.5566 49.1583 25.5639 49.1523 25.5669C49.1583 25.5639 49.1627 25.561 49.1686 25.5566Z" fill="black"/>
<path d="M51.0509 25.2988C51.0479 25.3095 51.0448 25.3187 51.0417 25.3279C51.0402 25.334 51.0386 25.3386 51.0371 25.3447C51.0417 25.3294 51.0479 25.3141 51.0525 25.2988H51.0509Z" fill="black"/>
<path d="M51.0635 25.2529C51.0608 25.2613 51.058 25.2711 51.0566 25.2795C51.0594 25.2711 51.0621 25.2613 51.0635 25.2529Z" fill="black"/>
<path d="M45.2849 24.7057C45.2953 24.6293 45.3102 24.5544 45.328 24.4795C45.3324 24.46 45.3369 24.442 45.3413 24.424C45.3413 24.421 45.3428 24.418 45.3443 24.415C45.3191 24.5094 45.2983 24.6068 45.2849 24.7057C45.2745 24.7867 45.2686 24.8661 45.2656 24.944C45.2671 24.8661 45.2745 24.7867 45.2849 24.7057Z" fill="black"/>
<path d="M45.357 24.3697C45.357 24.3697 45.3584 24.3623 45.3599 24.3594C45.3584 24.3638 45.357 24.3697 45.3555 24.3741C45.3555 24.3741 45.3555 24.3712 45.3555 24.3697H45.357Z" fill="black"/>
<path d="M45.4522 24.1051C45.4597 24.0886 45.4671 24.0706 45.4745 24.0541C45.4804 24.0406 45.4864 24.0272 45.4938 24.0137C45.4775 24.0481 45.4611 24.0826 45.4463 24.1171C45.4478 24.1126 45.4493 24.1096 45.4522 24.1051Z" fill="black"/>
<path d="M45.5016 23.998C45.5016 23.998 45.4971 24.0084 45.4941 24.0128C45.4971 24.0084 45.4986 24.0025 45.5016 23.998Z" fill="black"/>
<path d="M53.5674 29.2451C53.5774 29.2451 53.5874 29.2465 53.5973 29.248C53.5874 29.248 53.5774 29.248 53.5674 29.2451Z" fill="black"/>
<path d="M53.5361 29.2422C53.5447 29.2422 53.5547 29.2436 53.5632 29.2451C53.5547 29.2451 53.5447 29.2436 53.5361 29.2422Z" fill="black"/>
<path d="M53.502 29.2383C53.5105 29.2383 53.5176 29.2397 53.5262 29.2411C53.5176 29.2411 53.5105 29.2397 53.502 29.2383Z" fill="black"/>
<path d="M53.4619 29.2344C53.4719 29.2344 53.4819 29.2372 53.4933 29.2372C53.4833 29.2372 53.4733 29.2344 53.4619 29.2344Z" fill="black"/>
<path d="M53.4307 29.2295C53.4392 29.2295 53.4492 29.2324 53.4592 29.2338C53.4506 29.2338 53.4407 29.2309 53.4307 29.2295Z" fill="black"/>
<path d="M53.3965 29.2256C53.405 29.2256 53.4136 29.2284 53.4222 29.2299C53.4136 29.2299 53.405 29.227 53.3965 29.2256Z" fill="black"/>
<path d="M53.3584 29.2197C53.3684 29.2212 53.3784 29.2226 53.3898 29.224C53.3798 29.2226 53.3698 29.2212 53.3584 29.2197Z" fill="black"/>
<path d="M53.3271 29.2129C53.3357 29.2143 53.3457 29.2158 53.3557 29.2172C53.3471 29.2158 53.3371 29.2143 53.3271 29.2129Z" fill="black"/>
<path d="M53.291 29.207C53.2996 29.2085 53.3096 29.2099 53.3181 29.2128C53.3081 29.2113 53.2996 29.2099 53.291 29.207Z" fill="black"/>
<path d="M53.2559 29.2002C53.2658 29.2031 53.2773 29.2045 53.2872 29.2059C53.2773 29.2045 53.2658 29.2016 53.2559 29.2002Z" fill="black"/>
<path d="M53.2246 29.1934C53.2346 29.1962 53.2446 29.1977 53.2546 29.1991C53.2446 29.1977 53.2346 29.1948 53.2246 29.1934Z" fill="black"/>
<path d="M53.123 29.1699C53.1553 29.1788 53.1861 29.1862 53.2183 29.1935C53.1861 29.1862 53.1538 29.1788 53.123 29.1699Z" fill="black"/>
<path d="M53.0254 29.1416C53.0562 29.1505 53.0884 29.1608 53.1206 29.1682C53.0884 29.1593 53.0576 29.1505 53.0254 29.1416Z" fill="black"/>
<path d="M52.9287 29.1104C52.9595 29.1207 52.9903 29.131 53.0225 29.1414C52.9903 29.131 52.9595 29.1222 52.9287 29.1104Z" fill="black"/>
<path d="M51.8926 28.4326C52.1747 28.7308 52.5265 28.9676 52.9274 29.1084C52.525 28.9676 52.1747 28.7308 51.8926 28.4326Z" fill="black"/>
<path d="M51.8477 28.3848C51.8624 28.4012 51.8757 28.4161 51.8905 28.4311C51.8757 28.4161 51.861 28.3997 51.8477 28.3848Z" fill="black"/>
<path d="M51.7842 28.3125C51.7975 28.3289 51.8108 28.3439 51.8256 28.3603C51.8123 28.3439 51.7975 28.3289 51.7842 28.3125Z" fill="black"/>
<path d="M51.7646 28.2871C51.7709 28.2948 51.7771 28.3026 51.7848 28.3103C51.7786 28.3026 51.7724 28.2948 51.7646 28.2871Z" fill="black"/>
<path d="M51.7246 28.2373C51.7379 28.2537 51.7497 28.2702 51.763 28.2851C51.7497 28.2687 51.7364 28.2522 51.7246 28.2373Z" fill="black"/>
<path d="M51.7061 28.2119C51.7061 28.2119 51.7169 28.2274 51.7231 28.2336C51.7169 28.2258 51.7123 28.2181 51.7061 28.2119Z" fill="black"/>
<path d="M51.667 28.1611C51.6793 28.1779 51.6916 28.1948 51.7039 28.21C51.6916 28.1932 51.6793 28.1764 51.667 28.1611Z" fill="black"/>
<path d="M51.6475 28.1348C51.6475 28.1348 51.6583 28.1487 51.663 28.1564C51.6583 28.1487 51.6521 28.1425 51.6475 28.1348Z" fill="black"/>
<path d="M51.6279 28.1055C51.6339 28.1145 51.6399 28.1221 51.6458 28.1312C51.6399 28.1236 51.6339 28.1145 51.6279 28.1055Z" fill="black"/>
<path d="M51.6104 28.082C51.6104 28.082 51.6212 28.0975 51.6259 28.1052C51.6212 28.0975 51.615 28.0898 51.6104 28.082Z" fill="black"/>
<path d="M56.0153 28.0801C56.0153 28.0801 56.0082 28.0915 56.0039 28.0972C56.0082 28.0915 56.011 28.0858 56.0153 28.0801Z" fill="black"/>
<path d="M56.0286 28.0596C56.0286 28.0596 56.0229 28.0697 56.0186 28.0754C56.0214 28.0697 56.0243 28.0653 56.0286 28.0596Z" fill="black"/>
<path d="M51.5938 28.0566C51.5938 28.0566 51.6026 28.0698 51.607 28.0756C51.6026 28.0698 51.5982 28.0625 51.5938 28.0566Z" fill="black"/>
<path d="M51.5752 28.0264C51.5799 28.0341 51.5861 28.0434 51.5923 28.0511C51.5861 28.0434 51.5814 28.0341 51.5752 28.0264Z" fill="black"/>
<path d="M51.5586 28.001C51.5586 28.001 51.566 28.0127 51.5704 28.02C51.566 28.0141 51.563 28.0083 51.5586 28.001Z" fill="black"/>
<path d="M51.542 27.9756C51.542 27.9756 51.5491 27.987 51.5519 27.9927C51.5491 27.987 51.5448 27.9813 51.542 27.9756Z" fill="black"/>
<path d="M51.5244 27.9443C51.5291 27.9521 51.5337 27.9613 51.5399 27.9691C51.5353 27.9613 51.5306 27.9521 51.5244 27.9443Z" fill="black"/>
<path d="M51.5098 27.9189C51.5098 27.9189 51.5169 27.9304 51.5197 27.9361C51.5169 27.9304 51.5126 27.9247 51.5098 27.9189Z" fill="black"/>
<path d="M51.4951 27.8936C51.4951 27.8936 51.5008 27.905 51.5051 27.9107C51.5022 27.905 51.4994 27.8993 51.4951 27.8936Z" fill="black"/>
<path d="M54.8258 27.3926C54.3418 27.974 53.3842 28.0085 52.8513 27.478C53.1036 27.7297 53.451 27.8541 53.7985 27.8541C54.1845 27.8541 54.572 27.6998 54.8273 27.3926H54.8258Z" fill="black"/>
<path d="M51.4619 27.835C51.4619 27.835 51.4676 27.8465 51.4705 27.8508C51.4676 27.8451 51.4648 27.8393 51.4619 27.835Z" fill="black"/>
<path d="M51.4492 27.8096C51.4492 27.8096 51.455 27.8197 51.4578 27.8254C51.455 27.8197 51.4521 27.8153 51.4492 27.8096Z" fill="black"/>
<path d="M51.4326 27.7764C51.4373 27.7841 51.4404 27.7918 51.445 27.8011C51.4404 27.7934 51.4373 27.7856 51.4326 27.7764Z" fill="black"/>
<path d="M51.4189 27.749C51.4189 27.749 51.4234 27.7594 51.4264 27.7638C51.4234 27.7594 51.4219 27.7534 51.4189 27.749Z" fill="black"/>
<path d="M51.4053 27.7227C51.4053 27.7227 51.4096 27.7328 51.4124 27.7385C51.4096 27.7328 51.4067 27.7284 51.4053 27.7227Z" fill="black"/>
<path d="M51.3896 27.6895C51.3928 27.6972 51.3974 27.7065 51.4005 27.7142C51.3959 27.7065 51.3928 27.6972 51.3896 27.6895Z" fill="black"/>
<path d="M51.3779 27.6621C51.3779 27.6621 51.3824 27.6724 51.3854 27.6769C51.3824 27.6724 51.3809 27.6665 51.3779 27.6621Z" fill="black"/>
<path d="M51.3652 27.6338C51.3652 27.6338 51.3695 27.6453 51.3724 27.6497C51.3695 27.6439 51.3681 27.6381 51.3652 27.6338Z" fill="black"/>
<path d="M51.3506 27.6006C51.3537 27.6083 51.3568 27.616 51.3615 27.6253C51.3583 27.6176 51.3552 27.6099 51.3506 27.6006Z" fill="black"/>
<path d="M51.3408 27.5742C51.3408 27.5742 51.3453 27.5845 51.3468 27.589C51.3453 27.5845 51.3423 27.5786 51.3408 27.5742Z" fill="black"/>
<path d="M51.3281 27.5459C51.3281 27.5459 51.3324 27.556 51.3339 27.5618C51.3324 27.556 51.3296 27.5517 51.3281 27.5459Z" fill="black"/>
<path d="M51.3154 27.5107C51.3154 27.5107 51.3197 27.5222 51.3225 27.5279C51.3197 27.5222 51.3183 27.5165 51.3154 27.5107Z" fill="black"/>
<path d="M51.2959 27.4551C51.2959 27.4551 51.3002 27.4666 51.3016 27.4709C51.3002 27.4652 51.2973 27.4594 51.2959 27.4551Z" fill="black"/>
<path d="M56.1895 27.2021C56.1924 27.2141 56.1939 27.2261 56.1954 27.2381C56.1998 27.2651 56.2028 27.2921 56.2043 27.319C56.2073 27.361 56.2073 27.4029 56.2058 27.4449C56.2088 27.3625 56.2028 27.2801 56.1895 27.2021Z" fill="black"/>
<path d="M52.9352 25.7275C52.463 26.0947 52.3576 26.9069 52.8208 27.4448C52.3576 26.9069 52.463 26.0962 52.9352 25.7275Z" fill="black"/>
<path d="M51.2842 27.4209C51.2842 27.4209 51.2884 27.4323 51.2899 27.438C51.2884 27.4323 51.2856 27.4266 51.2842 27.4209Z" fill="black"/>
<path d="M51.2734 27.3926C51.2734 27.3926 51.2763 27.4027 51.2792 27.4084C51.2777 27.4027 51.2763 27.3983 51.2734 27.3926Z" fill="black"/>
<path d="M51.2539 27.3281C51.2539 27.3281 51.2586 27.342 51.2601 27.3498C51.2586 27.342 51.2555 27.3359 51.2539 27.3281Z" fill="black"/>
<path d="M51.2451 27.2998C51.2451 27.2998 51.248 27.3112 51.2494 27.3169C51.248 27.3112 51.2465 27.3055 51.2451 27.2998Z" fill="black"/>
<path d="M51.2197 27.2041C51.2197 27.2041 51.2228 27.2196 51.2259 27.2273C51.2244 27.2196 51.2213 27.2118 51.2197 27.2041Z" fill="black"/>
<path d="M56.1607 27.0884C56.1651 27.1004 56.1681 27.1124 56.1711 27.1244C56.174 27.1364 56.1785 27.1499 56.18 27.1618C56.1829 27.1738 56.1844 27.1843 56.1874 27.1963C56.1874 27.1963 56.1874 27.1978 56.1874 27.1993C56.18 27.1603 56.1711 27.1229 56.1592 27.0869L56.1607 27.0884Z" fill="black"/>
<path d="M51.2109 27.1689C51.2137 27.1773 51.2151 27.1871 51.2178 27.1969C51.2151 27.1871 51.2137 27.1787 51.2109 27.1689Z" fill="black"/>
<path d="M51.1982 27.1074C51.1997 27.1165 51.2012 27.1241 51.2042 27.1331C51.2027 27.1241 51.2012 27.1165 51.1982 27.1074Z" fill="black"/>
<path d="M51.1855 27.0449C51.1885 27.0641 51.1928 27.0847 51.1972 27.1038C51.1928 27.0847 51.1899 27.0641 51.1855 27.0449Z" fill="black"/>
<path d="M51.1446 26.5293C51.1446 26.5173 51.1446 26.5038 51.1446 26.4918C51.1446 26.4918 51.1446 26.4888 51.1446 26.4873C51.1371 26.6731 51.1505 26.8589 51.1847 27.0403C51.155 26.8724 51.1401 26.7016 51.1446 26.5293Z" fill="black"/>
<path d="M51.147 26.455C51.147 26.434 51.15 26.4115 51.1514 26.389C51.1514 26.3696 51.1544 26.3486 51.1559 26.3291C51.1514 26.3726 51.1485 26.416 51.1455 26.4595C51.1455 26.458 51.1455 26.4565 51.1455 26.455H51.147Z" fill="black"/>
<path d="M51.1596 26.3105C51.1596 26.3105 51.1596 26.322 51.1582 26.3277C51.1582 26.322 51.1582 26.3163 51.1596 26.3105Z" fill="black"/>
<path d="M51.1768 26.1816C51.1768 26.1816 51.1753 26.192 51.1738 26.1964C51.1738 26.192 51.1753 26.1861 51.1768 26.1816Z" fill="black"/>
<path d="M51.1819 26.1492C51.1819 26.1492 51.1835 26.137 51.185 26.1309C51.1819 26.1477 51.1789 26.163 51.1758 26.1798C51.1773 26.1691 51.1789 26.1599 51.1819 26.1492Z" fill="black"/>
<path d="M51.1885 26.1092C51.1914 26.0945 51.1943 26.0812 51.1972 26.0665C51.1972 26.0621 51.1987 26.0562 51.2001 26.0518C51.1943 26.0753 51.1899 26.1003 51.1855 26.1239C51.1855 26.1195 51.187 26.1136 51.1885 26.1092Z" fill="black"/>
<path d="M51.2071 26.0318C51.21 26.0168 51.2145 26.0019 51.2175 25.9869C51.2264 25.9509 51.2368 25.9149 51.2472 25.879C51.2472 25.879 51.2472 25.8775 51.2472 25.876C51.2308 25.9299 51.216 25.9854 51.2041 26.0393C51.2041 26.0363 51.2041 26.0333 51.2071 26.0303V26.0318Z" fill="black"/>
<path d="M51.2632 25.8256C51.269 25.8079 51.2748 25.7902 51.2807 25.7741C51.2836 25.7652 51.2865 25.7564 51.2894 25.749C51.2792 25.7785 51.269 25.8079 51.2588 25.8374C51.2588 25.8344 51.2617 25.83 51.2617 25.827L51.2632 25.8256Z" fill="black"/>
<path d="M51.3215 25.6677C51.3348 25.6317 51.3512 25.5972 51.366 25.5628C51.3675 25.5583 51.3705 25.5553 51.372 25.5508C51.3482 25.6017 51.3259 25.6527 51.3066 25.7036C51.3111 25.6916 51.3155 25.6797 51.3215 25.6677Z" fill="black"/>
<path d="M51.3903 25.5137C51.3857 25.5214 51.3826 25.5291 51.3779 25.5369C51.381 25.5291 51.3857 25.5214 51.3903 25.5137Z" fill="black"/>
<path d="M51.4 25.4951C51.4 25.4951 51.3956 25.5054 51.3926 25.5099C51.3956 25.5054 51.397 25.4995 51.4 25.4951Z" fill="black"/>
<path d="M51.4098 25.4746C51.4098 25.4746 51.4053 25.4849 51.4023 25.4894C51.4053 25.4849 51.4068 25.479 51.4098 25.4746Z" fill="black"/>
<path d="M51.5039 25.3069C51.547 25.2365 51.5945 25.166 51.6465 25.0971C51.6554 25.0851 51.6658 25.0716 51.6762 25.0596C51.6762 25.0596 51.6776 25.0581 51.6791 25.0566C51.6138 25.1406 51.5544 25.226 51.501 25.3129C51.501 25.3114 51.5025 25.3099 51.5039 25.3069Z" fill="black"/>
<path d="M59.9706 30.8179C60.419 30.7759 60.8926 30.5946 61.2934 30.3174C60.8911 30.5946 60.4175 30.7759 59.9691 30.8179C59.8073 30.8359 59.6529 30.8449 59.5029 30.8479C59.6529 30.8449 59.8073 30.8344 59.9691 30.8179H59.9706Z" fill="black"/>
<path d="M61.343 30.2852C61.343 30.2852 61.329 30.296 61.3213 30.3006C61.329 30.296 61.3353 30.2913 61.343 30.2852Z" fill="black"/>
<path d="M61.3673 30.2666C61.3673 30.2666 61.3555 30.2754 61.3496 30.2797C61.3555 30.2754 61.3614 30.271 61.3673 30.2666Z" fill="black"/>
<path d="M61.3919 30.249C61.3919 30.249 61.3814 30.2564 61.377 30.2593C61.3814 30.2564 61.3874 30.252 61.3919 30.249Z" fill="black"/>
<path d="M62.2895 28.5986C62.3088 29.0497 62.1321 29.4693 61.8441 29.8199C61.8233 29.8454 61.8025 29.8694 61.7803 29.8933C62.1069 29.5292 62.3103 29.0826 62.2895 28.5986Z" fill="black"/>
<path d="M58.4261 29.2505C58.1648 29.1426 58.0044 28.9508 57.9287 28.7275C58.0044 28.9523 58.1633 29.1426 58.4261 29.2505Z" fill="black"/>
<path d="M57.9649 27.9355C57.9649 27.9355 57.9605 27.9459 57.959 27.9503C57.9605 27.9459 57.9635 27.94 57.9649 27.9355Z" fill="black"/>
<path d="M58.0033 27.8438C57.9901 27.8732 57.977 27.9012 57.9668 27.9306C57.9785 27.9012 57.9901 27.8717 58.0033 27.8438Z" fill="black"/>
<path d="M58.2147 27.5195C58.1301 27.6154 58.0588 27.7248 58.0039 27.8417C58.0588 27.7248 58.1286 27.6139 58.2147 27.5195Z" fill="black"/>
<path d="M56.589 27.715C56.5949 27.691 56.6009 27.6685 56.6068 27.6445C56.5979 27.679 56.589 27.7135 56.5801 27.7479C56.583 27.7374 56.586 27.7255 56.5875 27.715H56.589Z" fill="black"/>
<path d="M56.6689 27.4499C56.6733 27.4367 56.6791 27.4234 56.6835 27.4102C56.6777 27.4264 56.6718 27.4425 56.666 27.4587C56.666 27.4558 56.6675 27.4529 56.6689 27.4499Z" fill="black"/>
<path d="M56.8168 27.1143C56.8066 27.1319 56.7978 27.1511 56.7891 27.1687C56.7978 27.1511 56.808 27.1319 56.8168 27.1143Z" fill="black"/>
<path d="M56.8366 27.0762C56.8366 27.0762 56.8306 27.085 56.8291 27.0909C56.8321 27.0865 56.8351 27.0821 56.8366 27.0762Z" fill="black"/>
<path d="M56.8494 27.0537C56.8494 27.0537 56.8437 27.0638 56.8408 27.0696C56.8437 27.0638 56.8466 27.0595 56.8494 27.0537Z" fill="black"/>
<path d="M56.8611 27.0332C56.8611 27.0332 56.8554 27.0433 56.8525 27.0491C56.8554 27.0433 56.8583 27.039 56.8611 27.0332Z" fill="black"/>
<path d="M56.908 26.9531C56.8934 26.9767 56.8788 27.0017 56.8643 27.0253C56.8788 27.0002 56.8934 26.9767 56.908 26.9531Z" fill="black"/>
<path d="M52.0534 18.1934C52.0534 18.1934 52.0394 18.2042 52.0332 18.2088C52.0394 18.2042 52.0472 18.198 52.0534 18.1934Z" fill="black"/>
<path d="M53.107 17.2061C52.7908 17.5567 52.4463 17.8804 52.0781 18.1741C52.4463 17.8819 52.7908 17.5567 53.107 17.2061Z" fill="black"/>
<path d="M48.6447 17.6296C48.3997 16.9522 48.1711 16.2345 48.0479 15.5137C48.1711 16.2345 48.3997 16.9522 48.6447 17.6311V17.6296Z" fill="black"/>
<path d="M54.792 17.2643C55.3072 16.4476 55.6205 15.5231 55.5922 14.5146C55.5833 11.7588 52.8798 9.43915 50.1867 9.83775C52.8813 9.44065 55.5848 11.7588 55.5922 14.5146C55.6205 15.5231 55.3087 16.4476 54.792 17.2643Z" fill="black"/>
<path d="M53.1542 17.1514C53.1394 17.1678 53.1261 17.1842 53.1113 17.1992C53.1261 17.1828 53.1409 17.1663 53.1542 17.1514Z" fill="black"/>
<path d="M53.1925 17.1104C53.1925 17.1104 53.18 17.1243 53.1738 17.132C53.18 17.1243 53.1862 17.1181 53.1925 17.1104Z" fill="black"/>
<path d="M48.0352 15.4404C48.0352 15.4404 48.0383 15.4559 48.0383 15.4636C48.0383 15.4559 48.0352 15.4482 48.0352 15.4404Z" fill="black"/>
<path d="M48.0283 15.3975C48.0299 15.4097 48.0314 15.4219 48.0345 15.4341C48.0329 15.4219 48.0299 15.4097 48.0283 15.3975Z" fill="black"/>
<path d="M48.0225 15.3555C48.0225 15.3639 48.0252 15.3723 48.0266 15.3807C48.0266 15.3723 48.0238 15.3639 48.0225 15.3555Z" fill="black"/>
<path d="M48.0176 15.3223C48.0176 15.3223 48.0191 15.3326 48.0206 15.337C48.0206 15.3311 48.0191 15.3267 48.0176 15.3223Z" fill="black"/>
<path d="M49.5123 11.4648C49.1055 11.6611 48.7477 11.9683 48.4775 12.3984C48.7477 11.9668 49.1055 11.6611 49.5123 11.4648Z" fill="black"/>
<path d="M51.6907 18.0596C51.6907 18.0596 51.6803 18.0669 51.6758 18.0714C51.6803 18.0669 51.6847 18.064 51.6907 18.0596Z" fill="black"/>
<path d="M53.2942 16.2598C52.8993 16.9536 52.3351 17.544 51.7012 18.0505C52.3351 17.544 52.8993 16.9551 53.2942 16.2598Z" fill="black"/>
<path d="M48.5674 17.0527C48.5674 17.0605 48.5689 17.0682 48.5705 17.0759C48.5705 17.0682 48.5689 17.0605 48.5674 17.0527Z" fill="black"/>
<path d="M48.5596 16.9902C48.5596 17.0009 48.5626 17.0132 48.5642 17.0239C48.5642 17.0132 48.5611 17.0009 48.5596 16.9902Z" fill="black"/>
<path d="M48.5518 16.9229C48.5533 16.9381 48.5548 16.9534 48.5564 16.9672C48.5548 16.9519 48.5533 16.9366 48.5518 16.9229Z" fill="black"/>
<path d="M53.3108 16.2314C53.3063 16.2405 53.3019 16.2481 53.2959 16.2571C53.3004 16.2481 53.3048 16.2405 53.3108 16.2314Z" fill="black"/>
<path d="M53.3538 16.1504C53.3407 16.1754 53.3261 16.2019 53.3115 16.2269C53.3261 16.2019 53.3392 16.1754 53.3538 16.1504Z" fill="black"/>
<path d="M53.3708 16.1221C53.3708 16.1221 53.3631 16.1375 53.3584 16.1453C53.3631 16.1375 53.3662 16.1298 53.3708 16.1221Z" fill="black"/>
<path d="M53.3868 16.0908C53.3868 16.0908 53.3791 16.1047 53.376 16.1125C53.3791 16.1047 53.3837 16.0985 53.3868 16.0908Z" fill="black"/>
<path d="M53.4259 16.0117C53.4259 16.0117 53.4199 16.0234 53.417 16.0307C53.4199 16.0249 53.4229 16.019 53.4259 16.0117Z" fill="black"/>
<path d="M53.4411 15.9805C53.4411 15.9805 53.4355 15.9919 53.4326 15.9976C53.4355 15.9919 53.4383 15.9862 53.4411 15.9805Z" fill="black"/>
<path d="M53.4574 15.9473C53.4574 15.9473 53.4516 15.9574 53.4502 15.9631C53.4531 15.9574 53.4559 15.953 53.4574 15.9473Z" fill="black"/>
<path d="M53.4777 15.9053C53.4777 15.9053 53.4699 15.9207 53.4668 15.9285C53.4699 15.9207 53.4746 15.913 53.4777 15.9053Z" fill="black"/>
<path d="M53.4928 15.8672C53.4928 15.8672 53.4883 15.8775 53.4854 15.8819C53.4883 15.8775 53.4898 15.8716 53.4928 15.8672Z" fill="black"/>
<path d="M53.5091 15.833C53.5091 15.833 53.5048 15.8431 53.502 15.8489C53.5048 15.8431 53.5063 15.8388 53.5091 15.833Z" fill="black"/>
<path d="M53.7369 12.8902C53.7369 12.8902 53.7369 12.8902 53.7369 12.8887C54.0635 13.6559 53.924 14.5535 53.6924 15.3372C53.924 14.555 54.0635 13.6574 53.7384 12.8902H53.7369Z" fill="black"/>
<path d="M51.1247 12.9188C51.4424 12.8424 51.8255 12.8903 52.115 13.0611C51.9146 12.9428 51.6681 12.8828 51.4306 12.8828C51.3252 12.8828 51.2212 12.8948 51.1232 12.9188C50.7372 13.0252 50.4596 13.3369 50.2666 13.68C50.4611 13.3354 50.7372 13.0252 51.1247 12.9188Z" fill="black"/>
<path d="M51.4498 11.4996C51.9027 11.4996 52.357 11.612 52.7504 11.8293C52.7489 11.8278 52.7459 11.8263 52.7444 11.8248C51.9576 11.3932 50.9347 11.3827 50.1582 11.8397C50.5472 11.6105 50.9985 11.4996 51.4498 11.4996Z" fill="black"/>
<path d="M61.292 21.6328C61.0871 21.8216 60.8659 21.991 60.6328 22.1423C60.8659 21.991 61.0856 21.8216 61.2905 21.6328H61.292Z" fill="black"/>
<path d="M61.3319 21.5947C61.32 21.6067 61.3067 21.6186 61.2949 21.6291C61.3067 21.6171 61.32 21.6052 61.3319 21.5947Z" fill="black"/>
<path d="M61.3512 21.5771C61.3512 21.5771 61.3409 21.5874 61.335 21.5917C61.3409 21.5874 61.3453 21.5815 61.3512 21.5771Z" fill="black"/>
<path d="M61.38 21.5469C61.38 21.5469 61.37 21.557 61.3643 21.5627C61.37 21.557 61.3743 21.5526 61.38 21.5469Z" fill="black"/>
<path d="M60.8506 18.3594C60.8506 18.3594 60.858 18.3697 60.861 18.3741C60.858 18.3697 60.8536 18.3638 60.8506 18.3594Z" fill="black"/>
<path d="M58.7944 17.4961C58.686 17.4961 58.5791 17.5006 58.4707 17.5096C59.3541 17.4377 60.2552 17.6474 60.8521 18.3577C60.328 17.7344 59.5693 17.4961 58.7944 17.4961Z" fill="black"/>
<path d="M59.5532 21.1755C59.7952 20.8218 59.9571 20.4337 60.0031 20.0156C59.9556 20.4337 59.7938 20.8233 59.5518 21.177L59.5532 21.1755Z" fill="black"/>
<path d="M54.3219 20.2734C54.3219 20.2734 54.3116 20.2778 54.3057 20.2793C54.3116 20.2778 54.316 20.2749 54.3219 20.2734Z" fill="black"/>
<path d="M55.8749 19.7588C55.3568 19.8981 54.8476 20.0735 54.3428 20.2653C54.8461 20.075 55.3553 19.8981 55.8749 19.7588Z" fill="black"/>
<path d="M58.1191 18.0947C59.0782 18.2056 60.0432 18.9713 60.0031 20.0143C60.0432 18.9699 59.0782 18.2056 58.1191 18.0947Z" fill="black"/>
<path d="M56.0881 19.7041C56.0781 19.707 56.0681 19.7084 56.0596 19.7113C56.0696 19.7084 56.0795 19.707 56.0881 19.7041Z" fill="black"/>
<path d="M56.1852 19.6816C56.1852 19.6816 56.1712 19.6847 56.165 19.6863C56.1712 19.6847 56.179 19.6832 56.1852 19.6816Z" fill="black"/>
<path d="M56.5354 19.6045C56.5354 19.6045 56.525 19.606 56.5205 19.6074C56.525 19.6074 56.5309 19.606 56.5354 19.6045Z" fill="black"/>
<path d="M56.5852 19.5957C56.5852 19.5957 56.5748 19.5972 56.5703 19.5987C56.5748 19.5987 56.5807 19.5972 56.5852 19.5957Z" fill="black"/>
<path d="M56.7145 19.5723C56.7145 19.5723 56.7041 19.5737 56.6982 19.5752C56.7027 19.5752 56.7086 19.5737 56.7145 19.5723Z" fill="black"/>
<path d="M56.767 19.5625C56.7598 19.5625 56.7527 19.5654 56.7441 19.5668C56.7513 19.5668 56.7584 19.5639 56.767 19.5625Z" fill="black"/>
<path d="M56.8959 19.542C56.8797 19.545 56.862 19.5465 56.8457 19.5495C56.862 19.5465 56.8797 19.5435 56.8959 19.542Z" fill="black"/>
<path d="M58.1104 19.5117C58.1203 19.5132 58.1289 19.5146 58.1389 19.5174C58.1303 19.516 58.1203 19.5132 58.1104 19.5117Z" fill="black"/>
<path d="M57.6841 19.4775C57.6366 19.4775 57.5861 19.4775 57.5342 19.4805C57.7673 19.4715 57.9573 19.4835 58.1087 19.5105C57.9914 19.488 57.8504 19.4775 57.6841 19.4775Z" fill="black"/>
<path d="M56.4612 18.207C56.4512 18.2085 56.4412 18.2099 56.4326 18.2113C56.4426 18.2099 56.4526 18.2085 56.4612 18.207Z" fill="black"/>
<path d="M56.5545 18.1914C56.5459 18.1914 56.5359 18.1943 56.5273 18.1957C56.5359 18.1943 56.5459 18.1928 56.5545 18.1914Z" fill="black"/>
<path d="M56.6485 18.1768C56.6206 18.1812 56.5928 18.1856 56.5664 18.19C56.5942 18.1856 56.6221 18.1812 56.6485 18.1768Z" fill="black"/>
<path d="M56.7288 18.165C56.7202 18.165 56.7117 18.1679 56.7031 18.1693C56.7117 18.1693 56.7202 18.1665 56.7288 18.165Z" fill="black"/>
<path d="M56.7747 18.1592C56.7747 18.1592 56.7642 18.1592 56.7598 18.1607C56.7642 18.1607 56.7702 18.1607 56.7747 18.1592Z" fill="black"/>
<path d="M56.8147 18.1543C56.8147 18.1543 56.8043 18.1543 56.7998 18.1558C56.8043 18.1558 56.8102 18.1558 56.8147 18.1543Z" fill="black"/>
<path d="M9.08589 59.9981C11.9409 57.5765 15.7148 56.8347 19.174 55.6914C22.2012 54.7293 25.1928 53.6729 28.2244 52.7273C35.1888 50.6249 42.1919 47.9037 49.2336 45.9451C57.7212 43.7228 66.108 41.1544 74.4754 38.517C82.4108 36.2333 90.6209 34.4396 98.9156 34.7618C99.7054 34.8112 100.492 34.8982 101.276 35.012C101.843 35.2503 102.36 35.532 102.804 35.8692C102.915 35.075 102.939 34.2418 102.704 33.4296C101.284 33.1179 99.845 32.8917 98.4019 32.7029C96.1259 32.4062 93.8307 32.2113 91.5339 32.2413C89.2966 32.2698 87.0652 32.4616 84.8456 32.7448C80.6485 33.2813 76.4797 34.1354 72.3791 35.1799C68.3453 36.2078 64.3977 37.5325 60.4426 38.8212C56.4875 40.1099 52.5042 41.3102 48.5447 42.59C44.4144 43.9236 40.3242 45.3787 36.2088 46.7588C32.031 48.1599 27.8117 49.4276 23.6517 50.8827C19.6328 52.2883 15.6569 53.8212 11.7909 55.6149C10.722 56.1109 9.66194 56.6219 8.63159 57.1974C7.87294 57.6214 7.15586 58.1114 6.48926 58.6689C6.53974 60.0505 6.9302 61.4486 7.57305 62.6759C7.60274 62.7508 7.6354 62.8272 7.66955 62.9007C7.78386 61.8008 8.27973 60.7353 9.08738 59.9981H9.08589Z" fill="#BEBFC1"/>
<path d="M63.6394 26.9671C62.33 27.0645 60.9923 27.6444 59.6858 27.3792C60.2648 26.5161 63.3425 26.0485 64.4055 25.9511C65.0201 25.9137 65.6422 25.8942 66.2568 25.9526C66.7215 26.0875 67.1877 26.2194 67.6197 26.4426C68.1601 26.7498 68.6827 27.087 69.1949 27.4376C68.0711 27.06 66.8774 26.9731 65.7016 26.8907C65.0142 26.8532 64.3223 26.8847 63.6379 26.9671H63.6394ZM58.4268 29.2508C57.6504 28.9302 57.7706 27.8797 58.3318 27.4047C58.3407 27.9951 58.6703 28.5585 59.3236 28.7204C59.8313 28.8447 60.3405 28.8597 60.8513 28.8193C60.4014 29.6015 59.1662 29.594 58.4268 29.2508ZM55.7203 18.3627C56.283 18.1095 56.8561 17.8847 57.4529 17.7139C58.5961 17.3482 60.0199 17.3677 60.8527 18.3582C61.6158 19.5016 60.636 20.585 59.5537 21.1739C59.7957 20.8203 59.9575 20.4322 60.005 20.0126C60.0436 18.9681 59.0801 18.2039 58.121 18.093C57.3074 18.057 56.5072 18.1664 55.7218 18.3627H55.7203ZM60.1535 24.7044C57.7157 25.3622 53.3612 26.5445 54.5564 25.3278C55.8361 24.4676 57.4277 24.0316 58.9613 23.9866C58.9865 23.9866 59.0118 23.9851 59.0355 23.9821C59.3815 24.2324 59.6888 24.5066 60.1535 24.7044ZM54.2565 20.6824C54.1882 20.576 54.1184 20.4726 54.0486 20.3767C54.9736 20.0156 55.9148 19.6889 56.8962 19.5405C59.1796 19.2154 58.8262 20.1924 57.83 20.9866C57.4514 20.9446 57.0402 20.9342 56.5785 20.9551C55.8317 20.8907 54.8815 21.1844 54.255 20.6839L54.2565 20.6824ZM52.8505 27.4766C52.3532 26.9401 52.4526 26.101 52.9337 25.7249C52.9159 26.2358 53.1296 26.7274 53.6626 27.0001C54.0427 27.1799 54.4465 27.2383 54.8592 27.2354C54.8489 27.2878 54.8399 27.3387 54.8251 27.3912C54.3411 27.9726 53.3835 28.0071 52.8505 27.4766ZM48.8954 23.8982C50.0817 23.2778 51.4579 22.8792 52.7392 22.563C53.0717 22.8627 53.4696 23.056 53.8972 23.1804C52.2225 23.3452 50.5775 23.8847 48.8954 23.8982ZM51.5173 18.58C51.3867 18.5425 51.2545 18.5096 51.1194 18.4811C52.2596 17.6959 53.2885 16.6814 53.6894 15.3372C53.921 14.5535 54.0605 13.6559 53.7339 12.8887C54.5534 14.1999 54.2773 15.9471 53.2291 17.0665C52.7288 17.6449 52.1527 18.1604 51.5158 18.5815L51.5173 18.58ZM50.0178 17.567C49.8426 16.3487 49.6808 15.039 50.1678 13.8732C50.3623 13.4581 50.6666 13.0445 51.1239 12.9187C51.7074 12.7793 52.512 13.058 52.5506 13.7458C52.659 15.4556 51.3377 16.7219 50.0163 17.5685L50.0178 17.567ZM48.6445 17.63C48.0344 15.9456 47.5311 14.0171 48.4783 12.3972C49.4121 10.9032 51.4164 10.9017 52.7511 11.8278C51.8202 11.3138 50.5597 11.3887 49.7625 12.132C48.8123 12.9636 48.4961 14.3063 48.4797 15.5291C48.4679 16.2349 48.5421 16.9332 48.6445 17.6285V17.63ZM47.3128 25.7428C46.3686 25.4911 46.5274 24.4287 47.2609 24.0795C47.3262 24.7568 48.0626 25.2933 48.8123 25.2813C49.0365 25.2963 49.2622 25.2948 49.4863 25.2813C48.9756 25.8777 48.0373 25.9496 47.3128 25.7443V25.7428ZM46.2765 22.4746C45.1497 22.5346 43.9813 22.581 42.8886 22.2513C45.414 21.4721 48.0611 21.3268 50.6815 21.1739C50.9398 21.1634 51.1996 21.1529 51.4594 21.1469C51.5574 21.2174 51.6509 21.2968 51.7385 21.3807C50.9873 21.5725 50.1574 21.8273 49.4225 22.1255C49.3587 22.115 49.2918 22.1135 49.225 22.1225C48.2452 22.2618 47.2638 22.3967 46.2765 22.4731V22.4746ZM42.026 23.3632C41.2659 23.0875 41.1026 22.6379 41.2792 22.2498C41.2718 22.5375 41.3683 22.8238 41.5806 23.0365C41.7202 23.1639 41.8686 23.2718 42.026 23.3617V23.3632ZM39.8718 22.055C39.4279 24.135 42.0082 25.2648 43.7051 24.7643C44.5321 24.595 44.9018 24.2354 44.9834 23.8937C45.0651 23.8952 45.1452 23.8982 45.2254 23.9012C45.3353 23.9012 45.4466 23.8997 45.5565 23.8967C45.4199 24.1424 45.3264 24.4152 45.2863 24.7059C45.0176 26.7813 47.5459 27.6534 49.182 27.0615C49.9288 26.8502 50.5226 26.3168 50.8953 25.6394C51.0051 25.4746 51.0808 25.2618 51.1076 25.049C51.3377 25.0056 51.5693 24.9621 51.7994 24.9172C50.1515 26.7393 51.8484 29.7199 54.3663 29.1939C55.0166 29.053 55.6372 28.6619 56.0069 28.1C56.1939 27.8138 56.2652 27.4032 56.1628 27.0885C56.2711 27.069 56.3795 27.0495 56.4864 27.0316C56.6289 27.0076 56.77 26.9836 56.9125 26.9551C55.9252 28.5361 56.7165 31.1689 59.9738 30.8198C61.0829 30.7164 62.3433 29.7648 62.2928 28.599C62.9698 28.4671 63.6483 28.3233 64.3223 28.2918C65.8396 28.2244 67.4045 28.3278 68.8594 28.7878C69.0999 28.8372 69.3375 28.9526 69.5735 29.0695C65.1122 30.1499 60.633 31.1629 56.2118 32.3917C56.1435 32.2329 56.0202 32.101 55.8525 32.0425C53.3167 31.1539 50.8448 30.099 48.3684 29.056C44.1684 27.3028 40.0292 25.3832 35.9108 23.4486C38.7331 21.3313 42.029 18.8857 44.7964 19.5151C45.4511 19.6529 46.0791 19.8837 46.713 20.095C45.8341 20.1864 44.9211 20.3078 44.0956 20.4846C43.9516 20.3602 43.7497 20.2598 43.4824 20.2089C42.0602 19.8313 40.2905 20.558 39.8748 22.0565L39.8718 22.055ZM13.7881 37.6709C13.6619 37.6065 13.5372 37.5346 13.4185 37.4566C14.1281 35.4741 14.7992 33.2099 16.9059 32.3303C19.5797 31.1075 22.6143 30.9486 25.2956 29.7019C28.014 28.6095 30.5839 27.1739 32.9949 25.5046C33.5101 25.1959 34.0654 24.8093 34.6518 24.3822C36.8788 25.5001 39.1933 26.4621 41.447 27.5276C41.7558 27.6729 42.0661 27.8168 42.3764 27.9591C36.8001 27.9831 32.5362 29.9716 27.6859 32.7873C24.9898 34.3832 22.3664 36.1604 19.4402 37.3008C17.6586 37.9317 15.5964 38.4966 13.7881 37.6724V37.6709ZM19.8202 44.7678C18.977 41.615 15.7093 39.7224 12.5648 39.7823C12.688 39.4511 12.8112 39.1185 12.933 38.7858C14.5067 39.6699 16.5407 39.5845 18.2614 39.123C25.1739 37.073 30.5809 31.4701 37.6701 29.8562C40.3335 29.2778 43.1276 29.3228 45.8074 29.4756C46.9045 29.9461 48.0047 30.4092 49.1063 30.8662C50.8136 31.587 52.5269 32.3063 54.2684 32.9416C53.0465 33.3013 51.8306 33.6819 50.6206 34.088C43.6027 36.2638 36.7615 38.9342 29.8757 41.4861C26.5457 42.6954 23.2542 44.0081 19.9435 45.2698C19.896 45.081 19.8499 44.9087 19.8202 44.7663V44.7678ZM8.7656 50.2808C8.90367 49.7953 9.0462 49.3113 9.20209 48.8318C9.65639 47.4771 10.1656 46.1434 10.6689 44.8068C11.1232 43.608 11.579 42.4107 12.0303 41.2119C14.6908 40.9421 17.6423 42.3223 18.4559 44.9971C18.5806 45.2024 18.6251 45.4751 18.6503 45.7613C15.3054 47.0815 11.7735 48.2653 8.7656 50.2823V50.2808ZM7.57344 62.6764C5.97893 59.6285 5.93588 55.5405 8.7849 53.2314C14.4236 49.1135 21.4637 47.5655 27.7972 44.8248C38.1659 41.0036 48.4397 36.9022 59.1291 34.0865C68.9693 32.1594 94.5452 23.047 101.634 31.6275C102.926 32.9386 103.002 34.4641 102.804 35.8667C102.36 35.5296 101.844 35.2478 101.277 35.0096C100.493 34.8972 99.7058 34.8088 98.916 34.7593C90.6213 34.4371 82.4112 36.2309 74.4758 38.5146C66.1084 41.1519 57.7231 43.7204 49.2339 45.9426C42.1923 47.9012 35.1892 50.624 28.2248 52.7249C25.1932 53.6719 22.2016 54.7284 19.1744 55.6889C15.7152 56.8323 11.9412 57.574 9.08629 59.9956C8.27864 60.7329 7.78277 61.7983 7.66845 62.8982C7.63579 62.8248 7.60313 62.7498 7.57195 62.6734L7.57344 62.6764ZM6.13185 52.5046C2.63404 56.6345 3.96576 63.4287 7.82731 66.9546C22.6767 75.4781 39.9089 58.0625 56.0811 58.8327C70.0917 59.6329 105.454 51.3912 105.27 34.7413C105.285 32.6554 104.219 30.7104 102.73 29.3168C95.9645 22.8612 82.6265 26.3078 74.0943 27.9786C73.8062 27.604 73.3089 27.4002 72.9392 27.1215C71.5318 26.2329 70.2505 25.1374 68.7881 24.3432C67.9092 23.8487 66.8967 23.7079 65.9896 23.3048C64.6712 21.9696 62.8273 22.1524 61.169 22.5435C60.9834 22.3997 60.8067 22.2663 60.633 22.1419C61.1482 21.8093 61.6025 21.3852 61.9603 20.8517C63.485 18.6504 61.5862 16.2558 59.2092 16.1195C57.6474 16.0595 56.1939 16.593 54.791 17.2643C55.3076 16.4476 55.6194 15.5231 55.5912 14.5146C55.5838 11.7588 52.8802 9.43915 50.1856 9.83775C48.0002 10.061 46.5408 12.2054 46.5824 14.3303C46.5809 15.4841 46.8452 16.6215 47.2104 17.7109C43.2315 16.1105 40.2266 17.4606 36.8595 19.8343C32.5362 22.8762 28.3391 26.1654 23.3062 27.8947C20.9619 28.7983 18.3965 28.9856 16.1101 30.0405C14.1875 30.8857 12.6806 32.5041 11.9843 34.5031C11.236 36.4317 10.5531 38.3842 9.8197 40.3188C8.79826 43.0655 7.68775 45.7823 6.78509 48.571C6.552 49.5765 5.63004 51.5755 6.12888 52.5076L6.13185 52.5046Z" fill="#1B1B1B"/>
<path d="M42.0255 23.3634C41.2654 23.0877 41.1021 22.6381 41.2788 22.25C41.2714 22.5377 41.3679 22.8239 41.5802 23.0367C41.7197 23.1641 41.8682 23.272 42.0255 23.3619V23.3634Z" fill="white"/>
<path d="M46.2766 22.4742C45.1498 22.5341 43.9814 22.5806 42.8887 22.2509C45.414 21.4717 48.0612 21.3263 50.6815 21.1735C50.9399 21.163 51.1997 21.1525 51.4595 21.1465C51.5575 21.2169 51.651 21.2963 51.7386 21.3803C50.9874 21.5721 50.1575 21.8268 49.4226 22.125C49.3587 22.1145 49.2919 22.113 49.2251 22.122C48.2453 22.2614 47.2639 22.3962 46.2766 22.4727V22.4742Z" fill="white"/>
<path d="M47.313 25.7424C46.3687 25.4907 46.5276 24.4283 47.261 24.0791C47.3263 24.7564 48.0627 25.2929 48.8124 25.2809C49.0366 25.2959 49.2623 25.2944 49.4865 25.2809C48.9772 25.8773 48.0375 25.9492 47.313 25.7439V25.7424Z" fill="white"/>
<path d="M48.6438 17.6311C48.0337 15.9468 47.5304 14.0182 48.4776 12.3983C49.4114 10.9043 51.4157 10.9028 52.7504 11.8289C51.8195 11.3149 50.559 11.3899 49.7618 12.1331C48.8116 12.9648 48.4954 14.3074 48.4791 15.5302C48.4672 16.236 48.5414 16.9343 48.6438 17.6296V17.6311Z" fill="white"/>
<path d="M51.517 18.581C51.3864 18.5435 51.2542 18.5105 51.1191 18.4821C52.2579 17.6968 53.2882 16.6824 53.6891 15.3382C53.9207 14.5545 54.0602 13.6569 53.7336 12.8896C54.5531 14.2008 54.277 15.9481 53.2288 17.0675C52.7285 17.6459 52.1524 18.1614 51.5155 18.5825L51.517 18.581Z" fill="white"/>
<path d="M48.8965 23.8996C50.0827 23.2792 51.459 22.8806 52.7402 22.5645C53.0728 22.8642 53.4707 23.0575 53.8982 23.1818C52.2236 23.3467 50.5786 23.8861 48.8965 23.8996Z" fill="white"/>
<path d="M52.85 27.4783C52.3526 26.9418 52.4521 26.1027 52.9331 25.7266C52.9153 26.2376 53.1291 26.7291 53.6621 27.0018C54.0421 27.1816 54.446 27.24 54.8587 27.2371C54.8483 27.2895 54.8394 27.3404 54.8246 27.3929C54.3406 27.9743 53.383 28.0088 52.85 27.4783Z" fill="white"/>
<path d="M60.1532 24.7057C57.7154 25.3635 53.3609 26.5458 54.5561 25.3291C55.8358 24.4704 57.4274 24.0328 58.961 23.9879C58.9863 23.9879 59.0115 23.9864 59.0352 23.9834C59.3812 24.2336 59.6885 24.5079 60.1532 24.7057Z" fill="white"/>
<path d="M55.7197 18.3639C56.2824 18.1107 56.8555 17.8859 57.4523 17.7151C58.5955 17.3494 60.0192 17.3689 60.8521 18.3594C61.6152 19.5028 60.6354 20.5862 59.5531 21.1751C59.7951 20.8215 59.9569 20.4334 60.0044 20.0138C60.043 18.9693 59.0795 18.2051 58.1204 18.0942C57.3068 18.0582 56.5066 18.1676 55.7212 18.3639H55.7197Z" fill="white"/>
<path d="M58.4261 29.2504C57.6497 28.9298 57.7699 27.8793 58.3311 27.4043C58.34 27.9947 58.6696 28.5581 59.3229 28.72C59.8306 28.8444 60.3398 28.8593 60.8505 28.8189C60.4007 29.6011 59.1655 29.5936 58.4261 29.2504Z" fill="white"/>
<path d="M63.6391 26.9665C62.3297 27.064 60.992 27.6439 59.6855 27.3786C60.2646 26.5155 63.3422 26.048 64.4052 25.9506C65.0199 25.9131 65.6419 25.8936 66.2566 25.9521C66.7213 26.0869 67.1874 26.2188 67.6195 26.4421C68.1599 26.7493 68.6825 27.0864 69.1947 27.4371C68.0708 27.0595 66.8771 26.9725 65.7013 26.8901C65.0139 26.8527 64.3221 26.8841 63.6377 26.9665H63.6391Z" fill="white"/>
<path fill-rule="evenodd" clip-rule="evenodd" d="M27.7957 44.8281C38.1644 41.007 48.4382 36.9056 59.1276 34.0899C68.9678 32.1628 94.5437 23.0504 101.633 31.6308C102.193 32.2003 102.524 32.8087 102.703 33.4305C101.282 33.1189 99.8439 32.8926 98.4008 32.7038C96.1248 32.4071 93.8296 32.2123 91.5328 32.2422C89.2955 32.2707 87.0641 32.4625 84.8445 32.7457C80.6474 33.2822 76.4786 34.1363 72.378 35.1808C68.3442 36.2088 64.3966 37.5334 60.4415 38.8221C56.4864 40.1109 52.5031 41.3112 48.5436 42.5909C44.4133 43.9245 40.3231 45.3796 36.2077 46.7597C32.0299 48.1593 27.8106 49.4285 23.6506 50.8836C19.6317 52.2892 15.6558 53.8222 11.7898 55.6159C10.7209 56.1119 9.66083 56.6229 8.63049 57.1983C7.87184 57.6224 7.15476 58.1124 6.48815 58.6698C6.41244 56.6228 7.08201 54.6104 8.78341 53.2332C8.85022 53.1853 8.91554 53.1373 8.98235 53.0894L9.29561 52.8691C14.8452 49.021 21.6523 47.485 27.7957 44.8266V44.8281Z" fill="white"/>
</g>
<defs>
<clipPath id="clip0_222_17578">
<rect width="110" height="96" fill="white"/>
</clipPath>
</defs>
</svg>
