<svg width="57" height="50" viewBox="0 0 57 50" fill="none" xmlns="http://www.w3.org/2000/svg">
<g clip-path="url(#clip0_437_21920)">
<path fill-rule="evenodd" clip-rule="evenodd" d="M28.0992 0C41.6784 0 52.6857 11.1677 52.6857 24.943C52.6857 38.7183 41.6776 49.886 28.0992 49.886C14.5208 49.886 3.5127 38.7191 3.5127 24.943C3.5127 11.167 14.52 0 28.0992 0Z" fill="white"/>
<path fill-rule="evenodd" clip-rule="evenodd" d="M0.98197 26.7485C1.00659 26.3622 1.08967 25.9813 1.19738 25.6067C1.27354 25.3421 1.38509 25.069 1.44587 24.8044L1.46664 24.7139L1.4951 24.6257C1.97362 23.1404 2.55522 21.695 3.09989 20.2347C3.47532 19.2287 3.83228 18.2165 4.2177 17.2143C4.7793 15.6292 5.96943 14.35 7.48806 13.6718C7.77732 13.5422 8.07197 13.4251 8.37277 13.326C9.33518 13.0068 10.3868 12.8726 11.3185 12.512L11.3554 12.498L11.3923 12.4855C13.7526 11.6707 15.8567 9.99499 17.883 8.56049C19.1855 7.63797 20.5502 6.91291 22.0604 6.74121C22.3427 4.83608 23.7852 3.20646 25.7431 2.98169C27.9518 2.67887 30.0759 4.1602 30.729 6.23781C30.7398 6.23781 30.7498 6.23781 30.7606 6.23859H30.7813L30.8021 6.24093C32.4031 6.33459 33.884 7.39368 34.3625 8.97179C34.4433 9.23949 34.4917 9.5111 34.5087 9.78348C34.7872 9.9068 35.0518 10.0644 35.3011 10.2588C35.3749 10.2838 35.4488 10.3064 35.5226 10.329C35.9227 10.4539 36.2919 10.5796 36.662 10.7848C37.4559 11.2242 38.1314 11.7908 38.8876 12.2747C40.6386 11.9212 42.3849 11.5575 44.1605 11.3452C47.7609 10.9144 51.8913 11.0236 54.6908 13.6999C55.8871 14.8433 56.6764 16.4081 56.6757 18.0963C56.6757 18.8166 56.5926 19.537 56.411 20.234C54.9186 25.9751 47.6355 29.1727 42.5357 30.7399C40.1216 31.4813 37.6452 32.0386 35.1487 32.4062C33.1154 32.7059 31.0037 32.908 28.9488 32.8003C25.9077 32.6411 22.5235 34.0459 19.744 35.1862C18.3438 35.7606 16.9506 36.3507 15.5251 36.8611C13.1494 37.7118 10.6353 38.3611 8.09658 38.2355C6.28485 38.1457 4.58082 37.6626 3.00142 36.751L2.79909 36.634L2.62599 36.4755C0.0426374 34.1013 -0.882847 29.8205 0.98197 26.7485Z" fill="white"/>
<path fill-rule="evenodd" clip-rule="evenodd" d="M7.51627 32.2774L49.4623 21.6927C51.1971 21.2548 53.015 21.5304 54.4821 22.591C56.1446 23.7937 57.0001 25.7394 57.0001 27.7866V31.2784C57.0001 34.8569 54.419 38.3456 50.974 39.2158L9.02797 49.8013C7.29317 50.2391 5.47528 49.9636 4.0082 48.903C2.34571 47.7003 1.49023 45.7546 1.49023 43.7074V40.2156C1.49023 36.6371 4.07128 33.1484 7.51627 32.2782V32.2774Z" fill="white"/>
<path fill-rule="evenodd" clip-rule="evenodd" d="M28.0993 1.43945C40.8946 1.43945 51.268 11.9625 51.268 24.9441C51.268 37.9256 40.8953 48.4487 28.0993 48.4487C15.3033 48.4487 4.93066 37.9248 4.93066 24.9433C4.93066 11.9617 15.3041 1.43945 28.0993 1.43945Z" fill="#1B1B1B"/>
<path fill-rule="evenodd" clip-rule="evenodd" d="M2.40225 27.1819C2.3607 26.7909 2.45302 26.3764 2.55842 26.0104C2.64073 25.7232 2.75998 25.4203 2.82614 25.1331L2.83306 25.1027L2.84229 25.073C3.31388 23.6089 3.88856 22.1837 4.42554 20.7438C4.80174 19.7362 5.1587 18.7216 5.54566 17.7187C5.97263 16.4965 6.88889 15.5076 8.05901 14.9886C8.30442 14.8754 8.55676 14.7779 8.81294 14.6928C9.80151 14.365 10.857 14.23 11.824 13.8554L11.8363 13.8507L11.8487 13.8468C14.3728 12.975 16.5322 11.2704 18.694 9.73994C20.2634 8.62933 21.7397 7.92144 23.483 8.20163C23.4476 7.95968 23.4284 7.7154 23.4284 7.46955C23.4037 5.99524 24.4262 4.57167 25.9179 4.40933C27.7296 4.15099 29.5044 5.68696 29.5152 7.54838C29.5175 7.63501 29.5152 7.72164 29.5106 7.80749C29.8998 7.71149 30.2983 7.66076 30.7076 7.67637H30.7145H30.7215C31.7293 7.73413 32.704 8.39206 33.0079 9.39341C33.161 9.89837 33.1148 10.4119 32.9094 10.8763C33.5156 10.8974 34.0934 11.0745 34.588 11.5241C35.0527 11.713 35.5151 11.7871 35.9836 12.0462C36.7583 12.4747 37.4276 13.0437 38.1707 13.5151L38.1961 13.5307L38.22 13.5486C38.3561 13.6524 38.4792 13.7188 38.5969 13.7976C40.5048 13.4167 42.3904 13.0031 44.3275 12.7713C47.461 12.3959 51.2698 12.4029 53.7193 14.7443C54.6279 15.613 55.2656 16.804 55.2587 18.0925C55.2649 18.6896 55.191 19.2866 55.041 19.8642C53.7039 25.0075 46.637 27.974 42.1258 29.3594C39.7863 30.0782 37.3653 30.623 34.9465 30.9789C33.0325 31.2606 30.9584 31.4612 29.0236 31.3605C25.724 31.188 22.2252 32.6139 19.2141 33.8494C14.3505 35.8443 8.75293 38.4105 3.7047 35.4978L3.637 35.4587L3.5793 35.4057C1.40675 33.4116 0.61667 29.6645 2.40225 27.1803V27.1819Z" fill="#1B1B1B"/>
<path fill-rule="evenodd" clip-rule="evenodd" d="M28.0993 3.59766C39.7198 3.59766 49.1401 13.1545 49.1401 24.9435C49.1401 36.7325 39.7198 46.2893 28.0993 46.2893C16.4788 46.2893 7.05859 36.7317 7.05859 24.9427C7.05859 13.1537 16.4788 3.59766 28.0993 3.59766Z" fill="white"/>
<path fill-rule="evenodd" clip-rule="evenodd" d="M7.83659 33.5855L49.7827 23.0008C51.1397 22.6581 52.5599 22.8564 53.71 23.6884C55.0217 24.6374 55.671 26.1773 55.671 27.7866V31.2784C55.671 34.2387 53.5046 37.1874 50.6528 37.907L8.70669 48.4917C7.34962 48.8343 5.92946 48.6361 4.77934 47.8041C3.46766 46.855 2.81836 45.3152 2.81836 43.7058V40.214C2.81836 37.2537 4.98475 34.3051 7.83659 33.5855Z" fill="#1B1B1B"/>
<path fill-rule="evenodd" clip-rule="evenodd" d="M8.27128 35.3597L50.2174 24.7742C52.2253 24.2676 53.8685 25.6225 53.8685 27.786V31.2786C53.8685 33.4421 52.2253 35.6266 50.2174 36.1331L8.27128 46.7178C6.26337 47.2244 4.62012 45.8695 4.62012 43.706V40.2134C4.62012 38.0499 6.26337 35.8654 8.27128 35.3589V35.3597Z" fill="white"/>
<path d="M9.01498 44.1095C10.439 43.7497 11.4691 42.785 11.4691 41.427C11.4691 40.069 10.289 40.0011 9.38579 39.9933C8.80573 39.9933 8.33952 39.9949 8.33952 39.6421C8.33952 39.3517 8.63032 39.1465 8.9342 39.07C9.28655 38.981 9.57658 39.0918 9.57658 39.4844L11.2683 39.0575C11.2683 37.7916 10.4267 37.2382 8.95421 37.6097C7.50328 37.9758 6.61549 38.9022 6.61549 40.1283C6.61549 41.5425 7.74792 41.5308 8.63571 41.53C9.22423 41.5238 9.70044 41.516 9.70044 41.9062C9.70044 42.2457 9.36271 42.522 9.0096 42.611C8.62571 42.7078 8.28798 42.5766 8.28798 42.1333L6.54395 42.5735C6.54395 43.9284 7.51559 44.488 9.01421 44.1095H9.01498ZM16.1858 35.9255V39.1902L13.8355 36.5186L12.3553 36.8917V43.1159L13.9948 42.7023V39.3252L16.4273 42.0889L17.8252 41.7361V35.5118L16.1858 35.9255ZM20.6993 39.5258V38.5923L22.7142 38.0843V36.6794L20.6993 37.1875V36.2705L22.9419 35.7046V34.2225L19.0168 35.2129V41.4356L23.0165 40.4265V38.9412L20.6993 39.5258ZM28.0517 39.1551L29.9111 38.686L27.4493 33.083L25.7983 33.4998L23.3896 40.332L25.1998 39.8754L25.5398 38.7758L27.7124 38.2279L28.0517 39.1558V39.1551ZM27.3008 36.9885L25.9507 37.3288L26.6223 35.2324L27.3 36.9877L27.3008 36.9885ZM35.9633 37.1586L33.8161 34.4902L35.7809 30.9796L33.8207 31.4745L32.199 34.5066V31.8834L30.5073 32.3104V38.5346L32.199 38.1077V35.3573L33.9577 37.6644L35.9633 37.1578V37.1586ZM38.1235 35.1286V34.1952L40.1383 33.6871V32.2823L38.1235 32.7903V31.8733L40.3661 31.3074V29.8253L36.441 30.8158V37.0384L40.4407 36.0293V34.5441L38.1235 35.1286ZM44.7019 34.9538L46.589 34.4777L45.3704 32.5234C45.9767 32.0044 46.3436 31.2879 46.3436 30.5184C46.3436 29.2142 45.3851 28.5563 44.0665 28.8896L41.4108 29.56V35.7842L43.1025 35.3573V33.4545L43.7118 33.3008L44.7019 34.9538ZM43.1025 30.6534L43.8695 30.4599C44.3396 30.3412 44.6119 30.559 44.6119 30.9516C44.6119 31.3441 44.3403 31.7016 43.8695 31.8202L43.1025 32.0138V30.6534ZM49.4909 33.8947C50.9149 33.5349 51.945 32.5702 51.945 31.2122C51.945 29.8542 50.7649 29.7863 49.8617 29.7785C49.2816 29.7785 48.8154 29.7801 48.8154 29.4273C48.8154 29.137 49.1062 28.9317 49.4101 28.8552C49.7625 28.7662 50.0525 28.8771 50.0525 29.2696L51.7442 28.8427C51.7442 27.5768 50.9026 27.0235 49.4301 27.395C47.9792 27.761 47.0914 28.6874 47.0914 29.9135C47.0914 31.327 48.2238 31.316 49.1116 31.3153C49.7001 31.309 50.1763 31.3012 50.1763 31.6914C50.1763 32.0309 49.8386 32.3072 49.4855 32.3962C49.1016 32.493 48.7639 32.3619 48.7639 31.9186L47.0199 32.3587C47.0199 33.7136 47.9915 34.2732 49.4901 33.8947H49.4909Z" fill="#1B1B1B"/>
<path d="M10.4979 35.748C10.4935 35.748 10.489 35.748 10.4854 35.7488C10.4898 35.7488 10.4942 35.7488 10.4979 35.748Z" fill="black"/>
<path d="M4.10365 32.1836C4.03826 32.3701 3.9944 32.5645 3.97363 32.7619C3.9944 32.5652 4.03749 32.3701 4.10365 32.1836Z" fill="black"/>
<path d="M4.15116 32.0586C4.14797 32.0666 4.14479 32.0737 4.1416 32.0817C4.14479 32.0737 4.14797 32.0658 4.15116 32.0586Z" fill="black"/>
<path d="M4.19466 31.959C4.18004 31.991 4.16542 32.023 4.15234 32.0558C4.16619 32.023 4.18004 31.991 4.19466 31.959Z" fill="black"/>
<path d="M4.21818 31.9102C4.2142 31.9181 4.21022 31.9253 4.20703 31.9332C4.21101 31.9253 4.21499 31.9181 4.21818 31.9102Z" fill="black"/>
<path d="M4.26701 31.8164C4.26303 31.8236 4.25904 31.8299 4.25586 31.8371C4.25984 31.8299 4.26303 31.8236 4.26701 31.8164Z" fill="black"/>
<path d="M4.32125 31.7227C4.30741 31.7453 4.29433 31.7679 4.28125 31.7906C4.29433 31.7679 4.30741 31.7445 4.32125 31.7227Z" fill="black"/>
<path d="M4.35027 31.6768C4.34549 31.6839 4.34072 31.6911 4.33594 31.699C4.34072 31.6919 4.34549 31.6847 4.35027 31.6768Z" fill="black"/>
<path d="M4.37944 31.6328C4.36957 31.6474 4.3597 31.662 4.35059 31.6766C4.36046 31.662 4.36957 31.6474 4.37944 31.6328Z" fill="black"/>
<path d="M4.39422 31.6113C4.38944 31.6185 4.38466 31.6257 4.37988 31.632C4.38466 31.6249 4.38944 31.6177 4.39422 31.6113Z" fill="black"/>
<path d="M4.42529 31.5674C4.42051 31.5738 4.41573 31.5809 4.41016 31.5873C4.41493 31.5801 4.41971 31.5738 4.42529 31.5674Z" fill="black"/>
<path d="M4.45691 31.5244C4.44628 31.5383 4.43565 31.5521 4.42578 31.5659C4.43641 31.5521 4.44628 31.5383 4.45691 31.5244Z" fill="black"/>
<path d="M34.7818 31.0332C33.447 31.272 32.093 31.3766 30.7383 31.3766C32.093 31.3766 33.4463 31.272 34.7818 31.0332Z" fill="black"/>
<path d="M4.63063 31.3242C4.61848 31.3365 4.60709 31.3481 4.5957 31.3604C4.60709 31.3481 4.61924 31.3358 4.63063 31.3242Z" fill="black"/>
<path d="M4.64881 31.3066C4.64438 31.3111 4.63994 31.3156 4.63477 31.3201C4.6392 31.3156 4.64364 31.3111 4.64881 31.3066Z" fill="black"/>
<path d="M4.70856 31.249C4.70219 31.2546 4.69582 31.2602 4.68945 31.2665C4.69582 31.261 4.70219 31.2554 4.70856 31.249Z" fill="black"/>
<path d="M51.7467 24.0771C51.7467 24.0771 51.7413 24.0809 51.7383 24.0832C51.7413 24.0809 51.7436 24.0794 51.7467 24.0771Z" fill="black"/>
<path d="M51.786 24.0479C51.786 24.0479 51.7806 24.0517 51.7783 24.0539C51.7806 24.0517 51.7837 24.0501 51.786 24.0479Z" fill="black"/>
<path d="M51.8045 24.0332C51.8045 24.0332 51.7992 24.037 51.7969 24.0393C51.7992 24.0378 51.8022 24.0355 51.8045 24.0332Z" fill="black"/>
<path d="M51.8257 24.0176C51.8257 24.0176 51.8177 24.0232 51.8145 24.0264C51.8185 24.0232 51.8225 24.0208 51.8257 24.0176Z" fill="black"/>
<path d="M51.8443 24.0029C51.8443 24.0029 51.837 24.0086 51.833 24.0118C51.837 24.0094 51.8402 24.0062 51.8443 24.0029Z" fill="black"/>
<path d="M51.8839 23.9717C51.8788 23.9754 51.8736 23.9791 51.8691 23.9836C51.8743 23.9799 51.8795 23.9762 51.8839 23.9717Z" fill="black"/>
<path d="M25.5116 23.9296C29.9098 22.7722 34.2556 21.4344 38.5915 20.0608C41.0764 19.342 43.6136 18.7168 46.1808 18.3711C43.6136 18.7168 41.0771 19.342 38.5915 20.0608C34.2556 21.4344 29.9105 22.7722 25.5116 23.9296C25.4547 23.9452 25.3977 23.9616 25.3408 23.978C25.3977 23.9616 25.4547 23.946 25.5116 23.9296Z" fill="black"/>
<path d="M53.2705 18.6817C53.199 18.627 53.1244 18.5755 53.0459 18.5264C53.1244 18.5755 53.1998 18.627 53.2705 18.6817Z" fill="black"/>
<path d="M53.0234 18.5127C53.0294 18.5164 53.0353 18.5202 53.0412 18.5231C53.0353 18.5194 53.0294 18.5157 53.0234 18.5127Z" fill="black"/>
<path d="M53.002 18.499C53.0071 18.502 53.0123 18.505 53.0175 18.5087C53.0123 18.5057 53.0071 18.5028 53.002 18.499Z" fill="black"/>
<path d="M52.9297 18.457C52.9297 18.457 52.935 18.4601 52.9373 18.4616C52.935 18.4601 52.932 18.4586 52.9297 18.457Z" fill="black"/>
<path d="M51.2567 18.1049C51.0182 18.0955 50.7805 18.09 50.542 18.0869C50.7797 18.0893 51.0182 18.0955 51.2567 18.1049Z" fill="black"/>
<path d="M7.73355 35.9259C6.42033 35.9259 5.08634 35.7394 4.05469 34.873C5.08557 35.7394 6.42033 35.9259 7.73355 35.9259Z" fill="black"/>
<path d="M10.1122 35.7725C10.1077 35.7725 10.104 35.7732 10.0996 35.774C10.104 35.774 10.1077 35.7732 10.1122 35.7725Z" fill="black"/>
<path d="M10.1945 35.7646C10.1691 35.7678 10.1445 35.7701 10.1191 35.7732C10.1445 35.7709 10.1699 35.7678 10.1945 35.7646Z" fill="black"/>
<path d="M3.99805 34.8203C3.99805 34.8203 4.00393 34.8255 4.00688 34.8285C4.00393 34.8255 4.00099 34.8233 3.99805 34.8203Z" fill="black"/>
<path d="M3.97363 34.7969C3.97363 34.7969 3.97952 34.8028 3.98246 34.8051C3.97952 34.8021 3.97658 34.7998 3.97363 34.7969Z" fill="black"/>
<path d="M3.94922 34.7734C3.94922 34.7734 3.95565 34.7799 3.95967 34.7831C3.95646 34.7799 3.95244 34.7767 3.94922 34.7734Z" fill="black"/>
<path d="M3.9248 34.75C3.9248 34.75 3.93124 34.7564 3.93526 34.7597C3.93204 34.7564 3.92883 34.7532 3.9248 34.75Z" fill="black"/>
<path d="M3.90137 34.7266C3.90137 34.7266 3.90861 34.7338 3.91182 34.737C3.90861 34.7338 3.90458 34.7298 3.90137 34.7266Z" fill="black"/>
<path d="M3.87793 34.7031C3.87793 34.7031 3.88436 34.7096 3.88838 34.7136C3.88517 34.7104 3.88115 34.7063 3.87793 34.7031Z" fill="black"/>
<path d="M3.85449 34.6787C3.85449 34.6787 3.86173 34.686 3.86495 34.6892C3.86173 34.686 3.85771 34.6819 3.85449 34.6787Z" fill="black"/>
<path d="M3.83105 34.6553C3.83105 34.6553 3.83749 34.6625 3.84151 34.6657C3.83829 34.6625 3.83427 34.6585 3.83105 34.6553Z" fill="black"/>
<path d="M3.80762 34.6309C3.80762 34.6309 3.81374 34.6369 3.8168 34.6407C3.81374 34.6377 3.81068 34.6347 3.80762 34.6309Z" fill="black"/>
<path d="M3.78613 34.6074C3.78613 34.6074 3.79072 34.6127 3.79379 34.615C3.79149 34.6127 3.78843 34.6097 3.78613 34.6074Z" fill="black"/>
<path d="M3.7627 34.583C3.7627 34.583 3.76729 34.5883 3.76958 34.5906C3.76729 34.5883 3.76499 34.5853 3.7627 34.583Z" fill="black"/>
<path d="M3.64355 34.4512C3.64355 34.4512 3.64815 34.4565 3.65044 34.4588C3.64815 34.4565 3.64585 34.4542 3.64355 34.4512Z" fill="black"/>
<path d="M3.62109 34.4248C3.62109 34.4248 3.62624 34.4308 3.62845 34.433C3.62624 34.43 3.62404 34.4278 3.62109 34.4248Z" fill="black"/>
<path d="M3.59863 34.3994C3.59863 34.3994 3.60378 34.4054 3.60599 34.4076C3.60378 34.4046 3.60084 34.4016 3.59863 34.3994Z" fill="black"/>
<path d="M3.57617 34.373C3.57617 34.373 3.58132 34.379 3.58427 34.382C3.58132 34.379 3.57912 34.376 3.57617 34.373Z" fill="black"/>
<path d="M3.55469 34.3477C3.55469 34.3477 3.55984 34.3536 3.56205 34.3566C3.55984 34.3536 3.5569 34.3506 3.55469 34.3477Z" fill="black"/>
<path d="M3.53418 34.3223C3.53418 34.3223 3.53859 34.3275 3.5408 34.3304C3.53859 34.3275 3.53639 34.3252 3.53418 34.3223Z" fill="black"/>
<path d="M3.5127 34.2949C3.5127 34.2949 3.51711 34.3009 3.51932 34.3031C3.51711 34.3001 3.5149 34.2979 3.5127 34.2949Z" fill="black"/>
<path d="M3.49121 34.2686C3.49121 34.2686 3.49636 34.2745 3.49857 34.2775C3.49636 34.2745 3.49342 34.2715 3.49121 34.2686Z" fill="black"/>
<path d="M3.4707 34.2422C3.4707 34.2422 3.47512 34.2481 3.47733 34.2511C3.47512 34.2481 3.47291 34.2452 3.4707 34.2422Z" fill="black"/>
<path d="M3.32031 34.0449C3.32031 34.0449 3.32473 34.0509 3.32694 34.0538C3.32473 34.0509 3.32252 34.0479 3.32031 34.0449Z" fill="black"/>
<path d="M3.30078 34.0186C3.30078 34.0186 3.3052 34.0245 3.30667 34.0267C3.30446 34.0238 3.30225 34.0208 3.30078 34.0186Z" fill="black"/>
<path d="M3.28027 33.9902C3.28027 33.9902 3.28469 33.9962 3.2869 33.9992C3.28469 33.9962 3.28248 33.9932 3.28027 33.9902Z" fill="black"/>
<path d="M3.26074 33.9619C3.26074 33.9619 3.26516 33.9679 3.26736 33.9708C3.26516 33.9679 3.26295 33.9649 3.26074 33.9619Z" fill="black"/>
<path d="M3.24121 33.9336C3.24121 33.9336 3.2458 33.9404 3.2481 33.9435C3.2458 33.9404 3.24351 33.9374 3.24121 33.9336Z" fill="black"/>
<path d="M3.22266 33.9062C3.22266 33.9062 3.22634 33.9115 3.22854 33.9144C3.22634 33.9115 3.22486 33.9092 3.22266 33.9062Z" fill="black"/>
<path d="M3.20312 33.8779C3.20312 33.8779 3.2068 33.8831 3.20901 33.8861C3.2068 33.8831 3.20533 33.8809 3.20312 33.8779Z" fill="black"/>
<path d="M3.18457 33.8506C3.18457 33.8506 3.1884 33.8559 3.18993 33.8582C3.1884 33.8559 3.1861 33.8529 3.18457 33.8506Z" fill="black"/>
<path d="M3.16602 33.8213C3.16602 33.8213 3.16969 33.8272 3.1719 33.8295C3.16969 33.8265 3.16822 33.8235 3.16602 33.8213Z" fill="black"/>
<path d="M3.05078 33.6406C3.05078 33.6406 3.05372 33.6458 3.05593 33.6488C3.05446 33.6458 3.05299 33.6436 3.05078 33.6406Z" fill="black"/>
<path d="M3.03223 33.6094C3.03223 33.6094 3.03605 33.6162 3.03835 33.6193C3.03605 33.6162 3.03452 33.6124 3.03223 33.6094Z" fill="black"/>
<path d="M3.01465 33.5801C3.01465 33.5801 3.01947 33.5873 3.02108 33.5913C3.01867 33.5873 3.01626 33.5841 3.01465 33.5801Z" fill="black"/>
<path d="M2.99707 33.5508C2.99707 33.5508 3.0009 33.5576 3.00319 33.5607C3.0009 33.5576 2.99937 33.5538 2.99707 33.5508Z" fill="black"/>
<path d="M2.97949 33.5215C2.97949 33.5215 2.98432 33.5295 2.98593 33.5328C2.98351 33.5287 2.9819 33.5255 2.97949 33.5215Z" fill="black"/>
<path d="M2.96289 33.4912C2.96289 33.4912 2.96691 33.4985 2.96932 33.5025C2.96691 33.4985 2.9653 33.4952 2.96289 33.4912Z" fill="black"/>
<path d="M2.94531 33.4619C2.94531 33.4619 2.94933 33.4692 2.95175 33.4732C2.94933 33.4692 2.94773 33.4659 2.94531 33.4619Z" fill="black"/>
<path d="M2.92969 33.4326C2.92969 33.4326 2.93337 33.4386 2.93484 33.4415C2.93337 33.4386 2.9319 33.4356 2.92969 33.4326Z" fill="black"/>
<path d="M2.91309 33.4023C2.91309 33.4023 2.91603 33.4083 2.9175 33.4105C2.91603 33.4075 2.91456 33.4046 2.91309 33.4023Z" fill="black"/>
<path d="M2.89648 33.3721C2.89648 33.3721 2.89955 33.3774 2.90108 33.3797C2.89955 33.3774 2.89801 33.3744 2.89648 33.3721Z" fill="black"/>
<path d="M2.84375 33.2734C2.84375 33.2734 2.84669 33.2786 2.84817 33.2816C2.84669 33.2794 2.84522 33.2764 2.84375 33.2734Z" fill="black"/>
<path d="M2.82715 33.2422C2.82715 33.2422 2.83009 33.2481 2.83156 33.2511C2.83009 33.2481 2.82862 33.2452 2.82715 33.2422Z" fill="black"/>
<path d="M2.81152 33.21C2.81152 33.21 2.81554 33.218 2.81715 33.2212C2.81554 33.2172 2.81313 33.214 2.81152 33.21Z" fill="black"/>
<path d="M2.7959 33.1787C2.79831 33.1827 2.79992 33.1868 2.80233 33.1916C2.79992 33.1876 2.79831 33.1827 2.7959 33.1787Z" fill="black"/>
<path d="M2.69141 32.9619C2.69354 32.9663 2.69567 32.9707 2.69709 32.975C2.69496 32.9707 2.69283 32.9663 2.69141 32.9619Z" fill="black"/>
<path d="M2.66406 32.8994C2.6662 32.9038 2.66762 32.9082 2.66975 32.9125C2.66762 32.9082 2.66548 32.9038 2.66406 32.8994Z" fill="black"/>
<path d="M2.62988 32.8184C2.63911 32.8394 2.64758 32.8605 2.65681 32.8808C2.64758 32.8597 2.63835 32.8387 2.62988 32.8184Z" fill="black"/>
<path d="M2.60449 32.7588C2.60662 32.7639 2.60876 32.7683 2.61089 32.7734C2.60876 32.7683 2.60662 32.7632 2.60449 32.7588Z" fill="black"/>
<path d="M3.96484 32.7402C3.96645 32.7443 3.96886 32.7491 3.97047 32.7531C3.96886 32.7491 3.96645 32.7451 3.96484 32.7402Z" fill="black"/>
<path d="M3.92405 32.6444C3.56555 31.9561 3.35861 31.1662 3.35938 30.3936C3.35938 31.1662 3.56555 31.9561 3.92405 32.6444C3.93636 32.6741 3.94867 32.7045 3.96175 32.7334C3.94867 32.7037 3.93636 32.6741 3.92405 32.6444Z" fill="black"/>
<path d="M2.51758 32.5352C2.51997 32.5423 2.52315 32.5495 2.52554 32.5559C2.52315 32.5487 2.51997 32.5415 2.51758 32.5352Z" fill="black"/>
<path d="M2.50586 32.5039C2.50825 32.5111 2.51143 32.5182 2.51382 32.5246C2.51143 32.5174 2.50825 32.5103 2.50586 32.5039Z" fill="black"/>
<path d="M2.49414 32.4707C2.49653 32.4779 2.49971 32.485 2.5021 32.493C2.49971 32.4858 2.49653 32.4787 2.49414 32.4707Z" fill="black"/>
<path d="M2.44141 32.3174C2.45756 32.3673 2.47449 32.4165 2.49218 32.4665C2.47449 32.4173 2.45756 32.3673 2.44141 32.3174Z" fill="black"/>
<path d="M2.43066 32.2871C2.43369 32.2955 2.43671 32.3047 2.43898 32.3132C2.43595 32.3047 2.43293 32.2955 2.43066 32.2871Z" fill="black"/>
<path d="M2.41211 32.2256C2.4145 32.2335 2.41689 32.2415 2.42007 32.2495C2.41768 32.2415 2.41529 32.2335 2.41211 32.2256Z" fill="black"/>
<path d="M2.40137 32.1934C2.40376 32.2013 2.40615 32.2093 2.40933 32.2172C2.40694 32.2093 2.40455 32.2013 2.40137 32.1934Z" fill="black"/>
<path d="M2.3916 32.1611C2.39399 32.1699 2.39638 32.1779 2.39956 32.1866C2.39718 32.1779 2.39399 32.1699 2.3916 32.1611Z" fill="black"/>
<path d="M2.36328 32.0635C2.3663 32.0727 2.36857 32.0826 2.37159 32.0926C2.36857 32.0834 2.3663 32.0734 2.36328 32.0635Z" fill="black"/>
<path d="M3.17693 27.3467C2.08681 28.6399 1.90217 30.4366 2.36299 32.0623C1.90217 30.4366 2.08681 28.6407 3.17693 27.3475V27.3467Z" fill="black"/>
<path d="M4.81662 27.5361C4.762 27.5736 4.70815 27.6126 4.6543 27.6509C4.70815 27.6118 4.762 27.5736 4.81662 27.5361Z" fill="black"/>
<path d="M4.54199 26.1879C4.54643 26.1849 4.55012 26.1819 4.55456 26.1797C4.55012 26.1827 4.54643 26.1857 4.54199 26.1879Z" fill="black"/>
<path d="M4.62139 26.1353C4.62139 26.1353 4.62582 26.1324 4.62804 26.1309C4.62434 26.1331 4.62065 26.1361 4.61621 26.1383C4.61769 26.1368 4.61991 26.1361 4.62139 26.1346V26.1353Z" fill="black"/>
<path d="M4.67532 26.1006C4.67532 26.1006 4.66808 26.1054 4.66406 26.1078C4.66808 26.1054 4.6713 26.103 4.67532 26.1006Z" fill="black"/>
<path d="M4.70985 26.077C4.71592 26.0731 4.722 26.0693 4.72807 26.0654C4.71592 26.0731 4.70453 26.0808 4.69238 26.0885C4.69846 26.0846 4.70377 26.0808 4.70985 26.077Z" fill="black"/>
<path d="M4.80056 26.0196C4.80587 26.0157 4.81195 26.0126 4.81726 26.0088C4.80435 26.0165 4.79221 26.0249 4.7793 26.0326C4.78613 26.028 4.79296 26.0234 4.80056 26.0196Z" fill="black"/>
<path d="M5.0733 25.8527C5.09484 25.8402 5.11638 25.8269 5.13792 25.8145C5.10946 25.8316 5.08022 25.848 5.05176 25.8652C5.05868 25.8613 5.06561 25.8566 5.0733 25.8527Z" fill="black"/>
<path d="M6.84414 24.959C6.84414 24.959 6.83802 24.9613 6.83496 24.9628C6.83802 24.9613 6.84108 24.9605 6.84414 24.959Z" fill="black"/>
<path d="M7.08808 24.8537C7.10347 24.8475 7.11808 24.8412 7.1327 24.835C7.07577 24.8592 7.01884 24.8834 6.96191 24.9075C7.00346 24.8896 7.04577 24.8716 7.08731 24.8537H7.08808Z" fill="black"/>
<path d="M7.58448 24.6477C7.58448 24.6477 7.58987 24.6453 7.59294 24.6445C7.5714 24.6531 7.54986 24.6617 7.52832 24.6703C7.54678 24.6625 7.56602 24.6555 7.58448 24.6477Z" fill="black"/>
<path d="M7.89881 24.5225C7.89269 24.5248 7.8858 24.5279 7.87891 24.5302C7.8858 24.5279 7.89192 24.5248 7.89881 24.5225Z" fill="black"/>
<path d="M8.01399 24.4775C7.99168 24.4861 7.9686 24.4955 7.94629 24.5041C7.9686 24.4955 7.99091 24.4861 8.01399 24.4775Z" fill="black"/>
<path d="M9.01056 24.0896C9.03825 24.0787 9.06595 24.0678 9.09364 24.0576C8.73591 24.1965 8.37587 24.3339 8.0166 24.4759C8.34818 24.3456 8.68052 24.2176 9.01056 24.0896Z" fill="black"/>
<path d="M9.22495 24.0068C9.22495 24.0068 9.21691 24.0101 9.21289 24.0117C9.21691 24.0101 9.22093 24.0084 9.22495 24.0068Z" fill="black"/>
<path d="M9.66442 23.834C9.5221 23.891 9.37824 23.9472 9.23438 24.0026C9.37824 23.9464 9.52133 23.8902 9.66442 23.834Z" fill="black"/>
<path d="M10.4015 23.5532C10.4669 23.5283 10.533 23.5025 10.5984 23.4775C10.5099 23.5119 10.4215 23.5454 10.333 23.579C10.3561 23.5704 10.3784 23.5618 10.4007 23.5532H10.4015Z" fill="black"/>
<path d="M10.9938 23.3262C10.9623 23.3387 10.93 23.3504 10.8984 23.3629C10.93 23.3504 10.9615 23.3387 10.9938 23.3262Z" fill="black"/>
<path d="M12.2618 22.8331C12.311 22.8136 12.3603 22.7949 12.4095 22.7754C12.1564 22.8737 11.9025 22.9721 11.6494 23.0712C11.8533 22.9916 12.0579 22.9128 12.2618 22.8331Z" fill="black"/>
<path d="M15.1403 21.7334C15.1251 21.7388 15.1099 21.7442 15.0947 21.7503C15.1099 21.7449 15.1251 21.7388 15.1403 21.7334Z" fill="black"/>
<path d="M15.2274 21.7021C15.21 21.7083 15.1932 21.7144 15.1758 21.7214C15.1932 21.7152 15.21 21.7091 15.2274 21.7021Z" fill="black"/>
<path d="M15.3129 21.6709C15.2955 21.677 15.278 21.684 15.2598 21.6901C15.2772 21.684 15.2947 21.677 15.3129 21.6709Z" fill="black"/>
<path d="M54.1971 20.3718C54.3764 19.6366 54.5518 18.8936 54.5494 18.1318C54.5518 18.8944 54.3764 19.6366 54.1971 20.3718C54.1894 20.4764 54.1533 20.5716 54.0986 20.6535C54.0986 20.6535 54.0986 20.6543 54.0986 20.6551C54.154 20.5731 54.1902 20.4764 54.1979 20.3718H54.1971Z" fill="black"/>
<path d="M53.2324 15.2695C54.004 15.9954 54.5564 17.0092 54.5487 18.0948C54.5572 17.0084 54.004 15.9954 53.2324 15.2695Z" fill="black"/>
<path d="M26.4125 17.6946C26.4617 17.6782 26.511 17.6618 26.5602 17.6454C26.6518 17.615 26.7433 17.5853 26.8349 17.5557C26.6602 17.6119 26.4864 17.6696 26.3125 17.7274C26.3456 17.7164 26.3794 17.7047 26.4125 17.6938V17.6946Z" fill="black"/>
<path d="M26.9015 17.5352C26.8848 17.5405 26.8681 17.5459 26.8506 17.5513C26.8673 17.5459 26.884 17.5405 26.9015 17.5352Z" fill="black"/>
<path d="M26.9654 17.5146C26.9654 17.5146 26.9581 17.5171 26.9541 17.5179C26.9581 17.5171 26.9613 17.5155 26.9654 17.5146Z" fill="black"/>
<path d="M27.3213 17.4023C27.3297 17.4 27.3374 17.3977 27.3459 17.3945C27.312 17.4047 27.279 17.4156 27.2451 17.4258C27.2705 17.4179 27.2959 17.4101 27.3213 17.4016V17.4023Z" fill="black"/>
<path d="M27.5044 17.3447C27.5652 17.3259 27.626 17.3072 27.6867 17.2885C27.6898 17.2877 27.6921 17.2869 27.6952 17.2861C27.6213 17.3088 27.5475 17.3314 27.4736 17.354C27.4836 17.3509 27.4936 17.3478 27.5036 17.3447H27.5044Z" fill="black"/>
<path d="M29.3412 16.8101C29.3905 16.7968 29.4397 16.7828 29.4882 16.7695C29.3889 16.7968 29.2897 16.8242 29.1904 16.8515C29.2404 16.8374 29.2912 16.8234 29.3412 16.8093V16.8101Z" fill="black"/>
<path d="M30.4673 16.508C30.5658 16.4823 30.6643 16.4565 30.7627 16.4316C30.8789 16.4019 30.9951 16.3715 31.1112 16.3418C30.7773 16.4269 30.4435 16.5135 30.1104 16.6017C30.2296 16.5705 30.3488 16.5385 30.4681 16.5073L30.4673 16.508Z" fill="black"/>
<path d="M35.5324 15.2656C35.5272 15.2671 35.522 15.2679 35.5176 15.2694C35.5228 15.2679 35.5279 15.2671 35.5324 15.2656Z" fill="black"/>
<path d="M36.05 15.1396C35.9776 15.1576 35.9053 15.1748 35.833 15.1927C35.9053 15.1756 35.9776 15.1576 36.05 15.1396Z" fill="black"/>
<path d="M41.7208 13.908C40.5299 14.1297 39.3975 14.3747 38.3936 14.5722C39.3975 14.3747 40.5292 14.1289 41.7201 13.9072L41.7208 13.908Z" fill="black"/>
<path d="M41.7897 13.8955C41.7697 13.8994 41.7497 13.9025 41.7305 13.9064C41.7505 13.9025 41.7697 13.8994 41.7897 13.8955Z" fill="black"/>
<path d="M41.8532 13.8828C41.8357 13.8859 41.8182 13.889 41.8008 13.8928C41.8182 13.8897 41.8357 13.8867 41.8532 13.8828Z" fill="black"/>
<path d="M41.919 13.8711C41.9039 13.8742 41.8894 13.8765 41.875 13.8796C41.8902 13.8765 41.9046 13.8742 41.919 13.8711Z" fill="black"/>
<path d="M41.9854 13.8584C41.9725 13.8607 41.9604 13.863 41.9482 13.8653C41.9612 13.863 41.9733 13.8607 41.9854 13.8584Z" fill="black"/>
<path d="M3.1771 27.3466C2.95016 26.9197 3.29173 26.0643 3.45944 25.5078C3.29096 26.0643 2.95016 26.9197 3.1771 27.3466Z" fill="black"/>
<path d="M4.62455 25.9033C4.61147 25.947 4.59916 25.9907 4.58685 26.0344C4.58532 26.0383 4.58455 26.043 4.58301 26.0469C4.59686 25.9993 4.6107 25.9509 4.62455 25.9033Z" fill="black"/>
<path d="M4.76822 25.4336C4.75668 25.4687 4.74591 25.5038 4.73438 25.539C4.74515 25.5038 4.75668 25.4687 4.76822 25.4336Z" fill="black"/>
<path d="M3.46314 25.4951C3.46314 25.4951 3.46167 25.5003 3.46094 25.5033C3.46167 25.5003 3.46241 25.4981 3.46314 25.4951Z" fill="black"/>
<path d="M3.47105 25.4678C3.47105 25.4678 3.46952 25.4731 3.46875 25.4754C3.46952 25.4731 3.47028 25.4701 3.47105 25.4678Z" fill="black"/>
<path d="M3.48439 25.4238C3.48439 25.4238 3.48292 25.4298 3.48145 25.4328C3.48218 25.4298 3.48292 25.4268 3.48439 25.4238Z" fill="black"/>
<path d="M6.51151 20.7212C6.57536 20.5479 6.63922 20.3754 6.7023 20.2021C6.69692 20.217 6.69153 20.2326 6.68538 20.2474C6.62768 20.4051 6.56998 20.5635 6.51074 20.7212H6.51151Z" fill="black"/>
<path d="M7.55473 18.0137C7.47241 18.1651 7.39933 18.3235 7.33086 18.4859C7.32086 18.5101 7.31086 18.5335 7.30086 18.5577C7.17238 18.8722 7.06391 19.1969 6.95312 19.5083C7.13007 19.0119 7.30239 18.4812 7.55473 18.0137Z" fill="black"/>
<path d="M7.57958 17.9707C7.57958 17.9707 7.57575 17.9775 7.57422 17.9806C7.57575 17.9775 7.57805 17.9737 7.57958 17.9707Z" fill="black"/>
<path d="M7.66768 17.8184C7.66768 17.8184 7.66462 17.8237 7.66309 17.826C7.66462 17.8237 7.66615 17.8206 7.66768 17.8184Z" fill="black"/>
<path d="M7.68386 17.793C7.68386 17.793 7.67926 17.7998 7.67773 17.8029C7.68003 17.7998 7.68233 17.796 7.68386 17.793Z" fill="black"/>
<path d="M7.7253 17.7285C7.72221 17.7332 7.71912 17.7372 7.7168 17.7419C7.71989 17.7372 7.72298 17.7332 7.7253 17.7285Z" fill="black"/>
<path d="M8.06208 17.3125C8.05285 17.3219 8.04362 17.3312 8.03439 17.3406C7.95823 17.4202 7.88745 17.5045 7.82129 17.5927C7.89514 17.4936 7.97515 17.3999 8.06208 17.3125Z" fill="black"/>
<path d="M8.13772 17.2393C8.11695 17.258 8.09617 17.2775 8.07617 17.2978C8.09617 17.2783 8.11695 17.2588 8.13772 17.2393Z" fill="black"/>
<path d="M8.21549 17.1709C8.21549 17.1709 8.20941 17.1755 8.20713 17.1778C8.19954 17.1847 8.19119 17.1909 8.18359 17.1978C8.19422 17.1886 8.20485 17.1794 8.21549 17.1709Z" fill="black"/>
<path d="M8.23282 17.1572C8.23282 17.1572 8.22669 17.1618 8.22363 17.1641C8.22669 17.1618 8.22976 17.1595 8.23282 17.1572Z" fill="black"/>
<path d="M8.32947 17.0811C8.31947 17.0881 8.31024 17.0951 8.30024 17.1029C8.28024 17.1185 8.26024 17.1341 8.24023 17.1497C8.26947 17.1263 8.2987 17.1037 8.32947 17.0811Z" fill="black"/>
<path d="M8.42222 17.0186C8.42222 17.0186 8.41418 17.0234 8.41016 17.0266C8.41418 17.0242 8.4182 17.0218 8.42222 17.0186Z" fill="black"/>
<path d="M8.46818 16.9883C8.46226 16.992 8.45635 16.9957 8.45117 16.9987C8.45709 16.995 8.463 16.9913 8.46818 16.9883Z" fill="black"/>
<path d="M8.51387 16.96C8.50747 16.9636 8.50178 16.9673 8.49609 16.9709C8.50249 16.9673 8.50818 16.9636 8.51387 16.96Z" fill="black"/>
<path d="M8.58243 16.9229C8.57652 16.9258 8.57134 16.9288 8.56543 16.9318C8.57061 16.9288 8.57652 16.9258 8.58243 16.9229Z" fill="black"/>
<path d="M8.60709 16.9102C8.60191 16.9131 8.596 16.9154 8.59082 16.9184C8.596 16.9154 8.60191 16.9124 8.60709 16.9102Z" fill="black"/>
<path d="M8.65384 16.8877C8.65384 16.8877 8.64579 16.8917 8.64258 16.8933C8.6466 16.8917 8.65062 16.8893 8.65384 16.8877Z" fill="black"/>
<path d="M8.70474 16.8633C8.69957 16.8655 8.69439 16.8678 8.68848 16.8707C8.69365 16.8685 8.69883 16.8655 8.70474 16.8633Z" fill="black"/>
<path d="M38.3941 14.5724C38.2556 14.3914 38.0241 14.2868 37.8379 14.1572C38.0233 14.2876 38.2556 14.3921 38.3933 14.5724H38.3941Z" fill="black"/>
<path d="M35.124 13.8211C35.3741 13.9678 35.6164 14.1263 35.8564 14.2902C35.6172 14.1263 35.3741 13.967 35.124 13.8203V13.8211Z" fill="black"/>
<path d="M37.7958 14.1265C37.0665 13.6637 36.4026 13.0932 35.6448 12.6795C35.1901 12.422 34.6647 12.3486 34.1946 12.1379C33.5115 11.4425 32.556 11.5377 31.6967 11.7414C31.6013 11.6665 31.509 11.597 31.4189 11.5322C31.509 11.5962 31.6013 11.6665 31.6967 11.7414C32.556 11.5377 33.5107 11.4425 34.1946 12.1379C34.6639 12.3486 35.1894 12.422 35.6448 12.6795C36.4026 13.0932 37.0665 13.6645 37.7958 14.1265Z" fill="black"/>
<path d="M34.5254 13.5742C34.7016 13.6281 34.8754 13.6874 35.0401 13.7732C34.8754 13.6882 34.7016 13.6281 34.5254 13.5742Z" fill="black"/>
<path d="M17.2272 13.2031C17.2272 13.2031 17.2218 13.2062 17.2188 13.2084C17.2218 13.2069 17.2241 13.2054 17.2272 13.2031Z" fill="black"/>
<path d="M17.4131 13.0818C17.4061 13.0865 17.3984 13.0912 17.3915 13.0959C17.3661 13.1131 17.3415 13.1294 17.3161 13.1451C17.2938 13.1599 17.2715 13.1739 17.2492 13.188C17.2446 13.1911 17.24 13.1934 17.2354 13.1966C17.2938 13.1599 17.3523 13.1209 17.4123 13.0811L17.4131 13.0818Z" fill="black"/>
<path d="M17.9564 12.6982C17.8156 12.8013 17.6787 12.9004 17.5448 12.9925C17.5194 13.0104 17.4932 13.0276 17.4679 13.0456C17.4656 13.0471 17.4632 13.0487 17.4609 13.0502C17.6202 12.9425 17.7856 12.8239 17.9564 12.699V12.6982Z" fill="black"/>
<path d="M19.1837 11.7803C19.1567 11.7998 19.1298 11.8201 19.1037 11.8396C18.9498 11.9535 18.7975 12.0683 18.6475 12.1814C18.8229 12.0488 19.0021 11.9145 19.1837 11.7811V11.7803Z" fill="black"/>
<path d="M27.9293 12.0736C27.9293 12.0736 27.9232 12.072 27.9209 12.0713C27.924 12.072 27.927 12.0728 27.9293 12.0736Z" fill="black"/>
<path d="M20.0802 11.1512C20.054 11.1683 20.0278 11.1855 20.0017 11.2027C19.9371 11.2456 19.8732 11.2893 19.8086 11.333C19.8986 11.2714 19.9886 11.2105 20.0794 11.1504L20.0802 11.1512Z" fill="black"/>
<path d="M20.2376 11.0488C20.2209 11.0596 20.2042 11.0696 20.1875 11.0803C20.2042 11.0696 20.2209 11.0588 20.2376 11.0488Z" fill="black"/>
<path d="M20.5935 10.832C20.5058 10.8828 20.4188 10.9358 20.3319 10.9897C20.3127 11.0022 20.2927 11.0139 20.2734 11.0264C20.3796 10.9592 20.4865 10.8937 20.5935 10.832Z" fill="black"/>
<path d="M29.967 10.9303C29.8947 10.9225 29.8201 10.9162 29.7432 10.9131C29.8201 10.917 29.8947 10.9225 29.967 10.931V10.9303Z" fill="black"/>
<path d="M28.9361 10.9192C28.6422 10.9356 28.3383 10.9527 28.1152 10.7725C28.2737 10.8997 28.4714 10.9286 28.6784 10.9286C28.7638 10.9286 28.8507 10.9239 28.9369 10.9184L28.9361 10.9192Z" fill="black"/>
<path d="M29.7188 10.9121C29.7244 10.9121 29.7308 10.9121 29.7365 10.9128C29.7308 10.9128 29.7244 10.9128 29.7188 10.9121Z" fill="black"/>
<path d="M21.1522 10.5342C21.1393 10.5403 21.1272 10.5465 21.1143 10.5526C21.1264 10.5465 21.1393 10.5403 21.1522 10.5342Z" fill="black"/>
<path d="M21.5709 10.3525C21.5278 10.3689 21.4847 10.3861 21.4424 10.4041C21.4855 10.3861 21.5285 10.3689 21.5709 10.3525Z" fill="black"/>
<path d="M21.8099 10.2686C21.8031 10.2709 21.7962 10.2732 21.79 10.2748C21.7969 10.2724 21.8038 10.2701 21.8099 10.2686Z" fill="black"/>
<path d="M19.2517 10.2236C19.2358 10.2352 19.2191 10.2459 19.2031 10.2575C19.2191 10.2459 19.235 10.2352 19.2517 10.2236Z" fill="black"/>
<path d="M22.1059 10.1865C22.0728 10.1943 22.0389 10.2021 22.0059 10.2115C22.0397 10.2029 22.0728 10.1943 22.1059 10.1865Z" fill="black"/>
<path d="M21.6175 9.0127C20.8297 9.22732 20.0743 9.65502 19.2842 10.2014C20.0735 9.65502 20.8297 9.22732 21.6175 9.0127Z" fill="black"/>
<path d="M26.6954 9.67749C26.6277 9.65798 26.5593 9.64159 26.4893 9.62598C26.5585 9.64081 26.6277 9.65798 26.6954 9.67749Z" fill="black"/>
<path d="M28.1203 17.1585C28.0695 17.1398 28.018 17.1202 27.9664 17.1015C27.9595 17.0992 27.9518 17.096 27.9449 17.0937C27.891 17.0734 27.8372 17.0531 27.7825 17.032C27.7441 17.0172 27.7048 17.0024 27.6664 16.9876C27.6264 16.9727 27.5871 16.9571 27.5471 16.9423C27.5133 16.929 27.4794 16.9158 27.4456 16.9025C27.241 16.8229 27.0379 16.7409 26.834 16.6582C27.2602 16.8315 27.6879 17 28.1195 17.1585H28.1203Z" fill="black"/>
<path d="M29.1259 16.8701C29.1175 16.8506 29.1082 16.8326 29.0967 16.8154C29.1082 16.8326 29.1175 16.8513 29.1259 16.8701Z" fill="black"/>
<path d="M29.0293 16.739C29.0293 16.739 29.0315 16.7405 29.0323 16.7413C29.0352 16.7435 29.0382 16.7465 29.0411 16.7487C29.0374 16.745 29.033 16.742 29.0293 16.7383V16.739Z" fill="black"/>
<path d="M28.9844 16.708C28.9844 16.708 28.9873 16.7095 28.9881 16.7102C28.991 16.7117 28.9932 16.7132 28.9962 16.7147C28.9925 16.7125 28.9881 16.7102 28.9844 16.708Z" fill="black"/>
<path d="M28.9531 16.6934C28.9531 16.6934 28.9592 16.6957 28.9615 16.6973C28.9631 16.6973 28.9654 16.6988 28.9669 16.6996C28.97 16.7011 28.9723 16.7019 28.9753 16.7035C28.9684 16.6996 28.9608 16.6965 28.9531 16.6934Z" fill="black"/>
<path d="M28.939 16.6884C27.625 16.2256 26.3441 15.6761 25.0608 15.1329C24.9878 15.1025 24.9139 15.0713 24.8408 15.04C24.9139 15.0713 24.9878 15.1017 25.0608 15.1329C26.3441 15.6761 27.625 16.2264 28.939 16.6884Z" fill="black"/>
<path d="M26.2555 16.4199C26.2309 16.4097 26.2063 16.3996 26.1816 16.3887C26.2478 16.416 26.314 16.4441 26.3801 16.4714C26.3386 16.4542 26.297 16.4371 26.2555 16.4199Z" fill="black"/>
<path d="M25.8502 16.2497C25.7825 16.2216 25.7156 16.1927 25.6479 16.1638C25.6194 16.1521 25.591 16.1396 25.5625 16.1279C25.6864 16.1802 25.8102 16.2325 25.9333 16.2848C25.9056 16.2731 25.8779 16.2614 25.8502 16.2497Z" fill="black"/>
<path d="M24.5709 15.71C24.4463 15.6569 24.3217 15.6046 24.1978 15.5516C24.1863 15.5469 24.1747 15.5414 24.1624 15.5367C24.0362 15.4829 23.9101 15.429 23.7847 15.3744C23.7831 15.3744 23.7808 15.3729 23.7793 15.3721C24.1778 15.5438 24.5763 15.7131 24.9763 15.8817C24.8409 15.8247 24.7063 15.7678 24.5709 15.7108V15.71Z" fill="black"/>
<path d="M24.5703 14.9246C24.5849 14.9309 24.5995 14.9371 24.6149 14.9433C24.6265 14.9488 24.6388 14.9535 24.6503 14.9582C24.6234 14.9465 24.5972 14.9355 24.5703 14.9238V14.9246Z" fill="black"/>
<path d="M21.959 14.5613C21.9382 14.5519 21.9182 14.5426 21.8975 14.5332C21.9175 14.5426 21.9382 14.5519 21.9582 14.5613H21.959Z" fill="black"/>
<path d="M21.3057 14.2549C21.3634 14.2822 21.4203 14.3087 21.478 14.3361C21.4211 14.3087 21.3634 14.2814 21.3057 14.2549Z" fill="black"/>
<path d="M21.2559 14.2314C21.2703 14.2384 21.2847 14.2445 21.2984 14.2514C21.284 14.2445 21.2695 14.2384 21.2559 14.2314Z" fill="black"/>
<path d="M21.215 14.2133C21.2104 14.2109 21.2058 14.2094 21.2012 14.207C21.2104 14.2117 21.2195 14.2156 21.2287 14.2203C21.2241 14.2179 21.2195 14.2156 21.2142 14.2133H21.215Z" fill="black"/>
<path d="M22.2158 13.8887C22.2203 13.8909 22.224 13.8924 22.2284 13.8939C22.224 13.8917 22.2203 13.8902 22.2158 13.8887Z" fill="black"/>
<path d="M21.9092 13.75C21.9136 13.7522 21.9181 13.7545 21.9232 13.756C21.9188 13.7537 21.9144 13.7515 21.9092 13.75Z" fill="black"/>
<path d="M20.1544 13.7279C19.9659 13.6428 19.7766 13.5577 19.5882 13.4719C19.5089 13.436 19.4305 13.4001 19.352 13.3642C19.3128 13.3462 19.2735 13.3283 19.2343 13.3103C19.2197 13.3033 19.205 13.2971 19.1904 13.29C19.5282 13.4454 19.8674 13.5983 20.2059 13.7513C20.189 13.7435 20.1713 13.7357 20.1544 13.7279Z" fill="black"/>
<path d="M19.0487 13.2244C19.0087 13.2056 18.9687 13.1877 18.9287 13.1689C18.9733 13.19 19.0187 13.2111 19.0633 13.2314C19.0587 13.229 19.0533 13.2267 19.0487 13.2244Z" fill="black"/>
<path d="M18.8807 13.1466C18.8176 13.1169 18.7545 13.0873 18.6914 13.0576C18.766 13.0927 18.8407 13.1279 18.916 13.163C18.9045 13.1575 18.8922 13.1521 18.8807 13.1466Z" fill="black"/>
<path d="M18.2685 12.8533C18.2284 12.8338 18.1884 12.8142 18.1484 12.7939C18.2308 12.8345 18.3138 12.8751 18.3969 12.9157C18.3538 12.8946 18.3115 12.8743 18.2685 12.8533Z" fill="black"/>
<path d="M18.1015 12.7718C18.0661 12.7539 18.0307 12.7367 17.9961 12.7188C18.043 12.7422 18.09 12.7656 18.1369 12.789C18.1253 12.7835 18.1138 12.7773 18.1015 12.7718Z" fill="black"/>
<path d="M18.6064 12.2119C18.6216 12.2188 18.6361 12.2258 18.6512 12.2334C18.6361 12.2265 18.6216 12.2196 18.6064 12.2119Z" fill="black"/>
<path d="M7.92308 20.5455C7.91462 20.5455 7.90539 20.5439 7.89693 20.5439C7.89385 20.5439 7.89077 20.5439 7.8877 20.5439C7.90847 20.5455 7.92924 20.5471 7.95078 20.5486C7.94155 20.5486 7.93308 20.5471 7.92385 20.5471L7.92308 20.5455Z" fill="black"/>
<path d="M7.83439 20.538C7.81131 20.5357 7.789 20.5334 7.76592 20.531C7.74515 20.5287 7.72438 20.5263 7.70438 20.5232C7.69822 20.5232 7.69207 20.5217 7.68591 20.5209C7.66591 20.5185 7.64591 20.5154 7.62668 20.5123C7.60821 20.5092 7.59052 20.506 7.57282 20.5037C7.56359 20.5021 7.55513 20.5006 7.5459 20.499C7.64514 20.517 7.74592 20.5302 7.84747 20.5396C7.84362 20.5396 7.83901 20.5388 7.83439 20.538Z" fill="black"/>
<path d="M7.35155 20.457C7.32924 20.4515 7.30693 20.4453 7.28385 20.4391C7.27231 20.4359 7.26154 20.4328 7.25 20.4297C7.2977 20.4437 7.34539 20.4562 7.39309 20.4671C7.37924 20.464 7.36463 20.4601 7.35078 20.457H7.35155Z" fill="black"/>
<path d="M7.14506 19.6199C7.13968 19.6176 7.13429 19.6145 7.12891 19.6113C7.13429 19.6145 7.13968 19.6168 7.14506 19.6199Z" fill="black"/>
<path d="M19.5193 15.5509C19.6655 15.5189 19.8124 15.4908 19.9594 15.4658C19.8117 15.4908 19.6647 15.5189 19.5185 15.5509C16.3759 16.2697 13.8718 18.5097 10.9707 19.8099C13.8718 18.5089 16.3759 16.2697 19.5185 15.5509H19.5193Z" fill="black"/>
<path d="M7.11426 19.6045C7.11426 19.6045 7.1223 19.6085 7.12632 19.6109C7.1223 19.6085 7.11828 19.6069 7.11426 19.6045Z" fill="black"/>
<path d="M7.01465 19.5479C7.02376 19.5532 7.03211 19.5586 7.04122 19.564C7.04578 19.5663 7.04958 19.5686 7.05413 19.5717C7.04122 19.564 7.02756 19.5563 7.01465 19.5486V19.5479Z" fill="black"/>
<path d="M6.96289 19.5146C6.96289 19.5146 6.97013 19.5195 6.97334 19.5211C6.97013 19.5187 6.96611 19.5163 6.96289 19.5146Z" fill="black"/>
<path d="M14.4649 17.0075C14.5418 16.963 14.618 16.9193 14.6941 16.8756C14.6964 16.874 14.698 16.8732 14.7003 16.8717C14.7772 16.8272 14.8541 16.7842 14.9311 16.7405C14.9834 16.7109 15.0357 16.6812 15.088 16.6523C14.8703 16.7741 14.6503 16.8998 14.4287 17.0285C14.441 17.0215 14.4533 17.0145 14.4656 17.0075H14.4649Z" fill="black"/>
<path d="M15.392 16.4843C15.4305 16.4632 15.4682 16.4429 15.5067 16.4218C15.5428 16.4023 15.579 16.3828 15.6159 16.3633C15.5051 16.4226 15.3936 16.4827 15.2812 16.5443C15.3182 16.5241 15.3551 16.5038 15.392 16.4835V16.4843Z" fill="black"/>
<path d="M15.9939 16.1663C16.0516 16.1367 16.1086 16.1078 16.1663 16.0781C16.0632 16.1304 15.9593 16.1835 15.8555 16.2373C15.9016 16.2131 15.9478 16.1897 15.9939 16.1663Z" fill="black"/>
<path d="M16.5307 15.8993C16.5684 15.8814 16.606 15.8634 16.6445 15.8455C16.6614 15.8377 16.6784 15.8291 16.6961 15.8213C16.5568 15.8861 16.4176 15.9532 16.2783 16.0227C16.3622 15.9813 16.4468 15.9399 16.5307 15.9001V15.8993Z" fill="black"/>
<path d="M16.7574 15.7925C16.7843 15.7801 16.8105 15.7683 16.8374 15.7559C16.7928 15.7762 16.7489 15.7964 16.7051 15.8167C16.7228 15.8082 16.7405 15.8003 16.7582 15.7925H16.7574Z" fill="black"/>
<path d="M16.8708 15.7407C17.1185 15.6283 17.367 15.5222 17.6163 15.4238C17.3601 15.5253 17.1062 15.6338 16.8516 15.7501C16.8577 15.7469 16.8646 15.7438 16.8708 15.7415V15.7407Z" fill="black"/>
<path d="M20.2449 15.4219C20.1718 15.432 20.0987 15.4429 20.0264 15.4547C20.0995 15.4429 20.1718 15.432 20.2449 15.4219Z" fill="black"/>
<path d="M20.3694 15.4053C20.3579 15.4068 20.3463 15.4084 20.3348 15.41C20.311 15.4131 20.2863 15.4162 20.2617 15.4201C20.2971 15.4154 20.3333 15.4107 20.3687 15.4061L20.3694 15.4053Z" fill="black"/>
<path d="M17.7655 15.3656C17.847 15.3344 17.9293 15.3039 18.0116 15.2743C18.0393 15.2641 18.0678 15.254 18.0955 15.2446C18.114 15.2376 18.1317 15.2313 18.1501 15.2251C18.1886 15.2118 18.2278 15.1978 18.2663 15.1853C18.2971 15.1744 18.3278 15.1642 18.3586 15.1548C18.3863 15.1455 18.414 15.1361 18.4417 15.1275C18.4517 15.1244 18.4617 15.1213 18.4709 15.1182C18.2009 15.2048 17.9332 15.3008 17.667 15.4046C17.7001 15.3921 17.7324 15.3788 17.7655 15.3664V15.3656Z" fill="black"/>
<path d="M20.5673 15.3818C20.545 15.3842 20.5219 15.3865 20.4996 15.3896C20.4819 15.392 20.465 15.3935 20.4473 15.3959C20.4873 15.3912 20.5273 15.3865 20.5673 15.3818Z" fill="black"/>
<path d="M20.7396 15.3633C20.6919 15.368 20.6434 15.3726 20.5957 15.3781C20.6434 15.3726 20.6911 15.368 20.7396 15.3633Z" fill="black"/>
<path d="M20.8847 15.3506C20.8662 15.3521 20.8485 15.3537 20.8301 15.3553C20.8047 15.3576 20.7793 15.36 20.7539 15.3623C20.7978 15.3584 20.8416 15.3545 20.8847 15.3506Z" fill="black"/>
<path d="M21.1946 15.3281C21.1831 15.3281 21.1723 15.3297 21.1608 15.3305C21.1446 15.3312 21.1285 15.3328 21.1123 15.3336C21.14 15.332 21.1669 15.3297 21.1946 15.3281Z" fill="black"/>
<path d="M22.2099 15.3007C22.1922 15.3007 22.1745 15.3007 22.156 15.3007C21.9075 15.3007 21.6575 15.3053 21.409 15.3163C21.3967 15.3163 21.3844 15.3178 21.3721 15.3178C21.6513 15.3046 21.9306 15.2991 22.2099 15.2999V15.3007Z" fill="black"/>
<path d="M22.9245 15.3154C22.8845 15.3139 22.8437 15.3131 22.8037 15.3115C22.8522 15.3131 22.9014 15.3146 22.9499 15.3162C22.9414 15.3162 22.933 15.3162 22.9237 15.3154H22.9245Z" fill="black"/>
<path d="M22.541 15.3053C22.5025 15.3053 22.4633 15.3037 22.4241 15.3037C22.421 15.3037 22.4171 15.3037 22.4141 15.3037C22.4633 15.3037 22.5118 15.3053 22.561 15.3061C22.5541 15.3061 22.5479 15.3061 22.541 15.3061V15.3053Z" fill="black"/>
<path d="M18.5912 15.0798C18.6297 15.0673 18.6689 15.0556 18.7081 15.0439C18.7428 15.0338 18.7774 15.0228 18.8128 15.0135C18.8566 15.001 18.9005 14.9885 18.9451 14.976C18.9835 14.9651 19.0228 14.9549 19.062 14.944C19.1013 14.9339 19.1413 14.9229 19.1805 14.9136C19.2205 14.9034 19.2597 14.8933 19.2997 14.8839C19.3267 14.8777 19.3528 14.8706 19.3797 14.8652C19.3982 14.8605 19.4159 14.8566 19.4344 14.8519C19.4698 14.8441 19.5051 14.8363 19.5405 14.8285C19.5759 14.8207 19.6105 14.8129 19.6467 14.8059C19.7321 14.7871 19.8183 14.77 19.9052 14.7543C19.946 14.7465 19.9867 14.7395 20.0275 14.7325C20.0683 14.7255 20.1098 14.7184 20.1506 14.7114C20.1798 14.7067 20.2098 14.7021 20.2391 14.6974C20.2545 14.695 20.2706 14.6927 20.2868 14.6903C20.3245 14.6849 20.3622 14.6794 20.3991 14.674C20.4406 14.6677 20.4829 14.6622 20.5245 14.6568C20.5653 14.6513 20.6053 14.6466 20.646 14.642C20.6483 14.642 20.6507 14.642 20.6522 14.6412C20.6868 14.6373 20.7214 14.6334 20.756 14.6295C20.7691 14.6279 20.7822 14.6263 20.7953 14.6256C20.8222 14.6224 20.8499 14.6201 20.8768 14.6178C20.8907 14.6162 20.9038 14.6146 20.9176 14.6139C20.9507 14.6107 20.983 14.6076 21.0161 14.6053C21.0192 14.6053 21.0215 14.6053 21.0245 14.6045C20.1444 14.6786 19.3228 14.8503 18.5273 15.1009C18.5481 15.0946 18.5697 15.0876 18.5904 15.0814L18.5912 15.0798Z" fill="black"/>
<path d="M21.0404 14.6011C21.0766 14.598 21.1135 14.5957 21.1504 14.5926C21.1589 14.5918 21.1666 14.591 21.175 14.591C21.2143 14.5879 21.2535 14.5855 21.2927 14.5832H21.295C21.3381 14.5809 21.3812 14.5785 21.4251 14.5762C21.295 14.5824 21.1658 14.591 21.0381 14.6019C21.0389 14.6019 21.0396 14.6019 21.0404 14.6019V14.6011Z" fill="black"/>
<path d="M21.5181 14.5711C21.5381 14.5695 21.5581 14.5695 21.5789 14.5687C21.6158 14.5672 21.6527 14.5664 21.6904 14.5648C21.725 14.5641 21.7597 14.5633 21.7951 14.5625C21.8027 14.5625 21.8104 14.5625 21.8181 14.5625C21.6858 14.5648 21.555 14.5687 21.4258 14.575C21.4566 14.5734 21.4873 14.5719 21.5181 14.5711Z" fill="black"/>
<path d="M21.8547 14.5623C21.8893 14.5623 21.9239 14.5615 21.9586 14.5615C21.9155 14.5615 21.8724 14.5615 21.8301 14.5631C21.8385 14.5631 21.847 14.5631 21.8555 14.5631L21.8547 14.5623Z" fill="black"/>
<path d="M10.2705 23.317C10.015 22.357 9.32958 21.621 8.47949 21.1816C8.61335 21.2511 8.74337 21.3276 8.86876 21.4119C8.91031 21.44 8.95108 21.4689 8.99185 21.4977C9.13341 21.6015 9.26727 21.7139 9.39267 21.8357C9.41036 21.8528 9.42806 21.8708 9.44575 21.8887C9.63808 22.0846 9.80733 22.3024 9.94657 22.5404C9.97196 22.5834 9.99658 22.6278 10.0197 22.6723C10.1251 22.8737 10.2097 23.0883 10.2697 23.3154C10.272 23.3287 10.2758 23.3428 10.2789 23.3568C10.2812 23.3693 10.2851 23.381 10.2874 23.3943C10.3005 23.4489 10.3158 23.5098 10.332 23.5738C10.332 23.5738 10.332 23.5746 10.332 23.5753C10.3082 23.4786 10.2843 23.3896 10.2697 23.3154L10.2705 23.317Z" fill="black"/>
<path d="M9.49512 23.2402C9.50281 23.2597 9.5105 23.2793 9.51743 23.2996C9.5105 23.28 9.50281 23.2597 9.49512 23.2402Z" fill="black"/>
<path d="M6.51074 20.7205C6.98695 20.7111 7.46854 20.7892 7.9232 20.9445C7.99475 20.9687 8.06553 20.9952 8.13553 21.0241C8.18246 21.0428 8.22862 21.0623 8.27478 21.0834C8.29786 21.0935 8.32094 21.1045 8.34402 21.1154C8.38864 21.1365 8.43326 21.1583 8.47711 21.181C7.8732 20.8696 7.1862 20.708 6.51074 20.7205Z" fill="black"/>
<path d="M35.9781 15.1041C35.9742 15.1025 35.9704 15.1002 35.9658 15.0986C35.9735 15.1025 35.9804 15.1056 35.988 15.1095C35.985 15.108 35.9811 15.1064 35.9781 15.1049V15.1041Z" fill="black"/>
<path d="M30.5703 14.8926C30.5703 14.8926 30.5757 14.8956 30.5787 14.8971C30.5757 14.8956 30.5734 14.8941 30.5703 14.8926Z" fill="black"/>
<path d="M32.4433 14.8613C32.3879 14.8723 32.3325 14.8832 32.2764 14.8941C32.3318 14.8832 32.3871 14.8723 32.4433 14.8613Z" fill="black"/>
<path d="M30.5381 14.873C30.5381 14.873 30.5434 14.8761 30.5457 14.8776C30.5434 14.8761 30.5404 14.8746 30.5381 14.873Z" fill="black"/>
<path d="M30.5254 14.8652C30.5254 14.8652 30.5307 14.869 30.5338 14.8706C30.5307 14.869 30.5285 14.8668 30.5254 14.8652Z" fill="black"/>
<path d="M30.5127 14.8555C30.5127 14.8555 30.5199 14.8603 30.524 14.8627C30.5199 14.8603 30.5167 14.8579 30.5127 14.8555Z" fill="black"/>
<path d="M30.4951 14.8418C30.5003 14.8455 30.5062 14.85 30.5114 14.8537C30.5055 14.85 30.5003 14.8455 30.4951 14.8418Z" fill="black"/>
<path d="M30.4844 14.834C30.4844 14.834 30.4916 14.8396 30.4956 14.842C30.4916 14.8396 30.4884 14.8364 30.4844 14.834Z" fill="black"/>
<path d="M30.2266 14.2734C30.2304 14.4888 30.3158 14.6988 30.4835 14.833C30.3158 14.6988 30.2304 14.4888 30.2273 14.2734H30.2266Z" fill="black"/>
<path d="M33.7554 14.7256C33.6777 14.7256 33.5992 14.7264 33.5215 14.7287C33.8438 14.7209 34.17 14.7287 34.4931 14.7591C34.2477 14.7357 34.0008 14.7256 33.7554 14.7256Z" fill="black"/>
<path d="M33.2907 14.7371C33.2607 14.7387 33.2307 14.741 33.2007 14.7434C33.1992 14.7434 33.1984 14.7434 33.1969 14.7434C33.1676 14.7457 33.1376 14.7488 33.1084 14.7519C33.1692 14.7457 33.2292 14.7402 33.29 14.7363L33.2907 14.7371Z" fill="black"/>
<path d="M33.329 14.7342C33.3381 14.7342 33.3465 14.7334 33.3556 14.7334C33.3465 14.7334 33.3381 14.7334 33.329 14.7342C33.3252 14.7342 33.3222 14.7342 33.3184 14.7342C33.3222 14.7342 33.326 14.7342 33.329 14.7342Z" fill="black"/>
<path d="M35.8559 14.2911C35.729 14.2482 35.5997 14.2123 35.4697 14.1826C35.5997 14.2131 35.729 14.2482 35.8559 14.2911Z" fill="black"/>
<path d="M34.0457 14.0052C33.898 13.9974 33.7502 13.995 33.6025 13.9989C33.6502 13.9981 33.6979 13.9974 33.7449 13.9974C33.8456 13.9974 33.9457 13.9997 34.0457 14.0052C34.5026 14.0372 34.965 14.0715 35.4127 14.1691C34.965 14.0715 34.5019 14.0372 34.0457 14.0052Z" fill="black"/>
<path d="M28.4269 14.187C28.2138 14.1885 28.0038 14.1573 27.8076 14.0645C27.9999 14.1558 28.2038 14.187 28.4123 14.1878C28.4177 14.1878 28.4223 14.1878 28.4277 14.1878L28.4269 14.187Z" fill="black"/>
<path d="M29.4896 14.0381C29.4165 14.0521 29.3426 14.0654 29.2695 14.0771C29.3434 14.0654 29.4165 14.0521 29.4903 14.0381H29.4896Z" fill="black"/>
<path d="M27.6055 13.9111C27.6153 13.9219 27.626 13.9327 27.6366 13.9434C27.626 13.9334 27.6153 13.9227 27.6055 13.9111Z" fill="black"/>
<path d="M31.1707 12.868C30.0929 13.1599 28.2934 13.6516 28.1719 13.3956C28.1957 13.4455 28.2834 13.4666 28.4173 13.4666C28.9689 13.4666 30.3044 13.1029 31.1714 12.8672L31.1707 12.868Z" fill="black"/>
<path d="M30.5746 12.4932C30.5687 12.4932 30.5635 12.4932 30.5576 12.4939C30.5635 12.4939 30.5687 12.4939 30.5746 12.4932Z" fill="black"/>
<path d="M25.1113 13.1504C25.1636 13.1613 25.2175 13.1676 25.2713 13.1683C25.2175 13.1683 25.1636 13.1613 25.1113 13.1504Z" fill="black"/>
<path d="M25.1025 13.1475C25.1025 13.1475 25.1079 13.149 25.111 13.149C25.1079 13.149 25.1056 13.1475 25.1025 13.1475Z" fill="black"/>
<path d="M26.8407 12.9766C26.8407 12.9766 26.8353 12.9773 26.833 12.9781C26.8353 12.9781 26.8384 12.9773 26.8407 12.9766Z" fill="black"/>
<path d="M25.4804 12.4434C25.4735 12.4434 25.4659 12.4434 25.459 12.4441C25.4659 12.4441 25.4735 12.4441 25.4804 12.4434Z" fill="black"/>
<path d="M25.5949 12.4375C25.5904 12.4375 25.5853 12.4375 25.5801 12.4382C25.5853 12.4382 25.5897 12.4382 25.5949 12.4375Z" fill="black"/>
<path d="M25.6234 12.4355C25.619 12.4355 25.6146 12.4355 25.6094 12.4363C25.6138 12.4363 25.6182 12.4363 25.6234 12.4355Z" fill="black"/>
<path d="M25.6468 12.4346C25.6428 12.4346 25.6388 12.4346 25.6348 12.4354C25.6388 12.4354 25.6428 12.4354 25.6468 12.4346Z" fill="black"/>
<path d="M25.6677 12.4326C25.6677 12.4326 25.6604 12.4326 25.6572 12.4334C25.6604 12.4334 25.6645 12.4334 25.6677 12.4326Z" fill="black"/>
<path d="M25.6918 12.4307C25.6877 12.4307 25.6837 12.4307 25.6797 12.4315C25.6837 12.4315 25.6877 12.4315 25.6918 12.4307Z" fill="black"/>
<path d="M25.7152 12.4277C25.7108 12.4277 25.7056 12.4285 25.7012 12.4292C25.7056 12.4292 25.7108 12.4285 25.7152 12.4277Z" fill="black"/>
<path d="M25.7667 12.4238C25.763 12.4238 25.7586 12.4246 25.7549 12.4253C25.7586 12.4253 25.763 12.4246 25.7667 12.4238Z" fill="black"/>
<path d="M25.7892 12.4219C25.7855 12.4219 25.7818 12.4226 25.7773 12.4234C25.781 12.4234 25.7847 12.4226 25.7892 12.4219Z" fill="black"/>
<path d="M25.8116 12.4199C25.8079 12.4199 25.8035 12.4207 25.7998 12.4214C25.8035 12.4214 25.8079 12.4207 25.8116 12.4199Z" fill="black"/>
<path d="M25.8337 12.417C25.8337 12.417 25.8265 12.417 25.8232 12.4178C25.8273 12.4178 25.8305 12.4178 25.8337 12.417Z" fill="black"/>
<path d="M25.8573 12.4141C25.8529 12.4141 25.8484 12.4148 25.8447 12.4156C25.8492 12.4156 25.8536 12.4148 25.8573 12.4141Z" fill="black"/>
<path d="M25.8873 12.4111C25.8829 12.4111 25.8785 12.4119 25.874 12.4126C25.8785 12.4126 25.8829 12.4119 25.8873 12.4111Z" fill="black"/>
<path d="M25.9105 12.4082C25.9065 12.4082 25.9025 12.409 25.8984 12.4098C25.9025 12.4098 25.9065 12.409 25.9105 12.4082Z" fill="black"/>
<path d="M25.4266 12.4014C25.4222 12.4036 25.4185 12.4058 25.4141 12.4073C25.4185 12.4051 25.4222 12.4029 25.4266 12.4014Z" fill="black"/>
<path d="M25.9327 12.4053C25.929 12.4053 25.9246 12.406 25.9209 12.4068C25.9246 12.4068 25.929 12.406 25.9327 12.4053Z" fill="black"/>
<path d="M25.9544 12.4023C25.9544 12.4023 25.9464 12.4031 25.9424 12.404C25.9464 12.404 25.9504 12.4031 25.9544 12.4023Z" fill="black"/>
<path d="M25.9761 12.4004C25.9761 12.4004 25.9689 12.4012 25.9648 12.402C25.9689 12.402 25.9721 12.4012 25.9761 12.4004Z" fill="black"/>
<path d="M26.0302 12.3926C26.025 12.3926 26.0198 12.3941 26.0146 12.3948C26.0198 12.3948 26.025 12.3933 26.0302 12.3926Z" fill="black"/>
<path d="M25.4584 12.3857C25.4584 12.3857 25.4503 12.3898 25.4463 12.3914C25.4503 12.3898 25.4543 12.3874 25.4584 12.3857Z" fill="black"/>
<path d="M26.0546 12.3896C26.0494 12.3896 26.0442 12.3911 26.0391 12.3919C26.0442 12.3919 26.0494 12.3904 26.0546 12.3896Z" fill="black"/>
<path d="M26.1769 12.3701C26.1461 12.3748 26.1145 12.3795 26.083 12.3842C26.1145 12.3795 26.1453 12.3748 26.1769 12.3701Z" fill="black"/>
<path d="M25.4877 12.3721C25.4877 12.3721 25.4816 12.3751 25.4785 12.3766C25.4816 12.3751 25.4846 12.3736 25.4877 12.3721Z" fill="black"/>
<path d="M27.9295 12.0742C27.3417 12.1328 26.7624 12.2795 26.1777 12.3708C26.7616 12.2795 27.3425 12.132 27.9295 12.0742Z" fill="black"/>
<path d="M25.5172 12.3574C25.5172 12.3574 25.5119 12.3597 25.5088 12.3612C25.5119 12.3597 25.5141 12.3589 25.5172 12.3574Z" fill="black"/>
<path d="M26.5095 11.2188C26.2071 11.3054 25.8948 11.4092 25.6094 11.5247C25.8948 11.4092 26.2064 11.3054 26.5087 11.2188H26.5095Z" fill="black"/>
<path d="M26.5435 11.208C26.5336 11.2103 26.5245 11.2134 26.5146 11.2165C26.5245 11.2134 26.5336 11.2111 26.5435 11.208Z" fill="black"/>
<path d="M23.3799 12.4463C23.392 12.4463 23.4042 12.4463 23.4163 12.4478C23.4042 12.4478 23.392 12.4471 23.3799 12.4463Z" fill="black"/>
<path d="M23.6052 12.4453C23.5982 12.4453 23.5921 12.4453 23.5852 12.4453C23.5652 12.4461 23.5452 12.4469 23.5244 12.4469C23.5198 12.4469 23.5144 12.4469 23.5098 12.4469C23.5413 12.4469 23.5736 12.4461 23.6052 12.4453Z" fill="black"/>
<path d="M21.615 12.0576C21.6666 12.099 21.7204 12.1357 21.7758 12.1677C21.7204 12.1349 21.6666 12.0982 21.6143 12.0576H21.615Z" fill="black"/>
<path d="M21.6025 12.0469C21.6062 12.0499 21.6107 12.0536 21.6151 12.0566C21.6107 12.0536 21.607 12.0499 21.6025 12.0469Z" fill="black"/>
<path d="M21.5889 12.0352C21.5889 12.0352 21.5961 12.0416 21.6001 12.0448C21.5961 12.0416 21.5921 12.0384 21.5889 12.0352Z" fill="black"/>
<path d="M21.5752 12.0244C21.5752 12.0244 21.5824 12.0309 21.5865 12.0341C21.5824 12.0309 21.5792 12.0276 21.5752 12.0244Z" fill="black"/>
<path d="M21.5625 12.0127C21.5625 12.0127 21.5697 12.0191 21.5738 12.0224C21.5697 12.0191 21.5665 12.0159 21.5625 12.0127Z" fill="black"/>
<path d="M21.3899 11.5889C21.386 11.7379 21.4368 11.8878 21.546 11.9986C21.436 11.8878 21.386 11.7379 21.3899 11.5889Z" fill="black"/>
<path d="M25.6096 11.5246C25.6004 11.523 25.5912 11.5223 25.582 11.5215C25.5912 11.5223 25.6004 11.5238 25.6088 11.5246H25.6096Z" fill="black"/>
<path d="M26.6648 11.0146C26.5302 11.017 26.3956 11.0232 26.2617 11.0287C26.3956 11.0232 26.5302 11.0178 26.6648 11.0146Z" fill="black"/>
<path d="M23.0933 10.6186C23.121 10.6139 23.1487 10.6085 23.1771 10.6038C23.2041 10.5991 23.2318 10.5944 23.2594 10.5897C23.2879 10.585 23.3164 10.5804 23.3456 10.5757C23.3741 10.571 23.4025 10.5663 23.431 10.5624C23.6872 10.5234 23.9488 10.4914 24.2049 10.4648C23.7495 10.5125 23.2771 10.5757 22.8486 10.667C22.9286 10.6498 23.011 10.6334 23.0933 10.6178V10.6186Z" fill="black"/>
<path d="M22.7302 12.8789C22.7302 12.8789 22.7257 12.8797 22.7234 12.8804C22.7113 12.8835 22.6983 12.8866 22.6862 12.8897C22.6824 12.8904 22.6786 12.8912 22.6748 12.892C22.6938 12.8881 22.712 12.8835 22.7302 12.8789Z" fill="black"/>
<path d="M22.8489 12.8438C22.8435 12.8453 22.8381 12.8477 22.8328 12.8492C22.8212 12.8531 22.8089 12.857 22.7966 12.8601C22.7866 12.8633 22.7766 12.8664 22.7658 12.8687C22.7612 12.8703 22.7566 12.8711 22.7512 12.8726C22.7481 12.8734 22.7451 12.8742 22.7412 12.8757C22.7789 12.8656 22.8151 12.8547 22.8481 12.8438H22.8489Z" fill="black"/>
<path d="M23.1271 12.7021C23.1271 12.7021 23.121 12.7068 23.1171 12.7092C23.1079 12.7162 23.0987 12.7224 23.0887 12.7287C23.0841 12.7318 23.0802 12.7349 23.0756 12.7373C23.0671 12.7427 23.0579 12.7482 23.0487 12.7537C23.0264 12.7669 23.0017 12.7802 22.9756 12.7927C23.0341 12.7646 23.0841 12.7341 23.1271 12.7021Z" fill="black"/>
<path d="M23.1916 12.6455C23.1871 12.6501 23.1825 12.6547 23.1772 12.6593C23.1719 12.6647 23.1666 12.6701 23.1605 12.6747C23.1574 12.677 23.1544 12.6801 23.1514 12.6824C23.1658 12.6701 23.1795 12.6578 23.1916 12.6455Z" fill="black"/>
<path d="M23.3093 12.4443C23.3055 12.4607 23.3001 12.4779 23.2932 12.4951C23.2909 12.5005 23.2885 12.506 23.2862 12.5115C23.2839 12.5169 23.2809 12.5224 23.2778 12.5286C23.2609 12.5622 23.2378 12.595 23.2085 12.627C23.2047 12.6309 23.2008 12.6356 23.1962 12.6395C23.1955 12.641 23.1939 12.6426 23.1924 12.6441C23.2555 12.5801 23.2932 12.5115 23.3085 12.4443H23.3093Z" fill="black"/>
<path d="M22.53 10.5249C21.8068 10.3321 20.9106 10.6927 20.6729 11.4435C20.9098 10.6927 21.8068 10.3321 22.53 10.5249Z" fill="black"/>
<path d="M22.8487 10.6682C22.7926 10.6191 22.7195 10.5777 22.6279 10.5488C22.6587 10.5582 22.6872 10.5699 22.7133 10.5816C22.7179 10.5839 22.7233 10.5863 22.7279 10.5886C22.7618 10.605 22.7926 10.6238 22.8187 10.644C22.8233 10.6472 22.8272 10.6503 22.8318 10.6542C22.838 10.6589 22.8433 10.6636 22.8487 10.6682Z" fill="black"/>
<path d="M22.6172 10.5459C22.6172 10.5459 22.6244 10.5483 22.6284 10.5491C22.6244 10.5483 22.6212 10.5467 22.6172 10.5459Z" fill="black"/>
<path d="M25.4462 14.1074C25.4417 14.1089 25.438 14.1104 25.4336 14.1111C25.438 14.1097 25.4417 14.1082 25.4462 14.1074Z" fill="black"/>
<path d="M25.4838 14.0947C25.4732 14.0986 25.4626 14.1024 25.4512 14.1063C25.4618 14.1024 25.4732 14.0986 25.4838 14.0947Z" fill="black"/>
<path d="M24.9358 13.4622C24.792 13.4653 24.6481 13.4458 24.5165 13.4083C24.6381 13.4434 24.772 13.4629 24.9051 13.4629C24.9151 13.4629 24.9251 13.4629 24.9358 13.4629V13.4622Z" fill="black"/>
<path d="M25.0118 13.458C24.9974 13.4595 24.9822 13.4603 24.9678 13.4611C24.9822 13.4611 24.9974 13.4595 25.0118 13.458Z" fill="black"/>
<path d="M25.0265 13.457C25.0228 13.457 25.0183 13.457 25.0146 13.4578C25.0183 13.4578 25.0228 13.4578 25.0265 13.457Z" fill="black"/>
<path d="M25.0414 13.4551C25.0373 13.4551 25.0333 13.4559 25.0293 13.4567C25.0333 13.4567 25.0373 13.4567 25.0414 13.4551Z" fill="black"/>
<path d="M25.057 13.4541C25.053 13.4541 25.0489 13.4549 25.0449 13.4557C25.0489 13.4557 25.053 13.4549 25.057 13.4541Z" fill="black"/>
<path d="M25.0884 13.4502C25.0786 13.4517 25.0694 13.4525 25.0596 13.454C25.0694 13.4533 25.0786 13.4517 25.0884 13.4502Z" fill="black"/>
<path d="M25.1169 13.4453C25.1169 13.4453 25.1097 13.4461 25.1064 13.4469C25.1097 13.4469 25.1137 13.4461 25.1169 13.4453Z" fill="black"/>
<path d="M25.1313 13.4424C25.1313 13.4424 25.1251 13.4439 25.1221 13.4439C25.1251 13.4439 25.1282 13.4431 25.1313 13.4424Z" fill="black"/>
<path d="M25.147 13.4395C25.147 13.4395 25.139 13.4411 25.1357 13.4419C25.1398 13.4419 25.1438 13.4403 25.147 13.4395Z" fill="black"/>
<path d="M25.1777 13.4336C25.1686 13.4359 25.1594 13.4375 25.1494 13.4398C25.1586 13.4383 25.1686 13.4359 25.1777 13.4336Z" fill="black"/>
<path d="M25.1921 13.4307C25.1921 13.4307 25.1849 13.4323 25.1816 13.4331C25.1849 13.4323 25.1889 13.4315 25.1921 13.4307Z" fill="black"/>
<path d="M25.2055 13.4268C25.2055 13.4268 25.1994 13.4283 25.1963 13.429C25.1994 13.429 25.2024 13.4275 25.2055 13.4268Z" fill="black"/>
<path d="M25.2184 13.4229C25.2184 13.4229 25.213 13.4244 25.21 13.4251C25.213 13.4251 25.2153 13.4236 25.2184 13.4229Z" fill="black"/>
<path d="M25.2351 13.4189C25.2351 13.4189 25.2286 13.4206 25.2246 13.4214C25.2278 13.4206 25.231 13.4198 25.2351 13.4189Z" fill="black"/>
<path d="M25.266 13.4102C25.266 13.4102 25.2579 13.4126 25.2539 13.4142C25.2579 13.4126 25.2619 13.4118 25.266 13.4102Z" fill="black"/>
<path d="M25.2779 13.4053C25.2779 13.4053 25.2718 13.4068 25.2695 13.4083C25.2726 13.4076 25.2757 13.4068 25.2779 13.4053Z" fill="black"/>
<path d="M25.2909 13.4004C25.2909 13.4004 25.2855 13.4019 25.2832 13.4027C25.2855 13.4019 25.2886 13.4012 25.2909 13.4004Z" fill="black"/>
<path d="M25.3045 13.3955C25.3045 13.3955 25.2992 13.397 25.2969 13.3985C25.2992 13.3978 25.3022 13.397 25.3045 13.3955Z" fill="black"/>
<path d="M25.3197 13.3906C25.3197 13.3906 25.3136 13.3929 25.3105 13.3937C25.3136 13.3929 25.3167 13.3914 25.3197 13.3906Z" fill="black"/>
<path d="M25.3348 13.3838C25.3304 13.3853 25.3267 13.3868 25.3223 13.389C25.3267 13.3875 25.3304 13.386 25.3348 13.3838Z" fill="black"/>
<path d="M25.349 13.3789C25.349 13.3789 25.3429 13.3812 25.3398 13.3827C25.3429 13.3812 25.346 13.3804 25.349 13.3789Z" fill="black"/>
<path d="M25.3612 13.373C25.3612 13.373 25.3558 13.3753 25.3535 13.3761C25.3558 13.3753 25.3589 13.3738 25.3612 13.373Z" fill="black"/>
<path d="M25.3739 13.3672C25.3739 13.3672 25.3685 13.3695 25.3662 13.371C25.3685 13.3695 25.3716 13.3687 25.3739 13.3672Z" fill="black"/>
<path d="M25.3883 13.3613C25.3883 13.3613 25.3829 13.3636 25.3799 13.3651C25.3829 13.3636 25.3852 13.3628 25.3883 13.3613Z" fill="black"/>
<path d="M25.4021 13.3545C25.4021 13.3545 25.3956 13.3577 25.3916 13.3593C25.3948 13.3577 25.3988 13.3561 25.4021 13.3545Z" fill="black"/>
<path d="M25.4175 13.3467C25.4175 13.3467 25.4103 13.3507 25.4062 13.3523C25.4103 13.3507 25.4135 13.3483 25.4175 13.3467Z" fill="black"/>
<path d="M26.4431 13.209C26.4431 13.209 26.4415 13.2129 26.4408 13.2144C26.4377 13.223 26.4339 13.2324 26.4308 13.241C26.4208 13.2652 26.41 13.2886 26.3977 13.3104C26.3946 13.3167 26.3908 13.3229 26.3877 13.3292C26.4092 13.2925 26.4285 13.2519 26.4431 13.209Z" fill="black"/>
<path d="M25.4781 13.3105C25.4781 13.3105 25.4728 13.3143 25.4697 13.3159C25.4728 13.3143 25.4751 13.3128 25.4781 13.3105Z" fill="black"/>
<path d="M26.4535 13.1768C26.4519 13.1823 26.4503 13.1871 26.4487 13.1919C26.4479 13.1951 26.4471 13.1975 26.4463 13.2006C26.4487 13.1927 26.4519 13.1847 26.4543 13.1768H26.4535Z" fill="black"/>
<path d="M26.4606 13.1523C26.4592 13.1567 26.4577 13.1618 26.457 13.1662C26.4585 13.1618 26.4599 13.1567 26.4606 13.1523Z" fill="black"/>
<path d="M23.4661 12.8672C23.4714 12.8274 23.4791 12.7884 23.4884 12.7494C23.4907 12.7392 23.493 12.7299 23.4953 12.7205C23.4953 12.7189 23.4961 12.7174 23.4968 12.7158C23.4837 12.765 23.473 12.8157 23.4661 12.8672C23.4607 12.9094 23.4576 12.9507 23.4561 12.9913C23.4568 12.9507 23.4607 12.9094 23.4661 12.8672Z" fill="black"/>
<path d="M23.5037 12.6928C23.5037 12.6928 23.5045 12.689 23.5052 12.6875C23.5045 12.6898 23.5037 12.6928 23.5029 12.6951C23.5029 12.6951 23.5029 12.6936 23.5029 12.6928H23.5037Z" fill="black"/>
<path d="M23.5529 12.5544C23.5567 12.5459 23.5606 12.5365 23.5644 12.5279C23.5675 12.5209 23.5706 12.5139 23.5744 12.5068C23.566 12.5248 23.5575 12.5427 23.5498 12.5607C23.5506 12.5583 23.5513 12.5568 23.5529 12.5544Z" fill="black"/>
<path d="M23.578 12.499C23.578 12.499 23.5757 12.5043 23.5742 12.5066C23.5757 12.5043 23.5765 12.5013 23.578 12.499Z" fill="black"/>
<path d="M27.7578 15.2314C27.763 15.2314 27.7682 15.2322 27.7733 15.2329C27.7682 15.2329 27.763 15.2329 27.7578 15.2314Z" fill="black"/>
<path d="M27.7412 15.2305C27.7456 15.2305 27.7508 15.2312 27.7553 15.232C27.7508 15.232 27.7456 15.2312 27.7412 15.2305Z" fill="black"/>
<path d="M27.7236 15.2285C27.7281 15.2285 27.7318 15.2293 27.7362 15.23C27.7318 15.23 27.7281 15.2293 27.7236 15.2285Z" fill="black"/>
<path d="M27.7031 15.2266C27.7083 15.2266 27.7135 15.2281 27.7194 15.2281C27.7142 15.2281 27.709 15.2266 27.7031 15.2266Z" fill="black"/>
<path d="M27.6865 15.2236C27.691 15.2236 27.6961 15.2251 27.7013 15.2259C27.6969 15.2259 27.6917 15.2244 27.6865 15.2236Z" fill="black"/>
<path d="M27.6689 15.2217C27.6734 15.2217 27.6778 15.2232 27.6823 15.2239C27.6778 15.2239 27.6734 15.2224 27.6689 15.2217Z" fill="black"/>
<path d="M27.6494 15.2188C27.6546 15.2195 27.6598 15.2202 27.6657 15.221C27.6605 15.2202 27.6553 15.2195 27.6494 15.2188Z" fill="black"/>
<path d="M27.6328 15.2148C27.6372 15.2156 27.6424 15.2163 27.6476 15.2171C27.6432 15.2163 27.638 15.2156 27.6328 15.2148Z" fill="black"/>
<path d="M27.6143 15.2119C27.6187 15.2127 27.6239 15.2134 27.6283 15.2149C27.6231 15.2142 27.6187 15.2134 27.6143 15.2119Z" fill="black"/>
<path d="M27.5957 15.208C27.6009 15.2095 27.6068 15.2102 27.612 15.211C27.6068 15.2102 27.6009 15.2088 27.5957 15.208Z" fill="black"/>
<path d="M27.5801 15.2051C27.5853 15.2066 27.5904 15.2073 27.5956 15.2081C27.5904 15.2073 27.5853 15.2058 27.5801 15.2051Z" fill="black"/>
<path d="M27.5273 15.1924C27.544 15.197 27.56 15.2008 27.5767 15.2047C27.56 15.2008 27.5433 15.197 27.5273 15.1924Z" fill="black"/>
<path d="M27.4766 15.1777C27.4925 15.1823 27.5092 15.1877 27.5259 15.1916C27.5092 15.187 27.4933 15.1823 27.4766 15.1777Z" fill="black"/>
<path d="M27.4268 15.1611C27.4427 15.1665 27.4586 15.1719 27.4754 15.1773C27.4586 15.1719 27.4427 15.1673 27.4268 15.1611Z" fill="black"/>
<path d="M26.8896 14.8086C27.0358 14.9639 27.2181 15.0872 27.4259 15.1606C27.2174 15.0872 27.0358 14.9639 26.8896 14.8086Z" fill="black"/>
<path d="M26.8672 14.7832C26.8748 14.7918 26.8817 14.7995 26.8894 14.8073C26.8817 14.7995 26.8741 14.791 26.8672 14.7832Z" fill="black"/>
<path d="M26.834 14.7461C26.8409 14.7547 26.8478 14.7624 26.8554 14.771C26.8485 14.7624 26.8409 14.7547 26.834 14.7461Z" fill="black"/>
<path d="M26.8232 14.7334C26.8265 14.7374 26.8297 14.7414 26.8337 14.7455C26.8305 14.7414 26.8273 14.7374 26.8232 14.7334Z" fill="black"/>
<path d="M26.8027 14.707C26.8096 14.7156 26.8158 14.7242 26.8226 14.7319C26.8158 14.7234 26.8089 14.7148 26.8027 14.707Z" fill="black"/>
<path d="M26.793 14.6943C26.793 14.6943 26.7986 14.7024 26.8018 14.7056C26.7986 14.7016 26.7962 14.6976 26.793 14.6943Z" fill="black"/>
<path d="M26.7725 14.667C26.7788 14.6757 26.7852 14.6845 26.7916 14.6925C26.7852 14.6837 26.7788 14.675 26.7725 14.667Z" fill="black"/>
<path d="M26.7627 14.6533C26.7627 14.6533 26.7683 14.6606 26.7707 14.6646C26.7683 14.6606 26.7651 14.6573 26.7627 14.6533Z" fill="black"/>
<path d="M26.7529 14.6387C26.756 14.6434 26.7591 14.6473 26.7622 14.6521C26.7591 14.6481 26.756 14.6434 26.7529 14.6387Z" fill="black"/>
<path d="M26.7441 14.626C26.7441 14.626 26.7498 14.634 26.7522 14.6381C26.7498 14.634 26.7466 14.63 26.7441 14.626Z" fill="black"/>
<path d="M29.0264 14.625C29.0264 14.625 29.0227 14.6309 29.0205 14.6339C29.0227 14.6309 29.0242 14.628 29.0264 14.625Z" fill="black"/>
<path d="M29.0325 14.6143C29.0325 14.6143 29.0296 14.6195 29.0273 14.6224C29.0288 14.6195 29.0303 14.6172 29.0325 14.6143Z" fill="black"/>
<path d="M26.7354 14.6123C26.7354 14.6123 26.7399 14.6191 26.7422 14.6222C26.7399 14.6191 26.7376 14.6153 26.7354 14.6123Z" fill="black"/>
<path d="M26.7256 14.5967C26.728 14.6007 26.7312 14.6055 26.7344 14.6096C26.7312 14.6055 26.7288 14.6007 26.7256 14.5967Z" fill="black"/>
<path d="M26.7168 14.584C26.7168 14.584 26.7206 14.5901 26.7229 14.5939C26.7206 14.5908 26.7191 14.5878 26.7168 14.584Z" fill="black"/>
<path d="M26.708 14.5703C26.708 14.5703 26.7117 14.5763 26.7132 14.5792C26.7117 14.5763 26.7095 14.5733 26.708 14.5703Z" fill="black"/>
<path d="M26.6992 14.5537C26.7016 14.5577 26.704 14.5626 26.7073 14.5666C26.7048 14.5626 26.7024 14.5577 26.6992 14.5537Z" fill="black"/>
<path d="M26.6914 14.541C26.6914 14.541 26.6951 14.547 26.6966 14.5499C26.6951 14.547 26.6929 14.544 26.6914 14.541Z" fill="black"/>
<path d="M26.6836 14.5273C26.6836 14.5273 26.6865 14.5333 26.6887 14.5363C26.6873 14.5333 26.6858 14.5303 26.6836 14.5273Z" fill="black"/>
<path d="M28.41 14.2666C28.1592 14.5694 27.663 14.5874 27.3868 14.3111C27.5176 14.4422 27.6976 14.507 27.8776 14.507C28.0777 14.507 28.2784 14.4266 28.4108 14.2666H28.41Z" fill="black"/>
<path d="M26.667 14.4971C26.667 14.4971 26.6699 14.503 26.6714 14.5052C26.6699 14.5023 26.6685 14.4993 26.667 14.4971Z" fill="black"/>
<path d="M26.6602 14.4844C26.6602 14.4844 26.6631 14.4896 26.6646 14.4926C26.6631 14.4896 26.6616 14.4873 26.6602 14.4844Z" fill="black"/>
<path d="M26.6514 14.4668C26.6538 14.4708 26.6554 14.4748 26.6578 14.4797C26.6554 14.4757 26.6538 14.4716 26.6514 14.4668Z" fill="black"/>
<path d="M26.6445 14.4531C26.6445 14.4531 26.6468 14.4584 26.6484 14.4607C26.6468 14.4584 26.6461 14.4554 26.6445 14.4531Z" fill="black"/>
<path d="M26.6377 14.4385C26.6377 14.4385 26.6399 14.4437 26.6414 14.4467C26.6399 14.4437 26.6384 14.4415 26.6377 14.4385Z" fill="black"/>
<path d="M26.6289 14.4219C26.6305 14.4259 26.6329 14.4307 26.6345 14.4348C26.6321 14.4307 26.6305 14.4259 26.6289 14.4219Z" fill="black"/>
<path d="M26.623 14.4072C26.623 14.4072 26.6253 14.4125 26.6269 14.4148C26.6253 14.4125 26.6246 14.4095 26.623 14.4072Z" fill="black"/>
<path d="M26.6172 14.3926C26.6172 14.3926 26.6194 14.3985 26.6209 14.4008C26.6194 14.3978 26.6187 14.3948 26.6172 14.3926Z" fill="black"/>
<path d="M26.6094 14.375C26.611 14.379 26.6126 14.3831 26.615 14.3879C26.6134 14.3839 26.6118 14.3798 26.6094 14.375Z" fill="black"/>
<path d="M26.6035 14.3613C26.6035 14.3613 26.6058 14.3667 26.6066 14.3689C26.6058 14.3667 26.6043 14.3636 26.6035 14.3613Z" fill="black"/>
<path d="M26.5977 14.3467C26.5977 14.3467 26.5999 14.3519 26.6006 14.3549C26.5999 14.3519 26.5984 14.3497 26.5977 14.3467Z" fill="black"/>
<path d="M26.5908 14.3291C26.5908 14.3291 26.593 14.3351 26.5945 14.338C26.593 14.3351 26.5923 14.3321 26.5908 14.3291Z" fill="black"/>
<path d="M26.5801 14.2998C26.5801 14.2998 26.5823 14.3058 26.583 14.308C26.5823 14.305 26.5808 14.302 26.5801 14.2998Z" fill="black"/>
<path d="M29.1162 14.168C29.1177 14.1742 29.1185 14.1805 29.1193 14.1867C29.1216 14.2007 29.1231 14.2148 29.1239 14.2288C29.1254 14.2507 29.1254 14.2726 29.1247 14.2944C29.1262 14.2515 29.1231 14.2086 29.1162 14.168Z" fill="black"/>
<path d="M27.4297 13.3994C27.185 13.5906 27.1304 14.0136 27.3704 14.2938C27.1304 14.0136 27.185 13.5914 27.4297 13.3994Z" fill="black"/>
<path d="M26.5742 14.2822C26.5742 14.2822 26.5764 14.2882 26.5772 14.2911C26.5764 14.2882 26.575 14.2852 26.5742 14.2822Z" fill="black"/>
<path d="M26.5693 14.2666C26.5693 14.2666 26.5708 14.2718 26.5723 14.2748C26.5715 14.2718 26.5708 14.2696 26.5693 14.2666Z" fill="black"/>
<path d="M26.5586 14.2334C26.5586 14.2334 26.561 14.2406 26.5618 14.2447C26.561 14.2406 26.5594 14.2374 26.5586 14.2334Z" fill="black"/>
<path d="M26.5547 14.2188C26.5547 14.2188 26.5562 14.2247 26.5569 14.2277C26.5562 14.2247 26.5554 14.2217 26.5547 14.2188Z" fill="black"/>
<path d="M26.541 14.1689C26.541 14.1689 26.5426 14.177 26.5442 14.181C26.5434 14.177 26.5418 14.173 26.541 14.1689Z" fill="black"/>
<path d="M29.1014 14.1082C29.1037 14.1144 29.1052 14.1207 29.1067 14.1269C29.1083 14.1332 29.1106 14.1402 29.1114 14.1464C29.1129 14.1527 29.1137 14.1582 29.1152 14.1644C29.1152 14.1644 29.1152 14.1652 29.1152 14.166C29.1114 14.1457 29.1067 14.1262 29.1006 14.1074L29.1014 14.1082Z" fill="black"/>
<path d="M26.5371 14.1504C26.5385 14.1548 26.5392 14.1599 26.5407 14.165C26.5392 14.1599 26.5385 14.1555 26.5371 14.1504Z" fill="black"/>
<path d="M26.5303 14.1191C26.531 14.1239 26.5318 14.1278 26.5334 14.1325C26.5326 14.1278 26.5318 14.1239 26.5303 14.1191Z" fill="black"/>
<path d="M26.5234 14.0859C26.5249 14.0959 26.5272 14.1066 26.5295 14.1166C26.5272 14.1066 26.5257 14.0959 26.5234 14.0859Z" fill="black"/>
<path d="M26.502 13.8178C26.502 13.8115 26.502 13.8045 26.502 13.7982C26.502 13.7982 26.502 13.7967 26.502 13.7959C26.4982 13.8927 26.5051 13.9895 26.5228 14.0839C26.5074 13.9965 26.4997 13.9075 26.502 13.8178Z" fill="black"/>
<path d="M26.5037 13.7784C26.5037 13.7675 26.5052 13.7558 26.506 13.7441C26.506 13.734 26.5075 13.723 26.5083 13.7129C26.506 13.7355 26.5045 13.7582 26.5029 13.7808C26.5029 13.78 26.5029 13.7792 26.5029 13.7784H26.5037Z" fill="black"/>
<path d="M26.5095 13.7031C26.5095 13.7031 26.5095 13.7091 26.5088 13.712C26.5088 13.7091 26.5088 13.7061 26.5095 13.7031Z" fill="black"/>
<path d="M26.5191 13.6367C26.5191 13.6367 26.5183 13.642 26.5176 13.6443C26.5176 13.642 26.5183 13.639 26.5191 13.6367Z" fill="black"/>
<path d="M26.5217 13.6189C26.5217 13.6189 26.5225 13.6126 26.5233 13.6094C26.5217 13.6181 26.5201 13.6261 26.5186 13.6348C26.5194 13.6293 26.5201 13.6245 26.5217 13.6189Z" fill="black"/>
<path d="M26.525 13.5983C26.5265 13.5906 26.528 13.5837 26.5295 13.576C26.5295 13.5737 26.5302 13.5707 26.531 13.5684C26.528 13.5806 26.5257 13.5937 26.5234 13.6059C26.5234 13.6036 26.5242 13.6006 26.525 13.5983Z" fill="black"/>
<path d="M26.5347 13.5587C26.5363 13.5509 26.5386 13.5431 26.5401 13.5353C26.5447 13.5166 26.5501 13.4978 26.5555 13.4791C26.5555 13.4791 26.5555 13.4783 26.5555 13.4775C26.547 13.5056 26.5394 13.5345 26.5332 13.5626C26.5332 13.5611 26.5332 13.5595 26.5347 13.5579V13.5587Z" fill="black"/>
<path d="M26.5638 13.451C26.5668 13.4418 26.5698 13.4326 26.5729 13.4242C26.5744 13.4196 26.5759 13.415 26.5774 13.4111C26.5721 13.4265 26.5668 13.4418 26.5615 13.4571C26.5615 13.4556 26.563 13.4533 26.563 13.4518L26.5638 13.451Z" fill="black"/>
<path d="M26.5936 13.3685C26.6006 13.3498 26.609 13.3318 26.6167 13.3139C26.6175 13.3115 26.619 13.31 26.6198 13.3076C26.6075 13.3342 26.5959 13.3607 26.5859 13.3872C26.5882 13.381 26.5906 13.3747 26.5936 13.3685Z" fill="black"/>
<path d="M26.6295 13.2881C26.6271 13.2921 26.6255 13.2961 26.623 13.3002C26.6247 13.2961 26.6271 13.2921 26.6295 13.2881Z" fill="black"/>
<path d="M26.6347 13.2793C26.6347 13.2793 26.6324 13.2846 26.6309 13.2869C26.6324 13.2846 26.6332 13.2816 26.6347 13.2793Z" fill="black"/>
<path d="M26.6396 13.2676C26.6396 13.2676 26.6373 13.2729 26.6357 13.2752C26.6373 13.2729 26.638 13.2699 26.6396 13.2676Z" fill="black"/>
<path d="M26.6881 13.1801C26.7104 13.1435 26.735 13.1068 26.7619 13.0709C26.7665 13.0646 26.7719 13.0576 26.7773 13.0514C26.7773 13.0514 26.7781 13.0506 26.7788 13.0498C26.745 13.0935 26.7142 13.138 26.6865 13.1833C26.6865 13.1825 26.6873 13.1817 26.6881 13.1801Z" fill="black"/>
<path d="M31.0753 16.0507C31.3077 16.0289 31.5531 15.9344 31.7608 15.79C31.5523 15.9344 31.3069 16.0289 31.0746 16.0507C30.9907 16.0601 30.9107 16.0648 30.833 16.0663C30.9107 16.0648 30.9907 16.0593 31.0746 16.0507H31.0753Z" fill="black"/>
<path d="M31.7866 15.7734C31.7866 15.7734 31.7794 15.7791 31.7754 15.7815C31.7794 15.7791 31.7826 15.7767 31.7866 15.7734Z" fill="black"/>
<path d="M31.7992 15.7637C31.7992 15.7637 31.7931 15.7682 31.79 15.7705C31.7931 15.7682 31.7962 15.766 31.7992 15.7637Z" fill="black"/>
<path d="M31.8123 15.7549C31.8123 15.7549 31.807 15.7587 31.8047 15.7602C31.807 15.7587 31.81 15.7564 31.8123 15.7549Z" fill="black"/>
<path d="M32.2775 14.8955C32.2875 15.1304 32.196 15.349 32.0468 15.5316C32.036 15.5449 32.0252 15.5573 32.0137 15.5698C32.1829 15.3802 32.2883 15.1476 32.2775 14.8955Z" fill="black"/>
<path d="M30.2753 15.2343C30.1399 15.1781 30.0568 15.0782 30.0176 14.9619C30.0568 15.079 30.1391 15.1781 30.2753 15.2343Z" fill="black"/>
<path d="M30.0363 14.5498C30.0363 14.5498 30.034 14.5551 30.0332 14.5574C30.034 14.5551 30.0355 14.5521 30.0363 14.5498Z" fill="black"/>
<path d="M30.056 14.502C30.0492 14.5173 30.0424 14.5319 30.0371 14.5472C30.0432 14.5319 30.0492 14.5165 30.056 14.502Z" fill="black"/>
<path d="M30.1659 14.333C30.122 14.383 30.0851 14.4399 30.0566 14.5008C30.0851 14.4399 30.1213 14.3822 30.1659 14.333Z" fill="black"/>
<path d="M29.323 14.4351C29.3261 14.4226 29.3291 14.4109 29.3322 14.3984C29.3276 14.4164 29.323 14.4343 29.3184 14.4523C29.3199 14.4468 29.3214 14.4406 29.3222 14.4351H29.323Z" fill="black"/>
<path d="M29.3648 14.2971C29.3671 14.2902 29.3701 14.2833 29.3723 14.2764C29.3693 14.2848 29.3663 14.2932 29.3633 14.3017C29.3633 14.3001 29.364 14.2986 29.3648 14.2971Z" fill="black"/>
<path d="M29.4411 14.1221C29.4358 14.1313 29.4313 14.1412 29.4268 14.1504C29.4313 14.1412 29.4366 14.1313 29.4411 14.1221Z" fill="black"/>
<path d="M29.4521 14.1025C29.4521 14.1025 29.449 14.1071 29.4482 14.1101C29.4498 14.1079 29.4513 14.1056 29.4521 14.1025Z" fill="black"/>
<path d="M29.4585 14.0908C29.4585 14.0908 29.4556 14.096 29.4541 14.099C29.4556 14.096 29.457 14.0938 29.4585 14.0908Z" fill="black"/>
<path d="M29.4644 14.0801C29.4644 14.0801 29.4614 14.0853 29.46 14.0883C29.4614 14.0853 29.4629 14.0831 29.4644 14.0801Z" fill="black"/>
<path d="M29.4885 14.0381C29.4809 14.0504 29.4734 14.0634 29.4658 14.0757C29.4734 14.0626 29.4809 14.0504 29.4885 14.0381Z" fill="black"/>
<path d="M26.9733 9.47559C26.9733 9.47559 26.9661 9.48122 26.9629 9.48364C26.9661 9.48122 26.9701 9.478 26.9733 9.47559Z" fill="black"/>
<path d="M27.5195 8.96094C27.3556 9.14357 27.1771 9.31215 26.9863 9.46512C27.1771 9.31293 27.3556 9.14357 27.5195 8.96094Z" fill="black"/>
<path d="M25.2067 9.1821C25.0798 8.82933 24.9613 8.45548 24.8975 8.08008C24.9613 8.45548 25.0798 8.82933 25.2067 9.18288V9.1821Z" fill="black"/>
<path d="M28.3921 8.99192C28.6591 8.56656 28.8214 8.08501 28.8068 7.55975C28.8022 6.12447 27.4013 4.9163 26.0057 5.12391C27.402 4.91709 28.803 6.12447 28.8068 7.55975C28.8214 8.08501 28.6599 8.56656 28.3921 8.99192Z" fill="black"/>
<path d="M27.5437 8.93359C27.536 8.94216 27.5291 8.95072 27.5215 8.9585C27.5291 8.94994 27.5368 8.94138 27.5437 8.93359Z" fill="black"/>
<path d="M27.5634 8.91113C27.5634 8.91113 27.5569 8.91838 27.5537 8.92241C27.5569 8.91838 27.5601 8.91516 27.5634 8.91113Z" fill="black"/>
<path d="M24.8916 8.04199C24.8916 8.04199 24.8932 8.05004 24.8932 8.05407C24.8932 8.05004 24.8916 8.04602 24.8916 8.04199Z" fill="black"/>
<path d="M24.8877 8.01953C24.8885 8.0259 24.8893 8.03227 24.8909 8.03864C24.8901 8.03227 24.8885 8.0259 24.8877 8.01953Z" fill="black"/>
<path d="M24.8838 7.99707C24.8838 8.00144 24.8852 8.00582 24.8859 8.01019C24.8859 8.00582 24.8845 8.00144 24.8838 7.99707Z" fill="black"/>
<path d="M24.8818 7.98047C24.8818 7.98047 24.8826 7.98579 24.8834 7.98807C24.8834 7.98503 24.8826 7.98275 24.8818 7.98047Z" fill="black"/>
<path d="M25.6563 5.97168C25.4455 6.07392 25.2601 6.23392 25.1201 6.45791C25.2601 6.23314 25.4455 6.07392 25.6563 5.97168Z" fill="black"/>
<path d="M26.785 9.40625C26.785 9.40625 26.7796 9.41005 26.7773 9.41233C26.7796 9.41005 26.7819 9.40853 26.785 9.40625Z" fill="black"/>
<path d="M27.6165 8.46875C27.4119 8.83011 27.1195 9.13761 26.791 9.40141C27.1195 9.13761 27.4119 8.83089 27.6165 8.46875Z" fill="black"/>
<path d="M25.167 8.88184C25.167 8.88586 25.1678 8.88989 25.1686 8.89391C25.1686 8.88989 25.1678 8.88586 25.167 8.88184Z" fill="black"/>
<path d="M25.1631 8.84863C25.1631 8.85421 25.1647 8.86057 25.1655 8.86615C25.1655 8.86057 25.1639 8.85421 25.1631 8.84863Z" fill="black"/>
<path d="M25.1592 8.81348C25.16 8.82144 25.1608 8.8294 25.1616 8.83656C25.1608 8.8286 25.16 8.82064 25.1592 8.81348Z" fill="black"/>
<path d="M27.6249 8.4541C27.6226 8.45883 27.6203 8.46276 27.6172 8.46749C27.6195 8.46276 27.6218 8.45883 27.6249 8.4541Z" fill="black"/>
<path d="M27.6469 8.41211C27.6401 8.42514 27.6326 8.43895 27.625 8.45198C27.6326 8.43895 27.6394 8.42514 27.6469 8.41211Z" fill="black"/>
<path d="M27.6558 8.39746C27.6558 8.39746 27.6518 8.40551 27.6494 8.40954C27.6518 8.40551 27.6534 8.40149 27.6558 8.39746Z" fill="black"/>
<path d="M27.6638 8.38086C27.6638 8.38086 27.6598 8.38811 27.6582 8.39213C27.6598 8.38811 27.6622 8.38489 27.6638 8.38086Z" fill="black"/>
<path d="M27.6843 8.33887C27.6843 8.33887 27.6812 8.34495 27.6797 8.34875C27.6812 8.34571 27.6827 8.34267 27.6843 8.33887Z" fill="black"/>
<path d="M27.6919 8.32324C27.6919 8.32324 27.689 8.32919 27.6875 8.33216C27.689 8.32919 27.6904 8.32622 27.6919 8.32324Z" fill="black"/>
<path d="M27.7009 8.30566C27.7009 8.30566 27.698 8.31087 27.6973 8.31384C27.6987 8.31087 27.7002 8.30864 27.7009 8.30566Z" fill="black"/>
<path d="M27.7107 8.28418C27.7107 8.28418 27.7067 8.29223 27.7051 8.29626C27.7067 8.29223 27.7091 8.28821 27.7107 8.28418Z" fill="black"/>
<path d="M27.7187 8.26465C27.7187 8.26465 27.7164 8.26997 27.7148 8.27225C27.7164 8.26997 27.7171 8.26693 27.7187 8.26465Z" fill="black"/>
<path d="M27.7273 8.24609C27.7273 8.24609 27.7251 8.2513 27.7236 8.25427C27.7251 8.2513 27.7258 8.24907 27.7273 8.24609Z" fill="black"/>
<path d="M27.8453 6.71367C27.8453 6.71367 27.8453 6.71367 27.8453 6.71289C28.0146 7.11249 27.9423 7.57999 27.8223 7.98818C27.9423 7.58077 28.0146 7.11327 27.8461 6.71367H27.8453Z" fill="black"/>
<path d="M26.4925 6.72869C26.6571 6.68889 26.8556 6.71386 27.0056 6.80284C26.9018 6.74118 26.7741 6.70996 26.651 6.70996C26.5964 6.70996 26.5425 6.7162 26.4917 6.72869C26.2917 6.78411 26.1479 6.94644 26.0479 7.12517C26.1486 6.94566 26.2917 6.78411 26.4925 6.72869Z" fill="black"/>
<path d="M26.6605 5.98955C26.8952 5.98955 27.1306 6.04809 27.3344 6.16125C27.3337 6.16047 27.3321 6.15969 27.3314 6.15891C26.9236 5.93414 26.3936 5.92867 25.9912 6.16672C26.1928 6.04731 26.4266 5.98955 26.6605 5.98955Z" fill="black"/>
<path d="M31.7605 11.2666C31.6544 11.3649 31.5397 11.4531 31.4189 11.532C31.5397 11.4531 31.6536 11.3649 31.7598 11.2666H31.7605Z" fill="black"/>
<path d="M31.7809 11.2471C31.7747 11.2533 31.7678 11.2595 31.7617 11.265C31.7678 11.2587 31.7747 11.2525 31.7809 11.2471Z" fill="black"/>
<path d="M31.7906 11.2383C31.7906 11.2383 31.7853 11.2436 31.7822 11.2459C31.7853 11.2436 31.7876 11.2406 31.7906 11.2383Z" fill="black"/>
<path d="M31.8059 11.2227C31.8059 11.2227 31.8008 11.2279 31.7979 11.2308C31.8008 11.2279 31.803 11.2256 31.8059 11.2227Z" fill="black"/>
<path d="M31.5322 9.5625C31.5322 9.5625 31.5361 9.56782 31.5376 9.5701C31.5361 9.56782 31.5338 9.56478 31.5322 9.5625Z" fill="black"/>
<path d="M30.4665 9.1123C30.4104 9.1123 30.355 9.11465 30.2988 9.11933C30.7566 9.08187 31.2235 9.19113 31.5328 9.56107C31.2612 9.2364 30.8681 9.1123 30.4665 9.1123Z" fill="black"/>
<path d="M30.8592 11.0289C30.9846 10.8447 31.0684 10.6426 31.0923 10.4248C31.0677 10.6426 30.9838 10.8455 30.8584 11.0297L30.8592 11.0289Z" fill="black"/>
<path d="M28.1481 10.5586C28.1481 10.5586 28.1427 10.5609 28.1396 10.5616C28.1427 10.5609 28.145 10.5594 28.1481 10.5586Z" fill="black"/>
<path d="M28.9531 10.291C28.6846 10.3636 28.4207 10.4549 28.1592 10.5548C28.42 10.4557 28.6839 10.3636 28.9531 10.291Z" fill="black"/>
<path d="M30.1162 9.42383C30.6132 9.48158 31.1132 9.8804 31.0925 10.4236C31.1132 9.87962 30.6132 9.48158 30.1162 9.42383Z" fill="black"/>
<path d="M29.0636 10.2627C29.0584 10.2642 29.0533 10.2649 29.0488 10.2664C29.054 10.2649 29.0592 10.2642 29.0636 10.2627Z" fill="black"/>
<path d="M29.114 10.251C29.114 10.251 29.1067 10.2526 29.1035 10.2534C29.1067 10.2526 29.1108 10.2518 29.114 10.251Z" fill="black"/>
<path d="M29.2957 10.2109C29.2957 10.2109 29.2904 10.2117 29.2881 10.2125C29.2904 10.2125 29.2934 10.2117 29.2957 10.2109Z" fill="black"/>
<path d="M29.3211 10.2061C29.3211 10.2061 29.3158 10.2068 29.3135 10.2076C29.3158 10.2076 29.3188 10.2068 29.3211 10.2061Z" fill="black"/>
<path d="M29.3883 10.1934C29.3883 10.1934 29.3829 10.1941 29.3799 10.1949C29.3822 10.1949 29.3852 10.1941 29.3883 10.1934Z" fill="black"/>
<path d="M29.4161 10.1895C29.4124 10.1895 29.4087 10.1909 29.4043 10.1917C29.408 10.1917 29.4117 10.1902 29.4161 10.1895Z" fill="black"/>
<path d="M29.4821 10.1777C29.4737 10.1793 29.4645 10.1801 29.4561 10.1816C29.4645 10.1801 29.4737 10.1785 29.4821 10.1777Z" fill="black"/>
<path d="M30.1113 10.1621C30.1165 10.1629 30.1209 10.1636 30.1261 10.1651C30.1217 10.1643 30.1165 10.1629 30.1113 10.1621Z" fill="black"/>
<path d="M29.8912 10.1445C29.8666 10.1445 29.8404 10.1445 29.8135 10.1461C29.9343 10.1414 30.0327 10.1477 30.1112 10.1617C30.0504 10.15 29.9773 10.1445 29.8912 10.1445Z" fill="black"/>
<path d="M29.257 9.48242C29.2518 9.48317 29.2466 9.48391 29.2422 9.48466C29.2474 9.48391 29.2525 9.48317 29.257 9.48242Z" fill="black"/>
<path d="M29.306 9.47461C29.3016 9.47461 29.2964 9.4761 29.292 9.47685C29.2964 9.4761 29.3016 9.47535 29.306 9.47461Z" fill="black"/>
<path d="M29.354 9.4668C29.3396 9.4691 29.3252 9.47141 29.3115 9.47372C29.326 9.47141 29.3404 9.4691 29.354 9.4668Z" fill="black"/>
<path d="M29.3961 9.46094C29.3917 9.46094 29.3872 9.46243 29.3828 9.46317C29.3872 9.46317 29.3917 9.46168 29.3961 9.46094Z" fill="black"/>
<path d="M29.4198 9.45801C29.4198 9.45801 29.4144 9.45801 29.4121 9.45877C29.4144 9.45877 29.4175 9.45877 29.4198 9.45801Z" fill="black"/>
<path d="M29.4403 9.45508C29.4403 9.45508 29.4349 9.45508 29.4326 9.45584C29.4349 9.45584 29.438 9.45584 29.4403 9.45508Z" fill="black"/>
<path d="M4.70783 31.2492C6.18723 29.988 8.14282 29.6017 9.93532 29.0062C11.504 28.5051 13.0541 27.9549 14.6251 27.4624C18.2339 26.3674 21.8628 24.9501 25.5116 23.93C29.9098 22.7726 34.2556 21.4348 38.5915 20.0612C42.7035 18.8718 46.9578 17.9375 51.2559 18.1053C51.6652 18.1311 52.0729 18.1764 52.4791 18.2357C52.773 18.3598 53.0407 18.5065 53.2708 18.6821C53.3285 18.2685 53.3408 17.8345 53.2192 17.4115C52.483 17.2492 51.7375 17.1313 50.9898 17.033C49.8104 16.8784 48.621 16.777 47.4309 16.7926C46.2716 16.8074 45.1153 16.9073 43.9651 17.0548C41.7903 17.3342 39.6301 17.7791 37.5052 18.3231C35.415 18.8585 33.3694 19.5484 31.3199 20.2196C29.2705 20.8908 27.2064 21.516 25.1547 22.1825C23.0144 22.8771 20.895 23.635 18.7624 24.3538C16.5976 25.0835 14.4112 25.7438 12.2556 26.5016C10.173 27.2337 8.11282 28.0321 6.10952 28.9664C5.55562 29.2247 5.00633 29.4908 4.47242 29.7905C4.07931 30.0114 3.70773 30.2666 3.3623 30.557C3.38846 31.2765 3.59079 32.0047 3.9239 32.6439C3.93929 32.683 3.95622 32.7228 3.97391 32.761C4.03315 32.1881 4.2901 31.6332 4.7086 31.2492H4.70783Z" fill="#BEBFC1"/>
<path d="M32.9764 14.0455C32.2978 14.0962 31.6047 14.3982 30.9277 14.2601C31.2277 13.8105 32.8225 13.567 33.3733 13.5163C33.6918 13.4968 34.0142 13.4866 34.3327 13.5171C34.5735 13.5873 34.815 13.656 35.0389 13.7723C35.3189 13.9323 35.5897 14.1079 35.8551 14.2905C35.2728 14.0938 34.6542 14.0486 34.0449 14.0057C33.6887 13.9861 33.3302 14.0025 32.9756 14.0455H32.9764ZM30.2753 15.2349C29.8729 15.0679 29.9353 14.5208 30.2261 14.2734C30.2307 14.5809 30.4015 14.8743 30.74 14.9586C31.0031 15.0234 31.2669 15.0312 31.5316 15.0101C31.2985 15.4175 30.6584 15.4136 30.2753 15.2349ZM28.8728 9.564C29.1644 9.4321 29.4614 9.31503 29.7706 9.22606C30.363 9.03562 31.1008 9.04577 31.5324 9.56166C31.9278 10.1572 31.42 10.7214 30.8592 11.0282C30.9846 10.844 31.0685 10.6418 31.0931 10.4233C31.1131 9.87931 30.6138 9.48127 30.1168 9.42352C29.6952 9.40478 29.2806 9.46176 28.8736 9.564H28.8728ZM31.17 12.8669C29.9068 13.2096 27.6504 13.8254 28.2697 13.1916C28.9328 12.7436 29.7576 12.5165 30.5523 12.4931C30.5653 12.4931 30.5784 12.4923 30.5907 12.4908C30.77 12.6211 30.9292 12.7639 31.17 12.8669ZM28.1143 10.7722C28.0789 10.7168 28.0427 10.6629 28.0066 10.613C28.4859 10.4249 28.9736 10.2547 29.4821 10.1774C30.6653 10.0081 30.4822 10.517 29.966 10.9306C29.7699 10.9087 29.5568 10.9033 29.3175 10.9142C28.9305 10.8807 28.4382 11.0336 28.1135 10.7729L28.1143 10.7722ZM27.3858 14.3108C27.128 14.0314 27.1796 13.5943 27.4288 13.3984C27.4196 13.6646 27.5304 13.9206 27.8066 14.0626C28.0035 14.1563 28.2128 14.1867 28.4266 14.1852C28.4213 14.2125 28.4166 14.239 28.4089 14.2663C28.1581 14.5691 27.6619 14.5871 27.3858 14.3108ZM25.3363 12.4471C25.951 12.1239 26.6641 11.9163 27.3281 11.7517C27.5004 11.9078 27.7066 12.0084 27.9281 12.0732C27.0603 12.1591 26.2079 12.44 25.3363 12.4471ZM26.6949 9.67717C26.6272 9.65766 26.5587 9.64049 26.4887 9.62566C27.0796 9.21669 27.6127 8.68831 27.8204 7.98823C27.9404 7.58005 28.0127 7.11255 27.8435 6.71295C28.2682 7.39586 28.1251 8.30588 27.5819 8.88889C27.3227 9.19016 27.0242 9.45864 26.6941 9.67795L26.6949 9.67717ZM25.9179 9.14957C25.8271 8.51505 25.7433 7.83292 25.9956 7.22571C26.0964 7.00952 26.2541 6.79411 26.491 6.72855C26.7934 6.65597 27.2104 6.80114 27.2304 7.15937C27.2865 8.04989 26.6018 8.70939 25.9171 9.15035L25.9179 9.14957ZM25.2063 9.18235C24.8901 8.3051 24.6293 7.30064 25.1201 6.45695C25.604 5.67882 26.6426 5.67804 27.3342 6.16037C26.8519 5.89267 26.1987 5.9317 25.7856 6.31881C25.2932 6.75197 25.1294 7.45127 25.1209 8.08813C25.1147 8.45573 25.1532 8.81943 25.2063 9.18157V9.18235ZM24.5162 13.4078C24.0269 13.2767 24.1092 12.7233 24.4893 12.5415C24.5231 12.8943 24.9047 13.1737 25.2932 13.1674C25.4094 13.1752 25.5263 13.1745 25.6425 13.1674C25.3778 13.4781 24.8916 13.5155 24.5162 13.4086V13.4078ZM23.9792 11.7056C23.3953 11.7368 22.7899 11.761 22.2237 11.5893C23.5323 11.1835 24.9039 11.1078 26.2618 11.0282C26.3956 11.0227 26.5303 11.0172 26.6649 11.0141C26.7157 11.0508 26.7642 11.0922 26.8095 11.1359C26.4203 11.2358 25.9902 11.3684 25.6094 11.5238C25.5763 11.5183 25.5417 11.5175 25.5071 11.5222C24.9993 11.5948 24.4908 11.665 23.9792 11.7048V11.7056ZM21.7767 12.1684C21.3828 12.0248 21.2982 11.7907 21.3897 11.5885C21.3859 11.7384 21.4359 11.8875 21.5459 11.9983C21.6182 12.0646 21.6951 12.1208 21.7767 12.1676V12.1684ZM20.6604 11.4871C20.4304 12.5704 21.7675 13.1588 22.6468 12.8982C23.0753 12.81 23.2668 12.6227 23.3092 12.4447C23.3515 12.4455 23.393 12.4471 23.4346 12.4486C23.4915 12.4486 23.5492 12.4478 23.6061 12.4463C23.5353 12.5743 23.4869 12.7163 23.4661 12.8677C23.3269 13.9487 24.637 14.4029 25.4848 14.0946C25.8717 13.9846 26.1795 13.7067 26.3726 13.354C26.4295 13.2681 26.4687 13.1573 26.4826 13.0465C26.6018 13.0238 26.7218 13.0012 26.8411 12.9778C25.9871 13.9268 26.8665 15.4792 28.1712 15.2052C28.5082 15.1319 28.8298 14.9282 29.0213 14.6355C29.1182 14.4864 29.1552 14.2726 29.1021 14.1087C29.1583 14.0985 29.2144 14.0884 29.2698 14.079C29.3437 14.0665 29.4167 14.054 29.4906 14.0392C28.979 14.8626 29.389 16.2339 31.0769 16.052C31.6516 15.9982 32.3047 15.5026 32.2786 14.8954C32.6294 14.8267 32.981 14.7518 33.3302 14.7354C34.1165 14.7003 34.9273 14.7541 35.6813 14.9937C35.8059 15.0195 35.929 15.0796 36.0513 15.1405C33.7395 15.7032 31.4185 16.2308 29.1275 16.8708C29.0921 16.788 29.0282 16.7193 28.9413 16.6889C27.6273 16.2261 26.3464 15.6766 25.0632 15.1334C22.8868 14.2203 20.742 13.2205 18.6079 12.2129C20.0704 11.1101 21.7782 9.83638 23.2122 10.1642C23.5515 10.236 23.8769 10.3562 24.2054 10.4662C23.75 10.5138 23.2769 10.577 22.8491 10.6691C22.7745 10.6044 22.6699 10.5521 22.5314 10.5255C21.7944 10.3289 20.8774 10.7074 20.662 11.4879L20.6604 11.4871ZM7.14434 19.6203C7.07895 19.5868 7.01432 19.5493 6.95278 19.5087C7.32051 18.4762 7.66824 17.2969 8.7599 16.8388C10.1454 16.2019 11.7179 16.1192 13.1073 15.4698C14.5159 14.9009 15.8476 14.1532 17.097 13.2837C17.3639 13.1229 17.6516 12.9216 17.9555 12.6991C19.1095 13.2814 20.3088 13.7824 21.4767 14.3374C21.6367 14.4131 21.7975 14.488 21.9582 14.5621C19.0687 14.5746 16.8592 15.6103 14.3459 17.0768C12.9488 17.908 11.5894 18.8336 10.0731 19.4276C9.14994 19.7562 8.08136 20.0504 7.14434 19.6211V19.6203ZM10.2701 23.3167C9.83309 21.6745 8.13983 20.6888 6.51042 20.72C6.57428 20.5475 6.63813 20.3743 6.70121 20.201C7.51669 20.6615 8.57065 20.617 9.46228 20.3766C13.0442 19.3089 15.846 16.3908 19.5195 15.5502C20.8997 15.2489 22.3475 15.2724 23.7361 15.352C24.3047 15.597 24.8747 15.8382 25.4455 16.0762C26.3303 16.4516 27.218 16.8263 28.1205 17.1572C27.4873 17.3445 26.8572 17.5427 26.2302 17.7542C22.5937 18.8875 19.0487 20.2783 15.4806 21.6074C13.7551 22.2373 12.0495 22.921 10.3339 23.5781C10.3093 23.4798 10.2854 23.39 10.2701 23.3159V23.3167ZM4.54175 26.188C4.6133 25.9351 4.68715 25.683 4.76793 25.4333C5.00334 24.7277 5.26721 24.0331 5.52801 23.3369C5.76342 22.7126 5.9996 22.089 6.23347 21.4646C7.61208 21.3241 9.14148 22.0429 9.56306 23.4361C9.62768 23.543 9.65076 23.685 9.66384 23.8341C7.93058 24.5217 6.10038 25.1383 4.54175 26.1888V26.188ZM3.92399 32.644C3.09775 31.0566 3.07544 28.9274 4.55175 27.7247C7.4736 25.58 11.1217 24.7738 14.4036 23.3463C19.7765 21.3561 25.1001 19.22 30.6392 17.7535C35.7382 16.7498 48.9912 12.0037 52.6646 16.4727C53.3339 17.1556 53.3732 17.9501 53.2709 18.6807C53.0408 18.5051 52.7731 18.3583 52.4792 18.2342C52.073 18.1757 51.6653 18.1297 51.256 18.1039C46.9579 17.9361 42.7036 18.8703 38.5916 20.0598C34.2557 21.4334 29.9106 22.7711 25.5117 23.9285C21.8629 24.9486 18.234 26.3667 14.6251 27.4609C13.0542 27.9542 11.504 28.5044 9.93541 29.0047C8.14291 29.6002 6.18731 29.9865 4.70792 31.2478C4.28941 31.6318 4.03246 32.1867 3.97323 32.7596C3.9563 32.7213 3.93938 32.6823 3.92322 32.6425L3.92399 32.644ZM3.17699 27.3462C1.36448 29.4972 2.05456 33.0358 4.05554 34.8723C11.7502 39.3116 20.6796 30.241 29.0598 30.6421C36.3198 31.0589 54.6441 26.7663 54.5487 18.0945C54.5564 17.0081 54.004 15.9951 53.2324 15.2692C49.7266 11.907 42.8151 13.702 38.3939 14.5723C38.2446 14.3772 37.9869 14.271 37.7953 14.1258C37.066 13.663 36.4021 13.0925 35.6443 12.6789C35.1889 12.4213 34.6642 12.3479 34.1942 12.138C33.511 11.4426 32.5555 11.5378 31.6962 11.7415C31.6001 11.6666 31.5085 11.5971 31.4185 11.5323C31.6855 11.3591 31.9209 11.1382 32.1063 10.8604C32.8964 9.71385 31.9124 8.46666 30.6807 8.39564C29.8714 8.36442 29.1182 8.64227 28.3912 8.99192C28.659 8.56656 28.8205 8.08501 28.8059 7.55975C28.8021 6.12447 27.4011 4.9163 26.0048 5.12391C24.8724 5.2402 24.1162 6.35705 24.1377 7.46376C24.1369 8.06472 24.2739 8.65709 24.4631 9.2245C22.4014 8.39095 20.8443 9.09416 19.0995 10.3304C16.8592 11.9148 14.6844 13.6279 12.0764 14.5286C10.8617 14.9992 9.53229 15.0967 8.34755 15.6462C7.35128 16.0864 6.57043 16.9293 6.20962 17.9704C5.82189 18.9749 5.468 19.9919 5.08796 20.9994C4.55867 22.43 3.98323 23.845 3.51549 25.2975C3.3947 25.8212 2.91696 26.8623 3.17545 27.3478L3.17699 27.3462Z" fill="#1B1B1B"/>
<path d="M21.777 12.1688C21.3832 12.0252 21.2985 11.791 21.3901 11.5889C21.3862 11.7387 21.4362 11.8878 21.5462 11.9986C21.6186 12.065 21.6955 12.1211 21.777 12.168V12.1688Z" fill="white"/>
<path d="M23.9792 11.7052C23.3953 11.7364 22.7898 11.7606 22.2236 11.5889C23.5322 11.183 24.9039 11.1073 26.2618 11.0277C26.3956 11.0223 26.5303 11.0168 26.6649 11.0137C26.7157 11.0504 26.7641 11.0917 26.8095 11.1354C26.4202 11.2353 25.9902 11.368 25.6094 11.5233C25.5763 11.5179 25.5417 11.5171 25.5071 11.5218C24.9993 11.5943 24.4908 11.6646 23.9792 11.7044V11.7052Z" fill="white"/>
<path d="M24.5165 13.4073C24.0273 13.2762 24.1096 12.7229 24.4896 12.541C24.5235 12.8938 24.9051 13.1732 25.2936 13.167C25.4097 13.1748 25.5267 13.174 25.6428 13.167C25.3789 13.4776 24.892 13.515 24.5165 13.4081V13.4073Z" fill="white"/>
<path d="M25.2066 9.18308C24.8904 8.30583 24.6296 7.30136 25.1204 6.45768C25.6043 5.67955 26.6429 5.67877 27.3345 6.1611C26.8522 5.8934 26.199 5.93242 25.7859 6.31953C25.2935 6.75269 25.1297 7.452 25.1212 8.08886C25.115 8.45646 25.1535 8.82016 25.2066 9.1823V9.18308Z" fill="white"/>
<path d="M26.6954 9.67809C26.6277 9.65858 26.5593 9.64141 26.4893 9.62658C27.0793 9.21761 27.6132 8.68924 27.8209 7.98915C27.941 7.58097 28.0133 7.11347 27.844 6.71387C28.2687 7.39678 28.1256 8.30681 27.5825 8.88982C27.3232 9.19108 27.0247 9.45956 26.6947 9.67887L26.6954 9.67809Z" fill="white"/>
<path d="M25.3369 12.4474C25.9516 12.1242 26.6647 11.9166 27.3287 11.752C27.501 11.908 27.7072 12.0087 27.9287 12.0735C27.0609 12.1594 26.2085 12.4403 25.3369 12.4474Z" fill="white"/>
<path d="M27.386 14.3118C27.1283 14.0324 27.1799 13.5953 27.4291 13.3994C27.4199 13.6656 27.5307 13.9215 27.8069 14.0636C28.0038 14.1573 28.2131 14.1877 28.4269 14.1861C28.4215 14.2134 28.4169 14.24 28.4092 14.2673C28.1584 14.5701 27.6622 14.5881 27.386 14.3118Z" fill="white"/>
<path d="M31.1699 12.8674C29.9066 13.21 27.6502 13.8258 28.2695 13.1921C28.9327 12.7449 29.7574 12.517 30.5521 12.4936C30.5652 12.4936 30.5782 12.4928 30.5906 12.4912C30.7698 12.6215 30.9291 12.7644 31.1699 12.8674Z" fill="white"/>
<path d="M28.873 9.56477C29.1646 9.43287 29.4616 9.3158 29.7708 9.22683C30.3632 9.03639 31.101 9.04654 31.5326 9.56243C31.928 10.1579 31.4202 10.7222 30.8594 11.0289C30.9848 10.8447 31.0687 10.6426 31.0933 10.4241C31.1133 9.88008 30.614 9.48204 30.117 9.42429C29.6954 9.40556 29.2808 9.46253 28.8738 9.56477H28.873Z" fill="white"/>
<path d="M30.2758 15.235C29.8734 15.068 29.9357 14.5208 30.2265 14.2734C30.2312 14.5809 30.402 14.8744 30.7404 14.9587C31.0036 15.0235 31.2674 15.0313 31.5321 15.0102C31.299 15.4176 30.6589 15.4137 30.2758 15.235Z" fill="white"/>
<path d="M32.9764 14.0457C32.2979 14.0964 31.6047 14.3985 30.9277 14.2603C31.2278 13.8108 32.8226 13.5673 33.3734 13.5165C33.6919 13.497 34.0142 13.4869 34.3327 13.5173C34.5735 13.5876 34.8151 13.6563 35.0389 13.7725C35.319 13.9325 35.5898 14.1081 35.8552 14.2908C35.2728 14.0941 34.6543 14.0488 34.045 14.0059C33.6888 13.9864 33.3303 14.0028 32.9756 14.0457H32.9764Z" fill="white"/>
<path fill-rule="evenodd" clip-rule="evenodd" d="M14.4035 23.3479C19.7764 21.3577 25.1001 19.2216 30.6391 17.7551C35.7382 16.7514 48.9911 12.0054 52.6646 16.4743C52.9546 16.7709 53.1262 17.0878 53.2193 17.4117C52.483 17.2493 51.7376 17.1315 50.9898 17.0332C49.8104 16.8786 48.6211 16.7772 47.431 16.7928C46.2716 16.8076 45.1153 16.9075 43.9652 17.055C41.7903 17.3344 39.6301 17.7793 37.5053 18.3233C35.415 18.8587 33.3694 19.5486 31.32 20.2198C29.2705 20.891 27.2065 21.5162 25.1547 22.1827C23.0145 22.8773 20.895 23.6351 18.7625 24.354C16.5976 25.0829 14.4112 25.744 12.2556 26.5018C10.1731 27.2339 8.11286 28.0323 6.10957 28.9665C5.55566 29.2249 5.00637 29.491 4.47247 29.7907C4.07935 30.0116 3.70777 30.2668 3.36235 30.5571C3.32311 29.491 3.67007 28.4428 4.5517 27.7256C4.58632 27.7006 4.62017 27.6756 4.65479 27.6507L4.81712 27.5359C7.69281 25.5317 11.2201 24.7317 14.4035 23.3471V23.3479Z" fill="white"/>
</g>
<defs>
<clipPath id="clip0_437_21920">
<rect width="57" height="50" fill="white"/>
</clipPath>
</defs>
</svg>
