<svg width="64" height="56" viewBox="0 0 64 56" fill="none" xmlns="http://www.w3.org/2000/svg">
<g clip-path="url(#clip0_437_20462)">
<path fill-rule="evenodd" clip-rule="evenodd" d="M31.5502 0C46.797 0 59.1561 12.5079 59.1561 27.9362C59.1561 43.3645 46.7961 55.8724 31.5502 55.8724C16.3043 55.8724 3.94434 43.3654 3.94434 27.9362C3.94434 12.507 16.3035 0 31.5502 0Z" fill="white"/>
<path fill-rule="evenodd" clip-rule="evenodd" d="M1.10256 29.9588C1.1302 29.5261 1.22349 29.0995 1.34442 28.68C1.42994 28.3836 1.55519 28.0777 1.62343 27.7814L1.64675 27.68L1.67871 27.5812C2.21599 25.9177 2.86902 24.2988 3.48058 22.6633C3.90211 21.5366 4.30291 20.4029 4.73567 19.2805C5.36623 17.5051 6.70252 16.0724 8.40764 15.3128C8.73243 15.1677 9.06326 15.0366 9.401 14.9256C10.4816 14.5681 11.6624 14.4177 12.7085 14.0139L12.7499 13.9981L12.7914 13.9842C15.4415 13.0716 17.804 11.1948 20.0792 9.58817C21.5416 8.55496 23.074 7.74289 24.7696 7.55059C25.0866 5.41684 26.7062 3.59167 28.9045 3.33992C31.3845 3.00076 33.7694 4.65985 34.5028 6.98677C34.5149 6.98677 34.5261 6.98677 34.5382 6.98765H34.5615L34.5848 6.99027C36.3824 7.09517 38.0452 8.28135 38.5825 10.0488C38.6732 10.3487 38.7276 10.6529 38.7466 10.9579C39.0593 11.096 39.3564 11.2726 39.6363 11.4903C39.7192 11.5182 39.8021 11.5436 39.8851 11.5689C40.3342 11.7088 40.7488 11.8495 41.1643 12.0794C42.0558 12.5716 42.8142 13.2062 43.6633 13.7481C45.6293 13.3522 47.5901 12.9448 49.5837 12.7071C53.6262 12.2245 58.2639 12.3469 61.4073 15.3443C62.7505 16.6249 63.6367 18.3775 63.6358 20.2682C63.6358 21.0751 63.5426 21.8819 63.3387 22.6625C61.663 29.0925 53.4854 32.6738 47.7594 34.4291C45.0488 35.2595 42.2683 35.8836 39.4653 36.2953C37.1823 36.631 34.8111 36.8574 32.504 36.7368C29.0894 36.5584 25.2896 38.1319 22.1687 39.409C20.5966 40.0523 19.0323 40.7132 17.4317 41.2848C14.7643 42.2376 11.9414 42.9649 9.0909 42.8242C7.05667 42.7237 5.14338 42.1826 3.37001 41.1616L3.14284 41.0305L2.94848 40.853C0.0478735 38.1939 -0.991267 33.3994 1.10256 29.9588Z" fill="white"/>
<path fill-rule="evenodd" clip-rule="evenodd" d="M8.43893 36.1501L55.5363 24.2952C57.4841 23.8049 59.5252 24.1134 61.1725 25.3014C63.0391 26.6484 63.9997 28.8276 63.9997 31.1204V35.0313C63.9997 39.0391 61.1017 42.9465 57.2336 43.9211L10.1363 55.7769C8.18843 56.2673 6.14729 55.9587 4.50004 54.7708C2.63339 53.4237 1.67285 51.2445 1.67285 48.9517V45.0409C1.67285 41.033 4.57087 37.1257 8.43893 36.151V36.1501Z" fill="white"/>
<path fill-rule="evenodd" clip-rule="evenodd" d="M31.5501 1.61182C45.9166 1.61182 57.564 13.3977 57.564 27.937C57.564 42.4763 45.9175 54.2622 31.5501 54.2622C17.1826 54.2622 5.53613 42.4755 5.53613 27.9361C5.53613 13.3968 17.1835 1.61182 31.5501 1.61182Z" fill="#1B1B1B"/>
<path fill-rule="evenodd" clip-rule="evenodd" d="M2.69805 30.4434C2.6514 30.0054 2.75506 29.5413 2.8734 29.1313C2.96582 28.8096 3.09971 28.4705 3.174 28.1488L3.18177 28.1147L3.19214 28.0815C3.72164 26.4416 4.36689 24.8455 4.96982 23.2327C5.39221 22.1042 5.79301 20.9679 6.2275 19.8446C6.7069 18.4757 7.73568 17.3682 9.0495 16.7869C9.32505 16.6602 9.60838 16.5509 9.89602 16.4556C11.006 16.0885 12.1911 15.9373 13.2769 15.5177L13.2907 15.5124L13.3045 15.5081C16.1386 14.5317 18.5633 12.6226 20.9906 10.9084C22.7527 9.66453 24.4103 8.8717 26.3677 9.18551C26.3279 8.91453 26.3063 8.64093 26.3063 8.36558C26.2787 6.71436 27.4267 5.11995 29.1016 4.93814C31.1358 4.6488 33.1285 6.36908 33.1406 8.45387C33.1432 8.5509 33.1406 8.64793 33.1355 8.74408C33.5725 8.63656 34.02 8.57974 34.4795 8.59723H34.4873H34.4951C35.6266 8.66191 36.7211 9.3988 37.0622 10.5203C37.2341 11.0859 37.1823 11.661 36.9517 12.1811C37.6324 12.2047 38.2811 12.4032 38.8365 12.9067C39.3582 13.1182 39.8773 13.2012 40.4034 13.4915C41.2732 13.9714 42.0247 14.6086 42.8592 15.1366L42.8877 15.154L42.9144 15.1741C43.0673 15.2904 43.2055 15.3647 43.3377 15.453C45.4799 15.0264 47.597 14.5631 49.7721 14.3035C53.2903 13.8831 57.5669 13.8909 60.3172 16.5133C61.3374 17.4862 62.0534 18.8201 62.0457 20.2633C62.0526 20.932 61.9697 21.6007 61.8012 22.2476C60.3 28.0081 52.3652 31.3306 47.2999 32.8822C44.6731 33.6873 41.9548 34.2974 39.239 34.696C37.0899 35.0116 34.7611 35.2362 32.5887 35.1234C28.8839 34.9303 24.9554 36.5273 21.5745 37.911C16.1136 40.1453 9.82864 43.0194 4.16045 39.7572L4.08443 39.7135L4.01965 39.654C1.5803 37.4207 0.693189 33.224 2.69805 30.4416V30.4434Z" fill="#1B1B1B"/>
<path fill-rule="evenodd" clip-rule="evenodd" d="M31.5495 4.02979C44.5971 4.02979 55.1742 14.7335 55.1742 27.9371C55.1742 41.1408 44.5971 51.8445 31.5495 51.8445C18.5019 51.8445 7.9248 41.1399 7.9248 27.9363C7.9248 14.7326 18.5019 4.02979 31.5495 4.02979Z" fill="white"/>
<path fill-rule="evenodd" clip-rule="evenodd" d="M8.79955 37.6161L55.8969 25.7612C57.4206 25.3774 59.0152 25.5995 60.3065 26.5313C61.7793 27.5942 62.5083 29.3189 62.5083 31.1213V35.0322C62.5083 38.3477 60.0759 41.6502 56.8738 42.4561L9.77649 54.311C8.25277 54.6947 6.65821 54.4727 5.36684 53.5409C3.89408 52.478 3.16504 50.7533 3.16504 48.9509V45.04C3.16504 41.7245 5.59747 38.422 8.79955 37.6161Z" fill="#1B1B1B"/>
<path fill-rule="evenodd" clip-rule="evenodd" d="M9.28705 39.6031L56.3844 27.7474C58.6389 27.18 60.4839 28.6975 60.4839 31.1206V35.0323C60.4839 37.4554 58.6389 39.9021 56.3844 40.4694L9.28705 52.3243C7.03256 52.8916 5.1875 51.3741 5.1875 48.951V45.0393C5.1875 42.6162 7.03256 40.1696 9.28705 39.6023V39.6031Z" fill="white"/>
<path d="M10.1222 49.4023C11.721 48.9993 12.8776 47.9189 12.8776 46.3979C12.8776 44.877 11.5526 44.8009 10.5385 44.7922C9.8872 44.7922 9.36374 44.7939 9.36374 44.3988C9.36374 44.0736 9.69026 43.8437 10.0315 43.7581C10.4271 43.6584 10.7527 43.7826 10.7527 44.2222L12.6522 43.7441C12.6522 42.3263 11.7072 41.7065 10.0539 42.1226C8.4248 42.5326 7.42799 43.5701 7.42799 44.9434C7.42799 46.5273 8.69949 46.5142 9.6963 46.5133C10.3571 46.5063 10.8918 46.4976 10.8918 46.9347C10.8918 47.3149 10.5126 47.6243 10.1161 47.724C9.68507 47.8324 9.30587 47.6855 9.30587 47.189L7.34766 47.682C7.34766 49.1995 8.43862 49.8263 10.1213 49.4023H10.1222ZM18.1735 40.2362V43.8927L15.5347 40.9006L13.8727 41.3184V48.2896L15.7135 47.8263V44.0439L18.4448 47.1392L20.0143 46.7441V39.7729L18.1735 40.2362ZM23.2414 44.2686V43.2231L25.5037 42.6541V41.0806L23.2414 41.6497V40.6226L25.7594 39.9889V38.3289L21.3523 39.4382V46.4076L25.8431 45.2773V43.6139L23.2414 44.2686ZM31.4967 43.8534L33.5844 43.328L30.8203 37.0527L28.9666 37.5194L26.2621 45.1715L28.2946 44.6602L28.6764 43.4285L31.1157 42.8149L31.4967 43.8542V43.8534ZM30.6536 41.4268L29.1376 41.8079L29.8917 39.46L30.6527 41.4259L30.6536 41.4268ZM40.3799 41.6174L37.969 38.6287L40.1752 34.6969L37.9742 35.2511L36.1534 38.6471V35.7091L34.2539 36.1873V43.1584L36.1534 42.6803V39.5999L38.128 42.1838L40.3799 41.6165V41.6174ZM42.8054 39.3437V38.2983L45.0677 37.7292V36.1558L42.8054 36.7249V35.6978L45.3234 35.064V33.4041L40.9163 34.5133V41.4827L45.4072 40.3525V38.689L42.8054 39.3437ZM50.1917 39.1479L52.3106 38.6147L50.9423 36.4259C51.623 35.8446 52.035 35.0422 52.035 34.1803C52.035 32.7196 50.9587 31.9827 49.4782 32.356L46.4964 33.1069V40.078L48.3959 39.5999V37.4688L49.08 37.2965L50.1917 39.1479ZM48.3959 34.3315L49.2571 34.1147C49.7848 33.9819 50.0906 34.2257 50.0906 34.6654C50.0906 35.1051 49.7857 35.5055 49.2571 35.6383L48.3959 35.8551V34.3315ZM55.5688 37.9618C57.1677 37.5588 58.3243 36.4784 58.3243 34.9574C58.3243 33.4364 56.9992 33.3604 55.9851 33.3516C55.3338 33.3516 54.8104 33.3534 54.8104 32.9583C54.8104 32.6331 55.1369 32.4032 55.4781 32.3175C55.8737 32.2179 56.1994 32.342 56.1994 32.7817L58.0988 32.3035C58.0988 30.8857 57.1538 30.266 55.5005 30.682C53.8714 31.092 52.8746 32.1296 52.8746 33.5028C52.8746 35.0859 54.1461 35.0736 55.1429 35.0728C55.8037 35.0658 56.3384 35.057 56.3384 35.4941C56.3384 35.8743 55.9592 36.1838 55.5627 36.2834C55.1317 36.3918 54.7525 36.245 54.7525 35.7485L52.7943 36.2415C52.7943 37.759 53.8853 38.3857 55.5679 37.9618H55.5688Z" fill="#1B1B1B"/>
<path d="M11.7875 40.0376C11.7826 40.0376 11.7776 40.0376 11.7734 40.0384C11.7784 40.0384 11.7834 40.0384 11.7875 40.0376Z" fill="black"/>
<path d="M4.6076 36.0454C4.53433 36.2543 4.48519 36.472 4.46191 36.6931C4.48519 36.4729 4.53346 36.2543 4.6076 36.0454Z" fill="black"/>
<path d="M4.6611 35.9058C4.65753 35.9147 4.65396 35.9227 4.65039 35.9316C4.65396 35.9227 4.65753 35.9138 4.6611 35.9058Z" fill="black"/>
<path d="M4.70952 35.7944C4.69314 35.8303 4.67676 35.8661 4.66211 35.9028C4.67763 35.8661 4.69314 35.8303 4.70952 35.7944Z" fill="black"/>
<path d="M4.73613 35.7397C4.73166 35.7487 4.7272 35.7567 4.72363 35.7656C4.72809 35.7567 4.73256 35.7487 4.73613 35.7397Z" fill="black"/>
<path d="M4.79081 35.6348C4.78635 35.6428 4.78189 35.6499 4.77832 35.6579C4.78278 35.6499 4.78635 35.6428 4.79081 35.6348Z" fill="black"/>
<path d="M4.85147 35.5298C4.83595 35.5551 4.8213 35.5805 4.80664 35.6058C4.8213 35.5805 4.83595 35.5543 4.85147 35.5298Z" fill="black"/>
<path d="M4.88423 35.478C4.87887 35.4861 4.87352 35.4941 4.86816 35.503C4.87352 35.495 4.87887 35.4869 4.88423 35.478Z" fill="black"/>
<path d="M4.9171 35.4282C4.90604 35.4446 4.89498 35.4609 4.88477 35.4773C4.89583 35.4609 4.90604 35.4446 4.9171 35.4282Z" fill="black"/>
<path d="M4.93403 35.4048C4.92868 35.4128 4.92332 35.4208 4.91797 35.428C4.92332 35.4199 4.92868 35.4119 4.93403 35.4048Z" fill="black"/>
<path d="M4.9691 35.356C4.96375 35.3631 4.95839 35.3711 4.95215 35.3782C4.9575 35.3702 4.96286 35.3631 4.9691 35.356Z" fill="black"/>
<path d="M5.00461 35.3066C4.9927 35.3221 4.98079 35.3376 4.96973 35.3531C4.98164 35.3376 4.9927 35.3221 5.00461 35.3066Z" fill="black"/>
<path d="M39.0528 34.7568C37.5541 35.0243 36.0338 35.1415 34.5127 35.1415C36.0338 35.1415 37.5532 35.0243 39.0528 34.7568Z" fill="black"/>
<path d="M5.1993 35.083C5.18568 35.0968 5.17292 35.1097 5.16016 35.1235C5.17292 35.1097 5.18653 35.0959 5.1993 35.083Z" fill="black"/>
<path d="M5.21887 35.063C5.21389 35.068 5.20892 35.073 5.20312 35.078C5.2081 35.073 5.21307 35.068 5.21887 35.063Z" fill="black"/>
<path d="M5.28704 34.999C5.2799 35.0053 5.27276 35.0115 5.26562 35.0186C5.27276 35.0124 5.2799 35.0062 5.28704 34.999Z" fill="black"/>
<path d="M58.101 26.9668C58.101 26.9668 58.0952 26.971 58.0918 26.9735C58.0952 26.971 58.0977 26.9693 58.101 26.9668Z" fill="black"/>
<path d="M58.1451 26.9336C58.1451 26.9336 58.1392 26.9378 58.1367 26.9403C58.1392 26.9378 58.1426 26.9361 58.1451 26.9336Z" fill="black"/>
<path d="M58.1666 26.917C58.1666 26.917 58.1607 26.9212 58.1582 26.9237C58.1607 26.922 58.1641 26.9195 58.1666 26.917Z" fill="black"/>
<path d="M58.1903 26.8994C58.1903 26.8994 58.1813 26.9057 58.1777 26.9093C58.1822 26.9057 58.1867 26.903 58.1903 26.8994Z" fill="black"/>
<path d="M58.2118 26.8838C58.2118 26.8838 58.2037 26.8901 58.1992 26.8937C58.2037 26.891 58.2073 26.8874 58.2118 26.8838Z" fill="black"/>
<path d="M58.2549 26.8481C58.2491 26.8523 58.2433 26.8565 58.2383 26.8615C58.2441 26.8573 58.2499 26.8532 58.2549 26.8481Z" fill="black"/>
<path d="M28.6449 26.8017C33.5832 25.5054 38.4627 24.0071 43.3311 22.4687C46.1211 21.6636 48.9699 20.9634 51.8524 20.5762C48.9699 20.9634 46.122 21.6636 43.3311 22.4687C38.4627 24.0071 33.584 25.5054 28.6449 26.8017C28.581 26.8192 28.517 26.8375 28.4531 26.8559C28.517 26.8375 28.581 26.8201 28.6449 26.8017Z" fill="black"/>
<path d="M59.8123 20.923C59.7321 20.8618 59.6485 20.8041 59.5605 20.749C59.6485 20.8041 59.733 20.8618 59.8123 20.923Z" fill="black"/>
<path d="M59.5352 20.7344C59.5418 20.7385 59.5484 20.7427 59.555 20.7461C59.5484 20.7419 59.5418 20.7377 59.5352 20.7344Z" fill="black"/>
<path d="M59.5107 20.7192C59.5165 20.7226 59.5223 20.7259 59.5281 20.7301C59.5223 20.7268 59.5165 20.7234 59.5107 20.7192Z" fill="black"/>
<path d="M59.4297 20.6714C59.4297 20.6714 59.4356 20.6747 59.4381 20.6764C59.4356 20.6747 59.4322 20.6731 59.4297 20.6714Z" fill="black"/>
<path d="M57.5505 20.2769C57.2827 20.2665 57.0158 20.2603 56.748 20.2568C57.015 20.2595 57.2827 20.2665 57.5505 20.2769Z" fill="black"/>
<path d="M8.68338 40.2368C7.20889 40.2368 5.71108 40.0279 4.55273 39.0576C5.71021 40.0279 7.20889 40.2368 8.68338 40.2368Z" fill="black"/>
<path d="M11.3539 40.0654C11.349 40.0654 11.3448 40.0663 11.3398 40.0671C11.3448 40.0671 11.349 40.0663 11.3539 40.0654Z" fill="black"/>
<path d="M11.4458 40.0562C11.4174 40.0596 11.3898 40.0623 11.3613 40.0658C11.3898 40.0631 11.4182 40.0596 11.4458 40.0562Z" fill="black"/>
<path d="M4.48926 38.998C4.48926 38.998 4.49571 39.0038 4.49894 39.007C4.49571 39.0038 4.49249 39.0013 4.48926 38.998Z" fill="black"/>
<path d="M4.46191 38.9722C4.46191 38.9722 4.46837 38.9787 4.4716 38.9811C4.46837 38.9779 4.46514 38.9754 4.46191 38.9722Z" fill="black"/>
<path d="M4.43359 38.9458C4.43359 38.9458 4.4408 38.953 4.44531 38.9566C4.4417 38.953 4.4372 38.9494 4.43359 38.9458Z" fill="black"/>
<path d="M4.40723 38.9194C4.40723 38.9194 4.41444 38.9266 4.41894 38.9303C4.41534 38.9266 4.41173 38.923 4.40723 38.9194Z" fill="black"/>
<path d="M4.37988 38.8936C4.37988 38.8936 4.38799 38.9017 4.3916 38.9053C4.38799 38.9017 4.38349 38.8972 4.37988 38.8936Z" fill="black"/>
<path d="M4.35449 38.8672C4.35449 38.8672 4.3617 38.8744 4.36621 38.8789C4.3626 38.8753 4.3581 38.8708 4.35449 38.8672Z" fill="black"/>
<path d="M4.32715 38.8398C4.32715 38.8398 4.33526 38.848 4.33886 38.8516C4.33526 38.848 4.33075 38.8435 4.32715 38.8398Z" fill="black"/>
<path d="M4.30176 38.814C4.30176 38.814 4.30897 38.8221 4.31347 38.8257C4.30987 38.8221 4.30536 38.8176 4.30176 38.814Z" fill="black"/>
<path d="M4.27539 38.7866C4.27539 38.7866 4.28211 38.7933 4.28546 38.7975C4.28211 38.7941 4.27875 38.7908 4.27539 38.7866Z" fill="black"/>
<path d="M4.25098 38.7603C4.25098 38.7603 4.25601 38.7661 4.25937 38.7686C4.25685 38.7661 4.25349 38.7628 4.25098 38.7603Z" fill="black"/>
<path d="M4.22461 38.7324C4.22461 38.7324 4.22965 38.7383 4.23216 38.7408C4.22965 38.7383 4.22713 38.7349 4.22461 38.7324Z" fill="black"/>
<path d="M4.09082 38.585C4.09082 38.585 4.09586 38.5908 4.09838 38.5933C4.09586 38.5908 4.09334 38.5883 4.09082 38.585Z" fill="black"/>
<path d="M4.06543 38.5562C4.06543 38.5562 4.07108 38.5627 4.0735 38.5651C4.07108 38.5619 4.06866 38.5594 4.06543 38.5562Z" fill="black"/>
<path d="M4.04102 38.5273C4.04102 38.5273 4.04667 38.5339 4.04909 38.5363C4.04667 38.5331 4.04344 38.5298 4.04102 38.5273Z" fill="black"/>
<path d="M4.01562 38.4976C4.01562 38.4976 4.02127 38.5041 4.0245 38.5074C4.02127 38.5041 4.01885 38.5008 4.01562 38.4976Z" fill="black"/>
<path d="M3.99121 38.4692C3.99121 38.4692 3.99686 38.4758 3.99928 38.479C3.99686 38.4758 3.99363 38.4725 3.99121 38.4692Z" fill="black"/>
<path d="M3.96777 38.4404C3.96777 38.4404 3.97262 38.4461 3.97504 38.4494C3.97262 38.4461 3.97019 38.4437 3.96777 38.4404Z" fill="black"/>
<path d="M3.94434 38.4106C3.94434 38.4106 3.94918 38.4172 3.9516 38.4196C3.94918 38.4164 3.94676 38.4139 3.94434 38.4106Z" fill="black"/>
<path d="M3.91992 38.3813C3.91992 38.3813 3.92557 38.3879 3.92799 38.3911C3.92557 38.3879 3.92234 38.3846 3.91992 38.3813Z" fill="black"/>
<path d="M3.89648 38.3516C3.89648 38.3516 3.90133 38.3581 3.90375 38.3614C3.90133 38.3581 3.89891 38.3548 3.89648 38.3516Z" fill="black"/>
<path d="M3.72852 38.1304C3.72852 38.1304 3.73336 38.1369 3.73578 38.1402C3.73336 38.1369 3.73094 38.1336 3.72852 38.1304Z" fill="black"/>
<path d="M3.70605 38.1006C3.70605 38.1006 3.7109 38.1071 3.71251 38.1096C3.71009 38.1063 3.70767 38.103 3.70605 38.1006Z" fill="black"/>
<path d="M3.68359 38.0688C3.68359 38.0688 3.68844 38.0754 3.69086 38.0786C3.68844 38.0754 3.68602 38.0721 3.68359 38.0688Z" fill="black"/>
<path d="M3.66113 38.0376C3.66113 38.0376 3.66598 38.0441 3.6684 38.0474C3.66598 38.0441 3.66355 38.0409 3.66113 38.0376Z" fill="black"/>
<path d="M3.63867 38.0063C3.63867 38.0063 3.64371 38.0139 3.64623 38.0172C3.64371 38.0139 3.64119 38.0105 3.63867 38.0063Z" fill="black"/>
<path d="M3.61816 37.9756C3.61816 37.9756 3.6222 37.9813 3.62462 37.9846C3.6222 37.9813 3.62059 37.9789 3.61816 37.9756Z" fill="black"/>
<path d="M3.59668 37.9434C3.59668 37.9434 3.60072 37.9491 3.60314 37.9523C3.60072 37.9491 3.5991 37.9466 3.59668 37.9434Z" fill="black"/>
<path d="M3.5752 37.9126C3.5752 37.9126 3.57939 37.9184 3.58107 37.9209C3.57939 37.9184 3.57687 37.9151 3.5752 37.9126Z" fill="black"/>
<path d="M3.55469 37.8804C3.55469 37.8804 3.55872 37.8869 3.56114 37.8893C3.55872 37.8861 3.55711 37.8828 3.55469 37.8804Z" fill="black"/>
<path d="M3.4248 37.6772C3.4248 37.6772 3.42803 37.683 3.43045 37.6862C3.42884 37.683 3.42723 37.6805 3.4248 37.6772Z" fill="black"/>
<path d="M3.4043 37.6426C3.4043 37.6426 3.40849 37.6501 3.41101 37.6534C3.40849 37.6501 3.40682 37.6459 3.4043 37.6426Z" fill="black"/>
<path d="M3.38477 37.6104C3.38477 37.6104 3.39017 37.6185 3.39197 37.623C3.38927 37.6185 3.38657 37.6149 3.38477 37.6104Z" fill="black"/>
<path d="M3.36523 37.5771C3.36523 37.5771 3.36943 37.5847 3.37195 37.588C3.36943 37.5847 3.36775 37.5805 3.36523 37.5771Z" fill="black"/>
<path d="M3.3457 37.5439C3.3457 37.5439 3.35111 37.553 3.35291 37.5566C3.35021 37.5521 3.34841 37.5485 3.3457 37.5439Z" fill="black"/>
<path d="M3.32617 37.5103C3.32617 37.5103 3.33068 37.5184 3.33338 37.5229C3.33068 37.5184 3.32888 37.5148 3.32617 37.5103Z" fill="black"/>
<path d="M3.30762 37.4771C3.30762 37.4771 3.31212 37.4852 3.31483 37.4897C3.31212 37.4852 3.31032 37.4816 3.30762 37.4771Z" fill="black"/>
<path d="M3.28906 37.4438C3.28906 37.4438 3.2931 37.4504 3.29471 37.4536C3.2931 37.4504 3.29148 37.4471 3.28906 37.4438Z" fill="black"/>
<path d="M3.27051 37.4106C3.27051 37.4106 3.27374 37.4172 3.27535 37.4196C3.27374 37.4164 3.27212 37.4131 3.27051 37.4106Z" fill="black"/>
<path d="M3.25195 37.377C3.25195 37.377 3.25531 37.3828 3.25699 37.3853C3.25531 37.3828 3.25363 37.3795 3.25195 37.377Z" fill="black"/>
<path d="M3.19238 37.2656C3.19238 37.2656 3.19561 37.2713 3.19723 37.2746C3.19561 37.2722 3.194 37.2689 3.19238 37.2656Z" fill="black"/>
<path d="M3.1748 37.231C3.1748 37.231 3.17803 37.2375 3.17965 37.2407C3.17803 37.2375 3.17642 37.2342 3.1748 37.231Z" fill="black"/>
<path d="M3.15625 37.1948C3.15625 37.1948 3.16076 37.2038 3.16256 37.2074C3.16076 37.2029 3.15805 37.1993 3.15625 37.1948Z" fill="black"/>
<path d="M3.13867 37.1602C3.14138 37.1647 3.14318 37.1692 3.14588 37.1746C3.14318 37.1701 3.14138 37.1647 3.13867 37.1602Z" fill="black"/>
<path d="M3.02246 36.917C3.02485 36.9219 3.02724 36.9268 3.02883 36.9317C3.02644 36.9268 3.02405 36.9219 3.02246 36.917Z" fill="black"/>
<path d="M2.99121 36.8472C2.9936 36.8521 2.99519 36.857 2.99758 36.8619C2.99519 36.857 2.9928 36.8521 2.99121 36.8472Z" fill="black"/>
<path d="M2.95215 36.7568C2.96249 36.7804 2.97198 36.804 2.98232 36.8268C2.97198 36.8032 2.96163 36.7796 2.95215 36.7568Z" fill="black"/>
<path d="M2.92383 36.6895C2.92622 36.6952 2.92861 36.7001 2.931 36.7058C2.92861 36.7001 2.92622 36.6944 2.92383 36.6895Z" fill="black"/>
<path d="M4.45215 36.6694C4.45395 36.6739 4.45665 36.6794 4.45846 36.6839C4.45665 36.6794 4.45395 36.6748 4.45215 36.6694Z" fill="black"/>
<path d="M4.40649 36.562C4.00396 35.791 3.7716 34.9064 3.77246 34.041C3.77246 34.9064 4.00396 35.791 4.40649 36.562C4.42031 36.5952 4.43413 36.6293 4.44881 36.6616C4.43413 36.6284 4.42031 36.5952 4.40649 36.562Z" fill="black"/>
<path d="M2.82617 36.4395C2.82885 36.4475 2.83242 36.4555 2.83509 36.4626C2.83242 36.4546 2.82885 36.4466 2.82617 36.4395Z" fill="black"/>
<path d="M2.81348 36.4038C2.81615 36.4118 2.81972 36.4199 2.8224 36.427C2.81972 36.419 2.81615 36.4109 2.81348 36.4038Z" fill="black"/>
<path d="M2.80078 36.3672C2.80346 36.3752 2.80703 36.3832 2.8097 36.3922C2.80703 36.3841 2.80346 36.3761 2.80078 36.3672Z" fill="black"/>
<path d="M2.74121 36.1948C2.75931 36.2508 2.77828 36.3058 2.79811 36.3618C2.77828 36.3067 2.75931 36.2508 2.74121 36.1948Z" fill="black"/>
<path d="M2.72949 36.1616C2.73288 36.1711 2.73627 36.1814 2.73881 36.1908C2.73542 36.1814 2.73203 36.1711 2.72949 36.1616Z" fill="black"/>
<path d="M2.70801 36.0928C2.71068 36.1017 2.71336 36.1106 2.71693 36.1195C2.71425 36.1106 2.71158 36.1017 2.70801 36.0928Z" fill="black"/>
<path d="M2.69629 36.0566C2.69897 36.0656 2.70164 36.0745 2.70521 36.0834C2.70254 36.0745 2.69986 36.0656 2.69629 36.0566Z" fill="black"/>
<path d="M2.68555 36.02C2.68822 36.0298 2.6909 36.0387 2.69447 36.0486C2.69179 36.0387 2.68822 36.0298 2.68555 36.02Z" fill="black"/>
<path d="M2.65332 35.9106C2.65671 35.9209 2.65925 35.9321 2.66264 35.9433C2.65925 35.933 2.65671 35.9218 2.65332 35.9106Z" fill="black"/>
<path d="M3.56661 30.6284C2.34262 32.0768 2.13531 34.0891 2.65272 35.9099C2.13531 34.0891 2.34262 32.0777 3.56661 30.6293V30.6284Z" fill="black"/>
<path d="M5.40748 30.8398C5.34627 30.8818 5.28593 30.9255 5.22559 30.9683C5.28593 30.9246 5.34627 30.8818 5.40748 30.8398Z" fill="black"/>
<path d="M5.09961 29.331C5.10458 29.3276 5.10872 29.3243 5.11369 29.3218C5.10872 29.3251 5.10458 29.3285 5.09961 29.331Z" fill="black"/>
<path d="M5.18842 29.2716C5.18842 29.2716 5.19339 29.2683 5.19587 29.2666C5.19173 29.2691 5.18759 29.2724 5.18262 29.275C5.18427 29.2733 5.18676 29.2724 5.18842 29.2708V29.2716Z" fill="black"/>
<path d="M5.24894 29.2324C5.24894 29.2324 5.24083 29.2378 5.23633 29.2405C5.24083 29.2378 5.24444 29.2351 5.24894 29.2324Z" fill="black"/>
<path d="M5.2891 29.2063C5.29591 29.202 5.30271 29.1977 5.30952 29.1934C5.29591 29.202 5.28315 29.2106 5.26953 29.2192C5.27634 29.2149 5.28229 29.2106 5.2891 29.2063Z" fill="black"/>
<path d="M5.39004 29.1415C5.39599 29.1371 5.4028 29.1337 5.40875 29.1294C5.39429 29.138 5.38068 29.1475 5.36621 29.1561C5.37387 29.1509 5.38153 29.1458 5.39004 29.1415Z" fill="black"/>
<path d="M5.69699 28.9545C5.72113 28.9405 5.74526 28.9256 5.7694 28.9116C5.73751 28.9309 5.70475 28.9492 5.67285 28.9684C5.68061 28.9641 5.68837 28.9588 5.69699 28.9545Z" fill="black"/>
<path d="M7.68488 27.9536C7.68488 27.9536 7.67816 27.9561 7.6748 27.9578C7.67816 27.9561 7.68152 27.9553 7.68488 27.9536Z" fill="black"/>
<path d="M7.95778 27.8364C7.97502 27.8294 7.9914 27.8224 8.00778 27.8154C7.94399 27.8425 7.8802 27.8696 7.81641 27.8967C7.86296 27.8766 7.91037 27.8565 7.95692 27.8364H7.95778Z" fill="black"/>
<path d="M8.51605 27.6055C8.51605 27.6055 8.52209 27.6029 8.52554 27.6021C8.5014 27.6117 8.47726 27.6213 8.45312 27.6309C8.47381 27.6222 8.49537 27.6143 8.51605 27.6055Z" fill="black"/>
<path d="M8.86899 27.4648C8.86212 27.4675 8.8544 27.4709 8.84668 27.4736C8.8544 27.4709 8.86127 27.4675 8.86899 27.4648Z" fill="black"/>
<path d="M8.99774 27.4146C8.97274 27.4242 8.94687 27.4347 8.92188 27.4443C8.94687 27.4347 8.97187 27.4242 8.99774 27.4146Z" fill="black"/>
<path d="M10.117 26.9807C10.1481 26.9684 10.1792 26.9562 10.2103 26.9448C9.80862 27.1004 9.40437 27.2543 9.00098 27.4134C9.37327 27.2674 9.74643 27.124 10.117 26.9807Z" fill="black"/>
<path d="M10.3582 26.8872C10.3582 26.8872 10.3492 26.8908 10.3447 26.8926C10.3492 26.8908 10.3537 26.889 10.3582 26.8872Z" fill="black"/>
<path d="M10.8501 26.6938C10.6906 26.7577 10.5294 26.8206 10.3682 26.8827C10.5294 26.8197 10.6897 26.7568 10.8501 26.6938Z" fill="black"/>
<path d="M11.6793 26.3792C11.7525 26.3513 11.8267 26.3224 11.8999 26.2944C11.8008 26.3329 11.7017 26.3705 11.6025 26.4081C11.6284 26.3985 11.6534 26.3888 11.6784 26.3792H11.6793Z" fill="black"/>
<path d="M12.3432 26.125C12.3079 26.139 12.2717 26.1521 12.2363 26.1661C12.2717 26.1521 12.307 26.139 12.3432 26.125Z" fill="black"/>
<path d="M13.7667 25.5735C13.822 25.5516 13.8772 25.5306 13.9325 25.5088C13.6483 25.6189 13.3633 25.7291 13.0791 25.8401C13.308 25.7509 13.5378 25.6626 13.7667 25.5735Z" fill="black"/>
<path d="M16.9993 24.3418C16.9823 24.3478 16.9653 24.3539 16.9482 24.3607C16.9653 24.3547 16.9823 24.3478 16.9993 24.3418Z" fill="black"/>
<path d="M17.0969 24.3062C17.0774 24.313 17.0586 24.3199 17.0391 24.3277C17.0586 24.3208 17.0774 24.3139 17.0969 24.3062Z" fill="black"/>
<path d="M17.1924 24.271C17.1728 24.2779 17.1532 24.2856 17.1328 24.2925C17.1524 24.2856 17.172 24.2779 17.1924 24.271Z" fill="black"/>
<path d="M60.8527 22.8164C61.054 21.9929 61.251 21.1608 61.2484 20.3076C61.251 21.1616 61.054 21.9929 60.8527 22.8164C60.8441 22.9335 60.8035 23.0401 60.7422 23.1319C60.7422 23.1319 60.7422 23.1328 60.7422 23.1337C60.8044 23.0419 60.845 22.9335 60.8536 22.8164H60.8527Z" fill="black"/>
<path d="M59.7695 17.1016C60.6359 17.9145 61.2561 19.05 61.2475 20.2659C61.257 19.0491 60.6359 17.9145 59.7695 17.1016Z" fill="black"/>
<path d="M29.6553 19.8182C29.7105 19.7998 29.7658 19.7815 29.8211 19.7631C29.9239 19.729 30.0267 19.6958 30.1295 19.6626C29.9334 19.7255 29.7382 19.7902 29.543 19.8549C29.5801 19.8427 29.6181 19.8296 29.6553 19.8173V19.8182Z" fill="black"/>
<path d="M30.2054 19.6392C30.1867 19.6452 30.168 19.6512 30.1484 19.6572C30.1672 19.6512 30.1859 19.6452 30.2054 19.6392Z" fill="black"/>
<path d="M30.2773 19.6162C30.2773 19.6162 30.2692 19.6189 30.2646 19.6198C30.2692 19.6189 30.2728 19.6171 30.2773 19.6162Z" fill="black"/>
<path d="M30.6762 19.4902C30.6856 19.4876 30.6943 19.4849 30.7037 19.4814C30.6658 19.4928 30.6288 19.505 30.5908 19.5164C30.6193 19.5077 30.6477 19.4989 30.6762 19.4893V19.4902Z" fill="black"/>
<path d="M30.8821 19.4264C30.9502 19.4054 31.0183 19.3844 31.0864 19.3635C31.0899 19.3626 31.0925 19.3617 31.0959 19.3608C31.0132 19.3862 30.9304 19.4115 30.8477 19.4369C30.8589 19.4334 30.8701 19.4299 30.8813 19.4264H30.8821Z" fill="black"/>
<path d="M32.9434 18.8277C32.9986 18.8128 33.0537 18.7971 33.108 18.7822C32.9968 18.8128 32.8856 18.8434 32.7744 18.874C32.8304 18.8583 32.8873 18.8425 32.9434 18.8268V18.8277Z" fill="black"/>
<path d="M34.2084 18.4884C34.319 18.4596 34.4295 18.4307 34.5401 18.4028C34.6705 18.3696 34.801 18.3355 34.9314 18.3022C34.5565 18.3975 34.1816 18.4946 33.8076 18.5933C33.9415 18.5584 34.0754 18.5225 34.2093 18.4876L34.2084 18.4884Z" fill="black"/>
<path d="M39.8965 17.0972C39.8907 17.0988 39.8849 17.0997 39.8799 17.1013C39.8857 17.0997 39.8915 17.0988 39.8965 17.0972Z" fill="black"/>
<path d="M40.4765 16.9561C40.3955 16.9762 40.3144 16.9954 40.2334 17.0155C40.3144 16.9963 40.3955 16.9762 40.4765 16.9561Z" fill="black"/>
<path d="M46.8443 15.577C45.5071 15.8253 44.2356 16.0998 43.1084 16.3209C44.2356 16.0998 45.5063 15.8244 46.8434 15.5762L46.8443 15.577Z" fill="black"/>
<path d="M46.9218 15.563C46.8994 15.5674 46.877 15.5709 46.8555 15.5752C46.8779 15.5709 46.8994 15.5674 46.9218 15.563Z" fill="black"/>
<path d="M46.9923 15.5488C46.9727 15.5523 46.9532 15.5557 46.9336 15.56C46.9532 15.5566 46.9727 15.5531 46.9923 15.5488Z" fill="black"/>
<path d="M47.0669 15.5356C47.0499 15.5391 47.0337 15.5417 47.0176 15.5451C47.0346 15.5417 47.0508 15.5391 47.0669 15.5356Z" fill="black"/>
<path d="M47.1413 15.522C47.1268 15.5246 47.1132 15.5271 47.0996 15.5297C47.1141 15.5271 47.1277 15.5246 47.1413 15.522Z" fill="black"/>
<path d="M3.56707 30.6283C3.31276 30.1501 3.69552 29.1921 3.88345 28.5688C3.69466 29.1921 3.31276 30.1501 3.56707 30.6283Z" fill="black"/>
<path d="M5.19206 29.0112C5.1774 29.0602 5.16361 29.1091 5.14982 29.1581C5.14809 29.1625 5.14723 29.1677 5.14551 29.1721C5.16102 29.1187 5.17654 29.0646 5.19206 29.0112Z" fill="black"/>
<path d="M5.35336 28.4858C5.34043 28.5252 5.32836 28.5645 5.31543 28.6038C5.3275 28.5645 5.34043 28.5252 5.35336 28.4858Z" fill="black"/>
<path d="M3.88816 28.5552C3.88816 28.5552 3.88655 28.5609 3.88574 28.5642C3.88655 28.5609 3.88736 28.5584 3.88816 28.5552Z" fill="black"/>
<path d="M3.89705 28.5234C3.89705 28.5234 3.89537 28.5293 3.89453 28.5318C3.89537 28.5293 3.89621 28.5259 3.89705 28.5234Z" fill="black"/>
<path d="M3.91143 28.4746C3.91143 28.4746 3.90982 28.4811 3.9082 28.4844C3.90901 28.4811 3.90982 28.4779 3.91143 28.4746Z" fill="black"/>
<path d="M7.31141 23.2073C7.38296 23.0132 7.45451 22.82 7.5252 22.626C7.51917 22.6426 7.51313 22.6601 7.50623 22.6767C7.44158 22.8533 7.37693 23.0307 7.31055 23.2073H7.31141Z" fill="black"/>
<path d="M8.48213 20.1758C8.3897 20.3454 8.30764 20.5228 8.23076 20.7046C8.21953 20.7317 8.2083 20.7579 8.19707 20.785C8.05282 21.1373 7.93103 21.501 7.80664 21.8497C8.00531 21.2938 8.1988 20.6994 8.48213 20.1758Z" fill="black"/>
<path d="M8.50978 20.127C8.50978 20.127 8.50559 20.1345 8.50391 20.1378C8.50559 20.1345 8.5081 20.1303 8.50978 20.127Z" fill="black"/>
<path d="M8.60953 19.9561C8.60953 19.9561 8.60617 19.9619 8.60449 19.9644C8.60617 19.9619 8.60785 19.9586 8.60953 19.9561Z" fill="black"/>
<path d="M8.62781 19.9282C8.62781 19.9282 8.62277 19.9357 8.62109 19.9391C8.62361 19.9357 8.62613 19.9316 8.62781 19.9282Z" fill="black"/>
<path d="M8.67457 19.856C8.6711 19.8612 8.66764 19.8657 8.66504 19.8709C8.6685 19.8657 8.67197 19.8612 8.67457 19.856Z" fill="black"/>
<path d="M9.05107 19.3896C9.04073 19.4001 9.03038 19.4106 9.02004 19.4211C8.9347 19.5103 8.85539 19.6047 8.78125 19.7035C8.86401 19.5924 8.95366 19.4876 9.05107 19.3896Z" fill="black"/>
<path d="M9.13732 19.3076C9.11405 19.3286 9.09077 19.3504 9.06836 19.3732C9.09077 19.3513 9.11405 19.3295 9.13732 19.3076Z" fill="black"/>
<path d="M9.22421 19.2314C9.22421 19.2314 9.21741 19.2366 9.21485 19.2392C9.20634 19.2469 9.19699 19.2538 9.18848 19.2616C9.20039 19.2513 9.2123 19.2409 9.22421 19.2314Z" fill="black"/>
<path d="M9.24347 19.2158C9.24347 19.2158 9.23676 19.2208 9.2334 19.2233C9.23676 19.2208 9.24011 19.2183 9.24347 19.2158Z" fill="black"/>
<path d="M9.35195 19.1313C9.34074 19.1392 9.3304 19.1471 9.31919 19.1558C9.29678 19.1733 9.27437 19.1908 9.25195 19.2083C9.28471 19.182 9.31747 19.1567 9.35195 19.1313Z" fill="black"/>
<path d="M9.45688 19.0605C9.45688 19.0605 9.44787 19.066 9.44336 19.0696C9.44787 19.0669 9.45237 19.0642 9.45688 19.0605Z" fill="black"/>
<path d="M9.50734 19.0269C9.50071 19.031 9.49408 19.0352 9.48828 19.0385C9.49491 19.0344 9.50154 19.0302 9.50734 19.0269Z" fill="black"/>
<path d="M9.55995 18.9956C9.55278 18.9997 9.54641 19.0038 9.54004 19.0079C9.54721 19.0038 9.55358 18.9997 9.55995 18.9956Z" fill="black"/>
<path d="M9.63624 18.9536C9.62961 18.957 9.62382 18.9603 9.61719 18.9636C9.62299 18.9603 9.62961 18.957 9.63624 18.9536Z" fill="black"/>
<path d="M9.66373 18.9395C9.65793 18.9428 9.65131 18.9453 9.64551 18.9486C9.65131 18.9453 9.65793 18.942 9.66373 18.9395Z" fill="black"/>
<path d="M9.71672 18.9146C9.71672 18.9146 9.70771 18.9191 9.7041 18.9209C9.70861 18.9191 9.71311 18.9164 9.71672 18.9146Z" fill="black"/>
<path d="M9.77409 18.8862C9.76829 18.8887 9.76249 18.8912 9.75586 18.8946C9.76166 18.8921 9.76746 18.8887 9.77409 18.8862Z" fill="black"/>
<path d="M43.1089 16.321C42.9534 16.1182 42.6934 16.0011 42.4844 15.856C42.6925 16.0019 42.9534 16.1191 43.108 16.321H43.1089Z" fill="black"/>
<path d="M39.4375 15.4799C39.7182 15.6442 39.9903 15.8217 40.2598 16.0052C39.9912 15.8217 39.7182 15.6433 39.4375 15.479V15.4799Z" fill="black"/>
<path d="M42.4373 15.8216C41.6184 15.3033 40.873 14.6643 40.0221 14.201C39.5116 13.9125 38.9217 13.8304 38.3939 13.5943C37.6269 12.8155 36.554 12.9221 35.5892 13.1503C35.4821 13.0664 35.3784 12.9886 35.2773 12.916C35.3784 12.9877 35.4821 13.0664 35.5892 13.1503C36.554 12.9221 37.626 12.8155 38.3939 13.5943C38.9208 13.8304 39.5108 13.9125 40.0221 14.201C40.873 14.6643 41.6184 15.3041 42.4373 15.8216Z" fill="black"/>
<path d="M38.7656 15.2026C38.9634 15.263 39.1587 15.3294 39.3435 15.4255C39.1587 15.3303 38.9634 15.263 38.7656 15.2026Z" fill="black"/>
<path d="M19.3422 14.7876C19.3422 14.7876 19.3364 14.7909 19.333 14.7934C19.3364 14.7918 19.3389 14.7901 19.3422 14.7876Z" fill="black"/>
<path d="M19.5517 14.6513C19.5439 14.6565 19.5353 14.6618 19.5275 14.667C19.4991 14.6862 19.4715 14.7046 19.4431 14.7221C19.4181 14.7387 19.3931 14.7544 19.3681 14.7701C19.3629 14.7736 19.3577 14.7763 19.3525 14.7798C19.4181 14.7387 19.4836 14.695 19.5508 14.6504L19.5517 14.6513Z" fill="black"/>
<path d="M20.1618 14.2222C20.0037 14.3376 19.8499 14.4486 19.6996 14.5517C19.6711 14.5718 19.6417 14.591 19.6132 14.6112C19.6107 14.6129 19.6081 14.6147 19.6055 14.6164C19.7843 14.4958 19.97 14.3629 20.1618 14.223V14.2222Z" fill="black"/>
<path d="M21.5396 13.1938C21.5093 13.2157 21.4791 13.2384 21.4497 13.2603C21.277 13.3879 21.1059 13.5164 20.9375 13.6431C21.1344 13.4945 21.3357 13.3442 21.5396 13.1947V13.1938Z" fill="black"/>
<path d="M31.3588 13.5225C31.3588 13.5225 31.3521 13.5209 31.3496 13.52C31.353 13.5209 31.3563 13.5217 31.3588 13.5225Z" fill="black"/>
<path d="M22.5465 12.4896C22.5172 12.5089 22.4879 12.5281 22.4586 12.5473C22.3862 12.5954 22.3146 12.6444 22.2422 12.6933C22.343 12.6243 22.4439 12.5561 22.5456 12.4888L22.5465 12.4896Z" fill="black"/>
<path d="M22.7231 12.375C22.7044 12.3871 22.6857 12.3982 22.667 12.4103C22.6857 12.3982 22.7044 12.3862 22.7231 12.375Z" fill="black"/>
<path d="M23.1223 12.1318C23.024 12.1887 22.9266 12.2481 22.8292 12.3084C22.8076 12.3224 22.7852 12.3355 22.7637 12.3495C22.8826 12.2743 23.0025 12.2009 23.1223 12.1318Z" fill="black"/>
<path d="M33.6464 12.2424C33.5653 12.2336 33.4817 12.2266 33.3955 12.2231C33.4817 12.2275 33.5653 12.2336 33.6464 12.2432V12.2424Z" fill="black"/>
<path d="M32.49 12.2298C32.1601 12.2481 31.8189 12.2674 31.5684 12.0654C31.7463 12.2079 31.9683 12.2403 32.2007 12.2403C32.2965 12.2403 32.3941 12.235 32.4909 12.2289L32.49 12.2298Z" fill="black"/>
<path d="M33.3682 12.2222C33.3745 12.2222 33.3817 12.2222 33.3881 12.223C33.3817 12.223 33.3745 12.223 33.3682 12.2222Z" fill="black"/>
<path d="M23.7496 11.7979C23.7351 11.8047 23.7215 11.8116 23.707 11.8185C23.7206 11.8116 23.7351 11.8047 23.7496 11.7979Z" fill="black"/>
<path d="M24.2192 11.5952C24.1709 11.6136 24.1226 11.6328 24.0752 11.6529C24.1235 11.6328 24.1717 11.6136 24.2192 11.5952Z" fill="black"/>
<path d="M24.4881 11.501C24.4804 11.5036 24.4727 11.5062 24.4658 11.5079C24.4735 11.5053 24.4813 11.5027 24.4881 11.501Z" fill="black"/>
<path d="M21.616 11.4502C21.5981 11.4631 21.5794 11.4752 21.5615 11.4881C21.5794 11.4752 21.5973 11.4631 21.616 11.4502Z" fill="black"/>
<path d="M24.8201 11.4092C24.783 11.4179 24.7451 11.4267 24.708 11.4372C24.7459 11.4275 24.783 11.4179 24.8201 11.4092Z" fill="black"/>
<path d="M24.2722 10.0942C23.3877 10.3346 22.5395 10.8136 21.6523 11.4255C22.5386 10.8136 23.3877 10.3346 24.2722 10.0942Z" fill="black"/>
<path d="M29.9732 10.8389C29.8974 10.8171 29.8206 10.7987 29.7422 10.7812C29.8198 10.7979 29.8974 10.8171 29.9732 10.8389Z" fill="black"/>
<path d="M31.5732 19.2175C31.5162 19.1966 31.4583 19.1747 31.4004 19.1537C31.3926 19.1511 31.384 19.1476 31.3762 19.145C31.3158 19.1223 31.2553 19.0995 31.194 19.0759C31.1508 19.0593 31.1067 19.0427 31.0635 19.0261C31.0186 19.0095 30.9746 18.992 30.9296 18.9754C30.8916 18.9605 30.8536 18.9457 30.8156 18.9308C30.5859 18.8417 30.3578 18.7499 30.1289 18.6572C30.6074 18.8513 31.0877 19.0401 31.5723 19.2175H31.5732Z" fill="black"/>
<path d="M32.7027 18.8942C32.6932 18.8723 32.6829 18.8522 32.6699 18.833C32.6829 18.8522 32.6932 18.8732 32.7027 18.8942Z" fill="black"/>
<path d="M32.5947 18.7474C32.5947 18.7474 32.5972 18.7491 32.598 18.7499C32.6014 18.7524 32.6047 18.7558 32.608 18.7583C32.6038 18.7541 32.5989 18.7508 32.5947 18.7466V18.7474Z" fill="black"/>
<path d="M32.5439 18.7134C32.5439 18.7134 32.5473 18.715 32.5481 18.7159C32.5514 18.7176 32.5539 18.7192 32.5572 18.7209C32.5531 18.7184 32.5481 18.7159 32.5439 18.7134Z" fill="black"/>
<path d="M32.5088 18.6968C32.5088 18.6968 32.5157 18.6994 32.5182 18.7011C32.5199 18.7011 32.5225 18.7029 32.5242 18.7038C32.5277 18.7055 32.5302 18.7064 32.5337 18.7081C32.5259 18.7038 32.5174 18.7003 32.5088 18.6968Z" fill="black"/>
<path d="M32.493 18.6904C31.0177 18.172 29.5795 17.5567 28.1386 16.9483C28.0566 16.9142 27.9737 16.8792 27.8916 16.8442C27.9737 16.8792 28.0566 16.9133 28.1386 16.9483C29.5795 17.5567 31.0177 18.1729 32.493 18.6904Z" fill="black"/>
<path d="M29.4802 18.3899C29.4526 18.3786 29.425 18.3672 29.3975 18.355C29.4716 18.3856 29.5457 18.417 29.6199 18.4476C29.5733 18.4284 29.5268 18.4092 29.4802 18.3899Z" fill="black"/>
<path d="M29.0246 18.1994C28.9487 18.1679 28.8737 18.1355 28.7978 18.1032C28.7659 18.0901 28.734 18.0761 28.7021 18.063C28.8409 18.1216 28.9797 18.1801 29.1177 18.2387C29.0866 18.2256 29.0556 18.2125 29.0246 18.1994Z" fill="black"/>
<path d="M27.589 17.5953C27.4491 17.5359 27.3092 17.4773 27.1701 17.4178C27.1571 17.4126 27.1442 17.4065 27.1304 17.4012C26.9887 17.3409 26.847 17.2806 26.7062 17.2194C26.7045 17.2194 26.7019 17.2177 26.7002 17.2168C27.1476 17.4091 27.5951 17.5988 28.0443 17.7876C27.8922 17.7238 27.7411 17.66 27.589 17.5962V17.5953Z" fill="black"/>
<path d="M27.5879 16.7157C27.6043 16.7227 27.6206 16.7297 27.6379 16.7367C27.6508 16.7428 27.6646 16.7481 27.6775 16.7533C27.6474 16.7402 27.6181 16.728 27.5879 16.7148V16.7157Z" fill="black"/>
<path d="M24.6549 16.3083C24.6316 16.2978 24.6092 16.2873 24.5859 16.2769C24.6084 16.2873 24.6316 16.2978 24.654 16.3083H24.6549Z" fill="black"/>
<path d="M23.9219 15.9658C23.9865 15.9964 24.0503 16.0261 24.115 16.0567C24.0512 16.0261 23.9865 15.9955 23.9219 15.9658Z" fill="black"/>
<path d="M23.8662 15.9395C23.8824 15.9472 23.8985 15.9541 23.9139 15.9618C23.8977 15.9541 23.8815 15.9472 23.8662 15.9395Z" fill="black"/>
<path d="M23.8211 15.9186C23.816 15.916 23.8108 15.9142 23.8057 15.9116C23.816 15.9169 23.8263 15.9212 23.8366 15.9264C23.8314 15.9238 23.8263 15.9212 23.8203 15.9186H23.8211Z" fill="black"/>
<path d="M24.9434 15.5552C24.9483 15.5577 24.9525 15.5594 24.9574 15.561C24.9525 15.5585 24.9483 15.5568 24.9434 15.5552Z" fill="black"/>
<path d="M24.5996 15.3994C24.6046 15.4019 24.6096 15.4044 24.6154 15.4061C24.6104 15.4036 24.6054 15.4011 24.5996 15.3994Z" fill="black"/>
<path d="M22.6292 15.3752C22.4176 15.2799 22.2051 15.1846 21.9935 15.0884C21.9045 15.0482 21.8164 15.008 21.7283 14.9678C21.6842 14.9477 21.6402 14.9276 21.5961 14.9075C21.5797 14.8996 21.5633 14.8926 21.5469 14.8848C21.9261 15.0587 22.307 15.23 22.6871 15.4014C22.6681 15.3926 22.6482 15.3839 22.6292 15.3752Z" fill="black"/>
<path d="M21.3884 14.8111C21.3436 14.7901 21.2987 14.77 21.2539 14.749C21.3039 14.7726 21.3548 14.7962 21.4048 14.819C21.3996 14.8163 21.3936 14.8137 21.3884 14.8111Z" fill="black"/>
<path d="M21.1984 14.7237C21.1277 14.6905 21.057 14.6572 20.9863 14.624C21.0699 14.6634 21.1536 14.7027 21.238 14.742C21.2251 14.7359 21.2113 14.7298 21.1984 14.7237Z" fill="black"/>
<path d="M20.5124 14.396C20.4676 14.3742 20.4228 14.3523 20.3779 14.3296C20.4702 14.375 20.5633 14.4205 20.6564 14.466C20.6081 14.4424 20.5607 14.4196 20.5124 14.396Z" fill="black"/>
<path d="M20.3251 14.3041C20.2855 14.284 20.2458 14.2647 20.207 14.2446C20.2596 14.2709 20.3122 14.2971 20.3648 14.3233C20.3519 14.3172 20.3389 14.3102 20.3251 14.3041Z" fill="black"/>
<path d="M20.8916 13.6772C20.9086 13.685 20.9248 13.6927 20.9418 13.7014C20.9248 13.6936 20.9086 13.6859 20.8916 13.6772Z" fill="black"/>
<path d="M8.8961 23.0105C8.88662 23.0105 8.87627 23.0088 8.86679 23.0088C8.86334 23.0088 8.85989 23.0088 8.85645 23.0088C8.87972 23.0105 8.903 23.0123 8.92713 23.014C8.91679 23.014 8.90731 23.0123 8.89696 23.0123L8.8961 23.0105Z" fill="black"/>
<path d="M8.79593 23.0027C8.77007 23.0001 8.74507 22.9974 8.7192 22.9948C8.69593 22.9922 8.67265 22.9896 8.65024 22.9861C8.64334 22.9861 8.63645 22.9843 8.62955 22.9835C8.60714 22.9808 8.58472 22.9773 8.56317 22.9738C8.54248 22.9703 8.52266 22.9669 8.50283 22.9642C8.49248 22.9625 8.483 22.9607 8.47266 22.959C8.58386 22.9791 8.69679 22.994 8.81058 23.0044C8.80627 23.0044 8.8011 23.0036 8.79593 23.0027Z" fill="black"/>
<path d="M8.25442 22.9119C8.22942 22.9058 8.20442 22.8988 8.17856 22.8918C8.16562 22.8883 8.15356 22.8848 8.14062 22.8813C8.19407 22.8971 8.24752 22.9111 8.30097 22.9233C8.28545 22.9198 8.26907 22.9154 8.25355 22.9119H8.25442Z" fill="black"/>
<path d="M8.02205 21.9745C8.016 21.9718 8.00995 21.9683 8.00391 21.9648C8.00995 21.9683 8.016 21.971 8.02205 21.9745Z" fill="black"/>
<path d="M21.9168 17.4171C22.0809 17.3812 22.2459 17.3497 22.4109 17.3218C22.245 17.3497 22.0801 17.3812 21.9159 17.4171C18.3874 18.2221 15.5757 20.7309 12.3184 22.1872C15.5757 20.73 18.3874 18.2221 21.9159 17.4171H21.9168Z" fill="black"/>
<path d="M7.9873 21.957C7.9873 21.957 7.99632 21.9615 8.00082 21.9642C7.99632 21.9615 7.99181 21.9597 7.9873 21.957Z" fill="black"/>
<path d="M7.87598 21.8936C7.88619 21.8996 7.89555 21.9056 7.90576 21.9116C7.91086 21.9142 7.91512 21.9168 7.92022 21.9202C7.90576 21.9116 7.89044 21.903 7.87598 21.8944V21.8936Z" fill="black"/>
<path d="M7.81836 21.8564C7.81836 21.8564 7.82647 21.8619 7.83007 21.8637C7.82647 21.861 7.82196 21.8582 7.81836 21.8564Z" fill="black"/>
<path d="M16.2408 19.0481C16.3272 18.9983 16.4127 18.9493 16.4982 18.9004C16.5008 18.8986 16.5025 18.8978 16.5051 18.896C16.5915 18.8462 16.6779 18.7981 16.7643 18.7492C16.823 18.716 16.8817 18.6827 16.9405 18.6504C16.696 18.7868 16.449 18.9275 16.2002 19.0717C16.214 19.0639 16.2278 19.056 16.2417 19.0481H16.2408Z" fill="black"/>
<path d="M17.2814 18.4626C17.3245 18.439 17.3667 18.4163 17.4098 18.3927C17.4503 18.3709 17.4908 18.349 17.5322 18.3271C17.4081 18.3936 17.2831 18.4609 17.1572 18.5299C17.1986 18.5072 17.24 18.4845 17.2814 18.4618V18.4626Z" fill="black"/>
<path d="M17.9579 18.1056C18.0226 18.0724 18.0864 18.0401 18.151 18.0068C18.0355 18.0654 17.9191 18.1248 17.8027 18.1852C17.8545 18.1581 17.9062 18.1318 17.9579 18.1056Z" fill="black"/>
<path d="M18.5601 17.8076C18.6023 17.7875 18.6446 17.7674 18.6877 17.7473C18.7066 17.7386 18.7256 17.729 18.7454 17.7202C18.5894 17.7928 18.4334 17.8679 18.2773 17.9457C18.3713 17.8994 18.4661 17.8531 18.5601 17.8085V17.8076Z" fill="black"/>
<path d="M18.8155 17.6881C18.8456 17.6741 18.8749 17.661 18.9051 17.647C18.8551 17.6697 18.806 17.6924 18.7568 17.7152C18.7767 17.7055 18.7965 17.6968 18.8163 17.6881H18.8155Z" fill="black"/>
<path d="M18.9425 17.6293C19.2206 17.5034 19.4996 17.3846 19.7795 17.2744C19.4919 17.3881 19.2068 17.5096 18.9209 17.6398C18.9278 17.6363 18.9356 17.6328 18.9425 17.6302V17.6293Z" fill="black"/>
<path d="M22.7302 17.2729C22.6483 17.2843 22.5664 17.2966 22.4854 17.3097C22.5672 17.2966 22.6483 17.2843 22.7302 17.2729Z" fill="black"/>
<path d="M22.8717 17.2534C22.8587 17.2552 22.8458 17.2569 22.8329 17.2587C22.8061 17.2622 22.7786 17.2657 22.751 17.27C22.7906 17.2648 22.8311 17.2595 22.8708 17.2543L22.8717 17.2534Z" fill="black"/>
<path d="M19.9475 17.2087C20.039 17.1738 20.1315 17.1397 20.2239 17.1065C20.255 17.0951 20.2869 17.0837 20.318 17.0732C20.3388 17.0654 20.3586 17.0584 20.3794 17.0514C20.4226 17.0365 20.4666 17.0208 20.5098 17.0068C20.5444 16.9946 20.5789 16.9832 20.6135 16.9727C20.6446 16.9622 20.6757 16.9517 20.7068 16.9421C20.718 16.9386 20.7292 16.9351 20.7396 16.9316C20.4364 17.0287 20.1358 17.1362 19.8369 17.2524C19.8741 17.2385 19.9103 17.2236 19.9475 17.2096V17.2087Z" fill="black"/>
<path d="M23.0935 17.2271C23.0685 17.2297 23.0426 17.2323 23.0176 17.2358C22.9978 17.2384 22.9788 17.2402 22.959 17.2428C23.0038 17.2375 23.0486 17.2323 23.0935 17.2271Z" fill="black"/>
<path d="M23.2862 17.207C23.2328 17.2123 23.1784 17.2175 23.125 17.2236C23.1784 17.2175 23.2319 17.2123 23.2862 17.207Z" fill="black"/>
<path d="M23.4493 17.1934C23.4286 17.1951 23.4088 17.1969 23.3881 17.1986C23.3596 17.2012 23.3312 17.2038 23.3027 17.2065C23.3519 17.2021 23.401 17.1977 23.4493 17.1934Z" fill="black"/>
<path d="M23.7973 17.168C23.7844 17.168 23.7723 17.1697 23.7594 17.1706C23.7413 17.1715 23.7232 17.1732 23.7051 17.1741C23.7361 17.1723 23.7663 17.1697 23.7973 17.168Z" fill="black"/>
<path d="M24.9377 17.1372C24.9179 17.1372 24.898 17.1372 24.8773 17.1372C24.5983 17.1372 24.3175 17.1424 24.0385 17.1547C24.0247 17.1547 24.0109 17.1564 23.9971 17.1564C24.3106 17.1416 24.6242 17.1354 24.9377 17.1363V17.1372Z" fill="black"/>
<path d="M25.7398 17.1528C25.695 17.1511 25.6493 17.1502 25.6045 17.1484C25.6588 17.1502 25.714 17.1519 25.7683 17.1537C25.7588 17.1537 25.7493 17.1537 25.739 17.1528H25.7398Z" fill="black"/>
<path d="M25.3092 17.1414C25.2661 17.1414 25.2222 17.1396 25.1782 17.1396C25.1748 17.1396 25.1704 17.1396 25.167 17.1396C25.2222 17.1396 25.2765 17.1414 25.3316 17.1423C25.3239 17.1423 25.317 17.1423 25.3092 17.1423V17.1414Z" fill="black"/>
<path d="M20.8744 16.8888C20.9176 16.8748 20.9617 16.8617 21.0057 16.8486C21.0446 16.8372 21.0835 16.825 21.1232 16.8145C21.1724 16.8005 21.2217 16.7865 21.2718 16.7725C21.315 16.7603 21.359 16.7489 21.4031 16.7367C21.4471 16.7253 21.492 16.7131 21.5361 16.7026C21.581 16.6912 21.6251 16.6799 21.67 16.6694C21.7002 16.6624 21.7296 16.6545 21.7598 16.6484C21.7805 16.6432 21.8004 16.6388 21.8211 16.6335C21.8609 16.6248 21.9006 16.6161 21.9403 16.6073C21.9801 16.5986 22.019 16.5898 22.0596 16.582C22.1554 16.561 22.2522 16.5418 22.3498 16.5243C22.3956 16.5155 22.4413 16.5077 22.4871 16.4998C22.5329 16.4919 22.5796 16.4841 22.6253 16.4762C22.6582 16.471 22.6918 16.4657 22.7247 16.4605C22.7419 16.4578 22.7601 16.4552 22.7782 16.4526C22.8206 16.4465 22.8629 16.4404 22.9043 16.4342C22.951 16.4272 22.9985 16.4211 23.0451 16.415C23.0909 16.4089 23.1358 16.4036 23.1816 16.3984C23.1842 16.3984 23.1868 16.3984 23.1885 16.3975C23.2274 16.3932 23.2663 16.3888 23.3051 16.3844C23.3198 16.3827 23.3345 16.3809 23.3492 16.38C23.3794 16.3766 23.4105 16.3739 23.4408 16.3713C23.4563 16.3696 23.471 16.3678 23.4865 16.3669C23.5237 16.3634 23.56 16.3599 23.5971 16.3573C23.6006 16.3573 23.6031 16.3573 23.6066 16.3564C22.6184 16.4395 21.6959 16.6318 20.8027 16.9124C20.8261 16.9054 20.8502 16.8975 20.8736 16.8905L20.8744 16.8888Z" fill="black"/>
<path d="M23.6237 16.3532C23.6642 16.3497 23.7056 16.347 23.747 16.3436C23.7564 16.3427 23.7651 16.3418 23.7745 16.3418C23.8185 16.3383 23.8625 16.3357 23.9064 16.3331H23.909C23.9573 16.3304 24.0056 16.3278 24.0547 16.3252C23.909 16.3322 23.7642 16.3418 23.6211 16.354C23.622 16.354 23.6228 16.354 23.6237 16.354V16.3532Z" fill="black"/>
<path d="M24.1601 16.3202C24.1825 16.3184 24.2049 16.3184 24.2282 16.3175C24.2696 16.3158 24.3109 16.3149 24.3532 16.3132C24.392 16.3123 24.4308 16.3114 24.4704 16.3105C24.479 16.3105 24.4877 16.3105 24.4963 16.3105C24.348 16.3132 24.2015 16.3175 24.0566 16.3245C24.0911 16.3228 24.1256 16.321 24.1601 16.3202Z" fill="black"/>
<path d="M24.5383 16.3095C24.5771 16.3095 24.6159 16.3086 24.6547 16.3086C24.6064 16.3086 24.5582 16.3086 24.5107 16.3103C24.5202 16.3103 24.5297 16.3103 24.5392 16.3103L24.5383 16.3095Z" fill="black"/>
<path d="M11.5314 26.1148C11.2446 25.0396 10.475 24.2153 9.52051 23.7231C9.67081 23.8009 9.81679 23.8866 9.95759 23.981C10.0042 24.0125 10.05 24.0448 10.0958 24.0772C10.2547 24.1934 10.405 24.3193 10.5458 24.4557C10.5657 24.4749 10.5856 24.495 10.6054 24.5151C10.8214 24.7345 11.0114 24.9784 11.1678 25.245C11.1963 25.2931 11.2239 25.3429 11.2498 25.3927C11.3682 25.6182 11.4632 25.8586 11.5305 26.113C11.5331 26.1279 11.5375 26.1436 11.5409 26.1593C11.5435 26.1733 11.5478 26.1864 11.5504 26.2013C11.5651 26.2625 11.5824 26.3307 11.6005 26.4023C11.6005 26.4023 11.6005 26.4032 11.6005 26.4041C11.5737 26.2957 11.547 26.196 11.5305 26.113L11.5314 26.1148Z" fill="black"/>
<path d="M10.6611 26.0288C10.6698 26.0507 10.6784 26.0725 10.6861 26.0952C10.6784 26.0734 10.6698 26.0507 10.6611 26.0288Z" fill="black"/>
<path d="M7.31055 23.2074C7.84523 23.1969 8.38597 23.2843 8.89647 23.4583C8.9768 23.4854 9.05627 23.5151 9.13487 23.5474C9.18756 23.5684 9.23939 23.5903 9.29122 23.6139C9.31713 23.6252 9.34305 23.6375 9.36896 23.6497C9.41906 23.6733 9.46916 23.6978 9.5184 23.7231C8.84032 23.3743 8.06896 23.1934 7.31055 23.2074Z" fill="black"/>
<path d="M40.3956 16.9163C40.3913 16.9145 40.387 16.9119 40.3818 16.9102C40.3904 16.9145 40.3981 16.918 40.4067 16.9224C40.4033 16.9206 40.399 16.9189 40.3956 16.9171V16.9163Z" fill="black"/>
<path d="M34.3242 16.6792C34.3242 16.6792 34.3301 16.6825 34.3335 16.6842C34.3301 16.6825 34.3276 16.6809 34.3242 16.6792Z" fill="black"/>
<path d="M36.4273 16.645C36.3652 16.6573 36.3032 16.6695 36.2402 16.6817C36.3023 16.6695 36.3644 16.6573 36.4273 16.645Z" fill="black"/>
<path d="M34.2881 16.6572C34.2881 16.6572 34.294 16.6606 34.2965 16.6622C34.294 16.6606 34.2906 16.6589 34.2881 16.6572Z" fill="black"/>
<path d="M34.2744 16.6484C34.2744 16.6484 34.2803 16.6526 34.2836 16.6543C34.2803 16.6526 34.2778 16.6501 34.2744 16.6484Z" fill="black"/>
<path d="M34.2598 16.6382C34.2598 16.6382 34.2679 16.6436 34.2724 16.6463C34.2679 16.6436 34.2643 16.6409 34.2598 16.6382Z" fill="black"/>
<path d="M34.2402 16.623C34.246 16.6272 34.2527 16.6322 34.2585 16.6364C34.2518 16.6322 34.246 16.6272 34.2402 16.623Z" fill="black"/>
<path d="M34.2275 16.6138C34.2275 16.6138 34.2357 16.6201 34.2402 16.6228C34.2357 16.6201 34.232 16.6165 34.2275 16.6138Z" fill="black"/>
<path d="M33.9385 15.9858C33.9428 16.2271 34.0385 16.4622 34.2264 16.6126C34.0385 16.4622 33.9428 16.2271 33.9393 15.9858H33.9385Z" fill="black"/>
<path d="M37.9003 16.4922C37.813 16.4922 37.7249 16.4931 37.6377 16.4957C37.9996 16.4869 38.3659 16.4957 38.7287 16.5298C38.4531 16.5036 38.1758 16.4922 37.9003 16.4922Z" fill="black"/>
<path d="M37.3781 16.5053C37.3445 16.507 37.3109 16.5096 37.2773 16.5123C37.2756 16.5123 37.2747 16.5123 37.273 16.5123C37.2402 16.5149 37.2066 16.5184 37.1738 16.5219C37.2419 16.5149 37.3092 16.5088 37.3773 16.5044L37.3781 16.5053Z" fill="black"/>
<path d="M37.4221 16.5028C37.4323 16.5028 37.4416 16.502 37.4518 16.502C37.4416 16.502 37.4323 16.502 37.4221 16.5028C37.4178 16.5028 37.4144 16.5028 37.4102 16.5028C37.4144 16.5028 37.4187 16.5028 37.4221 16.5028Z" fill="black"/>
<path d="M40.2589 16.0063C40.1167 15.9582 39.9719 15.918 39.8262 15.8848C39.9719 15.9189 40.1167 15.9582 40.2589 16.0063Z" fill="black"/>
<path d="M38.227 15.6863C38.0612 15.6776 37.8953 15.675 37.7295 15.6793C37.783 15.6784 37.8366 15.6776 37.8893 15.6776C38.0025 15.6776 38.1147 15.6802 38.227 15.6863C38.7401 15.7222 39.2593 15.7606 39.762 15.8699C39.2593 15.7606 38.7393 15.7222 38.227 15.6863Z" fill="black"/>
<path d="M31.918 15.8892C31.6787 15.8909 31.4429 15.856 31.2227 15.752C31.4386 15.8542 31.6675 15.8892 31.9016 15.8901C31.9076 15.8901 31.9128 15.8901 31.9189 15.8901L31.918 15.8892Z" fill="black"/>
<path d="M33.1108 15.7227C33.0289 15.7384 32.9462 15.7533 32.8643 15.7664C32.947 15.7533 33.0289 15.7384 33.1117 15.7227H33.1108Z" fill="black"/>
<path d="M30.9951 15.5806C31.0062 15.5926 31.0181 15.6047 31.03 15.6167C31.0181 15.6055 31.0062 15.5935 30.9951 15.5806Z" fill="black"/>
<path d="M34.9979 14.4115C33.7877 14.7384 31.7673 15.2891 31.6309 15.0024C31.6576 15.0584 31.7561 15.082 31.9064 15.082C32.5257 15.082 34.0253 14.6746 34.9988 14.4106L34.9979 14.4115Z" fill="black"/>
<path d="M34.3286 13.9922C34.322 13.9922 34.3162 13.9922 34.3096 13.993C34.3162 13.993 34.322 13.993 34.3286 13.9922Z" fill="black"/>
<path d="M28.1953 14.728C28.2539 14.7403 28.3143 14.7473 28.3746 14.7481C28.3143 14.7481 28.2539 14.7403 28.1953 14.728Z" fill="black"/>
<path d="M28.1855 14.7256C28.1855 14.7256 28.1914 14.7273 28.1948 14.7273C28.1914 14.7273 28.1889 14.7256 28.1855 14.7256Z" fill="black"/>
<path d="M30.1363 14.5342C30.1363 14.5342 30.1304 14.535 30.1279 14.5358C30.1304 14.5358 30.1338 14.535 30.1363 14.5342Z" fill="black"/>
<path d="M28.609 13.937C28.6013 13.937 28.5927 13.937 28.585 13.9379C28.5927 13.9379 28.6013 13.9379 28.609 13.937Z" fill="black"/>
<path d="M28.7373 13.9302C28.7323 13.9302 28.7265 13.9302 28.7207 13.931C28.7265 13.931 28.7315 13.931 28.7373 13.9302Z" fill="black"/>
<path d="M28.7696 13.9282C28.7647 13.9282 28.7597 13.9282 28.7539 13.9291C28.7589 13.9291 28.7638 13.9291 28.7696 13.9282Z" fill="black"/>
<path d="M28.7957 13.9268C28.7912 13.9268 28.7867 13.9268 28.7822 13.9277C28.7867 13.9277 28.7912 13.9277 28.7957 13.9268Z" fill="black"/>
<path d="M28.8203 13.9248C28.8203 13.9248 28.8122 13.9248 28.8086 13.9257C28.8122 13.9257 28.8167 13.9257 28.8203 13.9248Z" fill="black"/>
<path d="M28.8465 13.9224C28.842 13.9224 28.8375 13.9224 28.833 13.9233C28.8375 13.9233 28.842 13.9233 28.8465 13.9224Z" fill="black"/>
<path d="M28.8732 13.9194C28.8682 13.9194 28.8624 13.9203 28.8574 13.9211C28.8624 13.9211 28.8682 13.9203 28.8732 13.9194Z" fill="black"/>
<path d="M28.9312 13.9146C28.9271 13.9146 28.9221 13.9154 28.918 13.9162C28.9221 13.9162 28.9271 13.9154 28.9312 13.9146Z" fill="black"/>
<path d="M28.9566 13.9126C28.9525 13.9126 28.9483 13.9134 28.9434 13.9143C28.9475 13.9143 28.9516 13.9134 28.9566 13.9126Z" fill="black"/>
<path d="M28.981 13.9102C28.9769 13.9102 28.9719 13.911 28.9678 13.9118C28.9719 13.9118 28.9769 13.911 28.981 13.9102Z" fill="black"/>
<path d="M29.0059 13.9072C29.0059 13.9072 28.9977 13.9072 28.9941 13.9081C28.9986 13.9081 29.0023 13.9081 29.0059 13.9072Z" fill="black"/>
<path d="M29.0336 13.9038C29.0286 13.9038 29.0237 13.9046 29.0195 13.9055C29.0245 13.9055 29.0295 13.9046 29.0336 13.9038Z" fill="black"/>
<path d="M29.0657 13.9004C29.0607 13.9004 29.0558 13.9012 29.0508 13.9021C29.0558 13.9021 29.0607 13.9012 29.0657 13.9004Z" fill="black"/>
<path d="M29.0926 13.897C29.0881 13.897 29.0836 13.8979 29.0791 13.8988C29.0836 13.8988 29.0881 13.8979 29.0926 13.897Z" fill="black"/>
<path d="M28.5492 13.8892C28.5443 13.8917 28.5401 13.8942 28.5352 13.8958C28.5401 13.8933 28.5443 13.8908 28.5492 13.8892Z" fill="black"/>
<path d="M29.1168 13.894C29.1126 13.894 29.1077 13.8949 29.1035 13.8957C29.1077 13.8957 29.1126 13.8949 29.1168 13.894Z" fill="black"/>
<path d="M29.1424 13.8906C29.1424 13.8906 29.1334 13.8915 29.1289 13.8924C29.1334 13.8924 29.1379 13.8915 29.1424 13.8906Z" fill="black"/>
<path d="M29.1669 13.8882C29.1669 13.8882 29.1588 13.8891 29.1543 13.89C29.1588 13.89 29.1624 13.8891 29.1669 13.8882Z" fill="black"/>
<path d="M29.2274 13.8794C29.2216 13.8794 29.2158 13.8811 29.21 13.8819C29.2158 13.8819 29.2216 13.8802 29.2274 13.8794Z" fill="black"/>
<path d="M28.5838 13.8726C28.5838 13.8726 28.5748 13.8771 28.5703 13.8789C28.5748 13.8771 28.5793 13.8744 28.5838 13.8726Z" fill="black"/>
<path d="M29.2537 13.876C29.2479 13.876 29.2421 13.8776 29.2363 13.8785C29.2421 13.8785 29.2479 13.8768 29.2537 13.876Z" fill="black"/>
<path d="M29.3913 13.855C29.3568 13.8602 29.3215 13.8655 29.2861 13.8707C29.3215 13.8655 29.356 13.8602 29.3913 13.855Z" fill="black"/>
<path d="M28.6175 13.8564C28.6175 13.8564 28.6108 13.8598 28.6074 13.8615C28.6108 13.8598 28.6141 13.8581 28.6175 13.8564Z" fill="black"/>
<path d="M31.3594 13.5229C30.6995 13.5885 30.0491 13.7528 29.3926 13.8551C30.0482 13.7528 30.7004 13.5876 31.3594 13.5229Z" fill="black"/>
<path d="M28.6508 13.8398C28.6508 13.8398 28.645 13.8423 28.6416 13.844C28.645 13.8423 28.6475 13.8415 28.6508 13.8398Z" fill="black"/>
<path d="M29.7645 12.5645C29.4251 12.6615 29.0744 12.7777 28.7539 12.9071C29.0744 12.7777 29.4242 12.6615 29.7637 12.5645H29.7645Z" fill="black"/>
<path d="M29.8028 12.5532C29.7918 12.5558 29.7816 12.5593 29.7705 12.5627C29.7816 12.5593 29.7918 12.5567 29.8028 12.5532Z" fill="black"/>
<path d="M26.252 13.9395C26.2656 13.9395 26.2792 13.9395 26.2928 13.9412C26.2792 13.9412 26.2656 13.9403 26.252 13.9395Z" fill="black"/>
<path d="M26.5044 13.939C26.4966 13.939 26.4897 13.939 26.4819 13.939C26.4595 13.9398 26.4371 13.9407 26.4138 13.9407C26.4087 13.9407 26.4026 13.9407 26.3975 13.9407C26.4328 13.9407 26.469 13.9398 26.5044 13.939Z" fill="black"/>
<path d="M24.2704 13.5044C24.3282 13.5507 24.3885 13.5918 24.4506 13.6276C24.3885 13.5909 24.3282 13.5498 24.2695 13.5044H24.2704Z" fill="black"/>
<path d="M24.2549 13.4932C24.259 13.4965 24.264 13.5007 24.269 13.504C24.264 13.5007 24.2599 13.4965 24.2549 13.4932Z" fill="black"/>
<path d="M24.2402 13.48C24.2402 13.48 24.2483 13.4872 24.2528 13.4908C24.2483 13.4872 24.2438 13.4836 24.2402 13.48Z" fill="black"/>
<path d="M24.2246 13.4678C24.2246 13.4678 24.2327 13.475 24.2372 13.4786C24.2327 13.475 24.2291 13.4714 24.2246 13.4678Z" fill="black"/>
<path d="M24.21 13.4546C24.21 13.4546 24.2181 13.4618 24.2226 13.4654C24.2181 13.4618 24.2145 13.4582 24.21 13.4546Z" fill="black"/>
<path d="M24.0168 12.979C24.0125 13.146 24.0694 13.3138 24.1918 13.4379C24.0686 13.3138 24.0125 13.146 24.0168 12.979Z" fill="black"/>
<path d="M28.7545 12.9073C28.7442 12.9056 28.7339 12.9047 28.7236 12.9038C28.7339 12.9047 28.7442 12.9064 28.7537 12.9073H28.7545Z" fill="black"/>
<path d="M29.939 12.3364C29.7882 12.339 29.6373 12.346 29.4873 12.3522C29.6373 12.346 29.7882 12.3399 29.939 12.3364Z" fill="black"/>
<path d="M25.929 11.8934C25.9601 11.8881 25.9912 11.882 26.0231 11.8768C26.0534 11.8715 26.0845 11.8663 26.1156 11.8611C26.1475 11.8558 26.1795 11.8506 26.2123 11.8453C26.2443 11.8401 26.2762 11.8348 26.3082 11.8305C26.5958 11.7868 26.8895 11.7509 27.1772 11.7212C26.6658 11.7745 26.1354 11.8453 25.6543 11.9476C25.7441 11.9284 25.8366 11.91 25.929 11.8925V11.8934Z" fill="black"/>
<path d="M25.5211 14.4238C25.5211 14.4238 25.516 14.4247 25.5134 14.4256C25.4998 14.429 25.4854 14.4324 25.4717 14.4359C25.4675 14.4367 25.4632 14.4376 25.459 14.4385C25.4803 14.4342 25.5007 14.429 25.5211 14.4238Z" fill="black"/>
<path d="M25.6549 14.3853C25.6488 14.387 25.6428 14.3896 25.6368 14.3914C25.6238 14.3957 25.61 14.4001 25.5962 14.4036C25.585 14.4071 25.5738 14.4106 25.5618 14.4132C25.5566 14.415 25.5514 14.4158 25.5454 14.4176C25.5419 14.4185 25.5385 14.4193 25.5342 14.4211C25.5764 14.4097 25.6169 14.3975 25.654 14.3853H25.6549Z" fill="black"/>
<path d="M25.9667 14.2266C25.9667 14.2266 25.9598 14.2318 25.9555 14.2344C25.9451 14.2423 25.9348 14.2493 25.9236 14.2563C25.9184 14.2598 25.9141 14.2633 25.9089 14.2659C25.8995 14.272 25.8891 14.2781 25.8788 14.2843C25.8538 14.2991 25.8262 14.314 25.7969 14.328C25.8624 14.2965 25.9184 14.2624 25.9667 14.2266Z" fill="black"/>
<path d="M26.0402 14.1626C26.0351 14.1678 26.03 14.1729 26.024 14.1781C26.0181 14.1841 26.0121 14.1902 26.0053 14.1953C26.0019 14.1979 25.9985 14.2013 25.9951 14.2039C26.0113 14.1902 26.0266 14.1764 26.0402 14.1626Z" fill="black"/>
<path d="M26.172 13.938C26.1677 13.9563 26.1617 13.9756 26.1539 13.9948C26.1514 14.0009 26.1488 14.007 26.1462 14.0132C26.1436 14.0193 26.1402 14.0254 26.1367 14.0324C26.1177 14.07 26.0919 14.1067 26.0591 14.1425C26.0548 14.1469 26.0505 14.1521 26.0453 14.1565C26.0445 14.1583 26.0427 14.16 26.041 14.1618C26.1117 14.0901 26.1539 14.0132 26.1712 13.938H26.172Z" fill="black"/>
<path d="M25.2971 11.7874C24.4851 11.5715 23.4788 11.9753 23.2119 12.8162C23.478 11.9753 24.4851 11.5715 25.2971 11.7874Z" fill="black"/>
<path d="M25.6537 11.9482C25.5907 11.8931 25.5088 11.8468 25.4062 11.8145C25.4407 11.8249 25.4726 11.8381 25.5019 11.8512C25.5071 11.8538 25.5131 11.8564 25.5183 11.859C25.5562 11.8774 25.5907 11.8984 25.62 11.9211C25.6252 11.9246 25.6295 11.9281 25.6347 11.9325C25.6416 11.9377 25.6476 11.9429 25.6537 11.9482Z" fill="black"/>
<path d="M25.3945 11.811C25.3945 11.811 25.4026 11.8137 25.4071 11.8146C25.4026 11.8137 25.399 11.8119 25.3945 11.811Z" fill="black"/>
<path d="M28.5707 15.7998C28.5658 15.8015 28.5616 15.8031 28.5566 15.804C28.5616 15.8023 28.5658 15.8006 28.5707 15.7998Z" fill="black"/>
<path d="M28.6137 15.7856C28.6018 15.7899 28.5899 15.7943 28.5771 15.7986C28.5891 15.7943 28.6018 15.7899 28.6137 15.7856Z" fill="black"/>
<path d="M27.9978 15.078C27.8363 15.0815 27.6747 15.0596 27.527 15.0176C27.6635 15.057 27.8138 15.0788 27.9632 15.0788C27.9745 15.0788 27.9857 15.0788 27.9978 15.0788V15.078Z" fill="black"/>
<path d="M28.0826 15.0732C28.0664 15.075 28.0494 15.0758 28.0332 15.0767C28.0494 15.0767 28.0664 15.075 28.0826 15.0732Z" fill="black"/>
<path d="M28.0992 15.0718C28.0951 15.0718 28.0901 15.0718 28.0859 15.0726C28.0901 15.0726 28.0951 15.0726 28.0992 15.0718Z" fill="black"/>
<path d="M28.117 15.0698C28.1125 15.0698 28.108 15.0707 28.1035 15.0716C28.108 15.0716 28.1125 15.0716 28.117 15.0698Z" fill="black"/>
<path d="M28.1346 15.0684C28.1301 15.0684 28.1256 15.0693 28.1211 15.0702C28.1256 15.0702 28.1301 15.0693 28.1346 15.0684Z" fill="black"/>
<path d="M28.1691 15.064C28.158 15.0657 28.1478 15.0665 28.1367 15.0683C28.1478 15.0674 28.158 15.0657 28.1691 15.064Z" fill="black"/>
<path d="M28.2012 15.0586C28.2012 15.0586 28.1931 15.0595 28.1895 15.0604C28.1931 15.0604 28.1976 15.0595 28.2012 15.0586Z" fill="black"/>
<path d="M28.2171 15.0562C28.2171 15.0562 28.2104 15.0578 28.207 15.0578C28.2104 15.0578 28.2137 15.057 28.2171 15.0562Z" fill="black"/>
<path d="M28.2353 15.0522C28.2353 15.0522 28.2263 15.054 28.2227 15.055C28.2272 15.055 28.2317 15.0531 28.2353 15.0522Z" fill="black"/>
<path d="M28.27 15.0454C28.2597 15.048 28.2494 15.0498 28.2383 15.0524C28.2486 15.0506 28.2597 15.048 28.27 15.0454Z" fill="black"/>
<path d="M28.2852 15.042C28.2852 15.042 28.277 15.0438 28.2734 15.0447C28.277 15.0438 28.2815 15.0429 28.2852 15.042Z" fill="black"/>
<path d="M28.3011 15.0376C28.3011 15.0376 28.2944 15.0393 28.291 15.0401C28.2944 15.0401 28.2977 15.0384 28.3011 15.0376Z" fill="black"/>
<path d="M28.3159 15.0342C28.3159 15.0342 28.31 15.0358 28.3066 15.0367C28.31 15.0367 28.3125 15.035 28.3159 15.0342Z" fill="black"/>
<path d="M28.334 15.0288C28.334 15.0288 28.3268 15.0306 28.3223 15.0315C28.3259 15.0306 28.3295 15.0297 28.334 15.0288Z" fill="black"/>
<path d="M28.368 15.019C28.368 15.019 28.359 15.0217 28.3545 15.0236C28.359 15.0217 28.3635 15.0208 28.368 15.019Z" fill="black"/>
<path d="M28.3823 15.0142C28.3823 15.0142 28.3756 15.0158 28.373 15.0175C28.3764 15.0167 28.3798 15.0158 28.3823 15.0142Z" fill="black"/>
<path d="M28.3971 15.0088C28.3971 15.0088 28.3912 15.0105 28.3887 15.0113C28.3912 15.0105 28.3945 15.0096 28.3971 15.0088Z" fill="black"/>
<path d="M28.4117 15.0034C28.4117 15.0034 28.4058 15.0051 28.4033 15.0068C28.4058 15.0059 28.4092 15.0051 28.4117 15.0034Z" fill="black"/>
<path d="M28.429 14.9976C28.429 14.9976 28.4223 15.0001 28.4189 15.0009C28.4223 15.0001 28.4257 14.9984 28.429 14.9976Z" fill="black"/>
<path d="M28.4467 14.9902C28.4417 14.9919 28.4376 14.9936 28.4326 14.9961C28.4376 14.9944 28.4417 14.9927 28.4467 14.9902Z" fill="black"/>
<path d="M28.4612 14.9844C28.4612 14.9844 28.4545 14.9869 28.4512 14.9885C28.4545 14.9869 28.4579 14.986 28.4612 14.9844Z" fill="black"/>
<path d="M28.4752 14.978C28.4752 14.978 28.4693 14.9805 28.4668 14.9814C28.4693 14.9805 28.4727 14.9789 28.4752 14.978Z" fill="black"/>
<path d="M28.4898 14.9712C28.4898 14.9712 28.484 14.9737 28.4814 14.9754C28.484 14.9737 28.4873 14.9729 28.4898 14.9712Z" fill="black"/>
<path d="M28.5053 14.9644C28.5053 14.9644 28.4995 14.9669 28.4961 14.9685C28.4995 14.9669 28.502 14.966 28.5053 14.9644Z" fill="black"/>
<path d="M28.5225 14.957C28.5225 14.957 28.5152 14.9606 28.5107 14.9624C28.5143 14.9606 28.5189 14.9588 28.5225 14.957Z" fill="black"/>
<path d="M28.538 14.9482C28.538 14.9482 28.5299 14.9528 28.5254 14.9546C28.5299 14.9528 28.5335 14.95 28.538 14.9482Z" fill="black"/>
<path d="M29.69 14.7944C29.69 14.7944 29.6883 14.7988 29.6874 14.8006C29.684 14.8102 29.6797 14.8207 29.6762 14.8303C29.665 14.8574 29.6529 14.8836 29.6391 14.9081C29.6357 14.9151 29.6314 14.9221 29.6279 14.929C29.6521 14.888 29.6736 14.8425 29.69 14.7944Z" fill="black"/>
<path d="M28.6069 14.9082C28.6069 14.9082 28.601 14.9124 28.5977 14.914C28.601 14.9124 28.6035 14.9107 28.6069 14.9082Z" fill="black"/>
<path d="M29.7024 14.7578C29.7006 14.7641 29.6988 14.7694 29.697 14.7748C29.6961 14.7783 29.6952 14.781 29.6943 14.7846C29.697 14.7756 29.7006 14.7667 29.7033 14.7578H29.7024Z" fill="black"/>
<path d="M29.71 14.731C29.7084 14.7359 29.7069 14.7416 29.7061 14.7465C29.7076 14.7416 29.7092 14.7359 29.71 14.731Z" fill="black"/>
<path d="M26.3471 14.4118C26.3532 14.3672 26.3618 14.3235 26.3721 14.2798C26.3747 14.2684 26.3773 14.2579 26.3799 14.2474C26.3799 14.2457 26.3808 14.2439 26.3816 14.2422C26.367 14.2973 26.3549 14.3541 26.3471 14.4118C26.3411 14.459 26.3377 14.5053 26.3359 14.5508C26.3368 14.5053 26.3411 14.459 26.3471 14.4118Z" fill="black"/>
<path d="M26.3895 14.2158C26.3895 14.2158 26.3904 14.2116 26.3912 14.21C26.3904 14.2125 26.3895 14.2158 26.3887 14.2183C26.3887 14.2183 26.3887 14.2166 26.3887 14.2158H26.3895Z" fill="black"/>
<path d="M26.4449 14.0611C26.4492 14.0515 26.4535 14.041 26.4578 14.0314C26.4612 14.0235 26.4647 14.0157 26.469 14.0078C26.4595 14.0279 26.45 14.048 26.4414 14.0681C26.4423 14.0655 26.4431 14.0638 26.4449 14.0611Z" fill="black"/>
<path d="M26.4729 13.999C26.4729 13.999 26.4704 14.0049 26.4688 14.0074C26.4704 14.0049 26.4713 14.0015 26.4729 13.999Z" fill="black"/>
<path d="M31.166 17.0596C31.1718 17.0596 31.1776 17.0604 31.1834 17.0612C31.1776 17.0612 31.1718 17.0612 31.166 17.0596Z" fill="black"/>
<path d="M31.1484 17.0576C31.1534 17.0576 31.1592 17.0585 31.1642 17.0593C31.1592 17.0593 31.1534 17.0585 31.1484 17.0576Z" fill="black"/>
<path d="M31.1289 17.0562C31.1339 17.0562 31.138 17.057 31.143 17.0578C31.138 17.0578 31.1339 17.057 31.1289 17.0562Z" fill="black"/>
<path d="M31.1055 17.0532C31.1113 17.0532 31.1171 17.0549 31.1237 17.0549C31.1179 17.0549 31.1121 17.0532 31.1055 17.0532Z" fill="black"/>
<path d="M31.0869 17.0508C31.0919 17.0508 31.0977 17.0525 31.1035 17.0533C31.0985 17.0533 31.0927 17.0516 31.0869 17.0508Z" fill="black"/>
<path d="M31.0674 17.0479C31.0724 17.0479 31.0773 17.0495 31.0823 17.0504C31.0773 17.0504 31.0724 17.0487 31.0674 17.0479Z" fill="black"/>
<path d="M31.0449 17.0444C31.0507 17.0453 31.0565 17.0461 31.0631 17.0469C31.0573 17.0461 31.0515 17.0453 31.0449 17.0444Z" fill="black"/>
<path d="M31.0264 17.041C31.0313 17.0419 31.0371 17.0427 31.0429 17.0435C31.038 17.0427 31.0322 17.0419 31.0264 17.041Z" fill="black"/>
<path d="M31.0059 17.0376C31.0108 17.0384 31.0166 17.0393 31.0216 17.0409C31.0158 17.0401 31.0108 17.0393 31.0059 17.0376Z" fill="black"/>
<path d="M30.9854 17.0332C30.9912 17.0349 30.9978 17.0357 31.0036 17.0365C30.9978 17.0357 30.9912 17.034 30.9854 17.0332Z" fill="black"/>
<path d="M30.9668 17.0298C30.9726 17.0315 30.9784 17.0323 30.9842 17.0331C30.9784 17.0323 30.9726 17.0306 30.9668 17.0298Z" fill="black"/>
<path d="M30.9082 17.0156C30.9269 17.0208 30.9448 17.0251 30.9635 17.0294C30.9448 17.0251 30.9261 17.0208 30.9082 17.0156Z" fill="black"/>
<path d="M30.8516 16.999C30.8694 17.0042 30.8881 17.0102 30.9069 17.0145C30.8881 17.0094 30.8703 17.0042 30.8516 16.999Z" fill="black"/>
<path d="M30.7949 16.981C30.8128 16.987 30.8307 16.993 30.8494 16.999C30.8307 16.993 30.8128 16.9878 30.7949 16.981Z" fill="black"/>
<path d="M30.1924 16.5854C30.3565 16.7594 30.5612 16.8975 30.7944 16.9797C30.5604 16.8975 30.3565 16.7594 30.1924 16.5854Z" fill="black"/>
<path d="M30.166 16.5576C30.1746 16.5672 30.1823 16.5759 30.1909 16.5846C30.1823 16.5759 30.1737 16.5663 30.166 16.5576Z" fill="black"/>
<path d="M30.1289 16.5156C30.1366 16.5252 30.1443 16.5339 30.1529 16.5435C30.1452 16.5339 30.1366 16.5252 30.1289 16.5156Z" fill="black"/>
<path d="M30.1182 16.501C30.1218 16.5055 30.1254 16.51 30.1299 16.5145C30.1263 16.51 30.1227 16.5055 30.1182 16.501Z" fill="black"/>
<path d="M30.0947 16.4722C30.1024 16.4818 30.1093 16.4913 30.117 16.5001C30.1093 16.4905 30.1016 16.4809 30.0947 16.4722Z" fill="black"/>
<path d="M30.083 16.457C30.083 16.457 30.0893 16.466 30.0929 16.4697C30.0893 16.4651 30.0866 16.4606 30.083 16.457Z" fill="black"/>
<path d="M30.0605 16.4272C30.0677 16.4371 30.0748 16.4469 30.082 16.4558C30.0748 16.446 30.0677 16.4362 30.0605 16.4272Z" fill="black"/>
<path d="M30.0498 16.4116C30.0498 16.4116 30.0561 16.4197 30.0588 16.4242C30.0561 16.4197 30.0525 16.4161 30.0498 16.4116Z" fill="black"/>
<path d="M30.0381 16.395C30.0416 16.4003 30.045 16.4047 30.0485 16.41C30.045 16.4056 30.0416 16.4003 30.0381 16.395Z" fill="black"/>
<path d="M30.0283 16.3813C30.0283 16.3813 30.0346 16.3904 30.0373 16.3949C30.0346 16.3904 30.031 16.3859 30.0283 16.3813Z" fill="black"/>
<path d="M32.5904 16.3804C32.5904 16.3804 32.5864 16.3869 32.584 16.3902C32.5864 16.3869 32.588 16.3836 32.5904 16.3804Z" fill="black"/>
<path d="M32.5984 16.3682C32.5984 16.3682 32.5952 16.3739 32.5928 16.3771C32.5944 16.3739 32.596 16.3714 32.5984 16.3682Z" fill="black"/>
<path d="M30.0186 16.3662C30.0186 16.3662 30.0236 16.3737 30.0261 16.3771C30.0236 16.3737 30.0211 16.3695 30.0186 16.3662Z" fill="black"/>
<path d="M30.0068 16.3486C30.0095 16.3531 30.0131 16.3586 30.0167 16.3631C30.0131 16.3586 30.0104 16.3531 30.0068 16.3486Z" fill="black"/>
<path d="M29.998 16.334C29.998 16.334 30.0022 16.3407 30.0048 16.3448C30.0022 16.3415 30.0006 16.3382 29.998 16.334Z" fill="black"/>
<path d="M29.9883 16.3188C29.9883 16.3188 29.9923 16.3254 29.9939 16.3286C29.9923 16.3254 29.9899 16.3221 29.9883 16.3188Z" fill="black"/>
<path d="M29.9775 16.3008C29.9802 16.3053 29.9829 16.3107 29.9866 16.3152C29.9838 16.3107 29.9811 16.3053 29.9775 16.3008Z" fill="black"/>
<path d="M29.9688 16.2856C29.9688 16.2856 29.9728 16.2922 29.9744 16.2954C29.9728 16.2922 29.9704 16.2889 29.9688 16.2856Z" fill="black"/>
<path d="M29.9609 16.271C29.9609 16.271 29.9642 16.2775 29.9666 16.2808C29.965 16.2775 29.9634 16.2743 29.9609 16.271Z" fill="black"/>
<path d="M31.8988 15.979C31.6172 16.3182 31.0601 16.3383 30.75 16.0288C30.8968 16.1757 31.0989 16.2482 31.3011 16.2482C31.5256 16.2482 31.7511 16.1582 31.8997 15.979H31.8988Z" fill="black"/>
<path d="M29.9414 16.2368C29.9414 16.2368 29.9446 16.2433 29.9462 16.2458C29.9446 16.2425 29.943 16.2393 29.9414 16.2368Z" fill="black"/>
<path d="M29.9336 16.2222C29.9336 16.2222 29.9368 16.2279 29.9384 16.2311C29.9368 16.2279 29.9352 16.2254 29.9336 16.2222Z" fill="black"/>
<path d="M29.9238 16.2026C29.9265 16.2071 29.9283 16.2117 29.931 16.2171C29.9283 16.2126 29.9265 16.208 29.9238 16.2026Z" fill="black"/>
<path d="M29.917 16.187C29.917 16.187 29.9195 16.1929 29.9212 16.1954C29.9195 16.1929 29.9187 16.1895 29.917 16.187Z" fill="black"/>
<path d="M29.9092 16.1714C29.9092 16.1714 29.9116 16.1771 29.9132 16.1804C29.9116 16.1771 29.91 16.1747 29.9092 16.1714Z" fill="black"/>
<path d="M29.8994 16.1519C29.9012 16.1564 29.9039 16.1618 29.9057 16.1663C29.903 16.1618 29.9012 16.1564 29.8994 16.1519Z" fill="black"/>
<path d="M29.8926 16.1362C29.8926 16.1362 29.8951 16.1421 29.8968 16.1446C29.8951 16.1421 29.8943 16.1387 29.8926 16.1362Z" fill="black"/>
<path d="M29.8857 16.1196C29.8857 16.1196 29.8882 16.1262 29.8898 16.1286C29.8882 16.1253 29.8874 16.1221 29.8857 16.1196Z" fill="black"/>
<path d="M29.877 16.1006C29.8788 16.1051 29.8806 16.1096 29.8833 16.115C29.8815 16.1105 29.8797 16.106 29.877 16.1006Z" fill="black"/>
<path d="M29.8711 16.085C29.8711 16.085 29.8736 16.0908 29.8745 16.0933C29.8736 16.0908 29.8719 16.0875 29.8711 16.085Z" fill="black"/>
<path d="M29.8643 16.0684C29.8643 16.0684 29.8667 16.0741 29.8675 16.0773C29.8667 16.0741 29.8651 16.0716 29.8643 16.0684Z" fill="black"/>
<path d="M29.8564 16.0479C29.8564 16.0479 29.8589 16.0544 29.8605 16.0576C29.8589 16.0544 29.8581 16.0511 29.8564 16.0479Z" fill="black"/>
<path d="M29.8447 16.0156C29.8447 16.0156 29.8471 16.0222 29.848 16.0246C29.8471 16.0213 29.8455 16.0181 29.8447 16.0156Z" fill="black"/>
<path d="M32.6924 15.8682C32.6941 15.8752 32.695 15.8822 32.6958 15.8891C32.6984 15.9049 32.7001 15.9206 32.701 15.9363C32.7027 15.9608 32.7027 15.9853 32.7019 16.0098C32.7036 15.9617 32.7001 15.9136 32.6924 15.8682Z" fill="black"/>
<path d="M30.7982 15.0078C30.5241 15.222 30.4629 15.6957 30.7319 16.0096C30.4629 15.6957 30.5241 15.2228 30.7982 15.0078Z" fill="black"/>
<path d="M29.8379 15.9956C29.8379 15.9956 29.8403 16.0021 29.8411 16.0054C29.8403 16.0021 29.8387 15.9989 29.8379 15.9956Z" fill="black"/>
<path d="M29.832 15.979C29.832 15.979 29.8336 15.9847 29.8353 15.988C29.8345 15.9847 29.8336 15.9823 29.832 15.979Z" fill="black"/>
<path d="M29.8203 15.9414C29.8203 15.9414 29.823 15.9495 29.8239 15.954C29.823 15.9495 29.8212 15.9459 29.8203 15.9414Z" fill="black"/>
<path d="M29.8154 15.9248C29.8154 15.9248 29.817 15.9313 29.8179 15.9346C29.817 15.9313 29.8162 15.9281 29.8154 15.9248Z" fill="black"/>
<path d="M29.8008 15.8687C29.8008 15.8687 29.8026 15.8777 29.8044 15.8822C29.8035 15.8777 29.8017 15.8732 29.8008 15.8687Z" fill="black"/>
<path d="M32.6757 15.8017C32.6783 15.8086 32.68 15.8156 32.6817 15.8226C32.6834 15.8296 32.686 15.8375 32.6869 15.8445C32.6886 15.8515 32.6895 15.8576 32.6912 15.8646C32.6912 15.8646 32.6912 15.8655 32.6912 15.8663C32.6869 15.8436 32.6817 15.8218 32.6748 15.8008L32.6757 15.8017Z" fill="black"/>
<path d="M29.7959 15.8486C29.7975 15.8535 29.7983 15.8592 29.7999 15.865C29.7983 15.8592 29.7975 15.8543 29.7959 15.8486Z" fill="black"/>
<path d="M29.7881 15.813C29.789 15.8183 29.7898 15.8227 29.7916 15.828C29.7907 15.8227 29.7898 15.8183 29.7881 15.813Z" fill="black"/>
<path d="M29.7812 15.7764C29.7829 15.7875 29.7855 15.7996 29.788 15.8107C29.7855 15.7996 29.7838 15.7875 29.7812 15.7764Z" fill="black"/>
<path d="M29.757 15.4756C29.757 15.4687 29.757 15.4608 29.757 15.4538C29.757 15.4538 29.757 15.452 29.757 15.4512C29.7527 15.5596 29.7605 15.668 29.7803 15.7737C29.763 15.6758 29.7544 15.5762 29.757 15.4756Z" fill="black"/>
<path d="M29.7587 15.4318C29.7587 15.4196 29.7604 15.4065 29.7613 15.3934C29.7613 15.382 29.763 15.3698 29.7638 15.3584C29.7613 15.3837 29.7595 15.4091 29.7578 15.4344C29.7578 15.4336 29.7578 15.4327 29.7578 15.4318H29.7587Z" fill="black"/>
<path d="M29.7655 15.3481C29.7655 15.3481 29.7655 15.3547 29.7646 15.3579C29.7646 15.3547 29.7646 15.3514 29.7655 15.3481Z" fill="black"/>
<path d="M29.7761 15.2729C29.7761 15.2729 29.7753 15.2788 29.7744 15.2813C29.7744 15.2788 29.7753 15.2755 29.7761 15.2729Z" fill="black"/>
<path d="M29.778 15.2539C29.778 15.2539 29.7789 15.2467 29.7798 15.2432C29.778 15.253 29.7762 15.2619 29.7744 15.2717C29.7753 15.2655 29.7762 15.2601 29.778 15.2539Z" fill="black"/>
<path d="M29.7829 15.2303C29.7846 15.2217 29.7863 15.214 29.788 15.2054C29.788 15.2028 29.7889 15.1994 29.7897 15.1968C29.7863 15.2105 29.7838 15.2251 29.7812 15.2389C29.7812 15.2363 29.7821 15.2328 29.7829 15.2303Z" fill="black"/>
<path d="M29.7927 15.1851C29.7945 15.1764 29.797 15.1677 29.7988 15.1589C29.8039 15.1379 29.81 15.117 29.816 15.096C29.816 15.096 29.816 15.0951 29.816 15.0942C29.8065 15.1257 29.7979 15.1581 29.791 15.1895C29.791 15.1878 29.791 15.186 29.7927 15.1843V15.1851Z" fill="black"/>
<path d="M29.8258 15.0647C29.8292 15.0544 29.8326 15.0441 29.8359 15.0346C29.8376 15.0295 29.8393 15.0243 29.841 15.02C29.8351 15.0372 29.8292 15.0544 29.8232 15.0715C29.8232 15.0698 29.8249 15.0673 29.8249 15.0655L29.8258 15.0647Z" fill="black"/>
<path d="M29.8592 14.973C29.867 14.952 29.8764 14.9319 29.8851 14.9118C29.8859 14.9092 29.8877 14.9074 29.8885 14.9048C29.8747 14.9345 29.8618 14.9642 29.8506 14.9939C29.8532 14.987 29.8558 14.98 29.8592 14.973Z" fill="black"/>
<path d="M29.8998 14.8828C29.8971 14.8873 29.8953 14.8918 29.8926 14.8963C29.8944 14.8918 29.8971 14.8873 29.8998 14.8828Z" fill="black"/>
<path d="M29.9056 14.8726C29.9056 14.8726 29.903 14.8784 29.9014 14.8809C29.903 14.8784 29.9039 14.8751 29.9056 14.8726Z" fill="black"/>
<path d="M29.9114 14.8604C29.9114 14.8604 29.9089 14.8662 29.9072 14.8687C29.9089 14.8662 29.9097 14.8629 29.9114 14.8604Z" fill="black"/>
<path d="M29.9656 14.7622C29.9906 14.7211 30.0182 14.68 30.0483 14.6398C30.0535 14.6328 30.0596 14.625 30.0656 14.618C30.0656 14.618 30.0665 14.6171 30.0673 14.6162C30.0294 14.6652 29.9949 14.715 29.9639 14.7657C29.9639 14.7648 29.9647 14.7639 29.9656 14.7622Z" fill="black"/>
<path d="M34.8922 17.9775C35.1531 17.953 35.4286 17.8473 35.6618 17.6855C35.4278 17.8473 35.1522 17.953 34.8913 17.9775C34.7972 17.988 34.7074 17.9932 34.6201 17.995C34.7074 17.9932 34.7972 17.9871 34.8913 17.9775H34.8922Z" fill="black"/>
<path d="M35.6903 17.666C35.6903 17.666 35.6822 17.6723 35.6777 17.675C35.6822 17.6723 35.6858 17.6696 35.6903 17.666Z" fill="black"/>
<path d="M35.7044 17.6558C35.7044 17.6558 35.6977 17.6608 35.6943 17.6633C35.6977 17.6608 35.7011 17.6583 35.7044 17.6558Z" fill="black"/>
<path d="M35.7184 17.645C35.7184 17.645 35.7125 17.6492 35.71 17.6509C35.7125 17.6492 35.7158 17.6467 35.7184 17.645Z" fill="black"/>
<path d="M36.241 16.6826C36.2522 16.9457 36.1496 17.1905 35.9824 17.395C35.9703 17.4099 35.9582 17.4239 35.9453 17.4379C36.135 17.2254 36.2531 16.965 36.241 16.6826Z" fill="black"/>
<path d="M33.9935 17.0629C33.8414 16.9999 33.7482 16.8881 33.7041 16.7578C33.7482 16.8889 33.8406 16.9999 33.9935 17.0629Z" fill="black"/>
<path d="M33.725 16.2954C33.725 16.2954 33.7225 16.3013 33.7217 16.3038C33.7225 16.3013 33.7242 16.2979 33.725 16.2954Z" fill="black"/>
<path d="M33.7468 16.2422C33.7391 16.2594 33.7315 16.2757 33.7256 16.2929C33.7324 16.2757 33.7391 16.2585 33.7468 16.2422Z" fill="black"/>
<path d="M33.8695 16.0532C33.8203 16.1092 33.779 16.173 33.7471 16.2412C33.779 16.173 33.8195 16.1083 33.8695 16.0532Z" fill="black"/>
<path d="M32.9241 16.1671C32.9276 16.1531 32.931 16.14 32.9345 16.126C32.9293 16.1461 32.9241 16.1662 32.9189 16.1863C32.9207 16.1802 32.9224 16.1732 32.9233 16.1671H32.9241Z" fill="black"/>
<path d="M32.9704 16.0129C32.973 16.0052 32.9764 15.9975 32.9789 15.9897C32.9755 15.9992 32.9721 16.0086 32.9688 16.0181C32.9688 16.0164 32.9696 16.0147 32.9704 16.0129Z" fill="black"/>
<path d="M33.0571 15.8164C33.0512 15.8267 33.0461 15.8379 33.041 15.8482C33.0461 15.8379 33.052 15.8267 33.0571 15.8164Z" fill="black"/>
<path d="M33.0686 15.7944C33.0686 15.7944 33.0653 15.7994 33.0645 15.8028C33.0661 15.8003 33.0678 15.7978 33.0686 15.7944Z" fill="black"/>
<path d="M33.0761 15.7812C33.0761 15.7812 33.0729 15.787 33.0713 15.7902C33.0729 15.787 33.0745 15.7845 33.0761 15.7812Z" fill="black"/>
<path d="M33.083 15.769C33.083 15.769 33.0797 15.7748 33.0781 15.778C33.0797 15.7748 33.0814 15.7723 33.083 15.769Z" fill="black"/>
<path d="M33.1104 15.7227C33.1019 15.7364 33.0934 15.751 33.085 15.7647C33.0934 15.7501 33.1019 15.7364 33.1104 15.7227Z" fill="black"/>
<path d="M30.2861 10.6128C30.2861 10.6128 30.278 10.6191 30.2744 10.6218C30.278 10.6191 30.2825 10.6155 30.2861 10.6128Z" fill="black"/>
<path d="M30.8984 10.0366C30.7144 10.2412 30.514 10.43 30.2998 10.6013C30.514 10.4309 30.7144 10.2412 30.8984 10.0366Z" fill="black"/>
<path d="M28.3016 10.2841C28.1594 9.88897 28.0266 9.47026 27.9551 9.0498C28.0266 9.47026 28.1594 9.88897 28.3016 10.2849V10.2841Z" fill="black"/>
<path d="M31.8791 10.0707C32.1788 9.59429 32.3611 9.05496 32.3447 8.46667C32.3395 6.85915 30.7665 5.50601 29.1996 5.73852C30.7674 5.50688 32.3404 6.85915 32.3447 8.46667C32.3611 9.05496 32.1797 9.59429 31.8791 10.0707Z" fill="black"/>
<path d="M30.9262 10.0054C30.9177 10.015 30.9099 10.0246 30.9014 10.0333C30.9099 10.0237 30.9185 10.0141 30.9262 10.0054Z" fill="black"/>
<path d="M30.9483 9.98096C30.9483 9.98096 30.9411 9.98907 30.9375 9.99358C30.9411 9.98907 30.9447 9.98547 30.9483 9.98096Z" fill="black"/>
<path d="M27.9482 9.00684C27.9482 9.00684 27.95 9.01585 27.95 9.02036C27.95 9.01585 27.9482 9.01134 27.9482 9.00684Z" fill="black"/>
<path d="M27.9434 8.98145C27.9443 8.98858 27.9451 8.99571 27.9469 9.00284C27.946 8.99571 27.9443 8.98858 27.9434 8.98145Z" fill="black"/>
<path d="M27.9404 8.95703C27.9404 8.96193 27.942 8.96683 27.9428 8.97173C27.9428 8.96683 27.9412 8.96193 27.9404 8.95703Z" fill="black"/>
<path d="M27.9375 8.93799C27.9375 8.93799 27.9383 8.94383 27.9392 8.94633C27.9392 8.943 27.9383 8.94049 27.9375 8.93799Z" fill="black"/>
<path d="M28.8071 6.68799C28.5705 6.8025 28.3623 6.98169 28.2051 7.23257C28.3623 6.98082 28.5705 6.8025 28.8071 6.68799Z" fill="black"/>
<path d="M30.0748 10.5352C30.0748 10.5352 30.0689 10.5393 30.0664 10.5418C30.0689 10.5393 30.0714 10.5377 30.0748 10.5352Z" fill="black"/>
<path d="M31.0079 9.48535C30.7781 9.89007 30.4499 10.2345 30.0811 10.5299C30.4499 10.2345 30.7781 9.89095 31.0079 9.48535Z" fill="black"/>
<path d="M28.2568 9.94775C28.2568 9.95226 28.2577 9.95677 28.2586 9.96128C28.2586 9.95677 28.2577 9.95226 28.2568 9.94775Z" fill="black"/>
<path d="M28.2529 9.91064C28.2529 9.91689 28.2547 9.92402 28.2556 9.93026C28.2556 9.92402 28.2538 9.91689 28.2529 9.91064Z" fill="black"/>
<path d="M28.249 9.87158C28.2499 9.8805 28.2508 9.88941 28.2517 9.89744C28.2508 9.88852 28.2499 9.87961 28.249 9.87158Z" fill="black"/>
<path d="M31.0175 9.46875C31.0149 9.47404 31.0123 9.47845 31.0088 9.48374C31.0114 9.47845 31.014 9.47404 31.0175 9.46875Z" fill="black"/>
<path d="M31.0421 9.42139C31.0345 9.43599 31.026 9.45144 31.0176 9.46604C31.026 9.45144 31.0337 9.43599 31.0421 9.42139Z" fill="black"/>
<path d="M31.0521 9.40479C31.0521 9.40479 31.0476 9.4138 31.0449 9.41831C31.0476 9.4138 31.0494 9.40929 31.0521 9.40479Z" fill="black"/>
<path d="M31.061 9.38623C31.061 9.38623 31.0565 9.39435 31.0547 9.39886C31.0565 9.39435 31.0592 9.39074 31.061 9.38623Z" fill="black"/>
<path d="M31.0841 9.33984C31.0841 9.33984 31.0808 9.34652 31.0791 9.35069C31.0808 9.34736 31.0825 9.34402 31.0841 9.33984Z" fill="black"/>
<path d="M31.0927 9.32178C31.0927 9.32178 31.0895 9.32831 31.0879 9.33157C31.0895 9.32831 31.0911 9.32504 31.0927 9.32178Z" fill="black"/>
<path d="M31.1027 9.30225C31.1027 9.30225 31.0994 9.30796 31.0986 9.31122C31.1002 9.30796 31.1019 9.30551 31.1027 9.30225Z" fill="black"/>
<path d="M31.1137 9.27783C31.1137 9.27783 31.1092 9.28685 31.1074 9.29136C31.1092 9.28685 31.1119 9.28234 31.1137 9.27783Z" fill="black"/>
<path d="M31.1233 9.25635C31.1233 9.25635 31.1208 9.26219 31.1191 9.26469C31.1208 9.26219 31.1217 9.25885 31.1233 9.25635Z" fill="black"/>
<path d="M31.1329 9.23584C31.1329 9.23584 31.1305 9.24155 31.1289 9.24482C31.1305 9.24155 31.1313 9.2391 31.1329 9.23584Z" fill="black"/>
<path d="M31.2651 7.51943C31.2651 7.51943 31.2651 7.51943 31.2651 7.51855C31.4548 7.96611 31.3737 8.48971 31.2393 8.94688C31.3737 8.49058 31.4548 7.96698 31.266 7.51943H31.2651Z" fill="black"/>
<path d="M29.7454 7.53563C29.9302 7.49105 30.1531 7.51902 30.3215 7.61867C30.2049 7.54961 30.0615 7.51465 29.9233 7.51465C29.862 7.51465 29.8015 7.52164 29.7445 7.53563C29.5199 7.59769 29.3584 7.77951 29.2461 7.97968C29.3593 7.77863 29.5199 7.59769 29.7454 7.53563Z" fill="black"/>
<path d="M29.9351 6.70785C30.1985 6.70785 30.4629 6.77341 30.6918 6.90016C30.6909 6.89928 30.6892 6.89841 30.6883 6.89753C30.2305 6.64579 29.6354 6.63967 29.1836 6.90628C29.4099 6.77253 29.6725 6.70785 29.9351 6.70785Z" fill="black"/>
<path d="M35.6601 12.6187C35.5411 12.7288 35.4127 12.8276 35.2773 12.9159C35.4127 12.8276 35.5403 12.7288 35.6592 12.6187H35.6601Z" fill="black"/>
<path d="M35.6836 12.5972C35.6767 12.6041 35.669 12.6111 35.6621 12.6172C35.669 12.6102 35.6767 12.6033 35.6836 12.5972Z" fill="black"/>
<path d="M35.6948 12.5864C35.6948 12.5864 35.6889 12.5923 35.6855 12.5948C35.6889 12.5923 35.6914 12.5889 35.6948 12.5864Z" fill="black"/>
<path d="M35.712 12.5688C35.712 12.5688 35.7064 12.5746 35.7031 12.5778C35.7064 12.5746 35.7088 12.5721 35.712 12.5688Z" fill="black"/>
<path d="M35.4043 10.71C35.4043 10.71 35.4085 10.7158 35.4102 10.7183C35.4085 10.7158 35.406 10.7125 35.4043 10.71Z" fill="black"/>
<path d="M34.2078 10.2061C34.1448 10.2061 34.0826 10.2087 34.0195 10.2139C34.5335 10.172 35.0578 10.2943 35.4051 10.7087C35.1001 10.345 34.6587 10.2061 34.2078 10.2061Z" fill="black"/>
<path d="M34.6493 12.3524C34.7898 12.1461 34.8838 11.9197 34.9105 11.6758C34.8829 11.9197 34.789 12.1469 34.6484 12.3532L34.6493 12.3524Z" fill="black"/>
<path d="M31.6049 11.8262C31.6049 11.8262 31.5991 11.8287 31.5957 11.8295C31.5991 11.8287 31.6016 11.827 31.6049 11.8262Z" fill="black"/>
<path d="M32.5086 11.5264C32.2072 11.6077 31.9109 11.7099 31.6172 11.8218C31.91 11.7108 32.2063 11.6077 32.5086 11.5264Z" fill="black"/>
<path d="M33.8145 10.5552C34.3725 10.6199 34.9339 11.0665 34.9106 11.6749C34.9339 11.0657 34.3725 10.6199 33.8145 10.5552Z" fill="black"/>
<path d="M32.6338 11.4937C32.628 11.4953 32.6222 11.4962 32.6172 11.4978C32.623 11.4962 32.6288 11.4953 32.6338 11.4937Z" fill="black"/>
<path d="M32.6894 11.481C32.6894 11.481 32.6813 11.4828 32.6777 11.4837C32.6813 11.4828 32.6858 11.4819 32.6894 11.481Z" fill="black"/>
<path d="M32.8932 11.436C32.8932 11.436 32.8873 11.4369 32.8848 11.4377C32.8873 11.4377 32.8906 11.4369 32.8932 11.436Z" fill="black"/>
<path d="M32.9225 11.4312C32.9225 11.4312 32.9166 11.432 32.9141 11.4328C32.9166 11.4328 32.9199 11.432 32.9225 11.4312Z" fill="black"/>
<path d="M32.9975 11.417C32.9975 11.417 32.9916 11.4178 32.9883 11.4187C32.9908 11.4187 32.9942 11.4178 32.9975 11.417Z" fill="black"/>
<path d="M33.0279 11.4116C33.0238 11.4116 33.0196 11.4133 33.0146 11.4141C33.0188 11.4141 33.0229 11.4125 33.0279 11.4116Z" fill="black"/>
<path d="M33.1024 11.3994C33.093 11.4012 33.0827 11.402 33.0732 11.4038C33.0827 11.402 33.093 11.4003 33.1024 11.3994Z" fill="black"/>
<path d="M33.8096 11.3818C33.8154 11.3827 33.8203 11.3835 33.8261 11.3852C33.8212 11.3843 33.8154 11.3827 33.8096 11.3818Z" fill="black"/>
<path d="M33.5617 11.3618C33.5341 11.3618 33.5048 11.3618 33.4746 11.3636C33.61 11.3583 33.7203 11.3653 33.8082 11.381C33.7401 11.3679 33.6582 11.3618 33.5617 11.3618Z" fill="black"/>
<path d="M32.8506 10.6206C32.8448 10.6214 32.839 10.6223 32.834 10.6231C32.8398 10.6223 32.8456 10.6214 32.8506 10.6206Z" fill="black"/>
<path d="M32.9044 10.6118C32.8994 10.6118 32.8936 10.6135 32.8887 10.6143C32.8936 10.6135 32.8994 10.6127 32.9044 10.6118Z" fill="black"/>
<path d="M32.9588 10.603C32.9426 10.6056 32.9264 10.6082 32.9111 10.6108C32.9273 10.6082 32.9435 10.6056 32.9588 10.603Z" fill="black"/>
<path d="M33.0061 10.5962C33.0012 10.5962 32.9962 10.5979 32.9912 10.5987C32.9962 10.5987 33.0012 10.597 33.0061 10.5962Z" fill="black"/>
<path d="M33.0318 10.5928C33.0318 10.5928 33.026 10.5928 33.0234 10.5936C33.026 10.5936 33.0293 10.5936 33.0318 10.5928Z" fill="black"/>
<path d="M33.0553 10.5898C33.0553 10.5898 33.0494 10.5898 33.0469 10.5907C33.0494 10.5907 33.0528 10.5907 33.0553 10.5898Z" fill="black"/>
<path d="M5.28616 34.9994C6.94723 33.5868 9.14299 33.1541 11.1556 32.4871C12.9169 31.9259 14.6574 31.3097 16.4213 30.7581C20.4733 29.5317 24.5478 27.9443 28.6448 26.8018C33.5831 25.5055 38.4627 24.0072 43.331 22.4688C47.9479 21.1366 52.7247 20.0903 57.5507 20.2782C58.0102 20.307 58.468 20.3577 58.9241 20.4242C59.2541 20.5632 59.5547 20.7275 59.813 20.9242C59.8778 20.4609 59.8916 19.9749 59.7551 19.5011C58.9284 19.3193 58.0914 19.1873 57.2518 19.0772C55.9276 18.9041 54.5922 18.7904 53.2559 18.8079C51.9542 18.8245 50.6559 18.9364 49.3646 19.1016C46.9226 19.4146 44.4971 19.9128 42.1113 20.5221C39.7644 21.1217 37.4676 21.8945 35.1664 22.6462C32.8653 23.398 30.5477 24.0981 28.244 24.8446C25.8409 25.6226 23.4612 26.4714 21.0668 27.2765C18.6361 28.0938 16.1812 28.8333 13.7608 29.682C11.4225 30.502 9.1093 31.3962 6.85999 32.4425C6.23806 32.7319 5.62131 33.03 5.02184 33.3656C4.58044 33.613 4.16323 33.8988 3.77539 34.224C3.80476 35.03 4.03194 35.8455 4.40596 36.5614C4.42323 36.6051 4.44224 36.6497 4.4621 36.6925C4.52862 36.0509 4.81712 35.4294 5.28702 34.9994H5.28616Z" fill="#BEBFC1"/>
<path d="M37.0266 15.7307C36.2647 15.7875 35.4865 16.1258 34.7263 15.971C35.0632 15.4675 36.8538 15.1948 37.4723 15.138C37.8299 15.1161 38.1919 15.1048 38.5495 15.1389C38.8198 15.2175 39.0911 15.2945 39.3424 15.4247C39.6568 15.6039 39.9609 15.8006 40.2589 16.0051C39.605 15.7849 38.9105 15.7342 38.2264 15.6861C37.8265 15.6642 37.4239 15.6826 37.0257 15.7307H37.0266ZM33.9938 17.0628C33.5421 16.8758 33.612 16.263 33.9385 15.9859C33.9437 16.3303 34.1355 16.659 34.5156 16.7534C34.811 16.8259 35.1073 16.8347 35.4044 16.8111C35.1427 17.2674 34.424 17.263 33.9938 17.0628ZM32.4191 10.7114C32.7465 10.5637 33.0799 10.4326 33.4272 10.3329C34.0923 10.1196 34.9207 10.131 35.4053 10.7088C35.8493 11.3758 35.2792 12.0078 34.6494 12.3513C34.7902 12.145 34.8844 11.9186 34.912 11.6738C34.9345 11.0646 34.3739 10.6188 33.8159 10.5541C33.3425 10.5331 32.8769 10.5969 32.42 10.7114H32.4191ZM34.9984 14.4107C33.5801 14.7945 31.0466 15.4842 31.7419 14.7744C32.4865 14.2726 33.4125 14.0182 34.3048 13.992C34.3195 13.992 34.3342 13.9911 34.348 13.9894C34.5492 14.1354 34.7281 14.2953 34.9984 14.4107ZM31.5674 12.0646C31.5277 12.0025 31.4871 11.9422 31.4465 11.8863C31.9847 11.6756 32.5323 11.485 33.1033 11.3985C34.4318 11.2088 34.2262 11.7787 33.6466 12.242C33.4263 12.2175 33.187 12.2114 32.9184 12.2237C32.4839 12.1861 31.9311 12.3574 31.5666 12.0654L31.5674 12.0646ZM30.7494 16.0279C30.4601 15.7149 30.5179 15.2254 30.7978 15.006C30.7874 15.3041 30.9118 15.5908 31.2219 15.7499C31.4431 15.8548 31.678 15.8889 31.9181 15.8871C31.9121 15.9177 31.9069 15.9474 31.8983 15.978C31.6167 16.3172 31.0595 16.3373 30.7494 16.0279ZM28.4483 13.9404C29.1385 13.5786 29.9392 13.346 30.6846 13.1616C30.8781 13.3364 31.1096 13.4492 31.3584 13.5217C30.384 13.6179 29.427 13.9326 28.4483 13.9404ZM29.9737 10.8382C29.8977 10.8163 29.8209 10.7971 29.7423 10.7805C30.4056 10.3224 31.0042 9.73066 31.2375 8.94657C31.3722 8.4894 31.4534 7.9658 31.2634 7.51824C31.7402 8.28311 31.5795 9.30234 30.9697 9.95531C30.6786 10.2927 30.3434 10.5934 29.9729 10.839L29.9737 10.8382ZM29.1013 10.2473C28.9994 9.5366 28.9052 8.77262 29.1886 8.09255C29.3017 7.85041 29.4788 7.60915 29.7448 7.53573C30.0843 7.45443 30.5525 7.61702 30.5749 8.01825C30.638 9.01562 29.8692 9.75426 29.1005 10.2481L29.1013 10.2473ZM28.3023 10.284C27.9473 9.30146 27.6545 8.17646 28.2056 7.23153C28.7489 6.36003 29.915 6.35915 30.6916 6.89936C30.15 6.59954 29.4166 6.64324 28.9527 7.07681C28.3999 7.56195 28.2159 8.34517 28.2064 9.05845C28.1995 9.47017 28.2427 9.87751 28.3023 10.2831V10.284ZM27.5275 15.0165C26.9781 14.8696 27.0705 14.2499 27.4973 14.0462C27.5353 14.4413 27.9637 14.7543 28.3999 14.7473C28.5304 14.756 28.6616 14.7551 28.7921 14.7473C28.4949 15.0952 27.949 15.1371 27.5275 15.0174V15.0165ZM26.9246 13.11C26.2689 13.145 25.5891 13.1721 24.9534 12.9798C26.4227 12.5252 27.9628 12.4404 29.4874 12.3513C29.6377 12.3452 29.7889 12.339 29.9401 12.3356C29.9971 12.3766 30.0515 12.423 30.1025 12.4719C29.6654 12.5838 29.1825 12.7324 28.7549 12.9064C28.7178 12.9002 28.6789 12.8994 28.6401 12.9046C28.07 12.9859 27.499 13.0646 26.9246 13.1092V13.11ZM24.4515 13.6284C24.0093 13.4675 23.9143 13.2053 24.017 12.9789C24.0127 13.1467 24.0689 13.3137 24.1924 13.4378C24.2736 13.5121 24.36 13.5751 24.4515 13.6275V13.6284ZM23.1982 12.8653C22.9399 14.0786 24.4412 14.7376 25.4285 14.4457C25.9096 14.3469 26.1247 14.1371 26.1722 13.9378C26.2197 13.9387 26.2664 13.9404 26.313 13.9422C26.3769 13.9422 26.4417 13.9413 26.5056 13.9396C26.4262 14.0829 26.3717 14.242 26.3484 14.4116C26.1921 15.6223 27.6631 16.131 28.615 15.7857C29.0495 15.6625 29.395 15.3513 29.6118 14.9562C29.6757 14.86 29.7198 14.7359 29.7353 14.6118C29.8692 14.5864 30.004 14.5611 30.1379 14.5349C29.1791 15.5978 30.1664 17.3364 31.6314 17.0296C32.0097 16.9474 32.3708 16.7193 32.5858 16.3915C32.6947 16.2245 32.7362 15.985 32.6765 15.8015C32.7396 15.7901 32.8027 15.7787 32.8649 15.7682C32.9478 15.7543 33.0298 15.7403 33.1128 15.7237C32.5383 16.6459 32.9987 18.1817 34.8939 17.978C35.5392 17.9177 36.2725 17.3627 36.2431 16.6826C36.637 16.6057 37.0318 16.5217 37.4239 16.5034C38.3067 16.464 39.2172 16.5244 40.0637 16.7927C40.2036 16.8216 40.3418 16.8889 40.4792 16.9571C37.8835 17.5873 35.2774 18.1782 32.7051 18.895C32.6653 18.8023 32.5936 18.7254 32.496 18.6913C31.0207 18.173 29.5825 17.5576 28.1416 16.9492C25.698 15.9265 23.2897 14.8067 20.8936 13.6782C22.5356 12.4431 24.4533 11.0165 26.0634 11.3836C26.4443 11.464 26.8097 11.5987 27.1785 11.7219C26.6672 11.7752 26.1359 11.846 25.6557 11.9492C25.5719 11.8766 25.4544 11.8181 25.2989 11.7883C24.4714 11.5681 23.4418 11.992 23.1999 12.8661L23.1982 12.8653ZM8.02223 21.9745C7.94881 21.937 7.87625 21.895 7.80714 21.8495C8.22004 20.6931 8.61047 19.3723 9.83619 18.8592C11.3919 18.1459 13.1575 18.0532 14.7175 17.3259C16.2991 16.6887 17.7943 15.8513 19.1971 14.8775C19.4968 14.6974 19.8199 14.4719 20.1611 14.2228C21.4568 14.8749 22.8034 15.4361 24.1147 16.0576C24.2943 16.1424 24.4749 16.2263 24.6554 16.3093C21.411 16.3233 18.9302 17.4833 16.1082 19.1258C14.5395 20.0567 13.0132 21.0934 11.3107 21.7586C10.2741 22.1266 9.07433 22.4562 8.02223 21.9754V21.9745ZM11.5318 26.1144C11.0412 24.2752 9.13997 23.1712 7.31046 23.2062C7.38216 23.013 7.45385 22.8189 7.52468 22.6249C8.4403 23.1406 9.6237 23.0908 10.6248 22.8216C14.6466 21.6258 17.7926 18.3574 21.9172 17.416C23.4668 17.0786 25.0925 17.1048 26.6516 17.1939C27.2899 17.4684 27.93 17.7385 28.571 18.0051C29.5643 18.4256 30.5611 18.8452 31.5744 19.2158C30.8635 19.4256 30.156 19.6476 29.452 19.8845C25.3689 21.1537 21.3885 22.7114 17.3823 24.2001C15.4448 24.9055 13.5298 25.6712 11.6035 26.4072C11.5759 26.2971 11.5491 26.1966 11.5318 26.1135V26.1144ZM5.10002 29.3303C5.18036 29.0471 5.26328 28.7647 5.35398 28.485C5.6183 27.6948 5.91458 26.9168 6.2074 26.1371C6.47172 25.4378 6.73691 24.7394 6.9995 24.0401C8.54741 23.8828 10.2646 24.6878 10.738 26.2481C10.8105 26.3679 10.8365 26.527 10.8511 26.6939C8.90502 27.4641 6.85006 28.1546 5.10002 29.3312V29.3303ZM4.4064 36.5611C3.47869 34.7831 3.45364 32.3985 5.11125 31.0515C8.39193 28.6494 12.488 27.7464 16.173 26.1476C22.2057 23.9186 28.1831 21.5261 34.4024 19.8836C40.1276 18.7595 55.0081 13.4439 59.1327 18.4492C59.8842 19.214 59.9283 20.1039 59.8134 20.9221C59.5551 20.7254 59.2545 20.5611 58.9246 20.4221C58.4685 20.3565 58.0107 20.305 57.5511 20.2761C52.7251 20.0882 47.9484 21.1345 43.3314 22.4667C38.4631 24.0051 33.5844 25.5034 28.6452 26.7997C24.5483 27.9422 20.4738 29.5305 16.4217 30.756C14.6579 31.3085 12.9173 31.9247 11.1561 32.485C9.14343 33.152 6.94767 33.5847 5.2866 34.9973C4.8167 35.4273 4.52819 36.0488 4.46168 36.6904C4.44268 36.6476 4.42367 36.6039 4.40553 36.5593L4.4064 36.5611ZM3.56766 30.6275C1.53257 33.0366 2.30739 36.9999 4.55411 39.0567C13.1937 44.0287 23.2198 33.8696 32.629 34.3189C40.7806 34.7857 61.3553 29.978 61.2482 20.2656C61.2568 19.0488 60.6366 17.9142 59.7702 17.1013C55.8339 13.3356 48.0736 15.346 43.1094 16.3207C42.9418 16.1022 42.6525 15.9833 42.4374 15.8207C41.6185 15.3023 40.8731 14.6633 40.0222 14.2001C39.5109 13.9116 38.9218 13.8294 38.394 13.5943C37.6269 12.8154 36.5541 12.9221 35.5893 13.1502C35.4813 13.0663 35.3785 12.9885 35.2774 12.916C35.5772 12.7219 35.8415 12.4745 36.0497 12.1633C36.9368 10.8793 35.832 9.48241 34.449 9.40286C33.5403 9.3679 32.6947 9.67908 31.8784 10.0707C32.179 9.59429 32.3604 9.05496 32.344 8.46667C32.3397 6.85915 30.7667 5.50601 29.1989 5.73852C27.9274 5.86877 27.0783 7.11964 27.1025 8.35915C27.1016 9.03223 27.2554 9.69569 27.4679 10.3312C25.1529 9.39762 23.4046 10.1852 21.4455 11.5698C18.9302 13.3443 16.4882 15.263 13.56 16.2717C12.1961 16.7988 10.7034 16.9081 9.3732 17.5235C8.25459 18.0165 7.37784 18.9606 6.97272 20.1266C6.53737 21.2516 6.14003 22.3906 5.71331 23.5191C5.11903 25.1214 4.47291 26.7062 3.94773 28.3329C3.81211 28.9195 3.2757 30.0856 3.56593 30.6293L3.56766 30.6275Z" fill="#1B1B1B"/>
<path d="M24.4508 13.6285C24.0094 13.4676 23.9146 13.2054 24.0172 12.979C24.0129 13.1468 24.0689 13.3138 24.1922 13.4379C24.2732 13.5122 24.3594 13.5752 24.4508 13.6276V13.6285Z" fill="white"/>
<path d="M26.9243 13.1099C26.2687 13.1449 25.5889 13.172 24.9531 12.9797C26.4224 12.5251 27.9626 12.4403 29.4872 12.3512C29.6375 12.3451 29.7886 12.3389 29.9398 12.3354C29.9968 12.3765 30.0512 12.4229 30.1022 12.4718C29.6651 12.5837 29.1822 12.7323 28.7547 12.9063C28.7175 12.9001 28.6787 12.8993 28.6398 12.9045C28.0697 12.9858 27.4987 13.0645 26.9243 13.1091V13.1099Z" fill="white"/>
<path d="M27.527 15.0167C26.9777 14.8698 27.0701 14.2501 27.4968 14.0464C27.5348 14.4415 27.9632 14.7544 28.3995 14.7474C28.5299 14.7562 28.6612 14.7553 28.7916 14.7474C28.4953 15.0953 27.9486 15.1373 27.527 15.0175V15.0167Z" fill="white"/>
<path d="M28.3024 10.2851C27.9474 9.30263 27.6546 8.17763 28.2057 7.2327C28.749 6.36119 29.9151 6.36032 30.6917 6.90053C30.1501 6.6007 29.4167 6.64441 28.9529 7.07798C28.4 7.56312 28.216 8.34633 28.2065 9.05962C28.1996 9.47133 28.2428 9.87868 28.3024 10.2843V10.2851Z" fill="white"/>
<path d="M29.9737 10.839C29.8977 10.8171 29.8208 10.7979 29.7422 10.7813C30.4047 10.3232 31.0042 9.73146 31.2374 8.94736C31.3722 8.4902 31.4534 7.9666 31.2633 7.51904C31.7401 8.2839 31.5795 9.30313 30.9696 9.95611C30.6785 10.2935 30.3434 10.5942 29.9728 10.8398L29.9737 10.839Z" fill="white"/>
<path d="M28.4492 13.9414C29.1394 13.5796 29.9401 13.347 30.6856 13.1626C30.8791 13.3374 31.1106 13.4502 31.3593 13.5227C30.385 13.6189 29.4279 13.9336 28.4492 13.9414Z" fill="white"/>
<path d="M30.7497 16.0287C30.4603 15.7158 30.5182 15.2262 30.7981 15.0068C30.7877 15.3049 30.9121 15.5916 31.2222 15.7507C31.4433 15.8556 31.6783 15.8897 31.9184 15.888C31.9124 15.9185 31.9072 15.9483 31.8986 15.9789C31.617 16.318 31.0598 16.3381 30.7497 16.0287Z" fill="white"/>
<path d="M34.998 14.4116C33.5796 14.7953 31.0461 15.485 31.7415 14.7752C32.4861 14.2743 33.412 14.0191 34.3043 13.9929C34.319 13.9929 34.3337 13.992 34.3475 13.9902C34.5488 14.1362 34.7276 14.2962 34.998 14.4116Z" fill="white"/>
<path d="M32.4189 10.7122C32.7463 10.5645 33.0797 10.4334 33.427 10.3337C34.0921 10.1204 34.9205 10.1318 35.4051 10.7096C35.8491 11.3765 35.279 12.0085 34.6493 12.3521C34.7901 12.1458 34.8842 11.9194 34.9118 11.6746C34.9343 11.0654 34.3737 10.6196 33.8157 10.5549C33.3423 10.5339 32.8768 10.5977 32.4198 10.7122H32.4189Z" fill="white"/>
<path d="M33.9933 17.0628C33.5416 16.8757 33.6116 16.2629 33.9381 15.9858C33.9432 16.3302 34.135 16.6589 34.5151 16.7533C34.8105 16.8259 35.1068 16.8346 35.4039 16.811C35.1422 17.2673 34.4235 17.2629 33.9933 17.0628Z" fill="white"/>
<path d="M37.0268 15.7306C36.265 15.7874 35.4867 16.1257 34.7266 15.971C35.0634 15.4675 36.8541 15.1947 37.4726 15.1379C37.8302 15.1161 38.1921 15.1047 38.5497 15.1388C38.8201 15.2175 39.0913 15.2944 39.3427 15.4246C39.6571 15.6038 39.9611 15.8005 40.2591 16.005C39.6053 15.7848 38.9108 15.7341 38.2266 15.686C37.8267 15.6641 37.4242 15.6825 37.026 15.7306H37.0268Z" fill="white"/>
<path fill-rule="evenodd" clip-rule="evenodd" d="M16.1719 26.1495C22.2047 23.9205 28.1821 21.528 34.4014 19.8855C40.1266 18.7614 55.0071 13.4458 59.1317 18.4511C59.4574 18.7832 59.65 19.1381 59.7545 19.5009C58.9279 19.3191 58.0909 19.1871 57.2513 19.077C55.9271 18.9039 54.5916 18.7902 53.2554 18.8077C51.9536 18.8243 50.6553 18.9362 49.364 19.1014C46.922 19.4144 44.4965 19.9126 42.1107 20.5219C39.7638 21.1215 37.467 21.8943 35.1658 22.646C32.8647 23.3978 30.5472 24.0979 28.2434 24.8444C25.8404 25.6224 23.4606 26.4712 21.0662 27.2763C18.6355 28.0927 16.1806 28.8331 13.7602 29.6818C11.422 30.5018 9.10873 31.396 6.85942 32.4423C6.23749 32.7317 5.62074 33.0298 5.02127 33.3654C4.57987 33.6128 4.16266 33.8986 3.77482 34.2238C3.73077 33.0297 4.12034 31.8558 5.11024 31.0525C5.14911 31.0245 5.18712 30.9965 5.22599 30.9686L5.40825 30.8401C8.6371 28.5953 12.5976 27.6993 16.1719 26.1486V26.1495Z" fill="white"/>
</g>
<defs>
<clipPath id="clip0_437_20462">
<rect width="64" height="56" fill="white"/>
</clipPath>
</defs>
</svg>
